<svg width="128" height="128" viewBox="0 0 128 128" fill="none" xmlns="http://www.w3.org/2000/svg">
<path d="M63.05 113.953C51.1382 113.953 38.8147 112.948 26.4217 110.967C19.5747 109.872 11.5415 108.251 3.87396 104.53C1.81421 103.531 0.440959 101.588 0.199959 99.3325C-0.914291 88.896 2.68796 78.0645 9.51421 70.6827C9.02371 70.465 8.57171 70.172 8.16796 69.8072C7.89571 69.569 7.62171 69.2542 7.38621 68.9007C7.30646 68.7845 7.22846 68.659 7.16471 68.5475C7.14846 68.519 7.13246 68.4905 7.11721 68.4615C6.70446 67.6875 6.49371 66.801 6.50646 65.8962C6.50696 65.8217 6.50971 65.7472 6.51296 65.673V65.699C6.51346 65.5977 6.51846 65.4967 6.52846 65.3962C6.63246 64.3272 7.04396 63.264 7.68696 62.402C8.89321 60.7965 10.6162 60.0325 11.9832 59.545C12.134 59.4895 12.6255 59.3152 12.686 59.2937C14.1262 54.081 19.4247 39.703 34.6352 36.4502C37.887 33.1002 41.5767 30.2422 45.6317 27.9325L45.6422 27.8775C45.9462 26.256 47.3702 25.075 49.0272 25.075C49.2215 25.075 49.4452 25.095 49.6365 25.1295C49.9815 25.1947 50.3055 25.3057 50.6032 25.4582C57.2915 22.5815 64.605 21.1242 72.369 21.1242C75.104 21.1242 77.8895 21.312 80.6472 21.6822C88.243 22.7022 94.7612 25.0097 100.021 28.541C101.484 29.523 102.887 30.628 104.22 31.8447L109.943 23.5395L111.751 20.9282L113.434 18.4777L115.439 15.5747C116.056 14.5985 117.116 14.0475 118.211 14.0475C118.649 14.0475 119.092 14.1352 119.515 14.3187L121.838 15.3267L122.95 15.805C123.83 16.1835 124.5 16.9285 124.785 17.8432C125.069 18.7582 124.939 19.7517 124.429 20.5625C124.429 20.5625 124.341 20.7017 124.326 20.7245L123.394 22.1257L121.738 24.5897L120.004 27.1855L118.366 29.6467L116.541 32.3747L114.903 34.83L111.677 39.649L125.391 42.5115C126.344 42.7105 127.159 43.3225 127.616 44.182C128.073 45.0412 128.124 46.0592 127.756 46.9605L127.161 48.4175L126.189 51.2297C125.725 52.5727 124.464 53.438 123.092 53.438C122.991 53.438 122.889 53.4332 122.786 53.4235L118.528 64.7167C118.675 65.8592 118.814 67.0452 118.953 68.3182C120.107 78.8877 120.725 89.6412 120.792 100.28C120.809 103.176 118.888 105.772 116.119 106.593C99.66 111.477 81.8047 113.953 63.05 113.953Z" fill="white"/>
<path d="M115.42 103.543C116.808 103.131 117.756 101.841 117.747 100.393C117.681 89.8275 117.074 79.2635 115.928 68.7665C114.98 60.0797 113.589 51.2067 109.504 43.6582C106.801 38.6637 102.962 34.3997 98.4269 31.355C93.0209 27.7257 86.7429 25.8697 80.4442 25.024C70.3677 23.6707 59.9187 24.8547 50.6209 29.2412C41.3232 33.6277 33.2489 41.3247 28.7134 51.1767C26.4667 56.0569 24.9814 61.5742 21.3417 65.33C19.5667 67.1615 17.3864 68.4484 15.3999 70.0029C7.11841 76.4829 2.51616 88.0585 3.69266 99.0777C3.81266 100.202 4.52016 101.18 5.53791 101.674C12.3852 104.996 19.7269 106.632 27.1722 107.822C56.3969 112.495 86.9602 111.988 115.42 103.543Z" fill="#FCC07B"/>
<path d="M121.888 18.9087L121.829 19.0015L120.897 20.4027L119.25 22.8537L117.511 25.4572L115.87 27.9225L114.049 30.6447L112.409 33.103L110.588 35.8252L108.941 38.2827L106.715 41.6132L106.568 41.824L105.883 42.8622C105.883 42.8622 104.677 42.5265 103.551 42.2337C102.631 41.9962 101.764 41.792 101.613 41.8195L101.966 41.3117L102.564 40.448L104.039 38.3112L105.736 35.8512L107.613 33.1275L109.31 30.6675L111.188 27.9437L112.877 25.4902L114.679 22.8857L116.369 20.4252L118.41 17.471L118.443 17.418L120.766 18.4257L121.888 18.9087Z" fill="#F9E9CF"/>
<path d="M121.888 18.9087L121.829 19.0015C121.41 19.1155 120.792 19.2452 120.213 19.1887C120.039 19.1717 119.866 19.141 119.703 19.0827C118.859 18.7892 118.525 17.884 118.41 17.4715L118.444 17.4185L120.767 18.4262L121.888 18.9087Z" fill="#380E0E"/>
<path d="M106.716 41.6135L106.568 41.8245L104.048 41.5435L101.966 41.3122L102.564 40.4485L104.455 40.9777L106.716 41.6135Z" fill="#380E0E"/>
<path d="M117.512 25.4572L115.87 27.9224L113.891 27.9337L111.188 27.9444L112.877 25.4909L115.673 25.4679L117.512 25.4572Z" fill="#F7764F"/>
<path d="M114.049 30.6447L112.409 33.1032L110.142 33.1142L107.613 33.1282L109.31 30.6682L111.923 30.6554L114.049 30.6447Z" fill="#F7764F"/>
<path d="M110.588 35.8254L108.941 38.2829L106.399 38.2954L104.039 38.3119L105.736 35.8519L108.173 35.8362L110.588 35.8254Z" fill="#F7764F"/>
<path d="M120.897 20.403L119.251 22.8537L117.553 22.864L114.68 22.8865L116.369 20.426L119.327 20.4115L120.897 20.403Z" fill="#F7764F"/>
<path opacity="0.1" d="M121.888 18.9088L121.829 19.0015L120.897 20.4028L119.25 22.8538L117.511 25.4573L115.87 27.9225L114.049 30.6448L112.409 33.103L110.588 35.8253L108.941 38.2828L106.715 41.6133L106.568 41.824L105.883 42.8623C105.883 42.8623 104.677 42.5265 103.551 42.2338C103.714 42.0033 103.884 41.7735 104.048 41.5433C104.186 41.3525 104.323 41.169 104.455 40.9775C105.105 40.0838 105.748 39.1893 106.398 38.2953C106.992 37.4803 107.579 36.6578 108.173 35.836C108.831 34.929 109.49 34.0218 110.141 33.114C110.735 32.299 111.329 31.4773 111.923 30.6553C112.574 29.7475 113.233 28.8403 113.891 27.9333C114.485 27.1115 115.079 26.2895 115.673 25.4675C116.3 24.5995 116.927 23.7315 117.553 22.8635C118.146 22.0488 118.74 21.2268 119.327 20.411C119.62 20.0033 119.92 19.596 120.213 19.1883C120.393 18.9313 120.579 18.682 120.766 18.4258L121.888 18.9088Z" fill="#380E0E"/>
<path d="M121.316 48.7385L120.993 49.594L120.936 49.7433L119.872 52.5745L106.95 86.8448L104.635 92.9818L99.6683 106.159L99.66 106.173L99.5428 106.147L98.1515 105.835L71.6445 99.8438L71.6513 99.774L72.4393 85.1263L72.8018 78.306L74.866 39.887L74.87 39.775L121.316 48.7385Z" fill="#F7764F"/>
<path opacity="0.25" d="M71.6445 99.8437L71.6513 99.774L72.4393 85.1262L72.8015 78.306L74.866 39.887C75.2758 41.5317 75.5605 43.1572 75.7968 43.9827C76.9033 47.793 77.9735 51.6137 79.0585 55.4287C81.222 63.0512 83.4288 70.664 86.0348 78.1537C87.4515 82.2475 88.9915 86.304 90.7 90.2925C92.857 95.3102 95.2775 100.227 97.773 105.094C97.897 105.339 98.0273 105.591 98.1513 105.835L71.6445 99.8437Z" fill="#F91B0B"/>
<path d="M99.7463 106.208L71.6113 99.8698L71.6506 99.7743C74.3898 99.4713 80.5558 99.3265 86.7638 100.84C92.6283 102.27 97.5396 104.873 99.7463 106.208Z" fill="white"/>
<path d="M74.8657 39.8869L71.2314 39.2712L71.7024 36.5917L124.325 47.3542L123.324 50.2517L74.8657 39.8869Z" fill="#F7764F"/>
<path d="M120.993 49.594L119.872 52.5745L90.6514 42.8693L120.993 49.594Z" fill="#380E0E"/>
<path d="M71.7021 36.5917L72.0299 34.7667L124.954 45.8132L124.325 47.3542L71.7021 36.5917Z" fill="#F9E9CF"/>
<path d="M84.6124 79.3078C84.3039 80.2463 83.2931 80.757 82.3546 80.4485C81.4161 80.14 80.9056 79.1293 81.2139 78.191C81.5221 77.2525 82.5331 76.7418 83.4714 77.0503C84.4101 77.3585 84.9209 78.3693 84.6124 79.3078Z" fill="#380E0E"/>
<path d="M99.9922 82.7305C99.6837 83.669 98.673 84.1797 97.7345 83.8712C96.796 83.5627 96.2855 82.552 96.5937 81.6137C96.9022 80.6752 97.913 80.1645 98.8515 80.473C99.7897 80.7815 100.3 81.7922 99.9922 82.7305Z" fill="#380E0E"/>
<path d="M90.8597 84.2918C90.0002 84.2918 89.1559 83.851 88.6714 83.1365C88.3709 82.6943 88.2089 82.1628 88.2269 81.6783C88.2322 81.5325 88.3632 81.4388 88.4994 81.4253C88.6442 81.4305 88.7574 81.5528 88.7522 81.6973C88.7384 82.0723 88.8674 82.4895 89.1064 82.8413C89.5207 83.4523 90.2614 83.8108 90.9984 83.761C91.7339 83.7093 92.4187 83.2483 92.7434 82.586C92.8069 82.4558 92.9647 82.402 93.0947 82.466C93.2252 82.53 93.2789 82.6875 93.2149 82.8175C92.8094 83.6445 91.9537 84.2208 91.0352 84.2848C90.9767 84.2898 90.9179 84.2918 90.8597 84.2918Z" fill="#380E0E"/>
<path opacity="0.5" d="M80.5687 83.3148C79.7867 85.8498 77.1002 87.2701 74.5657 86.4811C73.7182 86.2226 72.9977 85.7441 72.4385 85.1263L72.8007 78.3061C74.0102 77.2346 75.742 76.7981 77.4022 77.3118C79.9375 78.0941 81.3502 80.7868 80.5687 83.3148Z" fill="#F9E9CF"/>
<path opacity="0.5" d="M106.95 86.8448L104.634 92.9818C103.576 93.5051 102.317 93.6428 101.101 93.2638C98.5664 92.4816 97.1532 89.7958 97.9352 87.2608C98.7172 84.7258 101.403 83.3126 103.938 84.0948C105.36 84.5288 106.427 85.5691 106.95 86.8448Z" fill="#F9E9CF"/>
<path d="M112.797 57.1079C112.349 58.2104 112.092 59.4149 111.968 60.5557C111.87 61.4552 111.904 63.3184 113.239 63.2762C113.489 63.2682 113.727 63.1562 113.925 63.0032C115.084 62.1079 115.769 60.3857 116.227 59.0462C116.595 57.9674 117.14 56.5084 116.695 55.3822C116.473 54.8219 115.88 54.4264 115.277 54.4349C114.584 54.4447 114.061 54.9272 113.682 55.4627C113.327 55.9659 113.035 56.5224 112.797 57.1079Z" fill="#F9E9CF"/>
<path d="M111.446 64.6535C111.213 64.9605 111.1 65.3892 111.264 65.7375C111.363 65.948 111.553 66.107 111.766 66.202C111.914 66.2683 112.075 66.3065 112.237 66.314C112.599 66.3305 112.972 66.182 113.202 65.9017C113.433 65.6215 113.504 65.211 113.357 64.8792C113.001 64.078 111.957 63.9788 111.446 64.6535Z" fill="#F9E9CF"/>
<path d="M63.7098 100.117C62.1595 101.488 60.2845 102.714 58.0253 103.741C53.8115 105.675 48.2728 106.928 41.0843 107.193C39.322 107.259 37.6788 107.199 36.1418 107.034C17.0543 105.026 14.457 86.9059 14.457 86.9059L14.51 86.8859L14.7685 86.7799L18.1805 86.4619L65.419 82.1024L69.8448 81.6917C69.8515 81.7447 69.858 81.8044 69.8648 81.8574C70.567 88.3436 69.2883 95.1809 63.7098 100.117Z" fill="#D7773B"/>
<path d="M17.862 92.8419C18.2568 94.0239 18.766 95.2444 19.763 95.9919C20.2785 96.3787 21.0708 96.5859 21.5275 96.1314C21.8623 95.7982 21.8605 95.2584 21.7778 94.7934C21.515 93.3182 20.6405 91.9617 19.405 91.1134C17.8615 90.0542 17.4453 91.5952 17.862 92.8419Z" fill="#FCB666"/>
<path opacity="0.1" d="M63.7096 100.117C62.1594 101.488 60.2844 102.714 58.0251 103.741C53.8114 105.675 48.2726 106.928 41.0841 107.193C39.3219 107.259 37.6786 107.199 36.1416 107.034C37.8709 106.543 39.5736 105.901 41.2234 105.198C47.1464 102.687 52.8441 99.3879 57.2699 94.7171C59.6019 92.2524 61.5366 89.4502 63.1929 86.4752C63.9946 85.0507 64.7299 83.5864 65.4189 82.1024L69.8446 81.6917C69.8514 81.7447 69.8579 81.8044 69.8646 81.8574C70.5669 88.3436 69.2881 95.1809 63.7096 100.117Z" fill="#4F2138"/>
<path d="M53.4537 88.5424C50.4857 89.0062 46.9742 89.3839 43.2972 89.6489C30.3117 90.5764 15.1992 90.0662 14.4572 86.7337C14.3115 86.0777 14.6957 85.4417 15.451 84.8322C17.8825 82.8712 24.1367 81.1882 28.96 80.1149C32.458 79.3397 35.201 78.8892 35.201 78.8892C44.8937 77.3719 53.8512 77.5244 60.2247 78.3592C66.0285 79.1079 69.6922 80.4129 69.8447 81.5194C70.1562 83.8517 66.8635 86.4487 53.4537 88.5424Z" fill="#FCB666"/>
<path opacity="0.15" d="M53.4539 88.5424C50.4859 89.0062 46.9744 89.3839 43.2974 89.6489H42.9264C36.2084 89.6424 29.4242 89.6357 22.8982 88.0522C20.4402 87.4559 18.0087 86.6277 15.9349 85.1899C15.7694 85.0774 15.6037 84.9579 15.4512 84.8322C17.8827 82.8712 24.1369 81.1882 28.9602 80.1149C36.2347 79.8234 43.4962 79.3994 50.7507 78.8297C53.8977 78.5847 57.0779 78.3129 60.2249 78.3592C66.0287 79.1079 69.6924 80.4129 69.8449 81.5194C70.1564 83.8517 66.8637 86.4487 53.4539 88.5424Z" fill="#4F2138"/>
<path d="M68.6656 82.7685C68.6591 82.7817 68.6456 82.795 68.6391 82.8082C68.5926 82.881 68.5399 82.954 68.4866 83.0202C68.1356 83.4775 67.6981 83.8617 67.2211 84.1862C67.1746 84.226 67.1216 84.2657 67.0686 84.299C66.8234 84.4645 66.5716 84.6102 66.3134 84.756C65.9091 84.9747 65.5051 85.18 65.0876 85.3655C65.0346 85.392 64.9816 85.4185 64.9286 85.4382C63.9546 85.8755 62.9411 86.2332 61.9074 86.5315C61.8544 86.5512 61.8014 86.5712 61.7484 86.5845C61.3576 86.697 60.9666 86.8097 60.5756 86.9092C59.8734 87.0947 59.1711 87.2605 58.4621 87.4127C58.4091 87.426 58.3496 87.4392 58.2966 87.446C57.1041 87.711 55.8981 87.923 54.6924 88.1017C54.6394 88.115 54.5799 88.1217 54.5269 88.1282C53.6259 88.2607 52.7181 88.3735 51.8106 88.4662C51.7576 88.4727 51.6979 88.4795 51.6449 88.4795C50.8101 88.5655 49.9686 88.6385 49.1274 88.6915C49.0744 88.698 49.0146 88.698 48.9616 88.698C48.3256 88.7445 47.6961 88.7775 47.0601 88.7975C47.0071 88.804 46.9476 88.804 46.8944 88.804C46.0266 88.837 45.1651 88.857 44.2974 88.8635C44.2444 88.8635 44.1849 88.8702 44.1319 88.8635C43.3236 88.8702 42.5154 88.8702 41.7069 88.857C41.6539 88.857 41.5941 88.857 41.5411 88.8505C40.5804 88.8372 39.6131 88.8107 38.6526 88.771C38.5996 88.771 38.5466 88.7645 38.4869 88.7645C37.9236 88.738 37.3539 88.7115 36.7909 88.685C36.5724 88.6717 36.3471 88.665 36.1284 88.6452C36.0754 88.6452 36.0156 88.6452 35.9626 88.6387C35.0681 88.5922 34.1804 88.5327 33.2861 88.4597C33.2331 88.4597 33.1801 88.453 33.1206 88.4465C32.3786 88.3935 31.6299 88.3272 30.8879 88.2542C30.8349 88.2477 30.7754 88.241 30.7224 88.2345C29.7749 88.1417 28.8341 88.029 27.8934 87.9032C27.8336 87.8967 27.7806 87.89 27.7276 87.8832C26.8861 87.7707 26.0514 87.6447 25.2234 87.499C25.1639 87.4922 25.1109 87.479 25.0579 87.4725C24.3224 87.34 23.5871 87.2007 22.8516 87.0485C22.7986 87.042 22.7456 87.0287 22.6859 87.0155C22.0166 86.8697 21.3409 86.7175 20.6719 86.5517C20.3739 86.479 20.0756 86.3927 19.7709 86.3067C19.7179 86.2935 19.6649 86.2737 19.6051 86.2537C18.7439 85.9955 17.8891 85.6642 17.1141 85.227C17.0611 85.2005 17.0081 85.1672 16.9551 85.1342C16.2131 84.7037 15.5571 84.1737 15.0669 83.511C15.0139 83.4447 14.9609 83.3717 14.9211 83.299C14.6891 82.961 14.5104 82.59 14.3779 82.1792C14.3184 81.9937 14.2719 81.8015 14.2389 81.616C14.2056 81.4502 14.1859 81.2912 14.1726 81.1322C14.1064 80.2907 14.2589 79.4495 14.5369 78.6412C14.6429 78.3365 14.7621 78.0317 14.8946 77.7402C15.0271 77.4355 15.1796 77.1372 15.3319 76.8525C16.7299 74.2552 20.6056 74.103 23.2491 73.8975C24.2959 73.818 25.3561 73.7782 26.4094 73.7715C28.6489 73.7582 30.8946 73.871 33.1341 73.9107C33.6176 73.9175 34.1081 73.924 34.5916 73.924C34.9164 73.924 35.2409 73.9175 35.5721 73.9175C42.0119 73.8777 48.4651 73.308 54.8981 73.235C55.6469 73.2285 56.3954 73.2285 57.1441 73.235C59.8406 73.255 62.5371 73.3875 65.2269 73.7055C66.5586 73.8645 68.0691 74.1825 68.7649 75.3552C68.8509 75.4942 68.9174 75.64 68.9704 75.7925C69.0299 75.9382 69.0699 76.0972 69.1096 76.2562C69.1826 76.5677 69.2221 76.8922 69.2619 77.217C69.3149 77.6345 69.3679 78.065 69.4011 78.4957C69.5269 80.0057 69.4671 81.5362 68.6656 82.7685Z" fill="#542D1B"/>
<path d="M15.3919 78.3227C14.8024 79.3364 14.4579 80.4692 14.2391 81.6154C14.2059 81.4497 14.1861 81.2907 14.1729 81.1317C14.3914 80.1247 14.7226 79.1375 15.2529 78.2365L15.3919 78.3227Z" fill="#380E0E"/>
<path d="M16.4249 78.8527C15.6961 80.3169 15.2389 81.8937 15.0666 83.5104C15.0136 83.4442 14.9606 83.3712 14.9209 83.2984C15.1131 81.7282 15.5701 80.1979 16.2791 78.7734L16.4249 78.8527Z" fill="#380E0E"/>
<path d="M18.2138 79.7471C17.7301 81.5426 17.3658 83.3779 17.1141 85.2264C17.0611 85.1999 17.0081 85.1666 16.9551 85.1336C17.2068 83.3051 17.5778 81.4831 18.0548 79.7076L18.2138 79.7471Z" fill="#380E0E"/>
<path d="M21.0167 80.7345C20.5 82.563 20.0825 84.4315 19.7712 86.3065C19.7182 86.2932 19.6652 86.2735 19.6055 86.2535C19.9235 84.3785 20.341 82.5102 20.8577 80.6882L21.0167 80.7345Z" fill="#380E0E"/>
<path d="M23.8725 81.4897C23.442 83.3182 23.0973 85.1735 22.8523 87.0482C22.7993 87.0417 22.7463 87.0285 22.6865 87.0152C22.9315 85.1402 23.2763 83.2785 23.7135 81.45L23.8725 81.4897Z" fill="#380E0E"/>
<path d="M25.8203 82.828C25.6546 84.3782 25.4493 85.942 25.2241 87.499C25.1646 87.4922 25.1116 87.479 25.0586 87.4725C25.2838 85.9222 25.4891 84.3585 25.6548 82.8082L25.8203 82.828Z" fill="#380E0E"/>
<path d="M28.59 82.6625C28.3183 84.3982 28.0798 86.1472 27.8943 87.903C27.8345 87.8965 27.7815 87.8897 27.7285 87.883C27.914 86.1272 28.1525 84.3715 28.4243 82.6357L28.59 82.6625Z" fill="#380E0E"/>
<path d="M31.2592 83.2917C31.0604 84.9347 30.9344 86.5912 30.8882 88.254C30.8352 88.2475 30.7757 88.2407 30.7227 88.2342C30.7689 86.578 30.8949 84.915 31.0937 83.2717L31.2592 83.2917Z" fill="#380E0E"/>
<path d="M33.4388 83.663L33.2866 88.4597C33.2336 88.4597 33.1806 88.453 33.1211 88.4465L33.2733 83.6562L33.4388 83.663Z" fill="#380E0E"/>
<path d="M36.1293 88.6452C36.0763 88.6452 36.0165 88.6452 35.9635 88.6387L35.8643 83.663L36.0298 83.6562L36.1293 88.6452Z" fill="#380E0E"/>
<path d="M38.6536 88.7709C38.6006 88.7709 38.5476 88.7644 38.4879 88.7644C38.4349 86.9092 38.3089 85.0409 38.1104 83.1992L38.2761 83.1859C38.4746 85.0342 38.6006 86.9092 38.6536 88.7709Z" fill="#380E0E"/>
<path d="M41.7074 88.8572C41.6544 88.8572 41.5947 88.8572 41.5417 88.8507L41.4092 83.153L41.5749 83.1465L41.7074 88.8572Z" fill="#380E0E"/>
<path d="M44.2977 88.8637C44.2447 88.8637 44.1852 88.8704 44.1322 88.8637C44.0527 87.1874 43.8275 85.5179 43.4697 83.8814L43.6287 83.8417C43.993 85.4979 44.2182 87.1742 44.2977 88.8637Z" fill="#380E0E"/>
<path d="M47.0608 88.7974C47.0078 88.8039 46.9483 88.8039 46.8951 88.8039C46.8356 86.9887 46.6766 85.1667 46.4248 83.3779L46.5903 83.3514C46.8421 85.1469 47.0011 86.9754 47.0608 88.7974Z" fill="#380E0E"/>
<path d="M49.1283 88.6914C49.0753 88.6979 49.0155 88.6979 48.9625 88.6979C48.9228 86.8627 48.81 85.0209 48.6445 83.1989L48.81 83.1857C48.9758 85.0077 49.0883 86.8562 49.1283 88.6914Z" fill="#380E0E"/>
<path d="M51.8113 88.4662C51.7583 88.4727 51.6986 88.4795 51.6456 88.4795C51.5926 86.6177 51.4136 84.7427 51.1221 82.9075L51.2876 82.881C51.5793 84.723 51.7581 86.598 51.8113 88.4662Z" fill="#380E0E"/>
<path d="M54.6929 88.1017C54.6399 88.1149 54.5804 88.1217 54.5274 88.1282C54.4081 86.3327 54.1629 84.5439 53.8184 82.7817L53.9839 82.7484C54.3286 84.5107 54.5671 86.3064 54.6929 88.1017Z" fill="#380E0E"/>
<path d="M58.4635 87.4127C58.4105 87.426 58.351 87.4392 58.298 87.446C58.0595 85.7365 57.7215 84.0272 57.291 82.3577L57.45 82.318C57.8805 83.9875 58.225 85.6967 58.4635 87.4127Z" fill="#380E0E"/>
<path d="M61.908 86.5317C61.855 86.5515 61.802 86.5715 61.749 86.5847C61.4507 84.7165 61.0002 82.8612 60.3975 81.0592L60.5565 81.0062C61.1525 82.8082 61.6097 84.6567 61.908 86.5317Z" fill="#380E0E"/>
<path d="M65.0888 85.3657C65.0358 85.3922 64.9828 85.4187 64.9298 85.4384C64.6846 83.6629 64.2806 81.9137 63.7373 80.2177L63.8896 80.1647C64.4396 81.8607 64.8436 83.6032 65.0888 85.3657Z" fill="#380E0E"/>
<path d="M67.222 84.1862C67.1755 84.226 67.1225 84.2657 67.0695 84.299C66.8708 82.5565 66.5198 80.834 66.0293 79.151L66.1883 79.1045C66.6786 80.7675 67.023 82.4702 67.222 84.1862Z" fill="#380E0E"/>
<path d="M68.6395 82.8082C68.593 82.881 68.5403 82.954 68.487 83.0202C68.3875 81.6157 68.136 80.2242 67.7383 78.8595L67.8973 78.813C68.2818 80.1182 68.5268 81.4567 68.6395 82.8082Z" fill="#380E0E"/>
<path d="M69.4006 78.4952C68.7646 79.151 67.9894 79.7142 67.2209 80.1715C61.4304 83.577 54.4869 84.352 47.7689 84.5575C41.3954 84.7497 35.0151 84.4912 28.6814 83.789C24.2689 83.2987 19.7174 82.5302 16.0666 80.006C15.6029 79.688 15.0264 79.211 14.5361 78.6412C14.6421 78.3365 14.7614 78.0317 14.8939 77.7402C15.0264 77.4355 15.1789 77.1372 15.3311 76.8525C16.7291 74.2552 20.6049 74.103 23.2484 73.8975C24.2951 73.818 25.3554 73.7782 26.4086 73.7715C28.4294 73.7847 30.4634 73.871 32.4774 73.9107C33.1796 73.924 33.8886 73.924 34.5909 73.924C34.9156 73.924 35.2401 73.9175 35.5714 73.9175C42.0111 73.8445 48.4644 73.2947 54.8974 73.235C55.6461 73.2285 56.3946 73.2285 57.1434 73.235C59.8199 73.2615 62.4901 73.4007 65.1534 73.7055C66.5116 73.8645 68.0486 74.1825 68.7576 75.3552C68.8436 75.4942 68.9101 75.64 68.9696 75.7925C69.0226 75.9382 69.0691 76.0972 69.1089 76.2562C69.1819 76.5677 69.2214 76.8922 69.2611 77.217C69.3146 77.634 69.3676 78.0645 69.4006 78.4952Z" fill="#723E01"/>
<path d="M66.7946 76.6135C66.4271 77.5478 66.0593 78.4818 65.6916 79.4228C64.4216 82.636 63.1583 85.8493 61.8883 89.0693C59.0208 87.5918 56.2201 85.9818 53.4996 84.2528C51.6748 83.1 49.8836 81.881 48.1321 80.6155L47.9651 80.2513L47.5908 79.4363C47.9718 79.2308 48.3596 79.032 48.7473 78.8533C48.7541 78.8468 48.7541 78.8468 48.7541 78.8468C51.3341 77.6343 54.1416 76.9123 56.9823 76.5478C60.2508 76.1365 63.5058 76.3485 66.7946 76.6135Z" fill="#FEB544"/>
<path opacity="0.3" d="M66.7943 76.6135C66.4268 77.5478 66.0591 78.4818 65.6913 79.4228C64.9628 79.562 64.1741 79.6018 63.4923 79.8998C62.3493 80.4033 61.6676 81.5495 60.7851 82.424C59.0606 84.12 56.4471 84.7693 54.0541 84.3653C53.8668 84.3323 53.6798 84.299 53.4993 84.2528C51.6746 83.1 49.8833 81.881 48.1318 80.6155L47.9648 80.2513C48.0248 79.7743 48.3591 79.284 48.7468 78.8533C48.7536 78.8468 48.7536 78.8468 48.7536 78.8468C51.3336 77.6343 54.1411 76.9123 56.9818 76.5478C60.2506 76.1365 63.5056 76.3485 66.7943 76.6135Z" fill="#D7773B"/>
<path d="M62.9069 82.362C62.8046 82.7405 62.7316 83.1522 62.8754 83.5172C62.9144 83.6167 62.9731 83.714 63.0654 83.7678C63.1971 83.8443 63.3709 83.8128 63.4966 83.7268C63.6224 83.6408 63.7091 83.5092 63.7859 83.3777C64.1484 82.7567 64.3616 82.0492 64.4026 81.3315C64.4146 81.1212 64.4056 80.8915 64.2711 80.7295C63.6766 80.0142 62.9966 82.0292 62.9069 82.362Z" fill="#F9E9CF"/>
<path d="M62.7359 84.3332C62.3289 84.3482 62.2087 84.9095 62.3894 85.2022C62.4252 85.26 62.4727 85.3127 62.5339 85.342C62.7359 85.4387 62.9934 85.2675 63.1027 85.1027C63.2029 84.9515 63.2427 84.7392 63.1567 84.5747C63.0789 84.4255 62.9222 84.3142 62.7487 84.3355" fill="#F9E9CF"/>
<path d="M50.2071 79.5406C50.2071 79.7063 50.2003 79.8786 50.2003 80.0641C50.2003 80.2628 50.1803 80.4548 50.1408 80.6338C50.0943 80.8193 50.0348 80.9981 49.9553 81.1638C49.9553 81.1703 49.9486 81.1838 49.9421 81.1968H49.9353C49.9353 81.1968 49.9421 81.1968 49.9353 81.2036C49.8293 81.4091 49.6968 81.5946 49.5378 81.7536C49.2861 82.0186 48.9681 82.2108 48.5903 82.3101C48.2988 82.3896 48.0006 82.4626 47.7091 82.5286C47.5966 82.5551 47.4771 82.5816 47.3646 82.6081C47.1128 82.6676 46.8543 82.7206 46.6026 82.7671C46.4436 82.8001 46.2913 82.8266 46.1321 82.8531C45.5158 82.9656 44.8931 83.0583 44.2703 83.1313C44.0648 83.1513 43.8528 83.1778 43.6476 83.1976C43.5813 83.2041 43.5283 83.2108 43.4686 83.2176H43.4618C43.1438 83.2506 42.8191 83.2706 42.4946 83.2971C42.4616 83.2971 42.4283 83.3036 42.3951 83.3036C42.3421 83.3036 42.2758 83.3101 42.2161 83.3101C41.7921 83.3366 41.3746 83.3566 40.9506 83.3698C37.6911 83.4626 34.3916 83.1778 31.1186 82.7271C30.9131 82.7006 30.7013 82.6673 30.4891 82.6343C29.2436 82.4621 28.0046 82.2633 26.7788 82.0578C26.1496 81.9518 25.5201 81.8458 24.8906 81.7266C24.2611 81.6073 23.6383 81.4748 23.0156 81.3291C21.4188 80.9581 19.8553 80.4678 18.3316 79.8648C18.0401 79.7521 17.7418 79.6328 17.4371 79.5136C17.2251 79.4341 17.0131 79.3478 16.8011 79.2618C16.7878 79.2551 16.7746 79.2486 16.7613 79.2421C16.7083 79.2221 16.6486 79.2023 16.5956 79.1691C16.5226 79.1361 16.4566 79.1096 16.3836 79.0698C16.1981 78.9903 16.0193 78.9043 15.8468 78.8113C15.8336 78.8048 15.8203 78.7981 15.8071 78.7916C15.7476 78.7583 15.6946 78.7253 15.6416 78.6923C15.5421 78.6393 15.4428 78.5731 15.3501 78.5201C15.2573 78.4538 15.1711 78.3876 15.0786 78.3213C15.0586 78.3081 15.0453 78.3013 15.0256 78.2816C14.9991 78.2616 14.9726 78.2418 14.9461 78.2153C14.9396 78.2088 14.9328 78.2021 14.9261 78.1956C14.8401 78.1293 14.7606 78.0631 14.6876 77.9836C14.6678 77.9703 14.6478 77.9506 14.6281 77.9306C14.5751 77.8841 14.5286 77.8311 14.4888 77.7781C14.4423 77.7251 14.3961 77.6721 14.3563 77.6191C14.2968 77.5328 14.2371 77.4468 14.1776 77.3606C14.1246 77.2678 14.0781 77.1816 14.0318 77.0823C13.9921 77.0028 13.9588 76.9233 13.9323 76.8371C13.7336 76.2276 13.8063 75.5451 14.0451 74.9291C14.1511 74.6573 14.2503 74.4188 14.3563 74.1871C14.5286 73.7763 14.7208 73.4118 14.9858 73.0143C14.9923 73.0011 14.9991 72.9878 15.0123 72.9746C15.0453 72.9281 15.0786 72.8751 15.1183 72.8221C15.1316 72.7956 15.1513 72.7691 15.1713 72.7426C15.1781 72.7426 15.1781 72.7426 15.1846 72.7426C16.7481 72.7161 18.3118 72.7891 19.8753 72.9148C19.9086 72.9148 19.9483 72.9213 19.9813 72.9213C20.3853 72.9543 20.7896 72.9943 21.1938 73.0406C24.3343 73.3718 27.4746 73.9218 30.6018 74.4518C30.6283 74.4583 30.6613 74.4651 30.6946 74.4651L30.7013 74.4716C32.1388 74.7168 33.5766 74.9553 35.0078 75.1673H35.0143C35.7696 75.2801 36.5248 75.3861 37.2736 75.4788C37.4061 75.4921 37.5321 75.5118 37.6646 75.5251H37.6713C38.7181 75.6511 39.7716 75.7571 40.8248 75.8763C42.1233 76.0221 43.4153 76.1876 44.7006 76.4461C45.2306 76.5521 45.7871 76.6913 46.3568 76.8503C46.6021 76.9166 46.8471 76.9896 47.0988 77.0691C47.7151 77.2546 48.3311 77.4666 48.9208 77.6786C49.1726 77.7713 49.4178 77.8576 49.6563 77.9503C49.7823 78.0033 49.9081 78.0496 50.0273 78.0961C50.0273 78.1026 50.0338 78.1093 50.0338 78.1161C50.0538 78.1756 50.0671 78.2353 50.0803 78.2883C50.0936 78.3413 50.1068 78.3943 50.1201 78.4473C50.1201 78.4473 50.1201 78.4473 50.1201 78.4538C50.1201 78.4606 50.1266 78.4671 50.1266 78.4736C50.1463 78.5796 50.1596 78.6856 50.1731 78.7851C50.1928 78.9506 50.1996 79.1163 50.1996 79.2821C50.2071 79.3683 50.2071 79.4543 50.2071 79.5406Z" fill="#F95438"/>
<path opacity="0.5" d="M50.2071 79.5406V80.0641C50.2071 80.2628 50.1871 80.4548 50.1408 80.6338C50.1011 80.8193 50.0348 80.9981 49.9553 81.1638C49.9553 81.1703 49.9486 81.1838 49.9421 81.1968H49.9353C49.9353 81.1968 49.9421 81.1968 49.9353 81.2036C49.8293 81.4091 49.6968 81.5946 49.5378 81.7536C49.2861 82.0186 48.9681 82.2108 48.5903 82.3101C48.2988 82.3896 48.0006 82.4626 47.7091 82.5286C47.5966 82.5551 47.4771 82.5816 47.3646 82.6081C47.1128 82.6676 46.8543 82.7206 46.6026 82.7671C46.4436 82.8001 46.2913 82.8266 46.1321 82.8531C45.5158 82.9656 44.8931 83.0583 44.2703 83.1313C44.0648 83.1513 43.8528 83.1778 43.6476 83.1976C43.5813 83.2041 43.5283 83.2108 43.4686 83.2176H43.4618C43.1438 83.2506 42.8191 83.2706 42.4946 83.2971C42.4616 83.2971 42.4283 83.3036 42.3951 83.3036C42.3421 83.3036 42.2758 83.3101 42.2161 83.3101C41.7921 83.3366 41.3746 83.3566 40.9506 83.3698C37.6911 83.4626 34.3916 83.1778 31.1186 82.7271C30.9131 82.7006 30.7013 82.6673 30.4891 82.6343C29.2436 82.4621 28.0046 82.2633 26.7788 82.0513C26.1496 81.9521 25.5201 81.8461 24.8906 81.7268C24.2611 81.6076 23.6383 81.4751 23.0156 81.3293C21.4188 80.9516 19.8553 80.4613 18.3316 79.8651C18.0401 79.7523 17.7418 79.6331 17.4371 79.5138C17.2251 79.4343 17.0131 79.3481 16.8011 79.2621C16.7878 79.2553 16.7746 79.2488 16.7613 79.2423C16.7083 79.2223 16.6486 79.2026 16.5956 79.1693C16.5226 79.1363 16.4566 79.1098 16.3836 79.0701C16.1981 78.9906 16.0193 78.9046 15.8468 78.8116C15.8336 78.8051 15.8203 78.7983 15.8071 78.7918C15.7541 78.7653 15.6946 78.7323 15.6416 78.7058C15.5421 78.6396 15.4493 78.5798 15.3501 78.5203C15.2573 78.4541 15.1711 78.3878 15.0786 78.3216C15.0586 78.3083 15.0453 78.3016 15.0256 78.2818C14.9991 78.2618 14.9726 78.2421 14.9461 78.2156C14.9396 78.2091 14.9328 78.2023 14.9261 78.1958C14.8401 78.1296 14.7606 78.0633 14.6876 77.9838C14.6678 77.9706 14.6478 77.9508 14.6281 77.9308C14.5751 77.8843 14.5286 77.8313 14.4888 77.7783C14.4423 77.7253 14.3961 77.6723 14.3563 77.6193C14.2968 77.5331 14.2371 77.4471 14.1776 77.3608C14.1181 77.2746 14.0716 77.1818 14.0251 77.0826C13.9921 77.0031 13.9588 76.9236 13.9323 76.8373C13.7336 76.2278 13.8063 75.5453 14.0451 74.9293C14.1511 74.6576 14.2503 74.4191 14.3563 74.1873C14.5286 73.7766 14.7208 73.4121 14.9858 73.0146C14.9923 73.0013 14.9991 72.9881 15.0123 72.9748C15.0453 72.9283 15.0786 72.8753 15.1183 72.8223C15.1316 72.7958 15.1513 72.7693 15.1713 72.7428C15.1781 72.7428 15.1781 72.7428 15.1846 72.7428C16.7481 72.7163 18.3118 72.7893 19.8753 72.9151C19.9018 72.9216 19.9283 72.9216 19.9548 72.9283C19.9548 72.9218 19.9616 72.9218 19.9681 72.9283C20.3788 72.9613 20.7896 73.0011 21.1938 73.0411C24.3343 73.3723 27.4746 73.9223 30.6018 74.4523C30.6348 74.4656 30.6681 74.4656 30.7013 74.4723C32.1388 74.7176 33.5766 74.9561 35.0078 75.1681H35.0143C35.7696 75.2808 36.5248 75.3868 37.2736 75.4796C37.4061 75.4928 37.5321 75.5126 37.6646 75.5258H37.6713C38.7181 75.6518 39.7716 75.7578 40.8248 75.8771C42.1233 76.0228 43.4153 76.1883 44.7006 76.4468C45.2306 76.5528 45.7871 76.6921 46.3568 76.8511C46.6021 76.9173 46.8471 76.9903 47.0988 77.0698C47.7151 77.2553 48.3311 77.4673 48.9208 77.6793C49.1726 77.7721 49.4178 77.8583 49.6563 77.9511C49.7823 78.0041 49.9081 78.0503 50.0273 78.0968C50.0273 78.1033 50.0338 78.1101 50.0338 78.1168C50.0538 78.1763 50.0671 78.2361 50.0803 78.2891C50.0936 78.3421 50.1068 78.3883 50.1201 78.4348C50.1201 78.4348 50.1201 78.4413 50.1201 78.4481C50.1201 78.4481 50.1201 78.4481 50.1201 78.4546C50.1201 78.4613 50.1266 78.4678 50.1266 78.4743C50.1463 78.5803 50.1596 78.6863 50.1731 78.7858C50.1928 78.9513 50.1996 79.1171 50.1996 79.2828C50.2071 79.3683 50.2071 79.4543 50.2071 79.5406Z" fill="#F91B0B"/>
<path d="M50.128 78.5534C50.128 78.8051 50.075 79.0569 49.9755 79.2889C49.823 79.6599 49.5648 79.9846 49.26 80.2231C48.7633 80.6206 48.1535 80.8326 47.544 80.9916C46.908 81.1571 46.2588 81.2634 45.6028 81.3361C44.8143 81.4224 44.0193 81.4621 43.2308 81.4819H43.1713C43.0718 81.4819 42.979 81.4884 42.8798 81.4884C34.4458 81.6606 25.8925 80.5674 18.101 77.2216C17.8955 77.1356 17.6835 77.0426 17.4783 76.9434C17.4253 76.9169 17.3723 76.8904 17.3193 76.8639C17.0478 76.7314 16.776 76.5791 16.5243 76.4134C16.4713 76.3804 16.4183 76.3471 16.3653 76.3139C16.1333 76.1549 15.9215 75.9759 15.7225 75.7839C15.676 75.7441 15.6365 75.6911 15.5833 75.6381C15.3648 75.4061 15.1858 75.1411 15.04 74.8431C15.0135 74.7901 14.9935 74.7371 14.9738 74.6841C14.7683 74.1939 14.7088 73.6109 14.9273 73.1271C14.9473 73.0874 14.967 73.0476 14.987 73.0146C14.9935 73.0014 15.0003 72.9881 15.0135 72.9749C15.0465 72.9284 15.0798 72.8754 15.1195 72.8224C15.1328 72.7959 15.1593 72.7694 15.1858 72.7429C15.5633 72.3121 16.173 72.0869 16.7428 71.9479C19.234 71.3319 21.831 71.4641 24.3753 71.6696C26.0648 71.8021 27.7475 71.9611 29.4303 72.1534C33.1008 72.5641 36.7248 72.9086 40.309 73.6044C41.1305 73.7634 41.952 73.9424 42.7735 74.1411C42.8795 74.1676 42.9855 74.1941 43.0915 74.2206C43.098 74.2271 43.098 74.2271 43.1048 74.2271C43.4825 74.3199 43.86 74.4259 44.2378 74.5319C44.728 74.6709 45.2118 74.8169 45.702 74.9759C45.7815 75.0024 45.8678 75.0289 45.9473 75.0554C46.8748 75.3666 47.8025 75.7246 48.5973 76.2876C48.8158 76.4401 49.028 76.6124 49.2268 76.7979C49.3528 76.9171 49.4653 77.0431 49.5713 77.1756C49.7568 77.4009 49.909 77.6526 50.002 77.9176C50.0285 77.9839 50.0485 78.0501 50.0683 78.1164C50.0948 78.2159 50.1148 78.3219 50.1213 78.4344C50.1213 78.4344 50.1213 78.4409 50.1213 78.4476C50.1213 78.4476 50.1213 78.4476 50.1213 78.4541C50.128 78.4871 50.128 78.5204 50.128 78.5534Z" fill="#F95438"/>
<path d="M15.725 75.7867C15.4248 76.6132 15.2178 77.4564 15.0818 78.3229C15.025 78.2856 14.9758 78.2484 14.9268 78.1969C15.0628 77.3231 15.2845 76.4659 15.5848 75.6394C15.634 75.6909 15.6758 75.7424 15.725 75.7867Z" fill="#380E0E"/>
<path d="M16.5221 76.4169C16.2089 77.1856 15.9671 77.9776 15.8109 78.7934C15.7541 78.7631 15.6974 78.7331 15.6406 78.7031C15.8039 77.8876 16.0459 77.0884 16.3666 76.3126C16.4159 76.3496 16.4654 76.3866 16.5221 76.4169Z" fill="#380E0E"/>
<path d="M17.4799 76.9429C17.1889 77.6907 16.9474 78.4612 16.7634 79.2402C16.7061 79.2244 16.6491 79.2014 16.5996 79.1717C16.7839 78.3854 17.0249 77.6222 17.3161 76.8672C17.3734 76.8902 17.4229 76.9199 17.4799 76.9429Z" fill="#380E0E"/>
<path d="M22.4704 77.5303C22.4624 77.5303 22.4546 77.5293 22.4469 77.5276C17.9466 76.3811 16.1809 74.0583 16.1634 74.0348C16.1409 74.0043 16.1384 73.9638 16.1566 73.9313C16.1749 73.8983 16.2091 73.8838 16.2481 73.8823L31.4424 75.1566C31.4891 75.1608 31.5261 75.1976 31.5296 75.2446C31.5334 75.2916 31.5026 75.3336 31.4571 75.3448L22.4931 77.5276C22.4854 77.5298 22.4776 77.5303 22.4704 77.5303ZM16.4626 74.0926C16.9601 74.6438 18.7706 76.3886 22.4709 77.3361L30.8406 75.2983L16.4626 74.0926Z" fill="#F9E9CF"/>
<path d="M34.9378 80.1731C30.3458 80.1731 25.5968 78.4021 25.5403 78.3809C25.504 78.3671 25.4798 78.3329 25.4785 78.2939C25.4775 78.2549 25.4998 78.2191 25.5355 78.2036C26.6635 77.7079 32.2975 75.2344 32.4385 75.2044C32.4668 75.1969 32.4995 75.2059 32.5225 75.2269L37.5465 79.7931C37.5735 79.8176 37.584 79.8556 37.5743 79.8901C37.564 79.9254 37.5353 79.9514 37.4995 79.9579C36.6733 80.1096 35.8083 80.1731 34.9378 80.1731ZM25.832 78.2821C27.0223 78.6994 32.7043 80.5636 37.2735 79.8034L32.4368 75.4074C31.9283 75.6096 27.7328 77.4476 25.832 78.2821Z" fill="#F9E9CF"/>
<path d="M42.4621 80.1087C41.2136 80.1087 40.3488 79.9197 40.3321 79.9162C40.3208 79.9134 40.3101 79.9092 40.3006 79.9029L33.4523 75.4099C33.4128 75.3837 33.3981 75.3332 33.4181 75.2899C33.4378 75.2472 33.4863 75.2249 33.5316 75.2382L46.6946 79.0767C46.7331 79.0879 46.7606 79.1214 46.7633 79.1614C46.7661 79.2014 46.7438 79.2387 46.7073 79.2554C45.2126 79.9347 43.6606 80.1087 42.4621 80.1087ZM40.3908 79.7329C40.6373 79.7837 43.5758 80.3582 46.3876 79.1854L34.0923 75.6004L40.3908 79.7329Z" fill="#F9E9CF"/>
<path d="M47.0867 78.2351C47.0795 78.2351 47.0722 78.2346 47.0652 78.2329L34.2165 75.2354C34.1685 75.2241 34.1367 75.1784 34.1435 75.1291C34.15 75.0806 34.1875 75.0529 34.2415 75.0464L45.08 75.4204C45.0962 75.4209 45.112 75.4256 45.126 75.4336C46.288 76.1289 47.1387 78.0204 47.1745 78.1004C47.1892 78.1334 47.1837 78.1724 47.1607 78.2001C47.142 78.2229 47.1147 78.2351 47.0867 78.2351ZM35.2135 75.2714L46.915 78.0016C46.675 77.5156 45.9475 76.1629 45.0482 75.6106L35.2135 75.2714Z" fill="#F9E9CF"/>
<path d="M31.7235 75.0206C31.7193 75.0206 31.715 75.0206 31.7108 75.0201L18.4363 73.2349C18.3895 73.2284 18.3543 73.1889 18.3535 73.1421C18.3525 73.0946 18.386 73.0541 18.4325 73.0456C18.4688 73.0391 22.1068 72.4021 26.352 72.4491C26.365 72.4491 26.378 72.4519 26.39 72.4571L31.7623 74.8379C31.8058 74.8571 31.8285 74.9056 31.8155 74.9516C31.804 74.9929 31.766 75.0206 31.7235 75.0206ZM19.1185 73.1334L31.072 74.7409L26.3308 72.6396C23.1633 72.6051 20.3483 72.9574 19.1185 73.1334Z" fill="#F9E9CF"/>
<path d="M47.2883 81.3572C46.926 81.4722 46.559 81.5894 46.2403 81.7964C46.1345 81.8652 46.0313 81.9477 45.9768 82.0614C45.922 82.1752 45.9293 82.3269 46.0228 82.4114C46.108 82.4884 46.2355 82.4907 46.3503 82.4852C46.9668 82.4562 47.5908 82.3262 48.119 82.0072C48.2473 81.9297 48.3755 81.8339 48.43 81.6942C48.748 80.8809 47.5455 81.2754 47.2883 81.3572Z" fill="#F9E9CF"/>
<path d="M37.7578 75.2799C37.4366 76.0769 37.3418 76.6787 37.2266 77.5302C37.1326 78.2247 37.2581 78.9549 37.6978 79.5009C38.6963 80.7407 40.6558 80.8542 42.2536 81.0697C43.7808 81.2759 45.3233 81.3699 46.8646 81.3512C48.0668 81.3364 49.2673 81.2532 50.4663 81.1624C57.3393 80.6412 64.4436 79.7832 70.4391 76.4667C71.2933 75.9942 71.6363 75.0029 71.4026 74.0549C71.2341 73.3714 71.1606 72.8887 70.7968 72.2974C69.1748 72.0749 67.1938 71.9199 65.5583 71.9922C63.2121 72.0959 60.8916 72.5029 58.5601 72.7839C51.6738 73.6149 44.4618 73.5024 37.7578 75.2799Z" fill="#F95438"/>
<path opacity="0.5" d="M71.4036 74.0527C71.6359 75.0052 71.2946 75.9949 70.4376 76.4692C69.0496 77.2344 67.6044 77.8669 66.1224 78.3967C66.0644 78.4164 66.0196 78.4334 65.9684 78.4517L65.9619 78.4532C65.6474 78.5644 65.3246 78.6709 65.0086 78.7757C64.9559 78.7874 64.8979 78.8072 64.8451 78.8189C60.2491 80.2617 55.3001 80.7997 50.4639 81.1604C49.2659 81.2534 48.0664 81.3397 46.8639 81.3504C45.3234 81.3669 43.7794 81.2737 42.2529 81.0724C41.7529 81.0034 41.2131 80.9432 40.6809 80.8537C40.6251 80.8522 40.5679 80.8442 40.5159 80.8279C40.2431 80.7847 39.9741 80.7267 39.7101 80.6607C39.6514 80.6459 39.5929 80.6312 39.5341 80.6167C39.3259 80.5522 39.1309 80.4847 38.9381 80.3959C38.8781 80.3747 38.8246 80.3519 38.7681 80.3159C38.3516 80.1244 37.9816 79.8604 37.6941 79.5019C37.2544 78.9557 37.1341 78.2274 37.2281 77.5282C37.3441 76.6784 37.4389 76.0757 37.7601 75.2774C44.4641 73.5049 51.6756 73.6142 58.5611 72.7844C60.8876 72.5034 63.2141 72.0974 65.5589 71.9924C67.1909 71.9209 69.1714 72.0767 70.7989 72.2969C71.1589 72.8884 71.2314 73.3709 71.4036 74.0527Z" fill="#F91B0B"/>
<path d="M70.5799 74.5819C70.2154 75.0589 69.7051 75.3902 69.1819 75.6684C68.0159 76.2979 66.7504 76.7019 65.4784 77.0597C65.4186 77.0729 65.3591 77.0929 65.2994 77.1061C65.2131 77.1326 65.1204 77.1527 65.0344 77.1792C64.8554 77.2254 64.6766 77.2786 64.4911 77.3249C64.4381 77.3381 64.3851 77.3514 64.3254 77.3647C59.7141 78.5639 54.9639 79.3389 50.2001 79.4517C50.1274 79.4582 50.0479 79.4582 49.9749 79.4582C48.8154 79.4847 47.6559 79.4714 46.4966 79.4117C44.8071 79.3257 43.1244 79.1532 41.4481 78.8749C41.2361 78.8417 41.0306 78.8019 40.8186 78.7622C40.7921 78.7622 40.7721 78.7557 40.7456 78.7422C40.7389 78.7422 40.7389 78.7422 40.7324 78.7422C40.3679 78.6627 40.0036 78.5699 39.6589 78.4374C39.4139 78.3447 39.1754 78.2319 38.9501 78.1061C38.8971 78.0729 38.8506 78.0332 38.7911 78.0002C38.5394 77.8347 38.3141 77.6359 38.1154 77.3974C37.9496 77.1987 37.8106 76.9667 37.7179 76.7282C37.6384 76.5227 37.5986 76.3107 37.5986 76.0989C37.5986 76.0194 37.6051 75.9399 37.6251 75.8604C37.6384 75.8009 37.6516 75.7479 37.6716 75.6949C37.6781 75.6619 37.6849 75.6352 37.6981 75.6087C37.7179 75.5492 37.7446 75.4962 37.7776 75.4432L37.7841 75.4367C38.0359 74.9597 38.5329 74.6217 39.0164 74.3699C39.4404 74.1447 39.8711 73.9527 40.3084 73.7737C42.0971 73.0647 44.0186 72.7004 45.9201 72.3889C47.4904 72.1304 49.0671 71.8987 50.6506 71.6867C55.8249 71.0044 60.8866 70.2159 66.1406 70.5937C67.3861 70.6797 68.6714 70.8322 69.7714 71.4549C70.2351 71.7199 70.7399 72.0734 70.9551 72.5819C70.9806 72.6419 71.0136 72.6882 71.0336 72.7544C71.0401 72.7677 71.0546 72.7994 71.0601 72.8234C71.0669 72.8299 71.0734 72.8434 71.0734 72.8499C71.2259 73.4459 70.9441 74.1047 70.5799 74.5819Z" fill="#F95438"/>
<path d="M38.9535 77.9344C38.866 78.7572 38.8675 79.5739 38.939 80.3957C38.879 80.3744 38.8255 80.3517 38.769 80.3157C38.6957 79.4872 38.7047 78.6542 38.7922 77.8317C38.8485 77.8677 38.8985 77.9052 38.9535 77.9344Z" fill="#380E0E"/>
<path d="M39.8231 78.3297C39.7109 79.1024 39.6689 79.8804 39.7106 80.6604C39.6519 80.6457 39.5934 80.6309 39.5346 80.6164C39.4996 79.8349 39.5401 79.0504 39.6574 78.2694C39.7111 78.2924 39.7646 78.3152 39.8231 78.3297Z" fill="#380E0E"/>
<path d="M40.817 78.5939C40.7203 79.3424 40.6738 80.1006 40.6818 80.8536C40.626 80.8521 40.5688 80.8441 40.5168 80.8279C40.5075 80.0684 40.5553 79.3169 40.6508 78.5616C40.7078 78.5696 40.7598 78.5856 40.817 78.5939Z" fill="#380E0E"/>
<path d="M45.4848 78.0059H45.4843C41.1158 77.9754 38.9783 76.2536 38.9573 76.2361C38.9301 76.2136 38.9186 76.1774 38.9281 76.1434C38.9371 76.1091 38.9656 76.0836 39.0006 76.0784L53.1633 73.8091C53.2071 73.7984 53.2491 73.8279 53.2628 73.8694C53.2766 73.9109 53.2583 73.9569 53.2191 73.9771L45.5266 77.9954C45.5136 78.0021 45.4991 78.0059 45.4848 78.0059ZM39.2433 76.2211C39.8226 76.6121 41.8698 77.7956 45.4628 77.8256L52.6456 74.0736L39.2433 76.2211Z" fill="#F9E9CF"/>
<path d="M51.5857 78.2341C49.7947 78.2341 48.531 78.0888 48.502 78.0853C48.4657 78.0811 48.4355 78.0553 48.426 78.0203C48.4165 77.9851 48.429 77.9473 48.4577 77.9248C49.376 77.2178 53.962 73.6863 54.0832 73.6271C54.1095 73.6143 54.1397 73.6143 54.1655 73.6293L59.7847 76.6643C59.815 76.6803 59.8332 76.7123 59.832 76.7466C59.8307 76.7808 59.81 76.8111 59.7792 76.8256C57.2107 77.9828 53.9422 78.2341 51.5857 78.2341ZM48.7462 77.9296C49.9267 78.0411 55.536 78.4561 59.5375 76.7348L54.1277 73.8131C53.7092 74.1123 50.293 76.7386 48.7462 77.9296Z" fill="#F9E9CF"/>
<path d="M62.3547 76.1464C62.3445 76.1464 62.3345 76.1442 62.3247 76.1412L55.0562 73.5854C55.0142 73.5704 54.9892 73.5271 54.9977 73.4834C55.0057 73.4411 55.043 73.4104 55.086 73.4104C55.0872 73.4104 55.0885 73.4104 55.0897 73.4109L67.9767 73.9429C68.0142 73.9439 68.047 73.9691 68.0587 74.0049C68.0702 74.0406 68.0585 74.0801 68.0287 74.1031C65.554 76.0596 62.388 76.1457 62.3562 76.1467C62.3562 76.1467 62.3552 76.1464 62.3547 76.1464ZM55.6835 73.6152L62.3685 75.9654C62.6055 75.9569 65.418 75.8172 67.7212 74.1119L55.6835 73.6152Z" fill="#F9E9CF"/>
<path d="M55.7128 73.2539C55.6668 73.2539 55.6286 73.2191 55.6236 73.1739C55.6186 73.1274 55.6491 73.0854 55.6943 73.0756L65.6761 70.9691C65.6908 70.9664 65.7061 70.9664 65.7211 70.9714C66.9391 71.3434 68.1433 72.8784 68.1941 72.9439C68.2151 72.9706 68.2188 73.0069 68.2043 73.0379C68.1893 73.0689 68.1583 73.0886 68.1243 73.0891L55.7141 73.2539C55.7136 73.2539 55.7128 73.2539 55.7128 73.2539ZM65.6903 71.1501L56.6326 73.0614L67.9351 72.9114C67.6058 72.5219 66.6358 71.4511 65.6903 71.1501Z" fill="#F9E9CF"/>
<path d="M40.842 74.9924C40.8018 74.9924 40.7658 74.9652 40.755 74.9257C40.7435 74.8824 40.7653 74.8377 40.8058 74.8199C40.8375 74.8062 44.019 73.4114 47.903 72.4862C47.9158 72.4834 47.9278 72.4829 47.9395 72.4852L53.3825 73.4457C53.4265 73.4537 53.4583 73.4927 53.4568 73.5374C53.4553 73.5817 53.421 73.6184 53.3768 73.6239L40.852 74.9919C40.8483 74.9917 40.845 74.9924 40.842 74.9924ZM47.9263 72.6654C45.034 73.3559 42.5353 74.3062 41.452 74.7452L52.73 73.5132L47.9263 72.6654Z" fill="#F9E9CF"/>
<path d="M69.0336 75.8914C68.7288 76.0781 68.4201 76.2681 68.1758 76.5291C68.0948 76.6159 68.0191 76.7143 67.9951 76.8306C67.9708 76.9468 68.0116 77.0836 68.1161 77.1398C68.2113 77.1908 68.3281 77.1641 68.4318 77.1333C68.9881 76.9676 69.5286 76.7079 69.9391 76.2974C70.0388 76.1976 70.1341 76.0811 70.1523 75.9413C70.2588 75.1266 69.2498 75.7586 69.0336 75.8914Z" fill="#F9E9CF"/>
<path d="M34.6267 81.3863C34.6262 81.3863 34.6257 81.3863 34.6252 81.3863C28.0582 81.2701 15.9812 77.6146 14.9062 74.8773C14.577 74.0391 14.5905 73.3448 14.946 72.8131C15.6345 71.7838 17.3412 71.7416 17.4137 71.7406C17.4137 71.7406 17.4145 71.7406 17.415 71.7406C17.46 71.7406 17.497 71.7763 17.4977 71.8216C17.4985 71.8676 17.4622 71.9053 17.4167 71.9058C17.3997 71.9063 15.7232 71.9481 15.0835 72.9051C14.7602 73.3891 14.7525 74.0321 15.0605 74.8163C16.0945 77.4488 28.2575 81.1076 34.6285 81.2206C34.674 81.2211 34.7105 81.2591 34.7095 81.3048C34.7087 81.3506 34.6717 81.3863 34.6267 81.3863Z" fill="#380E0E"/>
<path d="M69.0889 71.5042C69.0822 71.5174 69.0689 71.5307 69.0624 71.5439C69.0159 71.6169 68.9632 71.6897 68.9099 71.7559C68.5589 72.2132 68.1214 72.5974 67.6444 72.9219C67.5979 72.9617 67.5449 73.0014 67.4919 73.0344C67.2467 73.2002 66.9949 73.3459 66.7367 73.4917C66.3324 73.7102 65.9284 73.9157 65.5109 74.1012C65.4579 74.1277 65.4049 74.1542 65.3519 74.1742C64.3779 74.6114 63.3644 74.9692 62.3307 75.2674C62.2777 75.2872 62.2247 75.3072 62.1717 75.3204C61.7809 75.4329 61.3899 75.5457 60.9989 75.6452C60.2967 75.8307 59.5944 75.9964 58.8854 76.1487C58.8324 76.1619 58.7729 76.1752 58.7199 76.1819C57.5274 76.4469 56.3214 76.6589 55.1157 76.8379C55.0627 76.8512 55.0032 76.8577 54.9502 76.8644C54.0492 76.9969 53.1414 77.1097 52.2339 77.2024C52.1809 77.2089 52.1212 77.2157 52.0682 77.2157C51.2334 77.3019 50.3919 77.3747 49.5507 77.4277C49.4977 77.4344 49.4379 77.4344 49.3849 77.4344C48.7489 77.4809 48.1194 77.5139 47.4834 77.5339C47.4304 77.5407 47.3709 77.5407 47.3177 77.5407C46.4497 77.5737 45.5884 77.5937 44.7207 77.6002C44.6677 77.6002 44.6082 77.6067 44.5552 77.6002C43.7469 77.6067 42.9387 77.6067 42.1302 77.5937C42.0772 77.5937 42.0177 77.5937 41.9647 77.5869C41.0039 77.5737 40.0367 77.5472 39.0762 77.5074C39.0232 77.5074 38.9702 77.5009 38.9104 77.5009C38.3472 77.4744 37.7774 77.4479 37.2144 77.4214C36.9959 77.4082 36.7707 77.4014 36.5519 77.3817C36.4989 77.3817 36.4392 77.3817 36.3862 77.3749C35.4917 77.3284 34.6039 77.2689 33.7097 77.1959C33.6567 77.1959 33.6037 77.1894 33.5442 77.1827C32.8022 77.1297 32.0534 77.0634 31.3114 76.9907C31.2584 76.9839 31.1989 76.9774 31.1459 76.9709C30.1984 76.8782 29.2577 76.7654 28.3169 76.6397C28.2574 76.6332 28.2044 76.6264 28.1514 76.6197C27.3099 76.5072 26.4752 76.3812 25.6472 76.2354C25.5877 76.2289 25.5347 76.2157 25.4817 76.2089C24.7462 76.0764 24.0109 75.9372 23.2754 75.7849C23.2224 75.7784 23.1694 75.7652 23.1097 75.7519C22.4404 75.6062 21.7647 75.4537 21.0957 75.2882C20.7977 75.2154 20.4994 75.1292 20.1947 75.0429C20.1417 75.0297 20.0887 75.0099 20.0289 74.9899C19.1677 74.7317 18.3129 74.4004 17.5379 73.9632C17.4849 73.9367 17.4319 73.9034 17.3789 73.8704C16.6367 73.4399 15.9809 72.9099 15.4907 72.2472C15.4377 72.1809 15.3847 72.1079 15.3449 72.0352C15.1129 71.6974 14.9342 71.3262 14.8017 70.9154C14.7422 70.7299 14.6957 70.5377 14.6627 70.3522C14.6297 70.1867 14.6097 70.0274 14.5964 69.8684C14.5302 69.0269 14.6827 68.1857 14.9607 67.3774C15.0667 67.0727 15.1859 66.7679 15.3184 66.4764C15.4509 66.1717 15.6034 65.8734 15.7557 65.5887C17.1537 62.9917 21.0294 62.8392 23.6729 62.6339C24.7197 62.5544 25.7799 62.5147 26.8332 62.5079C29.0727 62.4947 31.3184 62.6074 33.5579 62.6472C34.0417 62.6537 34.5319 62.6604 35.0154 62.6604C35.3402 62.6604 35.6647 62.6537 35.9959 62.6537C42.4357 62.6139 48.8889 62.0442 55.3219 61.9712C56.0707 61.9647 56.8192 61.9647 57.5679 61.9712C60.2644 61.9912 62.9609 62.1237 65.6507 62.4414C66.9824 62.6004 68.4929 62.9184 69.1887 64.0912C69.2747 64.2302 69.3412 64.3759 69.3942 64.5284C69.4537 64.6742 69.4937 64.8332 69.5334 64.9922C69.6064 65.3034 69.6459 65.6282 69.6857 65.9529C69.7387 66.3702 69.7917 66.8009 69.8249 67.2317C69.9502 68.7414 69.8907 70.2719 69.0889 71.5042Z" fill="#542D1B"/>
<path d="M15.8147 67.0584C15.2252 68.0722 14.8807 69.2049 14.662 70.3512C14.629 70.1857 14.609 70.0264 14.5957 69.8674C14.8142 68.8604 15.1455 67.8732 15.6757 66.9722L15.8147 67.0584Z" fill="#380E0E"/>
<path d="M16.8477 67.5887C16.119 69.0529 15.6618 70.6296 15.4895 72.2464C15.4365 72.1801 15.3835 72.1072 15.3438 72.0344C15.536 70.4642 15.993 68.9339 16.702 67.5094L16.8477 67.5887Z" fill="#380E0E"/>
<path d="M18.6377 68.4829C18.1539 70.2784 17.7897 72.1136 17.5379 73.9621C17.4849 73.9356 17.4319 73.9024 17.3789 73.8694C17.6307 72.0409 18.0017 70.2189 18.4787 68.4434L18.6377 68.4829Z" fill="#380E0E"/>
<path d="M21.4396 69.4702C20.9228 71.2987 20.5053 73.1672 20.1941 75.042C20.1411 75.0287 20.0881 75.009 20.0283 74.989C20.3463 73.114 20.7638 71.2457 21.2806 69.4237L21.4396 69.4702Z" fill="#380E0E"/>
<path d="M24.2954 70.2254C23.8649 72.0539 23.5201 73.9092 23.2751 75.7842C23.2221 75.7777 23.1691 75.7644 23.1094 75.7512C23.3544 73.8762 23.6991 72.0144 24.1364 70.1859L24.2954 70.2254Z" fill="#380E0E"/>
<path d="M26.2432 71.5637C26.0774 73.114 25.8722 74.6777 25.6469 76.2345C25.5874 76.228 25.5344 76.2147 25.4814 76.208C25.7067 74.6577 25.9119 73.094 26.0777 71.5437L26.2432 71.5637Z" fill="#380E0E"/>
<path d="M29.0126 71.3982C28.7409 73.134 28.5024 74.8832 28.3169 76.639C28.2574 76.6325 28.2044 76.6257 28.1514 76.619C28.3369 74.8632 28.5754 73.1075 28.8471 71.3717L29.0126 71.3982Z" fill="#380E0E"/>
<path d="M31.682 72.0277C31.4833 73.6707 31.3575 75.3272 31.311 76.9899C31.258 76.9832 31.1985 76.9767 31.1455 76.9702C31.1918 75.3139 31.3178 73.6509 31.5165 72.0077L31.682 72.0277Z" fill="#380E0E"/>
<path d="M33.8617 72.3987L33.7094 77.1955C33.6564 77.1955 33.6034 77.189 33.5439 77.1822L33.6962 72.3922L33.8617 72.3987Z" fill="#380E0E"/>
<path d="M36.5521 77.381C36.4991 77.381 36.4394 77.381 36.3864 77.3742L36.2871 72.3987L36.4526 72.392L36.5521 77.381Z" fill="#380E0E"/>
<path d="M39.0765 77.5066C39.0235 77.5066 38.9705 77.5001 38.9107 77.5001C38.8577 75.6449 38.7317 73.7766 38.5332 71.9346L38.6987 71.9214C38.8977 73.7699 39.0235 75.6449 39.0765 77.5066Z" fill="#380E0E"/>
<path d="M42.13 77.593C42.077 77.593 42.0175 77.593 41.9645 77.5862L41.832 71.8885L41.9978 71.8817L42.13 77.593Z" fill="#380E0E"/>
<path d="M44.7206 77.5994C44.6676 77.5994 44.6081 77.6059 44.5551 77.5994C44.4756 75.9231 44.2503 74.2536 43.8926 72.6171L44.0516 72.5774C44.4158 74.2336 44.6411 75.9099 44.7206 77.5994Z" fill="#380E0E"/>
<path d="M47.4837 77.5331C47.4307 77.5399 47.3712 77.5399 47.3179 77.5399C47.2584 75.7247 47.0994 73.9026 46.8477 72.1139L47.0132 72.0874C47.2652 73.8827 47.4242 75.7111 47.4837 77.5331Z" fill="#380E0E"/>
<path d="M49.5511 77.4271C49.4981 77.4339 49.4384 77.4339 49.3854 77.4339C49.3456 75.5986 49.2329 73.7569 49.0674 71.9349L49.2329 71.9216C49.3986 73.7434 49.5114 75.5919 49.5511 77.4271Z" fill="#380E0E"/>
<path d="M52.2339 77.202C52.1809 77.2084 52.1212 77.2152 52.0682 77.2152C52.0152 75.3534 51.8362 73.4784 51.5449 71.6432L51.7104 71.6167C52.0019 73.4587 52.1809 75.3337 52.2339 77.202Z" fill="#380E0E"/>
<path d="M55.1167 76.8374C55.0637 76.8506 55.0042 76.8571 54.9512 76.8639C54.8319 75.0684 54.5867 73.2796 54.2422 71.5171L54.4077 71.4841C54.7522 73.2466 54.9907 75.0419 55.1167 76.8374Z" fill="#380E0E"/>
<path d="M58.8864 76.1485C58.8334 76.1617 58.7739 76.175 58.7209 76.1817C58.4824 74.4725 58.1444 72.763 57.7139 71.0935L57.8729 71.0537C58.3034 72.7232 58.6479 74.4325 58.8864 76.1485Z" fill="#380E0E"/>
<path d="M62.3308 75.2674C62.2778 75.2872 62.2248 75.3072 62.1718 75.3204C61.8736 73.4522 61.4231 71.5969 60.8203 69.7949L60.9793 69.7419C61.5753 71.5439 62.0326 73.3924 62.3308 75.2674Z" fill="#380E0E"/>
<path d="M65.5117 74.1011C65.4587 74.1276 65.4057 74.1541 65.3527 74.1741C65.1074 72.3986 64.7034 70.6494 64.1602 68.9534L64.3124 68.9004C64.8624 70.5964 65.2667 72.3389 65.5117 74.1011Z" fill="#380E0E"/>
<path d="M67.6449 72.922C67.5984 72.9617 67.5454 73.0015 67.4924 73.0345C67.2936 71.292 66.9426 69.5695 66.4521 67.8867L66.6111 67.8402C67.1016 69.5032 67.4461 71.206 67.6449 72.922Z" fill="#380E0E"/>
<path d="M69.0624 71.5439C69.0159 71.6169 68.9631 71.6897 68.9099 71.7559C68.8104 70.3514 68.5589 68.9602 68.1611 67.5952L68.3201 67.549C68.7046 68.854 68.9499 70.1924 69.0624 71.5439Z" fill="#380E0E"/>
<path d="M69.8245 67.2307C69.1885 67.8867 68.4132 68.4497 67.6447 68.9069C61.8542 72.3124 54.9107 73.0875 48.1927 73.2929C41.8192 73.4852 35.439 73.2267 29.1052 72.5244C24.6927 72.0342 20.1412 71.2657 16.4905 68.7415C16.0267 68.4235 15.4502 67.9464 14.96 67.3767C15.066 67.0719 15.1852 66.7672 15.3177 66.4757C15.4502 66.171 15.6027 65.8727 15.755 65.5879C17.153 62.9909 21.0287 62.8385 23.6722 62.6332C24.719 62.5537 25.7792 62.514 26.8325 62.5072C28.8532 62.5205 30.8872 62.6067 32.9012 62.6464C33.6035 62.6597 34.3125 62.6597 35.0147 62.6597C35.3395 62.6597 35.664 62.653 35.9952 62.653C42.435 62.58 48.8882 62.0302 55.3212 61.9705C56.07 61.964 56.8185 61.964 57.5672 61.9705C60.2437 61.997 62.9137 62.1362 65.5772 62.4407C66.9355 62.5997 68.4725 62.9177 69.1815 64.0905C69.2675 64.2294 69.334 64.3752 69.3935 64.5277C69.4465 64.6734 69.493 64.8325 69.5327 64.9915C69.6057 65.3027 69.6452 65.6274 69.685 65.9522C69.7382 66.3694 69.7912 66.8002 69.8245 67.2307Z" fill="#723E01"/>
<path d="M67.2174 65.3492C66.8499 66.2834 66.4822 67.2174 66.1144 68.1582C64.8444 71.3714 63.5812 74.5847 62.3112 77.8047C59.4437 76.3272 56.6429 74.7172 53.9224 72.9882C52.0977 71.8354 50.3064 70.6162 48.5549 69.3509L48.3879 68.9867L48.0137 68.1717C48.3947 67.9662 48.7824 67.7674 49.1702 67.5887C49.1769 67.5822 49.1769 67.5822 49.1769 67.5822C51.7569 66.3697 54.5644 65.6477 57.4052 65.2832C60.6737 64.8722 63.9289 65.0842 67.2174 65.3492Z" fill="#FEB544"/>
<path opacity="0.3" d="M67.2172 65.3492C66.8497 66.2834 66.4819 67.2174 66.1142 68.1582C65.3857 68.2974 64.5969 68.3372 63.9152 68.6352C62.7722 69.1387 62.0904 70.2849 61.2079 71.1594C59.4834 72.8554 56.8699 73.5047 54.4769 73.1007C54.2897 73.0677 54.1027 73.0344 53.9222 72.9882C52.0974 71.8354 50.3062 70.6162 48.5547 69.3509L48.3877 68.9867C48.4477 68.5097 48.7819 68.0194 49.1697 67.5887C49.1764 67.5822 49.1764 67.5822 49.1764 67.5822C51.7564 66.3697 54.5639 65.6477 57.4047 65.2832C60.6734 64.8722 63.9287 65.0842 67.2172 65.3492Z" fill="#D7773B"/>
<path d="M63.3297 71.0977C63.2275 71.4762 63.1545 71.888 63.2982 72.253C63.3372 72.3525 63.396 72.4497 63.4882 72.5035C63.62 72.58 63.7937 72.5485 63.9195 72.4625C64.0452 72.3765 64.132 72.245 64.2087 72.1135C64.5712 71.4925 64.7845 70.785 64.8255 70.0672C64.8375 69.857 64.8285 69.6272 64.694 69.4652C64.0997 68.75 63.4197 70.765 63.3297 71.0977Z" fill="#F9E9CF"/>
<path d="M63.1588 73.069C62.7518 73.084 62.6315 73.6453 62.8123 73.938C62.848 73.9958 62.8955 74.0485 62.9568 74.0778C63.1588 74.1745 63.4163 74.0033 63.5255 73.8383C63.6258 73.687 63.6655 73.4748 63.5795 73.3103C63.5018 73.161 63.345 73.0498 63.1715 73.0713" fill="#F9E9CF"/>
<path d="M44.6281 68.3902C44.6546 69.0859 44.5353 69.7749 44.2571 70.4109C42.0973 70.5899 39.9308 70.7687 37.7708 70.9542C35.5646 71.1397 33.3651 71.3252 31.1588 71.5107C28.8201 71.7029 26.4813 71.9017 24.1426 72.1004C22.7778 72.2129 21.4128 72.3322 20.0481 72.4449C18.9086 72.5377 17.7691 72.6304 16.6426 72.4914C17.2191 70.3449 18.0471 68.2644 19.0873 66.2967C19.4318 65.6539 19.7963 65.0179 20.1806 64.4019C24.4341 64.1502 28.6941 63.6929 32.9078 64.3159C37.0223 64.9319 41.0903 66.1972 44.6281 68.3902Z" fill="#FEB544"/>
<path d="M17.3206 71.2316C17.3033 71.3734 17.3044 71.5424 17.4194 71.6271C17.4661 71.6616 17.5258 71.6756 17.5838 71.6761C17.8548 71.6786 18.0516 71.4249 18.1834 71.1879C18.3491 70.8896 19.1253 69.1806 18.3058 69.2171C17.9528 69.2329 17.7656 69.7429 17.6519 70.0074C17.4841 70.3969 17.3716 70.8104 17.3206 71.2316Z" fill="#F9E9CF"/>
<path opacity="0.3" d="M44.6284 68.3902C44.6549 69.0859 44.5356 69.7749 44.2574 70.4109C42.0976 70.5899 39.9311 70.7687 37.7711 70.9542C37.4664 70.7024 37.1484 70.4704 36.7906 70.2982C35.6444 69.7284 34.2464 69.8674 33.0739 70.3844C32.3916 70.6824 31.7819 71.0999 31.1591 71.5107C28.8204 71.7029 26.4816 71.9017 24.1429 72.1004C23.6526 71.7624 23.2219 71.3252 22.9106 70.8084C22.4999 70.1327 22.2879 69.3509 21.9036 68.6552C21.4531 67.8337 20.7509 67.1379 19.9226 66.6942C19.6641 66.5617 19.3661 66.4424 19.0879 66.2967C19.4324 65.6539 19.7969 65.0179 20.1811 64.4019C24.4346 64.1502 28.6946 63.6929 32.9084 64.3159C37.0226 64.9319 41.0906 66.1972 44.6284 68.3902Z" fill="#D7773B"/>
<path d="M76.2182 65.2168V65.2233C76.2447 65.5613 76.1452 65.8925 75.993 66.1973C75.284 67.6215 73.5615 68.2775 71.9715 68.2975C70.3815 68.3175 68.831 67.8403 67.2542 67.6085C67.0555 67.582 66.85 67.5555 66.6447 67.5423H66.6382C66.5057 67.5225 66.3797 67.5158 66.2407 67.5093C64.9687 67.443 63.6767 67.635 62.6697 68.3838C61.603 69.1788 61.02 70.4575 60.066 71.385C58.2175 73.174 54.9577 73.2203 53.0565 71.4845C52.3607 70.8418 51.7975 69.9805 50.8967 69.6825C50.5852 69.583 50.2805 69.5565 49.9757 69.5898C49.916 69.5963 49.863 69.603 49.8035 69.6163C48.644 69.835 47.5642 70.8685 46.557 71.6568C45.4505 72.5115 44.1322 73.1408 42.7407 73.2403C42.1975 73.28 41.641 73.2338 41.111 73.0945C41.038 73.0748 40.9652 73.0548 40.8925 73.0348C40.1902 72.8228 39.5475 72.4583 39.0372 71.9283C39.0042 71.9085 38.971 71.8688 38.938 71.8355C38.918 71.809 38.8915 71.7825 38.8717 71.756C38.8717 71.756 38.8717 71.756 38.8652 71.7495C38.302 71.1003 37.9245 70.2788 37.222 69.775C36.4535 69.2253 35.4662 69.192 34.5255 69.437C34.4327 69.457 34.3467 69.4835 34.2605 69.51C33.896 69.6225 33.5382 69.775 33.2137 69.9473C32.4982 70.3183 31.8357 70.7888 31.1467 71.206C31.0672 71.2525 30.9877 71.2988 30.9082 71.345C30.4645 71.5968 30.0005 71.8288 29.5105 71.981C27.112 72.7363 24.3825 71.4908 22.9977 69.3905C22.9447 69.3175 22.8985 69.2448 22.8585 69.172C22.7857 69.046 22.7127 68.9268 22.6532 68.801C22.5272 68.5425 22.408 68.2775 22.2955 68.0193C22.2625 67.953 22.2292 67.8868 22.2027 67.8205C22.0305 67.4563 21.8382 67.0983 21.5667 66.8003C20.6192 65.7335 18.963 65.6078 17.585 65.9788C16.207 66.3565 14.968 67.1315 13.6297 67.635C13.2322 67.7808 12.795 67.9 12.3577 67.9398C12.285 67.953 12.2052 67.953 12.1325 67.953C11.5692 67.9795 11.0195 67.847 10.602 67.4693C10.496 67.3765 10.41 67.2705 10.337 67.158C10.3037 67.1115 10.2707 67.0585 10.2442 67.0123C10.0852 66.714 10.0122 66.3763 10.019 66.025C10.019 65.9523 10.0257 65.8793 10.0257 65.8065C10.072 65.3295 10.2577 64.8458 10.549 64.455C11.2115 63.5738 12.2782 63.0968 13.3185 62.7258C13.895 62.5138 14.4912 62.3215 15.0542 62.0765C15.4982 61.8778 15.9287 61.646 16.313 61.3413C16.6442 61.3875 16.9822 61.4273 17.3135 61.4605C17.4262 61.4738 17.5387 61.487 17.6515 61.4935C24.6147 62.1693 31.6705 60.864 38.6735 60.5263C43.5962 60.2878 48.5252 60.7448 53.4347 61.2683C58.5695 61.818 63.9027 63.1168 69.0572 63.4348C69.4415 63.4548 69.8192 63.4813 70.2035 63.501C71.3562 63.5738 72.509 63.64 73.6552 63.713H73.695C73.7745 63.7195 73.8472 63.7263 73.9335 63.7395C73.9402 63.7395 73.9402 63.7395 73.9402 63.7395C74.8942 63.8255 75.961 64.117 76.1862 65.0115V65.018C76.205 65.0843 76.2115 65.1505 76.2182 65.2168Z" fill="#ADA04F"/>
<path d="M70.202 63.5008C65.6635 66.0118 60.5357 67.3898 55.3745 68.006C49.8425 68.6753 44.244 68.503 38.6852 68.1453C32.1527 67.728 25.5472 67.0388 19.4585 64.6405C17.8685 64.0113 16.2785 63.2293 15.0527 62.0765C15.4967 61.8778 15.9272 61.646 16.3115 61.3413C23.7055 62.3418 31.2185 60.884 38.672 60.5263C43.5947 60.2878 48.5237 60.7448 53.4332 61.2683C58.568 61.818 63.9012 63.1168 69.0557 63.4348C69.44 63.4545 69.8177 63.481 70.202 63.5008Z" fill="#380E0E"/>
<path d="M17.9633 58.4218C17.901 58.8543 17.8525 59.3 17.9595 59.7238C18.0663 60.1475 18.3593 60.5495 18.7795 60.669C19.131 60.769 19.5173 60.656 19.8155 60.445C20.1138 60.234 20.3368 59.9343 20.536 59.6278C21.2323 58.5565 23.0758 54.865 21.1875 54.0655C19.1383 53.1978 18.1448 57.1613 17.9633 58.4218Z" fill="#FCB666"/>
<path d="M69.5771 63.4652C69.5771 63.4652 55.4613 68.8277 38.3681 67.7675C31.2658 67.3235 23.6598 65.7667 16.3588 62.242L15.5811 61.8177C15.5811 61.8177 20.0821 37.7152 43.2576 39.239C49.2866 39.6365 53.9043 41.0742 57.4556 43.0882C67.5591 48.806 68.9541 59.2117 69.5771 63.4652Z" fill="#D7773B"/>
<path opacity="0.1" d="M69.5772 63.4653C69.5772 63.4653 55.4614 68.8278 38.3682 67.7675C39.9649 67.635 41.5549 67.3965 43.1319 67.0718C47.5112 66.164 51.8374 64.4813 55.1502 61.48C58.4629 58.4788 60.6294 54 60.1192 49.561C59.8409 47.2025 58.8537 45.0228 57.4559 43.088C67.5592 48.806 68.9542 59.2118 69.5772 63.4653Z" fill="#4F2138"/>
<path d="M34.4819 44.2005C34.6054 44.598 33.8619 45.1823 32.8209 45.5058C31.7801 45.8293 30.8361 45.7693 30.7126 45.372C30.5891 44.9745 31.3326 44.3903 32.3736 44.0668C33.4146 43.7433 34.3584 43.803 34.4819 44.2005Z" fill="#F9E9CF"/>
<path d="M39.2667 50.1903C39.1377 50.586 38.1932 50.633 37.1567 50.2955C36.1205 49.9578 35.3847 49.3635 35.5137 48.9678C35.6427 48.572 36.5872 48.525 37.6235 48.8625C38.66 49.2 39.3955 49.7945 39.2667 50.1903Z" fill="#F9E9CF"/>
<path d="M45.3406 42.418C45.3406 42.834 44.4571 43.1716 43.3671 43.1716C42.2771 43.1716 41.3936 42.834 41.3936 42.418C41.3936 42.0018 42.2771 41.6646 43.3671 41.6646C44.4571 41.6646 45.3406 42.0018 45.3406 42.418Z" fill="#F9E9CF"/>
<path d="M50.3764 48.9871C50.5844 49.3476 49.9879 50.0813 49.0441 50.6263C48.1001 51.1713 47.1664 51.3208 46.9584 50.9606C46.7504 50.6001 47.3469 49.8661 48.2906 49.3213C49.2344 48.7763 50.1684 48.6266 50.3764 48.9871Z" fill="#F9E9CF"/>
<path d="M55.4792 45.8576C55.2712 46.2181 54.3372 46.0683 53.3932 45.5233C52.4492 44.9783 51.8529 44.2443 52.0609 43.8841C52.2689 43.5236 53.2029 43.6733 54.1467 44.2181C55.0907 44.7633 55.6872 45.4973 55.4792 45.8576Z" fill="#F9E9CF"/>
<path d="M28.8757 53.075C28.8757 53.4913 27.9922 53.8285 26.9022 53.8285C25.8122 53.8285 24.9287 53.491 24.9287 53.075C24.9287 52.6588 25.8122 52.3215 26.9022 52.3215C27.9922 52.3215 28.8757 52.6588 28.8757 53.075Z" fill="#F9E9CF"/>
<path d="M60.9203 52.0883C61.1283 52.4488 60.5318 53.1826 59.5881 53.7276C58.6441 54.2726 57.7103 54.4221 57.5023 54.0618C57.2943 53.7013 57.8906 52.9676 58.8346 52.4226C59.7783 51.8773 60.7121 51.7278 60.9203 52.0883Z" fill="#F9E9CF"/>
<path d="M49.3431 28.9777L57.3499 30.3309L54.8126 33.3192L56.1094 35.4619L48.3281 33.9959L49.3431 28.9777Z" fill="#F9E9CF"/>
<path d="M46.8066 41.717C46.7961 41.717 46.7858 41.7165 46.7753 41.7142C46.6853 41.6972 46.6266 41.6107 46.6436 41.5205L49.0963 28.58C49.113 28.4897 49.2011 28.4305 49.2901 28.4482C49.3801 28.4652 49.4388 28.5517 49.4218 28.642L46.969 41.5825C46.954 41.662 46.8846 41.717 46.8066 41.717Z" fill="#380E0E"/>
<path d="M40.5422 96.2581C40.5257 97.1921 39.7552 97.9361 38.8212 97.9199C37.8872 97.9036 37.1432 97.1331 37.1594 96.1989C37.1757 95.2649 37.9462 94.5209 38.8804 94.5371C39.8147 94.5536 40.5587 95.3241 40.5422 96.2581Z" fill="#380E0E"/>
<path d="M55.3947 95.0522C55.3785 95.9862 54.608 96.7302 53.6737 96.7139C52.7397 96.6974 51.9957 95.9272 52.012 94.9929C52.0282 94.0589 52.7987 93.3149 53.733 93.3312C54.6672 93.3474 55.4112 94.1179 55.3947 95.0522Z" fill="#380E0E"/>
<path d="M46.8493 99.1242C46.2861 99.1242 45.7231 98.938 45.2798 98.5837C44.8851 98.268 44.5898 97.833 44.4706 97.3902C44.4348 97.258 44.5133 97.1212 44.6456 97.0855C44.7776 97.0492 44.9143 97.1282 44.9503 97.261C45.0428 97.6035 45.2761 97.944 45.5903 98.1952C46.1351 98.6317 46.9073 98.7502 47.5568 98.4972C48.2071 98.2455 48.6968 97.6372 48.8051 96.9482C48.8263 96.8127 48.9538 96.7215 49.0891 96.7412C49.2246 96.7625 49.3171 96.8895 49.2958 97.025C49.1606 97.8857 48.5486 98.6455 47.7366 98.9602C47.4533 99.0702 47.1513 99.1242 46.8493 99.1242Z" fill="#380E0E"/>
<path d="M33.4706 105.549C35.9775 105.549 38.0096 103.517 38.0096 101.01C38.0096 98.5036 35.9775 96.4714 33.4706 96.4714C30.9638 96.4714 28.9316 98.5036 28.9316 101.01C28.9316 103.517 30.9638 105.549 33.4706 105.549Z" fill="#F95438"/>
<path d="M63.775 99.3747C63.775 99.6264 63.7552 99.8782 63.7087 100.117C62.1585 101.488 60.2835 102.714 58.0242 103.741C56.1095 103.217 54.6982 101.461 54.6982 99.3747C54.6982 96.8704 56.7322 94.8364 59.2367 94.8364C61.7477 94.8364 63.775 96.8704 63.775 99.3747Z" fill="#F95438"/>
<path d="M61.6523 32.9572C61.5468 33.2152 61.478 33.5329 61.647 33.7544C61.8013 33.9567 62.098 33.9922 62.345 33.9317C62.817 33.8159 63.1823 33.4207 63.3765 32.9752C63.493 32.7079 63.5563 32.3959 63.4428 32.1272C63.2638 31.7037 62.8218 31.7274 62.4823 31.9182C62.0858 32.1412 61.8208 32.5452 61.6523 32.9572Z" fill="#F9E9CF"/>
<path d="M62.1269 36.9845C62.0214 37.2425 61.9527 37.5602 62.1217 37.7817C62.2759 37.984 62.5727 38.0197 62.8197 37.959C63.2917 37.8432 63.6572 37.448 63.8514 37.0025C63.9679 36.7352 64.0312 36.4232 63.9177 36.1545C63.7387 35.731 63.2967 35.7547 62.9572 35.9457C62.5607 36.1685 62.2954 36.5725 62.1269 36.9845Z" fill="#F9E9CF"/>
<path d="M65.9121 32.6427C65.8066 32.9007 65.7378 33.2184 65.9068 33.4399C66.0611 33.6422 66.3578 33.6777 66.6048 33.6172C67.0768 33.5014 67.4421 33.1062 67.6366 32.6607C67.7531 32.3934 67.8163 32.0814 67.7028 31.8127C67.5238 31.3892 67.0818 31.4129 66.7423 31.6039C66.3456 31.8267 66.0806 32.2307 65.9121 32.6427Z" fill="#F9E9CF"/>
<path d="M11.9322 91.6115C11.7395 91.4095 11.4767 91.2167 11.2047 91.2805C10.9567 91.339 10.8027 91.596 10.757 91.8467C10.6697 92.326 10.882 92.822 11.2102 93.182C11.4072 93.398 11.667 93.5835 11.959 93.5895C12.4197 93.599 12.5787 93.1847 12.543 92.7957C12.5017 92.342 12.2402 91.9342 11.9322 91.6115Z" fill="#F9E9CF"/>
<path d="M8.05307 90.3982C7.86032 90.1962 7.59757 90.0035 7.32582 90.0672C7.07782 90.1257 6.92382 90.3827 6.87807 90.6335C6.79082 91.1127 7.00307 91.6087 7.33132 91.9687C7.52832 92.1847 7.78782 92.3702 8.08007 92.3762C8.54082 92.3857 8.69982 91.9715 8.66407 91.5825C8.62257 91.1287 8.36132 90.721 8.05307 90.3982Z" fill="#F9E9CF"/>
<path d="M10.478 95.6377C10.2853 95.4357 10.0225 95.243 9.75054 95.3067C9.50254 95.3652 9.34829 95.6222 9.30279 95.873C9.21579 96.3522 9.42779 96.8482 9.75604 97.2082C9.95279 97.4242 10.2128 97.6097 10.5048 97.6157C10.9655 97.6252 11.1245 97.211 11.0888 96.8222C11.0475 96.3682 10.786 95.9605 10.478 95.6377Z" fill="#F9E9CF"/>
<path d="M108.102 95.9047C107.98 96.1375 107.889 96.4297 108.028 96.6522C108.155 96.8552 108.431 96.9142 108.667 96.8787C109.12 96.8107 109.497 96.4715 109.718 96.0702C109.85 95.8295 109.936 95.5422 109.853 95.2805C109.721 94.8677 109.305 94.852 108.97 95.0017C108.579 95.1765 108.295 95.5327 108.102 95.9047Z" fill="#F9E9CF"/>
<path d="M108.199 99.724C108.078 99.9567 107.986 100.249 108.126 100.471C108.253 100.674 108.529 100.733 108.765 100.698C109.218 100.63 109.595 100.291 109.816 99.8895C109.948 99.6487 110.034 99.3615 109.951 99.0997C109.819 98.687 109.403 98.6712 109.068 98.821C108.677 98.9957 108.393 99.352 108.199 99.724Z" fill="#F9E9CF"/>
<path d="M112.125 95.9765C112.004 96.2093 111.912 96.5015 112.052 96.724C112.179 96.927 112.454 96.986 112.691 96.9505C113.144 96.8825 113.521 96.5433 113.741 96.142C113.874 95.9013 113.96 95.614 113.877 95.352C113.745 94.9393 113.328 94.9235 112.993 95.0733C112.602 95.2483 112.319 95.6045 112.125 95.9765Z" fill="#F9E9CF"/>
<path d="M112.665 88.9402C112.573 88.9402 112.499 88.8659 112.499 88.7747V82.9807C112.499 82.8894 112.573 82.8152 112.665 82.8152C112.756 82.8152 112.831 82.8894 112.831 82.9807V88.7747C112.831 88.8659 112.756 88.9402 112.665 88.9402Z" fill="#F9E9CF"/>
<path d="M115.372 86.0925H109.902C109.811 86.0925 109.736 86.0182 109.736 85.927C109.736 85.8357 109.811 85.7615 109.902 85.7615H115.372C115.463 85.7615 115.537 85.8357 115.537 85.927C115.537 86.0182 115.463 86.0925 115.372 86.0925Z" fill="#F9E9CF"/>
<path d="M111.284 87.8687C111.247 87.8687 111.211 87.857 111.18 87.8325C111.109 87.775 111.097 87.6707 111.155 87.5992L113.89 84.202C113.948 84.1305 114.052 84.1197 114.123 84.177C114.194 84.2345 114.205 84.3387 114.148 84.4102L111.413 87.8075C111.38 87.848 111.332 87.8687 111.284 87.8687Z" fill="#F9E9CF"/>
<path d="M114.342 87.4317C114.306 87.4317 114.269 87.42 114.239 87.396L110.813 84.6615C110.742 84.6045 110.73 84.4997 110.787 84.4282C110.844 84.3577 110.949 84.346 111.02 84.402L114.445 87.1365C114.517 87.1935 114.529 87.2982 114.472 87.3697C114.439 87.4105 114.391 87.4317 114.342 87.4317Z" fill="#F9E9CF"/>
<path d="M68.9939 59.9294C68.9024 59.9294 68.8281 59.8552 68.8281 59.7639V53.9704C68.8281 53.8792 68.9024 53.8049 68.9939 53.8049C69.0854 53.8049 69.1596 53.8792 69.1596 53.9704V59.7639C69.1596 59.8552 69.0854 59.9294 68.9939 59.9294Z" fill="#F9E9CF"/>
<path d="M71.7007 57.0825H66.2312C66.1397 57.0825 66.0654 57.0082 66.0654 56.917C66.0654 56.8257 66.1397 56.7515 66.2312 56.7515H71.7007C71.7922 56.7515 71.8664 56.8257 71.8664 56.917C71.8664 57.0082 71.7922 57.0825 71.7007 57.0825Z" fill="#F9E9CF"/>
<path d="M67.6129 58.8584C67.5764 58.8584 67.5396 58.8467 67.5091 58.8222C67.4379 58.7647 67.4264 58.6604 67.4839 58.5889L70.2187 55.1912C70.2759 55.1202 70.3812 55.1089 70.4517 55.1662C70.5229 55.2237 70.5344 55.3279 70.4769 55.3994L67.7422 58.7972C67.7092 58.8377 67.6612 58.8584 67.6129 58.8584Z" fill="#F9E9CF"/>
<path d="M70.6709 58.4209C70.6347 58.4209 70.5982 58.4091 70.5677 58.3851L67.1424 55.6506C67.0709 55.5936 67.0592 55.4889 67.1162 55.4174C67.1732 55.3469 67.2779 55.3356 67.3489 55.3911L70.7742 58.1256C70.8457 58.1826 70.8574 58.2874 70.8004 58.3589C70.7679 58.3996 70.7197 58.4209 70.6709 58.4209Z" fill="#F9E9CF"/>
<path d="M83.4851 34.387C83.3936 34.387 83.3193 34.3127 83.3193 34.2215V28.4279C83.3193 28.3367 83.3936 28.2625 83.4851 28.2625C83.5766 28.2625 83.6508 28.3367 83.6508 28.4279V34.2215C83.6508 34.3127 83.5766 34.387 83.4851 34.387Z" fill="#F9E9CF"/>
<path d="M86.1916 31.5393H80.7224C80.6309 31.5393 80.5566 31.465 80.5566 31.3738C80.5566 31.2825 80.6309 31.2083 80.7224 31.2083H86.1916C86.2831 31.2083 86.3574 31.2825 86.3574 31.3738C86.3574 31.465 86.2831 31.5393 86.1916 31.5393Z" fill="#F9E9CF"/>
<path d="M82.1041 33.3155C82.0676 33.3155 82.0309 33.3037 82.0004 33.2792C81.9291 33.2217 81.9176 33.1175 81.9751 33.046L84.7099 29.6487C84.7674 29.5777 84.8721 29.5665 84.9429 29.6237C85.0141 29.6812 85.0256 29.7855 84.9681 29.857L82.2334 33.2542C82.2004 33.2947 82.1524 33.3155 82.1041 33.3155Z" fill="#F9E9CF"/>
<path d="M85.1624 32.8785C85.1262 32.8785 85.0896 32.8667 85.0591 32.8427L81.6336 30.1082C81.5621 30.0512 81.5504 29.9465 81.6074 29.875C81.6642 29.8045 81.7694 29.7927 81.8402 29.8487L85.2657 32.5832C85.3372 32.6402 85.3489 32.745 85.2919 32.8165C85.2594 32.8572 85.2109 32.8785 85.1624 32.8785Z" fill="#F9E9CF"/>
<path d="M66.9079 107.871C66.8164 107.871 66.7422 107.797 66.7422 107.706V101.912C66.7422 101.821 66.8164 101.747 66.9079 101.747C66.9994 101.747 67.0737 101.821 67.0737 101.912V107.706C67.0737 107.797 66.9994 107.871 66.9079 107.871Z" fill="#F9E9CF"/>
<path d="M69.6145 105.024H64.1452C64.0537 105.024 63.9795 104.95 63.9795 104.859C63.9795 104.767 64.0537 104.693 64.1452 104.693H69.6145C69.706 104.693 69.7802 104.767 69.7802 104.859C69.7802 104.95 69.706 105.024 69.6145 105.024Z" fill="#F9E9CF"/>
<path d="M65.527 106.8C65.4905 106.8 65.4537 106.789 65.4232 106.764C65.352 106.707 65.3405 106.602 65.398 106.531L68.1327 103.133C68.1907 103.062 68.2952 103.051 68.3657 103.108C68.437 103.166 68.4485 103.27 68.391 103.341L65.6562 106.739C65.6232 106.78 65.5752 106.8 65.527 106.8Z" fill="#F9E9CF"/>
<path d="M68.5853 106.363C68.549 106.363 68.5125 106.352 68.482 106.328L65.0565 103.593C64.985 103.536 64.9733 103.431 65.0303 103.359C65.0873 103.288 65.1925 103.277 65.263 103.333L68.6885 106.068C68.76 106.125 68.7717 106.23 68.7147 106.301C68.6822 106.342 68.634 106.363 68.5853 106.363Z" fill="#F9E9CF"/>
<path d="M13.49 79.996C13.3985 79.996 13.3242 79.9217 13.3242 79.8305V74.0365C13.3242 73.9452 13.3985 73.871 13.49 73.871C13.5815 73.871 13.6557 73.9452 13.6557 74.0365V79.8305C13.6557 79.922 13.5815 79.996 13.49 79.996Z" fill="#F9E9CF"/>
<path d="M16.1965 77.1485H10.7273C10.6358 77.1485 10.5615 77.0743 10.5615 76.983C10.5615 76.8918 10.6358 76.8175 10.7273 76.8175H16.1965C16.288 76.8175 16.3623 76.8918 16.3623 76.983C16.3623 77.0743 16.288 77.1485 16.1965 77.1485Z" fill="#F9E9CF"/>
<path d="M12.109 78.9247C12.0725 78.9247 12.0357 78.913 12.0052 78.8885C11.934 78.831 11.9225 78.7267 11.98 78.6552L14.7147 75.258C14.7727 75.1865 14.877 75.1757 14.9477 75.233C15.019 75.2905 15.0305 75.3947 14.973 75.4662L12.2382 78.8635C12.2055 78.904 12.1572 78.9247 12.109 78.9247Z" fill="#F9E9CF"/>
<path d="M15.1673 78.4877C15.131 78.4877 15.0945 78.476 15.064 78.452L11.6385 75.717C11.567 75.66 11.5553 75.5552 11.6123 75.4837C11.6695 75.4132 11.7743 75.4015 11.845 75.4575L15.2705 78.1925C15.342 78.2495 15.3538 78.3543 15.2968 78.4258C15.264 78.4665 15.2158 78.4877 15.1673 78.4877Z" fill="#F9E9CF"/>
</svg>
