<svg width="128" height="128" viewBox="0 0 128 128" fill="none" xmlns="http://www.w3.org/2000/svg">
<path d="M60.79 123.614C42.3447 123.614 25.3503 115.35 13.9607 100.891C3.93775 99.0525 0 96.8267 0 93.081C0 90.1555 2.622 88.445 5.89425 87.2792C2.76125 79.9247 1.17575 72.111 1.17575 63.9997C1.17575 60.1482 1.54575 56.2975 2.2755 52.5455C2.138 51.5515 2.069 50.5427 2.0705 49.54C2.0705 49.2745 2.07725 49.0107 2.09025 48.7405C2.16175 46.629 2.53225 44.5615 3.19225 42.5957C4.36 38.8085 8.55 33.0802 11.3053 30.7532C22.4212 14.233 40.8838 4.38599 60.79 4.38599C75.8553 4.38599 90.236 10.0197 101.283 20.2502C111.795 29.9857 118.401 43.0347 120.014 57.1717C120.833 57.76 121.342 58.7162 121.342 59.761C121.342 60.6445 120.978 61.4647 120.37 62.0525C120.393 62.712 120.404 63.3625 120.404 63.9995C120.404 71.525 119.033 78.8125 116.323 85.7177C124.658 87.4712 128 89.6407 128 93.081C128 96.8117 124.337 99.7685 106.711 102.014C95.3307 115.758 78.6695 123.614 60.79 123.614Z" fill="white"/>
<path d="M61.197 120.426C92.3605 120.426 117.624 95.1635 117.624 64C117.624 32.8365 92.3605 7.57349 61.197 7.57349C30.0335 7.57349 4.77051 32.8365 4.77051 64C4.77051 95.1635 30.0335 120.426 61.197 120.426Z" fill="#D4CEAB"/>
<path d="M100.817 97.4855L93.8189 102.15C68.6829 106.946 36.8532 102.586 36.8532 102.586L35.4829 101.703L31.7529 99.3025L91.2204 97.7392L100.817 97.4855Z" fill="#F9E9CF"/>
<path d="M101.14 98.783C93.9949 101.656 76.7002 101.949 69.0067 102.217C57.8634 102.606 46.5157 102.82 35.4829 101.703L31.7529 99.3025L91.2204 97.7393C91.2762 97.7545 101.085 98.7628 101.14 98.783Z" fill="#4F2138"/>
<path d="M64.407 101.116C97.9927 101.116 125.219 97.5184 125.219 93.0813C125.219 88.6441 97.9927 85.047 64.407 85.047C30.8213 85.047 3.59473 88.6441 3.59473 93.0813C3.59473 97.5184 30.8213 101.116 64.407 101.116Z" fill="#F9E9CF"/>
<path d="M64.4068 99.6257C37.6115 99.6257 9.89551 97.178 9.89551 93.0812C9.89551 88.9847 37.6115 86.5367 64.4068 86.5367C91.202 86.5367 118.918 88.9845 118.918 93.0812C118.918 97.1777 91.202 99.6257 64.4068 99.6257ZM64.4068 87.0125C32.084 87.0125 10.3713 90.1505 10.3713 93.0812C10.3713 96.012 32.084 99.15 64.4068 99.15C96.7295 99.15 118.442 96.012 118.442 93.0812C118.442 90.1505 96.7292 87.0125 64.4068 87.0125Z" fill="white"/>
<path d="M65.8661 97.1397C46.1098 97.1397 25.6748 95.428 25.6748 92.563C25.6748 89.6982 46.1098 87.986 65.8661 87.986C85.6223 87.986 106.057 89.6982 106.057 92.563C106.057 95.428 85.6223 97.1397 65.8661 97.1397ZM65.8661 88.3277C42.0291 88.3277 26.0166 90.5177 26.0166 92.563C26.0166 94.6082 42.0291 96.798 65.8661 96.798C89.7031 96.798 105.716 94.608 105.716 92.563C105.716 90.5175 89.7031 88.3277 65.8661 88.3277Z" fill="white"/>
<path d="M112.534 75.5493C112.485 78.9465 111.408 82.3613 109.208 84.9845C105.904 88.937 100.735 90.78 95.7271 91.9798C85.3996 94.4603 74.7474 94.982 64.0894 94.9935C60.7049 94.9935 57.3201 94.9473 53.9471 94.895C49.8034 94.8313 45.6189 94.756 41.5794 93.8288C37.5399 92.9073 33.5989 91.0468 30.8634 87.9345C28.2381 84.944 26.9689 80.9683 26.9746 76.9695C26.9746 76.7435 26.9804 76.5233 26.9921 76.2973C27.0501 74.5123 27.3629 72.7273 27.9309 71.035C27.9714 70.919 28.0119 70.8033 28.0584 70.6873C28.4119 69.6673 28.8524 68.6878 29.3681 67.7433C29.3739 67.7315 29.3796 67.72 29.3856 67.7085C30.9909 64.747 33.2919 62.1565 35.9751 60.0528C37.5264 58.8298 39.1966 57.7645 40.9651 56.8885V56.8828C42.7624 55.9695 44.6611 55.2138 46.5751 54.6053C53.6136 52.362 61.0594 51.9998 68.3954 51.806C73.8464 51.671 79.4371 51.297 84.7909 52.4668C87.4684 52.7855 90.1864 53.255 92.8351 53.9563C92.9279 53.9795 93.0264 54.0028 93.1249 54.0315C98.0916 55.376 109.972 65.5763 110.465 66.5673C110.755 67.141 111.01 67.7263 111.242 68.3293C112.129 70.6348 112.581 73.1153 112.534 75.5493Z" fill="#FF8661"/>
<path d="M112.532 75.5488C112.532 75.7633 112.52 75.9836 112.509 76.1981C100.831 81.5241 87.8489 84.7348 74.7627 85.5113C72.6474 85.6388 70.5262 85.6968 68.4049 85.6968C56.3387 85.6968 44.2897 83.6683 33.2029 79.7448C31.1109 79.0088 28.9374 78.1568 26.9727 76.9688C26.9727 76.7428 26.9784 76.5226 26.9902 76.2966C28.9897 77.5483 31.2324 78.4351 33.3999 79.2001C58.7264 88.1716 88.0864 86.7748 112.532 75.5488Z" fill="#FF9D80"/>
<path d="M110.392 66.4213C110.329 66.8443 110.199 67.3138 110.036 67.731C109.161 70.003 106.936 71.4635 104.71 72.4485C104.502 72.5413 104.293 72.6283 104.079 72.7093C103.969 72.7613 103.858 72.8078 103.748 72.8425C102.531 73.3293 101.279 73.7178 100.01 74.0423C99.8482 74.0828 99.6917 74.1233 99.5294 74.158C97.0547 74.755 94.5105 75.1085 91.9722 75.3925C91.8737 75.404 91.781 75.4155 91.6825 75.4215C91.4912 75.4448 91.2999 75.4678 91.1087 75.4853C87.9502 75.8215 84.7799 76.0938 81.6039 76.2793C81.4879 76.2908 81.378 76.2968 81.262 76.2968C80.7752 76.3315 80.2825 76.3605 79.7957 76.3778C79.6972 76.3893 79.5929 76.3953 79.4942 76.3893C77.4599 76.4993 75.4314 76.563 73.3972 76.592C73.2697 76.5978 73.1365 76.5978 73.009 76.5978C70.969 76.6268 68.929 76.615 66.889 76.5745C66.7905 76.5688 66.692 76.5688 66.5877 76.5688C64.652 76.5168 62.722 76.4355 60.7922 76.3195C60.6242 76.3138 60.4562 76.3023 60.2879 76.2848C58.8854 76.1978 57.483 76.0935 56.0805 75.9603C55.9762 75.9545 55.8659 75.9428 55.7617 75.9373C54.8749 75.8503 53.9939 75.7633 53.1132 75.6648L52.3829 75.5778C48.2682 75.1025 44.1765 74.4478 40.1197 73.5958C37.9232 73.138 35.8019 72.5178 33.8317 71.5035H33.8259C32.6959 70.924 31.6122 70.2228 30.5979 69.3535C30.0822 68.913 29.7112 68.3278 29.3692 67.7425C29.3402 67.6963 29.4284 67.65 29.4052 67.6038C30.9989 64.6598 33.1652 62.092 35.8194 59.9998C35.9122 59.9245 36.005 59.849 36.0977 59.7795C36.9092 59.1535 37.7552 58.5683 38.6244 58.035C38.8504 57.896 39.0764 57.7625 39.3027 57.6293C39.7547 57.3685 40.2127 57.1193 40.6762 56.8818C40.7747 56.8298 40.8732 56.7775 40.9717 56.731C42.5654 55.9255 44.2229 55.2533 45.9212 54.6853C46.0777 54.6333 46.2342 54.581 46.3907 54.5288C48.3379 53.9088 50.3375 53.4218 52.3542 53.0508C52.4527 53.0278 52.5455 53.0103 52.6439 52.9988C53.8785 52.7728 55.1187 52.5873 56.3589 52.4365C56.6257 52.4018 56.8979 52.3728 57.1647 52.3498C57.2922 52.3323 57.4197 52.315 57.5472 52.3093C59.1234 52.1413 60.7057 52.0253 62.2879 51.9383C62.3807 51.9325 62.4792 51.9268 62.5777 51.9208C64.4902 51.8165 66.4027 51.7528 68.3209 51.7063C68.4367 51.7005 68.5527 51.6948 68.6744 51.6948C69.2482 51.6773 69.8277 51.6658 70.4014 51.6485C71.3402 51.6255 72.2967 51.6138 73.2702 51.6138H73.5717C74.2149 51.6195 74.8699 51.6253 75.5189 51.6428C77.4547 51.6833 79.4134 51.7703 81.3144 51.8978C82.1894 51.9615 83.0472 52.031 83.8877 52.1123C83.9629 52.118 84.0325 52.1238 84.108 52.1295L84.2587 52.1413L84.3629 52.1528C84.5137 52.1703 84.7339 52.2108 84.8844 52.228C87.5447 52.5468 90.228 53.022 92.8302 53.729C92.8785 53.7403 92.9055 54.1938 92.953 54.2065C93.0025 54.2198 93.0727 53.7925 93.12 53.8043C98.1042 55.1953 102.787 57.4613 106.461 61.153C106.606 61.2978 106.751 61.4428 106.89 61.5935C107.099 61.808 107.302 62.0283 107.499 62.254C107.893 62.7063 108.275 63.1755 108.64 63.6623C109.295 64.5378 109.9 65.4303 110.392 66.4213Z" fill="#4F2138"/>
<path d="M56.0799 75.9608C56.0104 76.1173 55.9001 76.2623 55.7439 76.3838C55.3091 76.7201 54.6716 76.7083 53.8486 76.3491C53.3386 76.1231 52.8459 75.8681 52.3824 75.5783C50.6611 74.5236 49.2064 73.0861 47.8791 71.5041C46.9866 70.4493 46.1521 69.3366 45.3291 68.2296C45.0219 67.8238 44.7206 67.4183 44.4191 67.0126C43.2194 65.4303 41.6546 63.5586 39.7654 62.1038C39.1859 61.6518 38.5774 61.2403 37.9339 60.8926C37.3079 60.5448 36.6589 60.2608 35.9749 60.0523C35.9226 60.0291 35.8706 60.0176 35.8184 60.0003C35.9111 59.9251 36.0039 59.8496 36.0966 59.7801C36.1489 59.7973 36.2066 59.8148 36.2589 59.8321C36.8846 60.0466 37.4934 60.3188 38.0729 60.6378C38.7741 61.0203 39.4349 61.4723 40.0609 61.9651C41.9214 63.4256 43.4571 65.2686 44.6451 66.8391C44.9524 67.2391 45.2536 67.6503 45.5609 68.0561C46.4244 69.2151 47.2996 70.3801 48.2326 71.4753C49.6584 73.1503 51.2231 74.6513 53.1124 75.6656C53.3906 75.8163 53.6746 75.9553 53.9644 76.0828C54.6829 76.3958 55.2221 76.4248 55.5639 76.1581C55.6451 76.0943 55.7089 76.0191 55.7609 75.9378C56.1086 75.3756 55.7319 74.4656 55.5929 74.1701C55.0306 72.9821 54.2946 71.8981 53.4486 70.8956C53.3966 70.8261 53.3326 70.7566 53.2749 70.6868C53.0141 70.3796 52.7476 70.0898 52.4694 69.8001C51.1364 68.4091 49.6354 67.1573 48.1576 65.9286C46.2334 64.3231 44.2571 62.6773 42.6576 60.7416C42.2866 60.3011 41.9389 59.8433 41.6204 59.3681C41.3189 58.9276 41.0929 58.5103 40.9421 58.1163C40.8321 57.8671 40.7624 57.6236 40.7219 57.3918C40.6986 57.2643 40.6871 57.1426 40.6814 57.0268C40.6756 56.9806 40.6756 56.9283 40.6756 56.8818C40.7741 56.8298 40.8726 56.7776 40.9711 56.7311C40.9654 56.7831 40.9654 56.8296 40.9654 56.8818V56.8876C40.9654 57.0266 40.9769 57.1658 41.0059 57.3106C41.0406 57.5191 41.1044 57.7396 41.1971 57.9713C41.3421 58.3538 41.5681 58.7653 41.8636 59.2058C42.1941 59.6926 42.5474 60.1621 42.9301 60.6141C44.5006 62.5033 46.4479 64.1263 48.3431 65.7026C49.9484 67.0413 51.5829 68.4033 52.9969 69.9391C53.0606 70.0086 53.1186 70.0781 53.1764 70.1418C53.3909 70.3736 53.5936 70.6056 53.7849 70.8488C54.5964 71.8283 55.3034 72.8831 55.8539 74.0421C56.0044 74.3556 56.3811 75.2771 56.0799 75.9608Z" fill="#FFD6C9"/>
<path d="M65.4142 71.5325C66.7992 73.4915 67.292 75.1895 66.8862 76.5745C66.8342 76.7658 66.7645 76.9513 66.6717 77.131C66.5095 77.4555 66.2197 77.896 65.7327 78.1395C65.2865 78.3655 64.7185 78.406 64.0115 78.2555C62.6032 77.9543 61.392 77.2008 60.285 76.285C59.6822 75.7865 59.1085 75.236 58.5522 74.6913C57.0975 73.254 55.4575 71.55 54.362 69.5333C53.4405 67.8295 52.9187 65.9285 52.4205 64.0913C52.2987 63.668 52.183 63.245 52.0612 62.822C51.4585 60.7183 50.624 58.3305 48.9837 56.5978C48.1955 55.769 47.1117 55.0445 45.918 54.6853C46.0745 54.633 46.231 54.581 46.3875 54.5288C47.4827 54.9345 48.468 55.624 49.1982 56.4008C50.8732 58.1743 51.731 60.6025 52.3392 62.741C52.461 63.164 52.5827 63.5873 52.6987 64.016C53.1972 65.8358 53.713 67.7193 54.617 69.3943C55.689 71.3763 57.3177 73.0628 58.755 74.4885C59.404 75.126 60.0705 75.7635 60.7892 76.3198C61.7745 77.0905 62.8525 77.7108 64.0695 77.9715C64.7127 78.1048 65.217 78.0758 65.6052 77.8788C66.0167 77.6703 66.2717 77.2878 66.4107 77.0038C66.4802 76.8648 66.5382 76.7198 66.5845 76.569C67.0017 75.2593 66.5322 73.619 65.1762 71.695C63.733 69.6493 61.9887 67.7308 60.2962 65.8763C57.2187 62.4918 54.0312 58.997 52.623 54.5925C52.4607 54.094 52.3622 53.5553 52.3505 53.051C52.449 53.0278 52.5417 53.0105 52.6402 52.9988C52.646 53.4915 52.7387 54.013 52.8952 54.5055C54.2862 58.8463 57.4505 62.3238 60.5105 65.6793C62.2092 67.5395 63.9595 69.4635 65.4142 71.5325Z" fill="#FFD6C9"/>
<path d="M65.6164 59.1708C65.5294 59.217 65.4484 59.2635 65.3614 59.3098C65.2514 59.1648 65.1411 59.02 65.0369 58.8693C63.7849 57.1248 62.2201 54.5923 62.2841 51.9378C62.3769 51.932 62.4754 51.9263 62.5739 51.9203C62.5044 54.505 64.0401 56.9915 65.2689 58.701C65.3789 58.8578 65.4946 59.0143 65.6164 59.1708Z" fill="#FFD6C9"/>
<path d="M78.3034 80.1101C78.1584 80.1448 78.0194 80.1563 77.8744 80.1563C77.0631 80.1563 76.3039 79.6581 75.7764 79.2463C74.7449 78.4523 73.8291 77.5368 73.0061 76.5978C72.2354 75.7228 71.5514 74.8303 70.9199 73.9898C67.3729 69.2608 64.1914 64.2071 61.4789 58.9563L61.2181 58.4463C60.0881 56.2556 58.9231 53.9953 57.1611 52.3493C57.2886 52.3321 57.4161 52.3146 57.5436 52.3088C59.2361 53.9721 60.3661 56.1686 61.4731 58.3131L61.7339 58.8231C62.2901 59.8951 62.8641 60.9616 63.4609 62.0163C63.5536 62.1901 63.6521 62.3641 63.7506 62.5378C63.9304 62.8566 64.1159 63.1696 64.3011 63.4826C66.3816 67.0583 68.6769 70.5183 71.1514 73.8161C71.8236 74.7086 72.5596 75.6706 73.3941 76.5921C74.1591 77.4556 75.0051 78.2961 75.9499 79.0203C76.5236 79.4608 77.3871 80.0288 78.2391 79.8258C79.2996 79.5823 79.7924 78.2726 79.6534 77.1541C79.6186 76.8933 79.5664 76.6383 79.4911 76.3891C79.1201 75.1431 78.2624 74.0536 77.3989 73.0336C75.8746 71.2368 74.2346 69.4808 72.6524 67.7828C71.7019 66.7628 70.7399 65.7313 69.7894 64.6766C69.9284 64.6938 70.0734 64.7056 70.2184 64.7113C71.0934 65.6851 71.9861 66.6413 72.8669 67.5858C74.4491 69.2838 76.0891 71.0458 77.6191 72.8481C78.5231 73.9086 79.4214 75.0503 79.7924 76.3776C79.8619 76.6151 79.9141 76.8643 79.9431 77.1136C80.0999 78.3656 79.5261 79.8261 78.3034 80.1101Z" fill="#FFD6C9"/>
<path d="M70.8619 58.1798C70.7634 58.1741 70.6649 58.1798 70.5661 58.1856C70.4909 57.8493 70.4214 57.5133 70.3516 57.1828C70.1371 56.1223 69.9111 55.0211 69.5519 53.9896C69.2736 53.1841 68.8506 52.3958 68.3174 51.7061C68.4334 51.7003 68.5491 51.6946 68.6709 51.6946C69.1634 52.3668 69.5576 53.1261 69.8241 53.8968C70.1891 54.9458 70.4211 56.0528 70.6354 57.1248C70.7111 57.4726 70.7806 57.8261 70.8619 58.1798Z" fill="#FFD6C9"/>
<path d="M91.9691 75.3925C91.9519 76.5575 91.6214 77.705 90.8159 78.6033C89.1351 80.4695 86.2026 80.3188 84.2959 79.235C83.0151 78.5048 82.0241 77.4095 81.2589 76.2968C80.6909 75.4795 80.2504 74.6508 79.9026 73.9495C79.6186 73.3758 79.3464 72.7848 79.0854 72.2165C78.4016 70.7328 77.7001 69.2028 76.7324 67.87C76.1121 67.018 75.3646 66.23 74.6459 65.4648C74.4024 65.2098 74.1591 64.949 73.9156 64.6883C74.0374 64.6768 74.1591 64.6653 74.2749 64.6478C74.4661 64.8565 74.6634 65.065 74.8544 65.2678C75.5789 66.0385 76.3324 66.8325 76.9639 67.702C77.9491 69.0583 78.6619 70.5998 79.3459 72.095C79.6066 72.663 79.8791 73.254 80.1631 73.822C80.5224 74.558 80.9919 75.4333 81.6004 76.2793C82.3306 77.3108 83.2579 78.3078 84.4344 78.98C86.2426 80.0115 89.0244 80.1623 90.6009 78.412C91.3426 77.5775 91.6556 76.511 91.6789 75.4215C91.7079 74.384 91.4819 73.3293 91.1456 72.4425C89.5924 68.3393 85.8949 65.5633 82.3249 62.874C81.9656 62.6075 81.6121 62.3408 81.2644 62.0743C77.9261 59.5415 74.1011 56.1048 73.2666 51.6133H73.5681C74.4026 55.983 78.1581 59.3503 81.4384 61.8423C81.7861 62.1088 82.1396 62.3755 82.4989 62.642C86.1036 65.3543 89.8301 68.1593 91.4181 72.3438C91.7664 73.2538 91.9981 74.3318 91.9691 75.3925Z" fill="#FFD6C9"/>
<path d="M104.076 72.7091C104.076 72.7323 104.071 72.7496 104.065 72.7728C103.926 73.3408 103.694 73.7813 103.369 74.0883C102.662 74.7373 101.608 74.6911 101.045 74.6041C100.512 74.5231 100.008 74.3723 99.5268 74.1578C97.6895 73.3753 96.206 71.7991 94.9135 70.3213C92.52 67.5626 89.8135 64.2301 87.901 60.3761C87.42 59.4023 86.9853 58.3881 86.5623 57.4028C85.7858 55.6063 84.9918 53.7516 83.8848 52.1116C83.96 52.1173 84.0298 52.1233 84.105 52.1291L84.2558 52.1406C85.3105 53.7516 86.0755 55.5426 86.8233 57.2871C87.2463 58.2666 87.681 59.2808 88.162 60.2486C90.0573 64.0678 92.752 67.3886 95.134 70.1298C96.4845 71.6771 98.0608 73.3406 100.008 74.0418C100.356 74.1693 100.715 74.2621 101.086 74.3201C101.602 74.3953 102.552 74.4418 103.173 73.8738C103.428 73.6303 103.619 73.2886 103.746 72.8423C103.764 72.7958 103.775 72.7496 103.787 72.7033C104.14 71.2428 103.7 69.5043 102.57 67.9511C101.724 66.7803 100.605 65.8068 99.5213 64.8621C99.3183 64.6883 99.1098 64.5086 98.9128 64.3288C97.406 63.0016 95.5165 61.1876 94.2533 58.9273C93.3028 57.2178 92.816 55.4268 92.8275 53.7288C92.926 53.7521 93.0245 53.7808 93.1173 53.8043C93.1173 55.4328 93.5925 57.1426 94.5083 58.7826C95.7485 61.0081 97.6148 62.7988 99.104 64.1146C99.301 64.2943 99.5098 64.4681 99.7125 64.6478C100.808 65.5983 101.938 66.5836 102.807 67.7773C103.966 69.3826 104.43 71.1733 104.076 72.7091Z" fill="#FFD6C9"/>
<path opacity="0.5" d="M109.206 84.984C105.902 88.9365 100.733 90.7795 95.7256 91.9793C85.3979 94.4598 74.7459 94.9813 64.0879 94.993C70.7411 93.9555 77.2844 92.4373 83.5781 90.061C94.7461 85.8418 105.19 78.47 111.24 68.3278C113.373 73.897 112.99 80.4518 109.206 84.984Z" fill="#D7773B"/>
<path opacity="0.28" d="M78.5006 62.8393C78.3616 63.1928 78.1066 63.5116 77.7123 63.7726C77.2601 64.0623 76.7386 64.2188 76.2113 64.3346C72.8383 65.0821 68.9843 64.8156 65.6461 63.9926C64.9043 63.8131 64.1103 63.5463 63.7161 62.8973C63.6871 62.8451 63.6581 62.7931 63.6348 62.7408C63.0438 61.5296 64.0696 60.1328 65.0606 59.4953C65.7733 59.0316 66.5906 58.7246 67.4483 58.5273C68.8856 58.1913 70.4446 58.1566 71.8356 58.1796C73.8581 58.2201 76.2633 58.5446 77.7471 60.0746C78.4888 60.8398 78.8716 61.9411 78.5006 62.8393Z" fill="#380E0E"/>
<path opacity="0.28" d="M78.5005 62.8393C78.3615 63.1928 78.1065 63.5115 77.7123 63.7725C77.26 64.0623 76.7385 64.2188 76.2113 64.3345C72.8383 65.082 68.9843 64.8155 65.646 63.9925C64.9043 63.813 64.1103 63.5463 63.716 62.8973C63.687 62.845 63.658 62.793 63.6348 62.7408C63.942 62.1265 64.4693 61.5818 64.991 61.2455C65.7095 60.776 66.5385 60.469 67.4078 60.266C68.8625 59.93 70.4388 59.8893 71.8413 59.9183C73.893 59.9588 76.3213 60.2833 77.8223 61.8308C78.1123 62.1265 78.344 62.4743 78.5005 62.8393Z" fill="#380E0E"/>
<path d="M34.4826 64.0955C34.4666 64.4147 34.6198 64.7333 34.8676 64.942C35.1153 65.1505 35.4501 65.251 35.7768 65.2367C36.8213 65.191 37.4451 63.833 36.6376 63.0915C35.9388 62.4497 34.5253 63.2505 34.4826 64.0955Z" fill="#F9E9CF"/>
<path d="M37.7625 61.2473C37.758 61.258 37.7535 61.269 37.749 61.2798C37.295 62.3985 38.0138 62.9278 39.06 62.436C40.3095 61.8488 41.559 61.2615 42.8088 60.6743C43.6925 60.2588 45.3105 59.7708 45.7078 58.779C45.8705 58.373 45.7635 57.8913 45.4908 57.546C45.1515 57.1165 44.5915 56.875 44.0428 56.8695C43.1865 56.861 42.431 57.3193 41.7008 57.699C40.1303 58.516 38.4593 59.5695 37.7625 61.2473Z" fill="#F9E9CF"/>
<path d="M83.7629 57.4225C83.5392 57.7625 83.0779 57.8572 82.7382 57.6335L80.5959 56.223C80.2559 55.9992 80.1612 55.5382 80.3849 55.1982C80.6087 54.8582 81.0699 54.7635 81.4097 54.9872L83.5519 56.3977C83.8917 56.6212 83.9867 57.0825 83.7629 57.4225Z" fill="#FCC07B"/>
<path d="M51.4892 61.798C51.4569 62.2037 51.0984 62.509 50.6929 62.4767L48.1362 62.273C47.7304 62.2407 47.4252 61.8822 47.4574 61.4767C47.4899 61.071 47.8482 60.7657 48.2539 60.798L50.8107 61.002C51.2162 61.034 51.5214 61.3922 51.4892 61.798Z" fill="#FCC07B"/>
<path d="M97.9911 69.6624C98.1219 70.0477 97.9136 70.4699 97.5284 70.6007L95.0996 71.4249C94.7144 71.5557 94.2919 71.3474 94.1611 70.9622C94.0304 70.5769 94.2386 70.1547 94.6239 70.0237L97.0526 69.1994C97.4381 69.0687 97.8604 69.2772 97.9911 69.6624Z" fill="#FCC07B"/>
<path d="M83.6777 66.6925C83.39 66.4048 83.39 65.934 83.6777 65.6463L85.4912 63.8328C85.779 63.545 86.25 63.545 86.5375 63.8328C86.8252 64.1205 86.8252 64.5913 86.5375 64.879L84.724 66.6925C84.4362 66.9803 83.9655 66.9803 83.6777 66.6925Z" fill="#ADA04F"/>
<path d="M59.6328 66.6925C59.3451 66.4048 59.3451 65.934 59.6328 65.6463L61.4463 63.8328C61.7341 63.545 62.2051 63.545 62.4926 63.8328C62.7803 64.1205 62.7803 64.5913 62.4926 64.879L60.6791 66.6925C60.3913 66.9803 59.9206 66.9803 59.6328 66.6925Z" fill="#ADA04F"/>
<path d="M95.1291 60.9185C95.2738 60.5383 95.7033 60.3453 96.0836 60.49L98.4811 61.4015C98.8613 61.5463 99.0543 61.9758 98.9096 62.356C98.7651 62.7365 98.3353 62.9293 97.9551 62.7848L95.5578 61.8733C95.1773 61.7285 94.9846 61.2988 95.1291 60.9185Z" fill="#F95438"/>
<path d="M38.0861 67.3553C38.2309 66.975 38.6604 66.782 39.0406 66.9268L41.4381 67.8383C41.8184 67.9828 42.0114 68.4125 41.8666 68.7928C41.7219 69.173 41.2924 69.366 40.9121 69.2213L38.5146 68.3098C38.1344 68.165 37.9416 67.7355 38.0861 67.3553Z" fill="#F95438"/>
<path d="M49.594 72.0065C49.4122 71.6425 49.5617 71.1958 49.9257 71.0143L52.221 69.8695C52.5852 69.688 53.0317 69.8373 53.2132 70.2013C53.395 70.5655 53.2455 71.012 52.8815 71.1935L50.5865 72.3383C50.2222 72.52 49.7757 72.3705 49.594 72.0065Z" fill="#FCC07B"/>
<path d="M58.506 55.419C58.6508 55.0388 59.0803 54.8458 59.4605 54.9905L61.858 55.902C62.2383 56.0465 62.4313 56.4763 62.2865 56.8565C62.142 57.2368 61.7123 57.4298 61.332 57.285L58.9345 56.3735C58.5543 56.2288 58.3615 55.7993 58.506 55.419Z" fill="#F95438"/>
<path d="M74.5607 71.0297C74.7055 70.6495 75.135 70.4565 75.5152 70.6012L77.9127 71.513C78.2932 71.6575 78.486 72.087 78.3412 72.4675C78.1967 72.8477 77.767 73.0407 77.3867 72.896L74.9892 71.9845C74.609 71.8397 74.4162 71.4102 74.5607 71.0297Z" fill="#F95438"/>
<path d="M88.4882 56.7772C88.201 57.0129 87.9077 57.2427 87.6147 57.4669C87.54 57.5302 87.4595 57.5877 87.3847 57.6452C85.718 58.9269 83.9822 60.1109 82.1832 61.1857C82.097 61.2432 82.0107 61.2949 81.919 61.3467C79.8672 62.5652 77.7405 63.6514 75.5507 64.5939C75.459 64.6342 75.367 64.6744 75.275 64.7089C74.3785 65.0997 73.4702 65.4562 72.5507 65.7894C72.453 65.8239 72.3552 65.8584 72.2577 65.8929C70.999 66.3469 69.729 66.7492 68.4415 67.1057C68.2115 67.1689 67.9875 67.2322 67.7575 67.2897C67.6597 67.3184 67.5562 67.3472 67.4587 67.3702C66.3437 67.6574 65.223 67.9162 64.1022 68.1577C63.993 68.1807 63.8837 68.1979 63.7745 68.2209C62.9757 68.3877 62.1767 68.5427 61.3777 68.6922C59.5787 69.0312 57.7682 69.3417 55.9522 69.6062C55.8487 69.6292 55.7395 69.6407 55.6362 69.6522C55.2167 69.7212 54.7972 69.7787 54.3775 69.8304C54.2682 69.8534 54.159 69.8649 54.0442 69.8764C53.9522 69.8937 53.8602 69.9052 53.7625 69.9167C52.5842 70.0719 51.406 70.2097 50.2222 70.3247C49.774 70.3707 49.3255 70.4167 48.8715 70.4512C48.7565 70.4627 48.6415 70.4742 48.5207 70.4799C43.871 70.8649 39.1985 70.9224 34.589 70.4799H34.5832C32.6635 70.3017 30.2872 70.1547 28.3965 69.7927C28.747 68.7812 29.174 67.8459 29.6857 66.9089C29.657 66.8629 30.1062 66.6637 30.0832 66.6177C31.6637 63.6979 33.9282 61.1462 36.5607 59.0714C36.6527 58.9967 36.7447 58.9219 36.8365 58.8529C37.6412 58.2322 38.4802 57.6517 39.3422 57.1229C39.532 57.0597 39.7272 56.9964 39.917 56.9332C40.417 56.7722 40.917 56.6229 41.4227 56.4849C41.5147 56.4562 41.6125 56.4274 41.7042 56.4044C44.0032 55.7664 46.3655 55.2952 48.7562 54.9332C48.8885 54.9102 49.0207 54.8872 49.1527 54.8699C50.5725 54.6629 52.0092 54.4904 53.4517 54.3469C53.5495 54.3412 53.6472 54.3297 53.7447 54.3182C55.7217 54.1284 57.7105 53.9904 59.6932 53.8757C59.8025 53.8699 59.9115 53.8584 60.0265 53.8527C61.0955 53.7952 62.1587 53.7377 63.2277 53.6802C63.3255 53.6802 63.4232 53.6744 63.5267 53.6687C64.1187 53.6399 64.7165 53.6112 65.3085 53.5824C66.9005 53.5019 68.4982 53.4214 70.096 53.3639C70.1995 53.3582 70.2972 53.3582 70.4007 53.3524C71.7745 53.3064 73.1537 53.2834 74.5217 53.2949C74.631 53.2949 74.7402 53.2949 74.8492 53.3007C78.614 53.3524 82.344 53.7087 85.9475 54.7492C86.0107 54.7664 86.074 54.7837 86.1372 54.8067C86.258 54.8412 86.3842 54.8757 86.505 54.9159C87.5802 55.2484 88.6607 55.7139 88.4882 56.7772Z" fill="#380E0E"/>
<path d="M91.2246 48.125C91.2246 48.3395 91.2131 48.5597 91.2016 48.774C91.0278 51.9847 89.9728 55.0737 87.8981 57.56C84.5946 61.5125 79.4251 63.3555 74.4176 64.5552C64.0901 67.0357 53.4378 67.5572 42.7798 67.569C39.3951 67.569 36.0106 67.5225 32.6376 67.4705C28.4938 67.4067 24.3093 67.3315 20.2698 66.4042C16.2303 65.4827 12.2893 63.6222 9.55381 60.5102C6.92856 57.5197 5.65931 53.544 5.66506 49.545C5.66506 49.319 5.67081 49.0987 5.68231 48.8727C5.74031 47.0877 6.05331 45.3027 6.62131 43.6105C7.00956 42.4572 7.49631 41.3445 8.07606 40.284C10.3363 36.117 88.6628 38.1512 89.1556 39.1422C89.4453 39.716 89.7003 40.3015 89.9323 40.9042C90.8188 43.2102 91.2711 45.6907 91.2246 48.125Z" fill="#FF8661"/>
<path d="M91.2243 48.125C91.2243 48.3395 91.2128 48.5597 91.2013 48.774C79.5233 54.1 66.5413 57.3108 53.455 58.0872C51.3395 58.2147 49.2185 58.2728 47.0973 58.2728C35.031 58.2728 22.982 56.2443 11.8953 52.3208C9.80304 51.5848 7.62979 50.7328 5.66504 49.5448C5.66504 49.3188 5.67079 49.0985 5.68229 48.8725C7.68179 50.1243 9.92454 51.011 12.092 51.776C37.4185 60.7475 66.7788 59.351 91.2243 48.125Z" fill="#FF9D80"/>
<path d="M89.0882 39.0085C89.0244 39.4315 88.8884 39.8895 88.7262 40.3067C87.8509 42.5785 85.6257 44.039 83.4002 45.0242C83.1914 45.117 82.9829 45.204 82.7684 45.285C82.6584 45.337 82.5482 45.3835 82.4382 45.4182C81.2212 45.905 79.9692 46.2935 78.7002 46.618C78.5379 46.6585 78.3814 46.6992 78.2192 46.734C75.7444 47.331 73.2002 47.6845 70.6617 47.9685C70.5632 47.98 70.4704 47.9917 70.3719 47.9975C70.1807 48.0207 69.9894 48.0437 69.7982 48.0612C66.6397 48.3975 63.4694 48.6697 60.2934 48.8552C60.1777 48.8667 60.0674 48.8725 59.9514 48.8725C59.4647 48.9072 58.9719 48.9362 58.4852 48.9537C58.3867 48.9652 58.2824 48.971 58.1839 48.9652C56.1497 49.0755 54.1212 49.1392 52.0872 49.1682C51.9597 49.174 51.8264 49.174 51.6987 49.174C49.6587 49.203 47.6187 49.1915 45.5787 49.1507C45.4802 49.145 45.3817 49.145 45.2774 49.145C43.3417 49.093 41.4117 49.0117 39.4819 48.8957C39.3139 48.89 39.1457 48.8785 38.9777 48.861C37.5752 48.774 36.1727 48.6697 34.7702 48.5365C34.6659 48.5307 34.5557 48.5192 34.4514 48.5132C33.5647 48.4262 32.6837 48.3395 31.8029 48.2407C31.5594 48.2117 31.3159 48.1827 31.0727 48.1537C26.9579 47.6785 22.8662 47.0237 18.8094 46.1717C15.3554 45.4532 12.4609 44.4662 9.66167 42.0727C9.10542 41.5975 8.44717 40.9152 8.07617 40.2835C9.66992 37.3395 11.8549 34.6675 14.5092 32.5755C14.5654 32.5297 14.7932 32.5932 14.8494 32.5487C14.8859 32.52 14.7509 32.3827 14.7874 32.3552C15.8074 31.567 16.8794 30.8482 17.9922 30.205C18.4442 29.9442 18.9022 29.695 19.3657 29.4572C19.4204 29.4282 19.4497 29.607 19.5044 29.579C19.5482 29.5567 19.6174 29.3272 19.6612 29.3065C21.2549 28.501 22.9124 27.8287 24.6107 27.2607C24.6924 27.2335 25.0057 27.3167 25.0874 27.2895C25.1622 27.2645 25.0054 27.129 25.0802 27.1042C27.0274 26.484 29.0269 25.9972 31.0439 25.6262C31.0984 25.6135 31.1382 25.8435 31.1909 25.8342C31.2337 25.8267 31.2897 25.5792 31.3337 25.574C32.5682 25.348 33.8084 25.1625 35.0487 25.0117C35.3152 24.977 35.5877 24.948 35.8542 24.9247C35.9237 24.9152 36.0739 25.0515 36.1432 25.044C36.2012 25.0377 36.1784 24.8867 36.2367 24.8842C37.8129 24.7162 39.3952 24.6002 40.9774 24.5132C41.0297 24.51 41.0804 24.8567 41.1352 24.8535C41.1779 24.851 41.2242 24.4985 41.2672 24.496C43.1797 24.3917 45.0922 24.328 47.0107 24.2815C47.0809 24.278 47.2442 24.5085 47.3157 24.5062C47.3622 24.5047 47.3162 24.27 47.3642 24.27C47.9379 24.2525 48.5174 24.241 49.0912 24.2235C50.0299 24.2005 50.9864 24.1887 51.9599 24.1887L52.1434 24.4135L52.2614 24.1887C55.6982 24.2062 59.2799 24.3742 62.5774 24.6872C62.6527 24.693 62.8329 24.9762 62.9082 24.982L62.9482 24.7162L63.0524 24.7277C63.2032 24.745 63.4234 24.7857 63.5739 24.803C66.2342 25.1217 68.9174 25.597 71.5197 26.304C71.5834 26.319 71.5987 26.5195 71.6609 26.5362C71.6949 26.5455 71.7769 26.3712 71.8097 26.3792C77.8429 28.0657 83.4297 31.0215 87.3299 36.2375C87.9844 37.1135 88.5957 38.0175 89.0882 39.0085Z" fill="#4F2138"/>
<path opacity="0.28" d="M57.1938 35.4152C57.0548 35.7687 56.7998 36.0875 56.4055 36.3485C55.9535 36.6382 55.4318 36.7947 54.9045 36.9105C51.5315 37.658 47.6775 37.3915 44.3393 36.5685C43.5975 36.389 42.8035 36.1222 42.4093 35.4732C42.3803 35.421 42.3513 35.369 42.3283 35.3167C41.737 34.1055 42.763 32.7087 43.754 32.0712C44.4668 31.6075 45.284 31.3005 46.1418 31.1032C47.579 30.7672 49.138 30.7322 50.529 30.7555C52.5518 30.796 54.9568 31.1205 56.4405 32.6505C57.182 33.416 57.5648 34.517 57.1938 35.4152Z" fill="#380E0E"/>
<path opacity="0.28" d="M57.1936 35.4152C57.0546 35.7687 56.7996 36.0875 56.4054 36.3485C55.9534 36.6382 55.4316 36.7947 54.9044 36.9105C51.5314 37.658 47.6774 37.3915 44.3391 36.5685C43.5974 36.389 42.8034 36.1222 42.4091 35.4732C42.3801 35.421 42.3511 35.369 42.3281 35.3167C42.6351 34.7025 43.1626 34.1577 43.6844 33.8215C44.4029 33.352 45.2316 33.0447 46.1011 32.842C47.5559 32.506 49.1321 32.4652 50.5346 32.4942C52.5861 32.5347 55.0146 32.8592 56.5156 34.4067C56.8054 34.7025 57.0371 35.0502 57.1936 35.4152Z" fill="#380E0E"/>
<path d="M34.544 46.618C34.6948 46.931 35.0715 47.8525 34.77 48.5363C34.7005 48.6928 34.5903 48.8375 34.4338 48.9593C33.999 49.2955 33.3615 49.2838 32.5385 48.9245C32.0285 48.6985 31.536 48.4435 31.0723 48.1538C28.1978 46.3978 26.0765 43.558 24.0193 40.805C23.712 40.3993 23.4108 39.9938 23.1093 39.588C21.1505 37.009 18.2353 33.6708 14.5088 32.5755C14.6015 32.5003 14.6943 32.4248 14.787 32.3553C18.502 33.5318 21.388 36.841 23.3355 39.4143C23.6428 39.8143 23.944 40.2255 24.2513 40.6313C26.4303 43.5465 28.6733 46.56 31.8028 48.2408C32.081 48.3915 32.365 48.5305 32.6548 48.658C33.3735 48.971 33.9125 49 34.2543 48.7333C34.3353 48.6695 34.399 48.5943 34.4513 48.513C34.799 47.951 34.4223 47.0408 34.2833 46.7455C32.6838 43.3668 29.7163 40.892 26.8475 38.5043C24.483 36.5338 22.043 34.4995 20.31 31.9438C19.6725 31.0048 19.3595 30.182 19.3653 29.4575C19.4638 29.4055 19.5623 29.3533 19.6608 29.3068C19.6085 30.008 19.91 30.8253 20.5533 31.7815C22.257 34.3025 24.6855 36.3253 27.0328 38.2783C29.925 40.6893 32.9155 43.187 34.544 46.618Z" fill="#FFD6C9"/>
<path d="M44.1066 44.1087C45.4918 46.0674 45.9844 47.7657 45.5786 49.1507C45.5264 49.3419 45.4569 49.5274 45.3641 49.7072C45.2018 50.0317 44.9121 50.4722 44.4251 50.7157C43.9788 50.9417 43.4109 50.9822 42.7039 50.8317C41.2956 50.5304 40.0844 49.777 38.9774 48.8612C38.3746 48.3627 37.8008 47.8122 37.2446 47.2675C35.7899 45.8302 34.1498 44.1262 33.0543 42.1095C32.1328 40.4057 31.6114 38.5047 31.1129 36.6674C30.9911 36.2442 30.8754 35.8212 30.7536 35.3982C30.1509 33.2945 29.3164 30.9067 27.6761 29.174C26.8879 28.3452 25.8041 27.6207 24.6104 27.2614C24.7669 27.2092 24.9234 27.1572 25.0799 27.1049C26.1751 27.5107 27.1606 28.2002 27.8909 28.9769C29.5659 30.7504 30.4236 33.1787 31.0321 35.3172C31.1539 35.7402 31.2756 36.1635 31.3914 36.5922C31.8899 38.412 32.4056 40.2955 33.3096 41.9705C34.3819 43.9527 36.0103 45.639 37.4476 47.0647C38.0966 47.7022 38.7631 48.3397 39.4819 48.896C40.4671 49.6667 41.5451 50.2869 42.7621 50.5477C43.4054 50.6809 43.9096 50.652 44.2978 50.455C44.7094 50.2465 44.9643 49.864 45.1033 49.58C45.1728 49.441 45.2309 49.2959 45.2773 49.1452C45.6946 47.8354 45.2251 46.1952 43.8691 44.2712C42.4258 42.2255 40.6816 40.3072 38.9891 38.4524C35.9116 35.0679 32.7241 31.5732 31.3159 27.1687C31.1536 26.6702 31.0551 26.1315 31.0436 25.6272C31.1421 25.604 31.2349 25.5867 31.3334 25.575C31.3391 26.0677 31.4319 26.5892 31.5884 27.0817C32.9794 31.4227 36.1436 34.9 39.2036 38.2555C40.9018 40.1155 42.6521 42.0397 44.1066 44.1087Z" fill="#FFD6C9"/>
<path d="M44.3097 31.7467C44.2227 31.793 44.1417 31.8395 44.0547 31.8857C43.9447 31.7407 43.8345 31.596 43.7302 31.4452C42.4785 29.7007 40.9137 27.1682 40.9775 24.5137C41.0702 24.508 41.1687 24.5022 41.2672 24.4962C41.1977 27.081 42.7335 29.5675 43.9622 31.277C44.072 31.4337 44.188 31.5902 44.3097 31.7467Z" fill="#FFD6C9"/>
<path d="M56.9955 52.686C56.8508 52.7208 56.7115 52.7323 56.5668 52.7323C55.7555 52.7323 54.9963 52.2338 54.4688 51.8223C53.4373 51.0283 52.5215 50.1125 51.6985 49.1738C50.9278 48.2988 50.2438 47.406 49.6123 46.5658C46.0655 41.8368 42.8838 36.783 40.1713 31.5323L39.9105 31.0223C38.7805 28.8315 37.6155 26.5713 35.8535 24.9253C35.981 24.908 36.1085 24.8905 36.236 24.8848C37.9283 26.548 39.0585 28.7445 40.1655 30.889L40.4263 31.399C40.9825 32.471 41.5565 33.5375 42.1533 34.5923C42.246 34.766 42.3445 34.94 42.443 35.1138C42.6225 35.4325 42.808 35.7455 42.9935 36.0585C45.074 39.6343 47.369 43.0943 49.8438 46.392C50.516 47.2845 51.252 48.2465 52.0868 49.168C52.8518 50.0315 53.6978 50.872 54.6425 51.5963C55.2163 52.0368 56.0798 52.6048 56.9318 52.4018C57.9923 52.1583 58.485 50.8485 58.346 49.73C58.3113 49.4693 58.259 49.2143 58.1838 48.965C57.813 47.719 56.9553 46.6295 56.0915 45.6095C54.5673 43.813 52.9273 42.0568 51.345 40.3588C50.3945 39.3388 49.4325 38.3073 48.482 37.2525C48.621 37.2698 48.766 37.2815 48.9108 37.2873C49.786 38.261 50.6785 39.2173 51.5593 40.1618C53.1415 41.8598 54.7815 43.6218 56.3115 45.424C57.2158 46.4845 58.114 47.6263 58.4848 48.9535C58.5543 49.191 58.6065 49.4403 58.6355 49.6895C58.7923 50.9415 58.2185 52.402 56.9955 52.686Z" fill="#FFD6C9"/>
<path d="M49.555 30.7558C49.4565 30.75 49.358 30.7558 49.2595 30.7615C49.184 30.4255 49.1145 30.0893 49.045 29.7588C48.8305 28.6983 48.6045 27.597 48.2452 26.5655C47.967 25.76 47.544 24.9718 47.0107 24.282C47.1265 24.2763 47.2425 24.2705 47.3642 24.2705C47.857 24.9428 48.251 25.702 48.5175 26.4728C48.8827 27.5218 49.1145 28.6288 49.329 29.7008C49.4042 30.0488 49.4737 30.4023 49.555 30.7558Z" fill="#FFD6C9"/>
<path d="M70.6622 47.9685C70.645 49.1335 70.3145 50.281 69.509 51.1792C67.8282 53.0455 64.8957 52.8947 62.989 51.811C61.7082 51.0807 60.7172 49.9855 59.9522 48.8727C59.3842 48.0555 58.9437 47.2267 58.596 46.5255C58.312 45.9517 58.0395 45.3607 57.7787 44.7925C57.0947 43.3087 56.3935 41.7787 55.4257 40.446C54.8057 39.594 54.058 38.806 53.3395 38.0407C53.096 37.7857 52.8527 37.525 52.6092 37.2642C52.731 37.2527 52.8527 37.2412 52.9685 37.2237C53.1597 37.4325 53.3567 37.641 53.548 37.8437C54.2725 38.6145 55.0257 39.4085 55.6575 40.278C56.6427 41.6342 57.3557 43.1757 58.0395 44.671C58.3002 45.239 58.5727 45.83 58.8567 46.398C59.216 47.134 59.6855 48.0092 60.294 48.8552C61.0242 49.8867 61.9515 50.8837 63.128 51.556C64.9362 52.5875 67.718 52.7382 69.2942 50.988C70.036 50.1535 70.349 49.087 70.3722 47.9975C70.4012 46.96 70.1752 45.9052 69.839 45.0185C68.2857 40.9152 64.5882 38.1392 61.0182 35.45C60.659 35.1835 60.3055 34.9167 59.9577 34.6502C56.6195 32.1175 52.7945 28.6807 51.96 24.1892H52.2612C53.0957 28.559 56.8512 31.9262 60.1315 34.4182C60.4792 34.6847 60.8327 34.9515 61.192 35.218C64.7967 37.9302 68.5232 40.7352 70.1112 44.9197C70.4595 45.8297 70.6912 46.9077 70.6622 47.9685Z" fill="#FFD6C9"/>
<path d="M82.7687 45.285C82.7687 45.3083 82.7629 45.3255 82.7572 45.3488C82.6182 45.9168 82.3861 46.3573 82.0616 46.6642C81.3546 47.3132 80.2999 47.267 79.7377 47.18C79.2044 47.099 78.7002 46.9482 78.2192 46.7337C76.3819 45.9513 74.8984 44.375 73.6059 42.8973C71.2124 40.1385 68.5059 36.806 66.5934 32.952C66.1124 31.9782 65.6777 30.964 65.2547 29.9788C64.4779 28.1823 63.6841 26.3275 62.5771 24.6875C62.6524 24.6933 62.7219 24.6992 62.7974 24.705L62.9482 24.7165C64.0029 26.3275 64.7679 28.1185 65.5157 29.863C65.9387 30.8425 66.3734 31.8568 66.8544 32.8245C68.7496 36.6438 71.4444 39.9645 73.8264 42.7057C75.1766 44.253 76.7531 45.9165 78.7004 46.6177C79.0481 46.7452 79.4074 46.838 79.7784 46.896C80.2942 46.9713 81.2446 47.0177 81.8647 46.4497C82.1196 46.2062 82.3109 45.8645 82.4384 45.4183C82.4559 45.3718 82.4674 45.3255 82.4789 45.2793C82.8324 43.8188 82.3919 42.0802 81.2619 40.527C80.4159 39.3563 79.2971 38.3827 78.2134 37.438C78.0106 37.2642 77.8019 37.0845 77.6049 36.9048C76.0982 35.5775 74.2087 33.7635 72.9454 31.5033C71.9949 29.7935 71.5081 28.0028 71.5196 26.3048C71.6181 26.328 71.7166 26.3567 71.8094 26.38C71.8094 28.0085 72.2846 29.7182 73.2004 31.3582C74.4406 33.5837 76.3069 35.3745 77.7964 36.6903C77.9934 36.87 78.2021 37.0437 78.4049 37.2235C79.5001 38.174 80.6304 39.1593 81.4996 40.353C82.6586 41.9585 83.1224 43.7493 82.7687 45.285Z" fill="#FFD6C9"/>
<path opacity="0.5" d="M87.8975 57.5599C84.594 61.5124 79.4245 63.3554 74.417 64.5552C64.0895 67.0357 53.4373 67.5572 42.7793 67.5689C49.4325 66.5314 55.9755 65.0132 62.2695 62.6369C73.4375 58.4177 83.8811 51.0459 89.9315 40.9037C92.0645 46.4732 91.682 53.0279 87.8975 57.5599Z" fill="#D7773B"/>
<path d="M13.175 36.6717C13.159 36.9909 13.3122 37.3094 13.56 37.5179C13.8077 37.7264 14.1425 37.8269 14.4692 37.8127C15.5137 37.7669 16.1375 36.4089 15.33 35.6674C14.6312 35.0257 13.2175 35.8264 13.175 36.6717Z" fill="#F9E9CF"/>
<path d="M16.4547 33.8232C16.4502 33.8339 16.4457 33.8449 16.4414 33.8557C15.9874 34.9742 16.7062 35.5037 17.7524 35.0119C19.0019 34.4247 20.2514 33.8374 21.5012 33.2502C22.3849 32.8347 24.0029 32.3467 24.4002 31.3549C24.5629 30.9489 24.4559 30.4672 24.1832 30.1219C23.8439 29.6924 23.2839 29.4509 22.7352 29.4454C21.8789 29.4369 21.1234 29.8949 20.3932 30.2749C18.8227 31.0919 17.1517 32.1454 16.4547 33.8232Z" fill="#F9E9CF"/>
<path d="M62.4553 29.9984C62.2316 30.3382 61.7703 30.4332 61.4306 30.2094L59.2883 28.7989C58.9486 28.5752 58.8536 28.1139 59.0771 27.7742C59.3008 27.4342 59.7621 27.3394 60.1021 27.5632L62.2443 28.9737C62.5841 29.1974 62.6791 29.6584 62.4553 29.9984Z" fill="#FCC07B"/>
<path d="M30.1815 34.3739C30.1493 34.7797 29.7908 35.0849 29.3853 35.0527L26.8285 34.8489C26.4228 34.8167 26.1175 34.4582 26.1498 34.0527C26.182 33.6469 26.5405 33.3417 26.946 33.3739L29.5028 33.5779C29.9083 33.6099 30.2138 33.9684 30.1815 34.3739Z" fill="#FCC07B"/>
<path d="M76.6835 42.2384C76.8143 42.6236 76.606 43.0459 76.2208 43.1766L73.792 44.0009C73.4068 44.1316 72.9845 43.9234 72.8535 43.5381C72.7228 43.1529 72.931 42.7306 73.3163 42.5999L75.745 41.7756C76.1305 41.6449 76.5528 41.8531 76.6835 42.2384Z" fill="#FCC07B"/>
<path d="M62.3701 39.2684C62.0824 38.9807 62.0824 38.5099 62.3701 38.2222L64.1836 36.4087C64.4714 36.1209 64.9421 36.1209 65.2299 36.4087C65.5176 36.6964 65.5176 37.1672 65.2299 37.4549L63.4164 39.2684C63.1286 39.5562 62.6579 39.5562 62.3701 39.2684Z" fill="#ADA04F"/>
<path d="M38.3252 39.2684C38.0374 38.9807 38.0374 38.5099 38.3252 38.2222L40.1387 36.4087C40.4264 36.1209 40.8972 36.1209 41.1849 36.4087C41.4727 36.6964 41.4727 37.1672 41.1849 37.4549L39.3714 39.2684C39.0837 39.5562 38.6127 39.5562 38.3252 39.2684Z" fill="#ADA04F"/>
<path d="M73.8216 33.4945C73.9661 33.114 74.3958 32.9212 74.7761 33.066L77.1733 33.9775C77.5536 34.1222 77.7466 34.5517 77.6018 34.932C77.4571 35.3122 77.0276 35.5052 76.6473 35.3605L74.2498 34.449C73.8698 34.3045 73.6768 33.875 73.8216 33.4945Z" fill="#F95438"/>
<path d="M16.7786 39.9312C16.9231 39.551 17.3528 39.358 17.7331 39.5027L20.1303 40.4142C20.5108 40.559 20.7036 40.9885 20.5591 41.3687C20.4146 41.749 19.9848 41.942 19.6046 41.7972L17.2073 40.8857C16.8268 40.7412 16.6338 40.3117 16.7786 39.9312Z" fill="#F95438"/>
<path d="M28.2863 44.5825C28.1048 44.2182 28.254 43.7717 28.618 43.5902L30.913 42.4455C31.2773 42.264 31.7238 42.4132 31.9053 42.7772C32.0868 43.1414 31.9375 43.588 31.5735 43.7695L29.2783 44.9142C28.9145 45.096 28.468 44.9467 28.2863 44.5825Z" fill="#FCC07B"/>
<path d="M37.1985 27.9949C37.3433 27.6147 37.7728 27.4217 38.153 27.5664L40.5505 28.4779C40.9308 28.6224 41.1238 29.0522 40.979 29.4324C40.8345 29.8127 40.405 30.0057 40.0245 29.8609L37.6273 28.9494C37.2468 28.8047 37.0538 28.3754 37.1985 27.9949Z" fill="#F95438"/>
<path d="M53.2531 43.6059C53.3976 43.2256 53.8274 43.0326 54.2076 43.1774L56.6049 44.0889C56.9851 44.2334 57.1781 44.6631 57.0334 45.0434C56.8886 45.4236 56.4591 45.6166 56.0789 45.4719L53.6816 44.5604C53.3014 44.4156 53.1086 43.9861 53.2531 43.6059Z" fill="#F95438"/>
<path d="M32.8836 89.0755L33.0996 89.565L33.6313 89.5072C35.1361 89.3435 36.1188 91.0455 35.2246 92.267L34.9086 92.6987L35.2246 93.1305C36.1186 94.352 35.1361 96.0537 33.6313 95.8902L33.0996 95.8325L32.8836 96.322C32.2728 97.707 30.3076 97.707 29.6971 96.322L29.4813 95.8325L28.9496 95.8902C27.4448 96.054 26.4621 94.352 27.3563 93.1305L27.6723 92.6987L27.3563 92.267C26.4623 91.0455 27.4448 89.3437 28.9496 89.5072L29.4813 89.565L29.6971 89.0755C30.3076 87.6905 32.2728 87.6905 32.8836 89.0755Z" fill="#F95438"/>
<path d="M79.6036 60.5247L79.8196 61.0142L80.3516 60.9565C81.8563 60.7927 82.8391 62.4947 81.9448 63.7162L81.6288 64.148L81.9448 64.5797C82.8391 65.8012 81.8563 67.503 80.3516 67.3395L79.8196 67.2815L79.6036 67.771C78.9928 69.156 77.0276 69.156 76.4171 67.771L76.2013 67.2815L75.6693 67.3395C74.1646 67.5032 73.1818 65.8012 74.0761 64.5797L74.3921 64.148L74.0761 63.7162C73.1818 62.4947 74.1646 60.793 75.6693 60.9565L76.2013 61.0142L76.4171 60.5247C77.0276 59.1397 78.9928 59.1397 79.6036 60.5247Z" fill="#FFD6C9"/>
<path d="M108.611 86.3272L108.827 86.8167L109.359 86.759C110.864 86.5952 111.846 88.2972 110.952 89.5187L110.636 89.9505L110.952 90.3822C111.846 91.6037 110.864 93.3055 109.359 93.142L108.827 93.0842L108.611 93.5737C108.001 94.9587 106.035 94.9587 105.425 93.5737L105.209 93.0842L104.677 93.142C103.172 93.3055 102.19 91.6037 103.084 90.3822L103.4 89.9505L103.084 89.5187C102.19 88.2972 103.172 86.5955 104.677 86.759L105.209 86.8167L105.425 86.3272C106.035 84.9422 108.001 84.9422 108.611 86.3272Z" fill="#FCB666"/>
<path d="M24.0387 80.4524L24.6197 80.6497L24.0387 80.8472C22.1467 81.4899 20.661 82.9754 20.0185 84.8674L19.821 85.4484L19.6237 84.8674C18.981 82.9754 17.4955 81.4897 15.6035 80.8472L15.0225 80.6497L15.6035 80.4524C17.4955 79.8097 18.9812 78.3239 19.6237 76.4322L19.821 75.8512L20.0185 76.4322C20.6612 78.3242 22.1467 79.8099 24.0387 80.4524Z" fill="#F9E9CF"/>
<path d="M50.1176 109.465L50.7408 109.677L50.1176 109.889C48.0878 110.578 46.4938 112.172 45.8043 114.202L45.5926 114.826L45.3808 114.202C44.6913 112.172 43.0973 110.578 41.0676 109.889L40.4443 109.677L41.0676 109.465C43.0976 108.776 44.6916 107.182 45.3808 105.152L45.5926 104.529L45.8043 105.152C46.4938 107.182 48.0878 108.776 50.1176 109.465Z" fill="#F9E9CF"/>
<path d="M87.9169 110.008L88.5402 110.22L87.9169 110.432C85.8869 111.121 84.2929 112.715 83.6034 114.745L83.3917 115.368L83.1799 114.745C82.4904 112.715 80.8964 111.121 78.8664 110.432L78.2432 110.22L78.8664 110.008C80.8964 109.319 82.4904 107.725 83.1799 105.695L83.3917 105.071L83.6034 105.695C84.2929 107.725 85.8869 109.319 87.9169 110.008Z" fill="#F9E9CF"/>
<path d="M49.6425 16.8038L50.188 16.989L49.6425 17.1743C47.8665 17.7775 46.4717 19.1723 45.8685 20.9485L45.6832 21.4938L45.498 20.9485C44.8947 19.1725 43.5 17.7778 41.724 17.1743L41.1787 16.989L41.724 16.8038C43.5 16.2005 44.8947 14.8058 45.498 13.0298L45.6832 12.4843L45.8685 13.0298C46.4717 14.8058 47.8662 16.2005 49.6425 16.8038Z" fill="#F9E9CF"/>
<path d="M97.0033 30.6277L97.5828 30.8245L97.0033 31.0212C95.116 31.6622 93.634 33.1442 92.993 35.0315L92.7963 35.611L92.5995 35.0315C91.9585 33.1442 90.4765 31.6622 88.5893 31.0212L88.0098 30.8245L88.5893 30.6277C90.4765 29.9867 91.9585 28.5047 92.5995 26.6175L92.7963 26.038L92.993 26.6175C93.634 28.5045 95.116 29.9867 97.0033 30.6277Z" fill="#F9E9CF"/>
<path d="M119.319 59.5273L120.008 59.7613L119.319 59.9953C117.075 60.7576 115.313 62.5196 114.551 64.7633L114.317 65.4523L114.083 64.7633C113.321 62.5196 111.559 60.7576 109.315 59.9953L108.626 59.7613L109.315 59.5273C111.559 58.7651 113.321 57.0033 114.083 54.7593L114.317 54.0703L114.551 54.7593C115.313 57.0031 117.075 58.7651 119.319 59.5273Z" fill="#F9E9CF"/>
<path d="M100.708 49.6215C101.807 49.6215 102.698 48.7307 102.698 47.632C102.698 46.5332 101.807 45.6425 100.708 45.6425C99.6095 45.6425 98.7188 46.5332 98.7188 47.632C98.7188 48.7307 99.6095 49.6215 100.708 49.6215Z" fill="#D7773B"/>
<path d="M11.6372 67.6164C11.6372 68.7152 10.7465 69.6059 9.6477 69.6059C8.54895 69.6059 7.6582 68.7152 7.6582 67.6164C7.6582 66.5177 8.54895 65.6272 9.6477 65.6272C10.7465 65.6272 11.6372 66.5177 11.6372 67.6164Z" fill="#ADA04F"/>
<path d="M65.7124 110.66C65.7124 111.759 64.8217 112.649 63.7229 112.649C62.6242 112.649 61.7334 111.759 61.7334 110.66C61.7334 109.561 62.6242 108.671 63.7229 108.671C64.8217 108.671 65.7124 109.561 65.7124 110.66Z" fill="#ADA04F"/>
<path d="M74.2495 19.1842C74.2495 20.2829 73.3588 21.1737 72.26 21.1737C71.1613 21.1737 70.2705 20.2829 70.2705 19.1842C70.2705 18.0854 71.1613 17.1949 72.26 17.1949C73.3588 17.1949 74.2495 18.0857 74.2495 19.1842Z" fill="#F7764F"/>
</svg>
