<svg width="128" height="128" viewBox="0 0 128 128" fill="none" xmlns="http://www.w3.org/2000/svg">
<g clip-path="url(#clip0_5_30175)">
<path d="M63.406 124.898C48.935 124.898 34.964 119.747 23.9552 110.375C8.49625 105.973 0 99.4444 0 91.9414C0 88.4229 1.7925 85.2112 5.3365 82.3637C3.458 76.4319 2.5075 70.2692 2.5075 63.9999C2.5075 45.8339 10.56 28.8102 24.3302 17.2932C24.2843 17.0349 24.2607 16.7694 24.2607 16.4982C24.2607 14.8282 25.1632 13.3652 26.5065 12.5717C26.6515 11.9142 26.9447 11.2797 27.3918 10.7184C28.1152 9.8137 29.1303 9.23045 30.2485 9.0567C30.7898 7.1437 32.5515 5.7377 34.6355 5.7377C36.441 5.7377 38.0045 6.7927 38.742 8.3187C46.5205 4.8547 54.801 3.1012 63.4065 3.1012C75.8778 3.1012 87.9818 6.9287 98.1363 13.9889C98.9323 13.3112 99.9627 12.9024 101.087 12.9024C103.063 12.9024 104.749 14.1662 105.38 15.9274C105.892 16.0984 106.373 16.3594 106.796 16.7009C107.65 17.3894 108.216 18.3399 108.415 19.4062C110.126 20.0639 111.342 21.7239 111.342 23.6627C111.342 24.4292 111.152 25.1522 110.816 25.7867C114.174 29.9557 116.98 34.5634 119.14 39.4499C120.486 39.8842 121.562 40.9294 122.037 42.2572C122.545 42.4272 123.023 42.6854 123.444 43.0232C124.307 43.7182 124.874 44.6692 125.073 45.7354C126.783 46.3927 128.001 48.0532 128.001 49.9922C128.001 51.6907 127.067 53.1747 125.687 53.9589C125.531 54.5597 125.251 55.1384 124.84 55.6534C124.551 56.0142 124.215 56.3237 123.846 56.5767C124.152 59.0472 124.305 61.5282 124.305 63.9999C124.305 70.0452 123.427 75.9844 121.691 81.7022C125.807 84.7087 127.888 88.1427 127.888 91.9414C127.888 99.7569 118.807 106.455 102.289 110.851C91.374 119.918 77.6065 124.898 63.406 124.898Z" fill="white"/>
<path d="M103.729 103.846C125.868 81.7075 125.868 45.8141 103.729 23.6758C81.5911 1.53747 45.6977 1.53755 23.5593 23.676C1.42085 45.8144 1.42077 81.7078 23.5591 103.846C45.6974 125.984 81.5908 125.984 103.729 103.846Z" fill="#FF9D80"/>
<path d="M88.6281 105.343L87.5196 107.279L85.6184 110.625C85.0766 111.572 84.1999 112.277 83.1661 112.625C68.1479 117.681 51.8399 114.353 47.1876 113.212C46.3556 113.008 45.6026 112.57 45.0171 111.944L40.6294 107.258L88.6281 105.343Z" fill="#F9E9CF"/>
<path d="M87.5197 107.279L85.6184 110.625C77.6069 111.341 53.4464 112.968 41.1064 107.735L87.5197 107.279Z" fill="#380E0E"/>
<path d="M123.917 91.7028C123.917 101.644 97.2623 110.958 64.2718 110.958C31.2815 110.958 4.44775 101.645 4.44775 91.7028C4.44775 81.761 31.1918 73.7018 64.1823 73.7018C97.1725 73.702 123.917 81.7613 123.917 91.7028Z" fill="#F9E9CF"/>
<path d="M63.8676 106.337C34.4316 106.337 10.4834 99.0212 10.4834 90.028C10.4834 81.0347 34.4316 73.7188 63.8676 73.7188C93.3036 73.7188 117.252 81.0347 117.252 90.028C117.252 99.0212 93.3036 106.337 63.8676 106.337ZM63.8676 74.3542C34.7821 74.3542 11.1194 81.3855 11.1194 90.028C11.1194 98.6705 34.7821 105.702 63.8676 105.702C92.9531 105.702 116.616 98.6705 116.616 90.028C116.616 81.3855 92.9531 74.3542 63.8676 74.3542Z" fill="#FF8661"/>
<path d="M115.892 95.6363C115.731 96.1988 115.747 96.8723 116.106 97.2598C116.302 97.4713 116.576 97.5703 116.85 97.594C117.608 97.6593 118.353 97.195 118.977 96.6448C120.084 95.6675 122.201 92.7893 120.161 91.8138C118.468 91.0043 116.36 94.003 115.892 95.6363Z" fill="white"/>
<path d="M115.498 98.7778C115.498 99.4208 114.977 99.942 114.334 99.942C113.691 99.942 113.17 99.4208 113.17 98.7778C113.17 98.1348 113.691 97.6135 114.334 97.6135C114.977 97.6135 115.498 98.1348 115.498 98.7778Z" fill="white"/>
<path d="M70.8763 34.7827C70.6838 34.7827 70.5278 34.6267 70.5278 34.4342V22.2364C70.5278 22.0439 70.6838 21.8879 70.8763 21.8879C71.0688 21.8879 71.2248 22.0439 71.2248 22.2364V34.4342C71.2248 34.6267 71.0688 34.7827 70.8763 34.7827Z" fill="#F9E9CF"/>
<path d="M76.5742 28.7877H65.0594C64.8669 28.7877 64.7109 28.6317 64.7109 28.4392C64.7109 28.2467 64.8669 28.0907 65.0594 28.0907H76.5742C76.7667 28.0907 76.9227 28.2467 76.9227 28.4392C76.9227 28.6317 76.7667 28.7877 76.5742 28.7877Z" fill="#F9E9CF"/>
<path d="M67.9675 32.5274C67.8907 32.5274 67.8135 32.5021 67.7492 32.4504C67.5992 32.3296 67.5755 32.1101 67.6962 31.9601L73.4535 24.8076C73.5742 24.6574 73.794 24.6339 73.9437 24.7546C74.0937 24.8754 74.1175 25.0949 73.9967 25.2449L68.2395 32.3974C68.1705 32.4831 68.0692 32.5274 67.9675 32.5274Z" fill="#F9E9CF"/>
<path d="M74.4074 31.6074C74.3314 31.6074 74.2544 31.5827 74.1902 31.5314L66.9787 25.7737C66.8284 25.6537 66.8037 25.4342 66.9239 25.2834C67.0439 25.1332 67.2632 25.1079 67.4142 25.2287L74.6257 30.9864C74.7759 31.1064 74.8007 31.3259 74.6804 31.4767C74.6114 31.5624 74.5099 31.6074 74.4074 31.6074Z" fill="#F9E9CF"/>
<path d="M117.983 56.0973C117.791 56.0973 117.635 55.9413 117.635 55.7488V43.5515C117.635 43.359 117.791 43.203 117.983 43.203C118.176 43.203 118.332 43.359 118.332 43.5515V55.7488C118.332 55.9413 118.176 56.0973 117.983 56.0973Z" fill="#F9E9CF"/>
<path d="M123.681 50.1023H112.166C111.974 50.1023 111.818 49.9463 111.818 49.7538C111.818 49.5613 111.974 49.4053 112.166 49.4053H123.681C123.874 49.4053 124.03 49.5613 124.03 49.7538C124.03 49.9463 123.874 50.1023 123.681 50.1023Z" fill="#F9E9CF"/>
<path d="M115.074 53.842C114.998 53.842 114.92 53.8167 114.856 53.765C114.706 53.6442 114.682 53.4247 114.803 53.2747L120.561 46.1222C120.682 45.972 120.902 45.9487 121.051 46.0692C121.201 46.19 121.225 46.4095 121.104 46.5595L115.346 53.712C115.277 53.7977 115.176 53.842 115.074 53.842Z" fill="#F9E9CF"/>
<path d="M121.514 52.9218C121.438 52.9218 121.361 52.897 121.297 52.8458L114.086 47.088C113.935 46.968 113.911 46.7485 114.031 46.5978C114.151 46.4475 114.37 46.4225 114.521 46.543L121.733 52.3008C121.883 52.4208 121.908 52.6403 121.787 52.791C121.718 52.877 121.617 52.9218 121.514 52.9218Z" fill="#F9E9CF"/>
<path d="M34.5264 22.9597C34.3016 22.9597 34.1196 22.7775 34.1196 22.553V8.32545C34.1196 8.1007 34.3019 7.9187 34.5264 7.9187C34.7511 7.9187 34.9331 8.10095 34.9331 8.32545V22.553C34.9331 22.7777 34.7511 22.9597 34.5264 22.9597Z" fill="#F9E9CF"/>
<path d="M41.1725 15.9672H27.7417C27.517 15.9672 27.335 15.7849 27.335 15.5604C27.335 15.3357 27.5172 15.1537 27.7417 15.1537H41.1725C41.3972 15.1537 41.5792 15.3359 41.5792 15.5604C41.5792 15.7849 41.397 15.9672 41.1725 15.9672Z" fill="#F9E9CF"/>
<path d="M31.1336 20.3287C31.0441 20.3287 30.9541 20.2992 30.8789 20.2387C30.7036 20.0977 30.6761 19.8419 30.8171 19.6669L37.5331 11.3244C37.6739 11.1492 37.9299 11.1217 38.1049 11.2627C38.2801 11.4037 38.3076 11.6594 38.1666 11.8344L31.4506 20.1769C31.3704 20.2769 31.2524 20.3287 31.1336 20.3287Z" fill="#F9E9CF"/>
<path d="M38.6456 19.2559C38.5569 19.2559 38.4671 19.2269 38.3921 19.1672L29.9801 12.4512C29.8046 12.3109 29.7759 12.0549 29.9159 11.8794C30.0556 11.7032 30.3119 11.6752 30.4876 11.8152L38.8996 18.5312C39.0751 18.6714 39.1039 18.9274 38.9639 19.1029C38.8836 19.2034 38.7649 19.2559 38.6456 19.2559Z" fill="#F9E9CF"/>
<path d="M102.225 29.5159C102.019 29.5159 101.852 29.3486 101.852 29.1421V16.0656C101.852 15.8591 102.019 15.6919 102.225 15.6919C102.432 15.6919 102.599 15.8591 102.599 16.0656V29.1421C102.599 29.3486 102.432 29.5159 102.225 29.5159Z" fill="#F9E9CF"/>
<path d="M108.334 23.0889H95.9895C95.783 23.0889 95.6157 22.9217 95.6157 22.7152C95.6157 22.5087 95.783 22.3414 95.9895 22.3414H108.334C108.54 22.3414 108.708 22.5087 108.708 22.7152C108.708 22.9217 108.54 23.0889 108.334 23.0889Z" fill="#F9E9CF"/>
<path d="M99.107 27.0977C99.0248 27.0977 98.942 27.0707 98.873 27.0152C98.712 26.8857 98.6865 26.6502 98.816 26.4894L104.988 18.8217C105.118 18.6614 105.353 18.6354 105.514 18.7647C105.675 18.8942 105.701 19.1297 105.571 19.2904L99.3988 26.9582C99.3245 27.0502 99.2163 27.0977 99.107 27.0977Z" fill="#F9E9CF"/>
<path d="M106.011 26.1111C105.93 26.1111 105.847 26.0844 105.779 26.0296L98.047 19.8576C97.8855 19.7289 97.859 19.4936 97.988 19.3324C98.1173 19.1704 98.3525 19.1444 98.5133 19.2734L106.245 25.4454C106.406 25.5741 106.433 25.8094 106.304 25.9706C106.23 26.0631 106.121 26.1111 106.011 26.1111Z" fill="#F9E9CF"/>
<path d="M15.5301 56.8137C15.3376 56.8137 15.1816 56.6577 15.1816 56.4652V44.2679C15.1816 44.0754 15.3376 43.9194 15.5301 43.9194C15.7226 43.9194 15.8786 44.0754 15.8786 44.2679V56.4652C15.8786 56.6574 15.7226 56.8137 15.5301 56.8137Z" fill="#F9E9CF"/>
<path d="M21.2282 50.8189H9.71325C9.52075 50.8189 9.36475 50.6629 9.36475 50.4704C9.36475 50.2779 9.52075 50.1219 9.71325 50.1219H21.2282C21.4207 50.1219 21.5767 50.2779 21.5767 50.4704C21.5767 50.6629 21.4207 50.8189 21.2282 50.8189Z" fill="#F9E9CF"/>
<path d="M12.6218 54.5582C12.545 54.5582 12.4678 54.533 12.4035 54.4812C12.2535 54.3605 12.2298 54.141 12.3505 53.991L18.1078 46.839C18.2288 46.6892 18.4483 46.6655 18.598 46.786C18.748 46.9067 18.7718 47.1262 18.651 47.2762L12.8938 54.4282C12.8248 54.514 12.7238 54.5582 12.6218 54.5582Z" fill="#F9E9CF"/>
<path d="M19.0612 53.6382C18.9852 53.6382 18.9082 53.6134 18.844 53.5622L11.6325 47.8049C11.4822 47.6849 11.4575 47.4654 11.5777 47.3147C11.6977 47.1649 11.917 47.1397 12.068 47.2599L19.2795 53.0172C19.4297 53.1372 19.4545 53.3567 19.3342 53.5074C19.2652 53.5932 19.1637 53.6382 19.0612 53.6382Z" fill="#F9E9CF"/>
<path d="M44.7487 31.5207C44.7487 32.4605 43.9867 33.2222 43.0472 33.2222C42.1075 33.2222 41.3457 32.4605 41.3457 31.5207C41.3457 30.581 42.1075 29.819 43.0472 29.819C43.9867 29.819 44.7487 30.581 44.7487 31.5207Z" fill="#F9E9CF"/>
<path d="M95.8854 38.8645C95.8854 39.8042 95.1237 40.566 94.1839 40.566C93.2442 40.566 92.4824 39.8042 92.4824 38.8645C92.4824 37.9247 93.2444 37.163 94.1839 37.163C95.1237 37.1627 95.8854 37.9247 95.8854 38.8645Z" fill="#F9E9CF"/>
<path d="M69.4665 12.4452C69.4665 13.3849 68.7047 14.1467 67.765 14.1467C66.8252 14.1467 66.0635 13.3849 66.0635 12.4452C66.0635 11.5054 66.8252 10.7437 67.765 10.7437C68.7047 10.7434 69.4665 11.5054 69.4665 12.4452Z" fill="#F9E9CF"/>
<path d="M97.7861 91.5623C94.0009 95.8265 87.0456 97.0593 81.4004 98.203C66.6061 101.207 50.5871 102.534 35.7079 99.319C30.5471 98.203 25.5439 96.7318 21.3329 93.75C18.7591 91.9345 17.6654 89.1195 18.0059 86.3765C18.0909 85.577 18.3071 84.7885 18.6476 84.0335C18.8834 83.4783 19.1911 82.9453 19.5579 82.4343C20.7039 80.863 22.2889 79.5858 24.0179 78.5198C29.7876 74.944 37.2076 73.3395 44.0449 72.3065C51.5174 71.174 59.1404 70.9963 66.6849 71.4848C74.0854 71.9568 81.7411 72.7173 88.6241 75.2938C90.6346 76.0433 92.5536 76.9485 94.3544 78.031C96.0899 79.075 97.7271 80.3243 98.7619 81.9455C98.8929 82.151 99.0174 82.3675 99.1221 82.584C99.3514 83.0283 99.5281 83.489 99.6526 83.9665C100.36 86.554 99.6526 89.458 97.7861 91.5623Z" fill="#F9E9CF"/>
<path opacity="0.4" d="M97.7861 91.5623C94.0009 95.8265 87.0456 97.0593 81.4004 98.203C66.6061 101.207 50.5871 102.534 35.7079 99.319C30.5471 98.203 25.5439 96.7318 21.3329 93.75C18.7591 91.9345 17.6654 89.1195 18.0059 86.3765C18.0909 85.577 18.3071 84.7885 18.6476 84.0335C18.8834 83.4783 19.1911 82.9453 19.5579 82.4343C20.7039 80.863 22.2889 79.5858 24.0179 78.5198C29.7876 74.944 37.2076 73.3395 44.0449 72.3065C51.5174 71.174 59.1404 70.9963 66.6849 71.4848C74.0854 71.9568 81.7411 72.7173 88.6241 75.2938C90.6346 76.0433 92.5536 76.9485 94.3544 78.031C96.0899 79.075 97.7271 80.3243 98.7619 81.9455C98.8929 82.151 99.0174 82.3675 99.1221 82.584C99.3514 83.0283 99.5281 83.489 99.6526 83.9665C100.36 86.554 99.6526 89.458 97.7861 91.5623Z" fill="#FCB666"/>
<path d="M99.2566 84.0747C99.2566 86.06 98.5128 88.0525 97.1381 89.6167C93.3778 93.875 86.4818 95.1167 80.8836 96.2602C66.2076 99.2557 50.3181 100.581 35.5651 97.3757C30.4508 96.2602 25.4841 94.787 21.3101 91.8055C19.3528 90.4165 18.2656 88.4452 18.0058 86.3757C17.8936 85.548 17.9216 84.699 18.0901 83.8642C18.3076 82.6857 18.7986 81.5282 19.5423 80.4897C20.1808 79.6057 20.9666 78.813 21.8293 78.1045C22.5028 77.5432 23.2183 77.0312 23.9691 76.5682C28.5781 73.692 34.2606 72.0855 39.8446 71.0402C41.1846 70.7807 42.5243 70.5632 43.8363 70.3597C51.2446 69.2302 58.7998 69.055 66.2851 69.539C73.6301 70.016 81.2276 70.7667 88.0466 73.3482C90.0388 74.099 91.9541 74.9967 93.7361 76.0842C95.4548 77.1295 97.0753 78.3782 98.0996 79.9987C98.6116 80.8055 98.9553 81.6825 99.1238 82.5872C99.2143 83.0787 99.2566 83.5767 99.2566 84.0747Z" fill="#FCB666"/>
<path d="M80.1676 89.3573C73.5874 92.6405 66.1581 93.854 58.8131 94.1628C51.3769 94.4785 43.8776 93.8963 36.6589 92.1073C32.5059 91.076 28.3036 89.5538 25.2871 86.523C23.4771 84.692 22.3829 82.384 21.9969 79.9358C21.8916 79.3325 21.8356 78.722 21.8286 78.1048C22.5021 77.5435 23.2176 77.0315 23.9684 76.5685C28.5774 73.6923 34.2599 72.0858 39.8439 71.0405C41.6749 71.314 43.4919 71.6858 45.2876 72.1278C46.7329 72.4925 48.1639 72.8995 49.5739 73.3485C55.9719 75.39 62.0681 78.2593 68.0521 81.2968C72.4019 83.4995 76.7864 85.8428 80.1676 89.3573Z" fill="#380E0E"/>
<path d="M108.552 81.9703C104.497 87.358 97.0467 88.9153 90.9995 90.3605C75.152 94.1558 57.9925 95.8325 42.054 91.7705C36.526 90.3605 31.1662 88.5015 26.6555 84.7343C23.8985 82.4403 22.727 78.8835 23.0917 75.418C23.183 74.4078 23.4145 73.4115 23.7792 72.4575C24.0317 71.756 24.3615 71.0825 24.7545 70.437C25.9822 68.4518 27.6797 66.8383 29.532 65.4913C35.7125 60.9735 43.6607 58.946 50.9847 57.6413C58.9892 56.2103 67.155 55.9858 75.2365 56.603C83.1637 57.1993 91.3645 58.1605 98.7377 61.4155C100.891 62.3625 102.947 63.506 104.876 64.874C106.735 66.1928 108.489 67.7713 109.597 69.8198C109.738 70.0793 109.871 70.353 109.983 70.6265C110.229 71.1878 110.418 71.77 110.551 72.3733C111.308 75.6425 110.551 79.3115 108.552 81.9703Z" fill="#F9E9CF"/>
<path opacity="0.4" d="M108.552 81.9703C104.497 87.358 97.0467 88.9153 90.9995 90.3605C75.152 94.1558 57.9925 95.8325 42.054 91.7705C36.526 90.3605 31.1662 88.5015 26.6555 84.7343C23.8985 82.4403 22.727 78.8835 23.0917 75.418C23.183 74.4078 23.4145 73.4115 23.7792 72.4575C24.0317 71.756 24.3615 71.0825 24.7545 70.437C25.9822 68.4518 27.6797 66.8383 29.532 65.4913C35.7125 60.9735 43.6607 58.946 50.9847 57.6413C58.9892 56.2103 67.155 55.9858 75.2365 56.603C83.1637 57.1993 91.3645 58.1605 98.7377 61.4155C100.891 62.3625 102.947 63.506 104.876 64.874C106.735 66.1928 108.489 67.7713 109.597 69.8198C109.738 70.0793 109.871 70.353 109.983 70.6265C110.229 71.1878 110.418 71.77 110.551 72.3733C111.308 75.6425 110.551 79.3115 108.552 81.9703Z" fill="#FCB666"/>
<path d="M110.13 72.5137C110.123 75.0182 109.33 77.5367 107.857 79.508C103.83 84.8957 96.443 86.4602 90.4447 87.9052C74.7235 91.6935 57.7045 93.3702 41.899 89.3152C36.42 87.9052 31.1025 86.046 26.6268 82.2787C24.5363 80.525 23.3715 78.0345 23.091 75.4177C22.9717 74.3724 22.9998 73.2992 23.1823 72.2467C23.4138 70.7525 23.94 69.2932 24.7397 67.9815C25.9532 65.9962 27.644 64.3757 29.475 63.0287C35.6062 58.518 43.4915 56.4835 50.7592 55.1787C58.6935 53.7545 66.7892 53.53 74.8077 54.1405C82.6717 54.7437 90.8095 55.698 98.1195 58.96C100.252 59.907 102.3 61.0435 104.209 62.4185C106.054 63.7375 107.786 65.3157 108.888 67.3642C109.435 68.3815 109.8 69.483 109.982 70.6262C110.081 71.251 110.13 71.8822 110.13 72.5137Z" fill="#FCB666"/>
<path d="M110.551 72.3732C110.411 72.4292 110.27 72.4714 110.13 72.5134C104.44 74.4497 98.1051 75.2572 92.0939 75.7317C68.2719 77.6124 46.0616 78.5079 23.7789 72.4574C23.5711 72.4009 23.3789 72.3172 23.1826 72.2469C23.4141 70.7527 23.9404 69.2934 24.7401 67.9817C25.9536 65.9964 27.6444 64.3759 29.4754 63.0289C35.6066 58.5182 43.4919 56.4837 50.7596 55.1789C58.6939 53.7547 66.7896 53.5302 74.8081 54.1407C82.6721 54.7439 90.8099 55.6982 98.1199 58.9602C100.252 59.9072 102.301 61.0437 104.209 62.4187C106.054 63.7377 107.787 65.3159 108.888 67.3644C109.436 68.3817 109.8 69.4832 109.983 70.6264C110.228 71.1877 110.418 71.7699 110.551 72.3732Z" fill="#380E0E"/>
<path d="M119.012 63.5833C118.752 65.723 117.349 67.603 115.595 68.8518C113.834 70.1005 111.744 70.781 109.646 71.293C105.044 72.4085 100.288 72.7523 95.5664 73.089C87.1059 73.6993 78.6526 74.3025 70.1851 74.7658C64.0186 75.1025 57.8384 75.355 51.6719 75.1235C49.9601 75.0603 48.2484 74.9553 46.5366 74.8078C42.8466 74.485 39.1146 73.9238 35.7191 72.4365C35.0036 72.1278 34.2881 71.742 33.6216 71.286C31.7696 70.0303 30.2964 68.2553 30.2684 66.0805C30.2544 64.8528 30.6894 63.7585 31.3769 62.7833C32.4781 61.2188 34.2461 59.942 35.8946 58.8758L38.7569 57.6973C39.6899 57.0168 40.6651 56.4065 41.6681 55.8593C47.6521 52.5973 54.7796 51.58 61.6546 51.594C69.0629 51.601 76.4429 52.6813 83.8579 52.8288C84.4751 52.8428 85.0926 52.8498 85.7099 52.8498C94.2474 52.8218 103.073 51.3695 111.126 54.1898C113.217 54.9265 115.244 55.9645 116.773 57.564C117.152 57.964 117.503 58.3988 117.805 58.8688C118.71 60.272 119.215 61.9348 119.012 63.5833Z" fill="#FCB666"/>
<path d="M119.012 63.5833C118.752 65.723 117.349 67.603 115.595 68.8518C113.834 70.1005 111.744 70.781 109.646 71.293C105.044 72.4085 100.288 72.7523 95.5664 73.089C87.1059 73.6993 78.6526 74.3025 70.1851 74.7658C64.0186 75.1025 57.8384 75.355 51.6719 75.1235C49.9601 75.0603 48.2484 74.9553 46.5366 74.8078C42.8466 74.485 39.1146 73.9238 35.7191 72.4365C35.0036 72.1278 34.2881 71.742 33.6216 71.286C31.7696 70.0303 30.2964 68.2553 30.2684 66.0805C30.2544 64.8528 30.6894 63.7585 31.3769 62.7833C31.8469 63.7725 32.5064 64.6845 33.2991 65.428C33.4886 65.6035 33.6849 65.7718 33.8814 65.9403C35.7474 67.4555 38.0976 68.3255 40.4336 68.9638C45.5336 70.3668 50.8444 70.8368 56.1339 71.1035C58.3999 71.2158 60.6729 71.3 62.9456 71.342C77.8601 71.6225 92.7956 70.3458 107.443 67.5328C110.116 67.0135 112.88 66.4103 115.034 64.7478C116.823 63.3658 118.065 61.0438 117.805 58.869C118.71 60.272 119.215 61.9348 119.012 63.5833Z" fill="#F9E9CF"/>
<path opacity="0.4" d="M119.012 63.5833C118.752 65.723 117.349 67.603 115.595 68.8518C113.834 70.1005 111.744 70.781 109.646 71.293C105.044 72.4085 100.288 72.7523 95.5664 73.089C87.1059 73.6993 78.6526 74.3025 70.1851 74.7658C64.0186 75.1025 57.8384 75.355 51.6719 75.1235C49.9601 75.0603 48.2484 74.9553 46.5366 74.8078C42.8466 74.485 39.1146 73.9238 35.7191 72.4365C35.0036 72.1278 34.2881 71.742 33.6216 71.286C31.7696 70.0303 30.2964 68.2553 30.2684 66.0805C30.2544 64.8528 30.6894 63.7585 31.3769 62.7833C31.8469 63.7725 32.5064 64.6845 33.2991 65.428C33.4886 65.6035 33.6849 65.7718 33.8814 65.9403C35.7474 67.4555 38.0976 68.3255 40.4336 68.9638C45.5336 70.3668 50.8444 70.8368 56.1339 71.1035C58.3999 71.2158 60.6729 71.3 62.9456 71.342C77.8601 71.6225 92.7956 70.3458 107.443 67.5328C110.116 67.0135 112.88 66.4103 115.034 64.7478C116.823 63.3658 118.065 61.0438 117.805 58.869C118.71 60.272 119.215 61.9348 119.012 63.5833Z" fill="#FCB666"/>
<path d="M83.828 53.0976C82.9652 55.7493 81.1762 58.0713 79.2399 60.1198C74.6379 65.0096 69.0327 68.8468 62.9155 71.6108C59.3097 73.2453 55.5144 74.5081 51.6419 75.3921C49.9302 75.3291 48.2184 75.2238 46.5069 75.0763C42.8169 74.7536 39.0847 74.1923 35.6894 72.7053C34.9739 72.3966 34.2584 72.0108 33.5919 71.5548C33.5007 71.2953 33.4307 71.0218 33.3745 70.7481C33.073 69.2046 33.2972 67.6753 33.8515 66.2091C34.532 64.3711 35.7177 62.6383 36.9592 61.1091C38.3975 59.3411 39.9617 57.6716 41.6384 56.1283C47.6224 52.8663 54.75 51.8488 61.625 51.8631C69.0327 51.8698 76.4127 52.9503 83.828 53.0976Z" fill="#380E0E"/>
<path d="M86.7902 49.4112C86.2922 50.6107 85.689 51.7542 84.9942 52.8417C84.5172 53.5922 83.998 54.322 83.444 55.0305C83.002 55.5847 82.539 56.125 82.055 56.651C81.8867 56.8332 81.7182 57.0157 81.543 57.1912C80.8205 57.942 80.0627 58.6505 79.277 59.324C77.9722 60.4465 76.5902 61.4777 75.159 62.4387C71.1112 65.1537 66.7617 67.4547 62.2227 69.3417C60.6512 70.0012 59.0517 70.6045 57.4312 71.1587C57.347 71.1867 57.27 71.215 57.1857 71.243C54.7375 72.0777 52.247 72.7935 49.7285 73.3967C47.8625 73.8457 45.9822 74.2315 44.0882 74.5542C43.7865 74.6102 43.485 74.6595 43.1832 74.7015C41.3942 74.9892 39.5915 75.2207 37.7885 75.396C35.0525 75.6625 32.3025 75.803 29.5735 75.81C28.1915 75.81 26.8095 75.782 25.4345 75.7187C25.217 75.7117 25.0065 75.7047 24.7962 75.6907C24.5367 75.6837 24.277 75.6627 24.0175 75.6487C23.7227 75.6277 23.4212 75.6137 23.1125 75.5927C23.0985 75.5857 23.0915 75.5857 23.0775 75.5927C18.4545 75.263 12.0425 74.4702 9.67124 70.142C8.68924 68.36 8.70324 66.431 9.32749 64.5157C9.52399 63.9125 9.78349 63.3022 10.0922 62.7057C11.32 60.2925 13.3542 57.9705 15.3957 56.0482C16.911 54.6312 18.4332 53.4385 19.654 52.5897C27.925 46.8162 38.2935 44.5222 48.143 42.095C50.023 41.625 51.8892 41.155 53.7202 40.6567C60.7075 38.7415 68.0735 35.8865 75.4395 35.718C77.053 35.683 78.6665 35.774 80.28 36.0337C80.4132 36.0547 80.5535 36.0827 80.687 36.104C82.511 36.4337 84.1315 37.1142 85.3732 38.1805C86.8395 39.4222 87.7865 41.176 87.9407 43.463C88.0812 45.4967 87.569 47.531 86.7902 49.4112Z" fill="#FCB666"/>
<path d="M86.7905 49.4125C85.184 53.278 82.455 56.6033 79.2772 59.325C77.9725 60.4475 76.5905 61.4788 75.1592 62.4398C60.5955 72.205 42.2085 76.6108 24.7967 75.6915C24.5372 75.6845 24.2775 75.6635 24.018 75.6495C19.367 75.3548 12.2112 74.7725 9.67173 70.1425C8.68973 68.3605 8.70373 66.4315 9.32798 64.5163C9.70673 66.5368 10.745 68.4378 12.3585 69.7215C13.937 70.9773 15.9012 71.6508 17.8585 72.1138C21.8712 73.0678 26.0312 73.2713 30.1562 73.131C36.8767 72.8995 43.5625 71.763 49.9812 69.7635C55.1375 68.164 60.1042 66.0103 64.9377 63.6113C69.1117 61.5348 73.2227 59.2548 76.7865 56.2453C80.3432 53.2428 83.3457 49.4475 84.84 45.0348C85.5837 42.839 85.9202 40.3978 85.3732 38.1808C86.8395 39.4225 87.7865 41.1763 87.9407 43.4633C88.0812 45.4978 87.5692 47.5323 86.7905 49.4125Z" fill="#F9E9CF"/>
<path opacity="0.4" d="M86.7905 49.4125C85.184 53.278 82.455 56.6033 79.2772 59.325C77.9725 60.4475 76.5905 61.4788 75.1592 62.4398C60.5955 72.205 42.2085 76.6108 24.7967 75.6915C24.5372 75.6845 24.2775 75.6635 24.018 75.6495C19.367 75.3548 12.2112 74.7725 9.67173 70.1425C8.68973 68.3605 8.70373 66.4315 9.32798 64.5163C9.70673 66.5368 10.745 68.4378 12.3585 69.7215C13.937 70.9773 15.9012 71.6508 17.8585 72.1138C21.8712 73.0678 26.0312 73.2713 30.1562 73.131C36.8767 72.8995 43.5625 71.763 49.9812 69.7635C55.1375 68.164 60.1042 66.0103 64.9377 63.6113C69.1117 61.5348 73.2227 59.2548 76.7865 56.2453C80.3432 53.2428 83.3457 49.4475 84.84 45.0348C85.5837 42.839 85.9202 40.3978 85.3732 38.1808C86.8395 39.4225 87.7865 41.1763 87.9407 43.4633C88.0812 45.4978 87.5692 47.5323 86.7905 49.4125Z" fill="#FCB666"/>
<path d="M77.937 43.1535C77.895 43.3218 77.8528 43.4973 77.7968 43.6658C77.1935 45.7003 75.9308 47.496 74.4575 49.0395C73.3983 50.155 72.2338 51.158 70.971 52.028C70.8518 52.1123 70.7325 52.1893 70.6203 52.2665C70.522 52.3298 70.4308 52.3928 70.3325 52.456C69.5398 52.9683 68.712 53.431 67.8633 53.838C67.316 54.0975 66.7618 54.343 66.1935 54.5605C64.629 55.1638 62.9735 55.6058 61.5353 56.4265C61.3108 56.5528 61.1003 56.686 60.89 56.8333C59.6623 57.6823 58.7293 58.8395 57.8313 60.0463C57.1298 60.9723 56.4633 61.9405 55.6988 62.8033C53.952 64.7885 51.1318 66.374 48.7255 65.2658C47.8698 64.8658 47.168 64.1643 46.2983 63.8135C46.2 63.7715 46.1018 63.7363 46.0035 63.7083C44.825 63.3715 43.5623 63.8275 42.538 64.508C42.51 64.522 42.489 64.536 42.4678 64.55C41.0438 65.5113 39.9283 66.858 38.6725 68.0225C38.5673 68.1208 38.455 68.219 38.3428 68.3103C37.1573 69.3625 35.7543 70.2465 34.1828 70.3518C33.895 70.3728 33.6005 70.3518 33.3058 70.3028C32.7865 70.2185 32.2745 70.0223 31.8325 69.7415C31.0678 69.2645 30.4995 68.528 30.3945 67.63C30.3735 67.4335 30.3735 67.2443 30.3875 67.0548C30.4438 66.3813 30.7173 65.7358 31.0258 65.0975C31.166 64.7958 31.3205 64.4943 31.4608 64.1925C31.4678 64.1855 31.4678 64.1855 31.4678 64.1855C31.538 64.0383 31.601 63.8908 31.6643 63.7435C31.6993 63.6593 31.7275 63.5753 31.7555 63.491C31.9098 63.035 31.987 62.5228 31.966 62.0388C31.959 61.8283 31.931 61.625 31.8818 61.4355C31.7415 60.8393 31.4048 60.355 30.8295 60.1378C30.3385 59.9483 29.7773 60.0255 29.272 60.1658C27.3498 60.6778 25.6663 62.0178 24.7403 63.7715C24.677 63.8908 24.614 64.017 24.5578 64.1363C24.1228 65.0763 23.8353 66.0935 23.3653 67.0265C22.832 68.0718 21.9553 69.061 20.7905 69.2573C19.184 69.5378 17.7108 68.212 16.9743 66.7598C16.5183 65.8688 16.1535 64.8165 15.2485 64.3885C14.105 63.8483 12.702 64.627 11.5023 64.2273C10.8078 63.9958 10.3238 63.4065 10.0923 62.705C11.32 60.2918 13.3543 57.9698 15.3958 56.0475C16.911 54.6305 18.4333 53.4378 19.654 52.589C27.925 46.8155 38.2935 44.5215 48.143 42.0943C50.023 41.6243 51.8893 41.1543 53.7203 40.656C60.7075 38.7408 68.0735 35.8858 75.4395 35.7173C75.8253 35.9838 76.19 36.2925 76.5198 36.6573C78.0705 38.3693 78.4703 40.9088 77.937 43.1535Z" fill="#D7773B"/>
<path d="M74.5407 40.464C74.5732 40.7543 74.5889 41.05 74.6824 41.3265C74.7762 41.6033 74.9634 41.8653 75.2372 41.967C75.6612 42.1245 76.1494 41.8318 76.3522 41.4278C76.5552 41.0235 76.5384 40.5465 76.4834 40.0975C76.3747 39.211 76.1432 37.6618 74.8872 37.8998C73.6832 38.128 74.4547 39.6988 74.5407 40.464Z" fill="#F9E9CF"/>
<path d="M74.9623 45.3997C76.3708 45.32 76.26 43.0775 74.889 43.106C73.4843 43.1352 73.4798 45.4837 74.9623 45.3997Z" fill="#F9E9CF"/>
<path d="M99.8145 49.644C100.163 49.3365 100.638 49.2233 101.097 49.146C102.282 48.9463 103.507 48.9205 104.679 49.1875C105.851 49.4548 106.968 50.027 107.789 50.9053C106.539 51.874 104.864 52.332 103.3 52.1028C101.734 51.8735 100.734 50.9308 99.8145 49.644Z" fill="#ADA04F"/>
<path d="M100.194 48.2427C99.9546 47.9935 99.8558 47.6437 99.7843 47.3057C99.5996 46.4317 99.5423 45.5227 99.7048 44.6442C99.8671 43.7657 100.258 42.9185 100.885 42.282C101.642 43.1805 102.034 44.4097 101.912 45.579C101.79 46.748 101.121 47.52 100.194 48.2427Z" fill="#ADA04F"/>
<path d="M84.8354 58.5368C84.7194 59.5888 84.6609 60.6463 84.6621 61.7023C84.6621 62.8473 84.7629 64.0868 85.5171 64.946C86.0949 65.6095 86.9684 65.938 87.8264 66.12C90.4804 66.6713 93.2324 66.0305 95.8401 65.272C98.4879 64.5053 101.275 63.49 102.88 61.243C103.964 59.72 104.34 57.7778 104.092 55.9215C104.031 55.439 103.923 54.9625 103.779 54.5033C102.089 49.1678 96.6769 45.0328 90.9876 46.5023C90.2036 46.7033 89.4244 47.0173 88.7996 47.5268C87.9119 48.2563 87.3829 49.3198 86.9384 50.3755C85.8486 52.9745 85.1426 55.7305 84.8354 58.5368Z" fill="#F95438"/>
<path opacity="0.38" d="M84.8354 58.5368C84.7194 59.5888 84.6609 60.6463 84.6621 61.7023C84.6621 62.8473 84.7629 64.0868 85.5171 64.946C86.0949 65.6095 86.9684 65.938 87.8264 66.12C90.4804 66.6713 93.2324 66.0305 95.8401 65.272C98.4879 64.5053 101.275 63.49 102.88 61.243C103.964 59.72 104.34 57.7778 104.092 55.9215L104.073 55.9745C103.685 57.1465 103.121 58.1608 102.168 58.9713C100.565 60.3198 98.4464 60.8928 96.3654 61.1668C93.5751 61.534 90.6571 61.418 88.0399 60.3593C86.8931 59.8975 85.8381 59.26 84.8354 58.5368Z" fill="#F91B0B"/>
<path d="M98.7335 56.9455C98.3505 57.3607 98.2095 57.8535 98.4185 58.0465C98.6275 58.2392 99.1075 58.059 99.4905 57.644C99.8735 57.2287 100.014 56.736 99.8055 56.543C99.5962 56.3502 99.1165 56.5305 98.7335 56.9455Z" fill="#FCC07B"/>
<path d="M96.7525 51.2085C96.3695 51.6238 96.2285 52.1168 96.4375 52.3095C96.6465 52.5023 97.1265 52.322 97.5095 51.907C97.8925 51.4918 98.0335 50.999 97.8245 50.806C97.6155 50.6133 97.1355 50.7935 96.7525 51.2085Z" fill="#FCC07B"/>
<path d="M89.7408 50.7678C89.3578 51.183 89.2168 51.6758 89.4258 51.8688C89.6348 52.0615 90.1148 51.8813 90.4978 51.4663C90.8808 51.051 91.0218 50.5583 90.8128 50.3653C90.6038 50.1723 90.1238 50.3525 89.7408 50.7678Z" fill="#FCC07B"/>
<path d="M93.8653 61.538C93.4823 61.9533 93.3413 62.446 93.5503 62.639C93.7593 62.832 94.2393 62.6515 94.6223 62.2365C95.0053 61.8213 95.1463 61.3285 94.9373 61.1355C94.7283 60.9425 94.2483 61.1228 93.8653 61.538Z" fill="#FCC07B"/>
<path d="M92.0201 56.2136C91.6371 56.6288 91.4961 57.1216 91.7051 57.3146C91.9141 57.5073 92.3941 57.3271 92.7771 56.9121C93.1601 56.4968 93.3011 56.0041 93.0921 55.8111C92.8831 55.6181 92.4031 55.7983 92.0201 56.2136Z" fill="#FCC07B"/>
<path d="M86.6554 58.793C86.2724 59.2083 86.1313 59.701 86.3403 59.894C86.5493 60.0868 87.0294 59.9065 87.4124 59.4915C87.7954 59.0763 87.9363 58.5835 87.7273 58.3905C87.5183 58.1975 87.0384 58.3778 86.6554 58.793Z" fill="#FCC07B"/>
<path d="M106.497 79.6418C106.776 79.27 107.219 79.0628 107.652 78.8943C108.772 78.4585 109.967 78.1845 111.168 78.2088C112.37 78.2328 113.58 78.5668 114.562 79.2603C113.534 80.4623 111.987 81.2503 110.408 81.343C108.829 81.4355 107.659 80.715 106.497 79.6418Z" fill="#ADA04F"/>
<path d="M106.584 78.1925C106.3 77.9967 106.132 77.6745 105.994 77.358C105.636 76.5397 105.395 75.661 105.376 74.7677C105.357 73.8747 105.568 72.9655 106.053 72.2155C106.977 72.9417 107.61 74.066 107.727 75.2357C107.845 76.4052 107.346 77.297 106.584 78.1925Z" fill="#ADA04F"/>
<path d="M93.6317 91.3862C93.7312 92.4399 93.8885 93.4871 94.104 94.5211C94.336 95.6421 94.686 96.8356 95.599 97.5241C96.2992 98.0566 97.2212 98.2014 98.0982 98.2054C100.809 98.2074 103.374 97.0219 105.774 95.7506C108.211 94.4631 110.734 92.9042 111.851 90.3781C112.603 88.6669 112.578 86.6889 111.958 84.9214C111.8 84.4614 111.598 84.0167 111.364 83.5962C108.627 78.7142 102.49 75.7621 97.2165 78.3544C96.4895 78.7101 95.79 79.1754 95.2817 79.8011C94.5605 80.6954 94.258 81.8441 94.0367 82.9681C93.4965 85.7341 93.3637 88.5759 93.6317 91.3862Z" fill="#F95438"/>
<path opacity="0.38" d="M93.6318 91.3861C93.7313 92.4399 93.8886 93.4871 94.1041 94.5211C94.3361 95.6421 94.6861 96.8356 95.5991 97.5241C96.2993 98.0566 97.2213 98.2014 98.0983 98.2054C100.809 98.2074 103.374 97.0219 105.774 95.7506C108.211 94.4631 110.734 92.9041 111.851 90.3781C112.604 88.6669 112.578 86.6889 111.958 84.9214L111.951 84.9771C111.808 86.2036 111.462 87.3109 110.692 88.2981C109.396 89.9436 107.438 90.9341 105.455 91.6244C102.798 92.5496 99.9168 93.0276 97.1391 92.5211C95.9228 92.3016 94.7603 91.8911 93.6318 91.3861Z" fill="#F91B0B"/>
<path d="M106.918 87.0107C106.627 87.495 106.589 88.0062 106.833 88.1527C107.077 88.2992 107.51 88.0255 107.801 87.5412C108.092 87.057 108.13 86.5457 107.886 86.3995C107.643 86.2527 107.209 86.5265 106.918 87.0107Z" fill="#FCC07B"/>
<path d="M103.816 81.7944C103.525 82.2787 103.487 82.7899 103.73 82.9364C103.974 83.0829 104.408 82.8092 104.698 82.3249C104.989 81.8407 105.027 81.3294 104.784 81.1832C104.54 81.0364 104.107 81.3102 103.816 81.7944Z" fill="#FCC07B"/>
<path d="M96.8602 82.7842C96.5692 83.2684 96.5309 83.7797 96.7749 83.9262C97.0187 84.0727 97.4522 83.7987 97.7429 83.3147C98.0339 82.8304 98.0719 82.3192 97.8282 82.1727C97.5847 82.0262 97.1509 82.2999 96.8602 82.7842Z" fill="#FCC07B"/>
<path d="M103.082 92.4944C102.791 92.9786 102.753 93.4899 102.997 93.6364C103.241 93.7829 103.674 93.5091 103.965 93.0249C104.256 92.5406 104.294 92.0294 104.05 91.8829C103.806 91.7364 103.373 92.0101 103.082 92.4944Z" fill="#FCC07B"/>
<path d="M100.196 87.6547C99.905 88.1389 99.867 88.6502 100.111 88.7967C100.355 88.9432 100.788 88.6694 101.079 88.1852C101.37 87.7009 101.408 87.1897 101.164 87.0432C100.92 86.8967 100.487 87.1704 100.196 87.6547Z" fill="#FCC07B"/>
<path d="M95.4655 91.2682C95.1745 91.7524 95.1365 92.2637 95.3803 92.4102C95.624 92.5567 96.0575 92.2829 96.3485 91.7987C96.6395 91.3144 96.6775 90.8032 96.4338 90.6567C96.1898 90.5102 95.7565 90.7839 95.4655 91.2682Z" fill="#FCC07B"/>
<path d="M66.7801 45.8337C66.7801 46.6137 66.5943 47.3407 66.2601 47.988C65.4801 49.5215 63.8883 50.5667 62.0471 50.5667C59.4363 50.5667 57.3193 48.4495 57.3193 45.8335C57.3193 45.51 57.3511 45.1862 57.4148 44.8785V44.8732C57.8606 42.7242 59.7656 41.106 62.0471 41.106C64.6628 41.106 66.7801 43.2232 66.7801 45.8337Z" fill="#4F2138"/>
<path d="M66.2596 47.9879C65.4796 49.5214 63.8878 50.5667 62.0466 50.5667C59.4358 50.5667 57.3188 48.4494 57.3188 45.8334C57.3188 45.5099 57.3506 45.1862 57.4143 44.8784C57.6531 45.3772 57.9821 45.8334 58.3696 46.2262C59.1443 47.0009 60.1366 47.5367 61.1658 47.8977C62.2006 48.2637 63.2988 48.4762 64.3921 48.4072C65.0286 48.3699 65.6653 48.2322 66.2596 47.9879Z" fill="#3F0727"/>
<path d="M62.1071 41.6387C61.9224 41.6995 61.7166 41.8872 61.9109 42.0705C61.9741 42.1302 62.0584 42.1617 62.1409 42.1895C62.6104 42.3482 63.1089 42.4415 63.6026 42.397C63.7949 42.3797 64.2141 42.2545 64.0144 41.98C63.9779 41.9297 63.9259 41.8935 63.8734 41.8605C63.3584 41.536 62.7016 41.4482 62.1071 41.6387Z" fill="#3F0727"/>
<path d="M65.3706 44.3506C65.3919 44.7124 65.4954 45.0689 65.6666 45.3709C65.7204 45.4656 65.7866 45.5599 65.8774 45.5934C65.9964 45.6371 66.1271 45.5581 66.1971 45.4371C66.2674 45.3161 66.2876 45.1624 66.2911 45.0136C66.3021 44.5659 66.1716 44.0539 65.9091 43.7191C65.5491 43.2604 65.3496 43.9934 65.3706 44.3506Z" fill="#F9E9CF"/>
<path d="M65.9266 46.7204C65.9511 46.7479 65.9791 46.7724 66.0111 46.7836C66.0366 46.7924 66.0636 46.7924 66.0896 46.7884C66.2538 46.7636 66.3848 46.5689 66.3713 46.3694C66.3563 46.1491 66.1001 45.8681 65.9178 46.0051C65.7238 46.1509 65.7803 46.5559 65.9266 46.7204Z" fill="#F9E9CF"/>
<path d="M56.7491 43.5951C56.7491 44.3751 56.5633 45.1021 56.2291 45.7493C55.4491 47.2828 53.8573 48.3281 52.0158 48.3281C49.4053 48.3281 47.2881 46.2108 47.2881 43.5951C47.2881 43.2713 47.3198 42.9476 47.3836 42.6398V42.6346C47.8293 40.4856 49.7341 38.8673 52.0158 38.8673C54.6318 38.8671 56.7491 40.9843 56.7491 43.5951Z" fill="#4F2138"/>
<path d="M56.2291 45.749C55.4491 47.2825 53.8573 48.3278 52.0158 48.3278C49.4053 48.3278 47.2881 46.2105 47.2881 43.5948C47.2881 43.271 47.3198 42.9473 47.3836 42.6395C47.6223 43.1383 47.9513 43.5948 48.3386 43.9873C49.1133 44.762 50.1056 45.2978 51.1348 45.6588C52.1696 46.025 53.2678 46.2373 54.3611 46.1683C54.9981 46.1313 55.6348 45.9933 56.2291 45.749Z" fill="#3F0727"/>
<path d="M52.0764 39.3998C51.8916 39.4606 51.6859 39.6486 51.8801 39.8316C51.9434 39.8913 52.0276 39.9228 52.1101 39.9506C52.5796 40.1093 53.0781 40.2026 53.5719 40.1581C53.7641 40.1408 54.1834 40.0156 53.9836 39.7411C53.9471 39.6908 53.8951 39.6546 53.8426 39.6216C53.3274 39.2971 52.6709 39.2093 52.0764 39.3998Z" fill="#3F0727"/>
<path d="M55.3399 42.1118C55.3611 42.4738 55.4646 42.83 55.6359 43.132C55.6896 43.2268 55.7556 43.321 55.8466 43.3545C55.9656 43.3983 56.0964 43.3193 56.1666 43.1983C56.2366 43.0773 56.2571 42.9235 56.2606 42.7748C56.2716 42.327 56.1411 41.815 55.8786 41.4805C55.5186 41.0215 55.3189 41.7545 55.3399 42.1118Z" fill="#F9E9CF"/>
<path d="M55.8958 44.4818C55.9203 44.5093 55.9483 44.5337 55.9803 44.545C56.0058 44.5537 56.0328 44.5538 56.0588 44.5498C56.2233 44.5248 56.3541 44.33 56.3406 44.1307C56.3256 43.9105 56.0693 43.6295 55.8871 43.7665C55.6931 43.9122 55.7496 44.317 55.8958 44.4818Z" fill="#F9E9CF"/>
<path d="M35.0814 41.8825C34.7329 41.575 34.2574 41.4618 33.7992 41.3845C32.6139 41.1848 31.3887 41.1588 30.2167 41.426C29.0449 41.6933 27.9274 42.2655 27.1069 43.1438C28.3572 44.1125 30.0314 44.5705 31.5964 44.3413C33.1612 44.112 34.1617 43.169 35.0814 41.8825Z" fill="#ADA04F"/>
<path d="M34.7024 40.4813C34.9414 40.232 35.0401 39.8825 35.1116 39.5445C35.2964 38.6705 35.3534 37.7613 35.1911 36.883C35.0289 36.0045 34.6384 35.157 34.0114 34.5208C33.2536 35.4193 32.8619 36.6485 32.9839 37.8178C33.1059 38.9865 33.7751 39.7585 34.7024 40.4813Z" fill="#ADA04F"/>
<path d="M50.0605 50.7751C50.1765 51.8271 50.235 52.8846 50.2337 53.9408C50.2337 55.0856 50.133 56.3253 49.3787 57.1846C48.801 57.8481 47.9275 58.1766 47.0695 58.3583C44.4155 58.9096 41.6635 58.2688 39.0557 57.5106C36.408 56.7438 33.6212 55.7285 32.0157 53.4816C30.9317 51.9586 30.5555 50.0163 30.804 48.1598C30.8652 47.6773 30.9732 47.2011 31.117 46.7416C32.8072 41.4061 38.219 37.2711 43.9082 38.7406C44.6922 38.9413 45.4715 39.2556 46.0962 39.7651C46.9837 40.4946 47.513 41.5581 47.9575 42.6138C49.047 45.2131 49.753 47.9688 50.0605 50.7751Z" fill="#F95438"/>
<path opacity="0.38" d="M50.0605 50.775C50.1765 51.827 50.235 52.8845 50.2337 53.9408C50.2337 55.0855 50.133 56.3253 49.3787 57.1845C48.801 57.848 47.9275 58.1765 47.0695 58.3583C44.4155 58.9095 41.6635 58.2688 39.0557 57.5105C36.408 56.7438 33.6212 55.7285 32.0157 53.4815C30.9317 51.9585 30.5555 50.0163 30.804 48.1598L30.8227 48.2128C31.2112 49.385 31.775 50.399 32.7282 51.2095C34.331 52.558 36.4497 53.131 38.5307 53.405C41.321 53.7723 44.239 53.6563 46.856 52.5973C48.0027 52.136 49.0577 51.4983 50.0605 50.775Z" fill="#F91B0B"/>
<path d="M36.1623 49.184C36.5453 49.5992 36.6863 50.092 36.4773 50.285C36.2683 50.478 35.7883 50.2975 35.4053 49.8825C35.0223 49.4673 34.8813 48.9745 35.0903 48.7815C35.2993 48.5888 35.7793 48.769 36.1623 49.184Z" fill="#FCC07B"/>
<path d="M38.1433 43.4471C38.5263 43.8623 38.6673 44.3551 38.4583 44.5481C38.2493 44.7408 37.7693 44.5608 37.3863 44.1456C37.0033 43.7303 36.8623 43.2376 37.0713 43.0446C37.2803 42.8516 37.7603 43.0318 38.1433 43.4471Z" fill="#FCC07B"/>
<path d="M45.155 43.0063C45.538 43.4215 45.679 43.9143 45.47 44.1073C45.261 44.3 44.781 44.1198 44.398 43.7048C44.015 43.2895 43.874 42.7965 44.083 42.6038C44.292 42.4108 44.772 42.591 45.155 43.0063Z" fill="#FCC07B"/>
<path d="M41.0305 53.7763C41.4135 54.1915 41.5545 54.6843 41.3455 54.8773C41.1365 55.07 40.6565 54.8898 40.2735 54.4748C39.8905 54.0595 39.7495 53.5668 39.9585 53.3738C40.1675 53.181 40.6475 53.3613 41.0305 53.7763Z" fill="#FCC07B"/>
<path d="M42.8757 48.4518C43.2587 48.8671 43.3997 49.3601 43.1907 49.5528C42.9817 49.7456 42.5017 49.5653 42.1187 49.1503C41.7357 48.7351 41.5947 48.2423 41.8037 48.0493C42.0127 47.8566 42.4925 48.0368 42.8757 48.4518Z" fill="#FCC07B"/>
<path d="M48.2405 51.0313C48.6235 51.4465 48.7645 51.9393 48.5555 52.1323C48.3465 52.3253 47.8665 52.145 47.4835 51.7298C47.1005 51.3145 46.9595 50.8218 47.1685 50.6288C47.3777 50.436 47.8577 50.6163 48.2405 51.0313Z" fill="#FCC07B"/>
<path d="M58.3968 53.572C58.3968 54.352 58.211 55.079 57.8768 55.7262C57.0968 57.2597 55.505 58.305 53.6638 58.305C51.053 58.305 48.936 56.1877 48.936 53.572C48.936 53.2482 48.9678 52.9245 49.0315 52.6167V52.6115C49.4773 50.4625 51.3823 48.8442 53.6638 48.8442C56.2798 48.8442 58.3968 50.9615 58.3968 53.572Z" fill="#4F2138"/>
<path d="M57.8768 55.7264C57.0968 57.2599 55.505 58.3052 53.6638 58.3052C51.053 58.3052 48.936 56.1879 48.936 53.5722C48.936 53.2484 48.9678 52.9247 49.0315 52.6169C49.2703 53.1157 49.5993 53.5722 49.9865 53.9647C50.7613 54.7394 51.7535 55.2754 52.783 55.6362C53.8178 56.0022 54.9163 56.2147 56.0093 56.1454C56.6458 56.1084 57.2825 55.9704 57.8768 55.7264Z" fill="#3F0727"/>
<path d="M53.7243 49.377C53.5396 49.4378 53.3338 49.6258 53.5281 49.8088C53.5913 49.8685 53.6756 49.9 53.7581 49.9278C54.2276 50.0865 54.7261 50.1798 55.2198 50.1353C55.4121 50.118 55.8313 49.9925 55.6316 49.7183C55.5951 49.668 55.5431 49.6318 55.4906 49.5988C54.9756 49.2743 54.3188 49.1865 53.7243 49.377Z" fill="#3F0727"/>
<path d="M56.9879 52.0889C57.0091 52.4509 57.1126 52.8072 57.2839 53.1092C57.3376 53.2039 57.4039 53.2984 57.4946 53.3317C57.6136 53.3754 57.7444 53.2964 57.8144 53.1754C57.8846 53.0544 57.9049 52.9007 57.9084 52.7519C57.9191 52.3042 57.7889 51.7922 57.5264 51.4574C57.1664 50.9987 56.9666 51.7317 56.9879 52.0889Z" fill="#F9E9CF"/>
<path d="M57.5437 54.4589C57.5682 54.4864 57.5962 54.5109 57.6282 54.5222C57.6537 54.5309 57.6807 54.5309 57.7067 54.5269C57.8709 54.5019 58.0019 54.3074 57.9884 54.1079C57.9734 53.8877 57.7172 53.6067 57.5349 53.7437C57.3409 53.8894 57.3977 54.2942 57.5437 54.4589Z" fill="#F9E9CF"/>
<path d="M83.9712 81.946C84.0622 82.7208 83.9625 83.4645 83.706 84.1463C83.1102 85.7603 81.6512 86.984 79.8225 87.1988C77.2297 87.5033 74.88 85.6473 74.575 83.0493C74.5372 82.7278 74.531 82.4025 74.5585 82.0895L74.5577 82.0843C74.7497 79.898 76.453 78.0685 78.7192 77.8025C81.3172 77.4973 83.667 79.3533 83.9712 81.946Z" fill="#4F2138"/>
<path d="M83.706 84.1462C83.1102 85.7602 81.6512 86.984 79.8225 87.1987C77.2297 87.5032 74.88 85.6472 74.575 83.0492C74.5372 82.7277 74.531 82.4025 74.5585 82.0895C74.8537 82.557 75.2337 82.9717 75.6642 83.3167C76.524 83.9957 77.572 84.4125 78.6365 84.6507C79.7067 84.8937 80.8225 84.9765 81.9 84.7805C82.528 84.6692 83.1442 84.458 83.706 84.1462Z" fill="#3F0727"/>
<path d="M78.8417 78.3245C78.6652 78.4062 78.4829 78.617 78.6972 78.7762C78.7669 78.8282 78.8544 78.8495 78.9394 78.8677C79.4244 78.9707 79.9302 79.0052 80.4154 78.9035C80.6044 78.864 81.0062 78.6905 80.7759 78.4412C80.7339 78.3955 80.6779 78.3657 80.6219 78.3387C80.0722 78.0765 79.4099 78.066 78.8417 78.3245Z" fill="#3F0727"/>
<path d="M82.3989 80.6372C82.4621 80.9942 82.6064 81.3359 82.8119 81.6159C82.8764 81.7037 82.9529 81.7899 83.0471 81.8124C83.1704 81.8419 83.2909 81.7482 83.3466 81.6199C83.4021 81.4914 83.4044 81.3364 83.3906 81.1884C83.3494 80.7424 83.1601 80.2492 82.8604 79.9474C82.4491 79.5337 82.3364 80.2852 82.3989 80.6372Z" fill="#F9E9CF"/>
<path d="M83.2275 82.9262C83.255 82.9507 83.2855 82.9717 83.3187 82.9789C83.345 82.9847 83.3717 82.9814 83.3972 82.9744C83.5575 82.9307 83.6647 82.7219 83.628 82.5254C83.5875 82.3084 83.3002 82.0592 83.1352 82.2164C82.9597 82.3842 83.0632 82.7797 83.2275 82.9262Z" fill="#F9E9CF"/>
<path d="M79.3973 87.6081C78.9136 87.8891 78.3256 87.9113 77.7663 87.8948C76.3198 87.8523 74.8668 87.5953 73.5458 87.0046C72.2248 86.4141 71.0398 85.4758 70.2773 84.2461C71.9811 83.3958 74.0656 83.2481 75.8596 83.8863C77.6536 84.5246 78.6133 85.8728 79.3973 87.6081Z" fill="#ADA04F"/>
<path d="M80.3862 87.4015C80.922 87.563 81.499 87.4485 82.0392 87.3028C83.4365 86.9263 84.7905 86.3398 85.9387 85.459C87.087 84.5783 88.0225 83.3915 88.4795 82.0185C86.6252 81.586 84.563 81.9253 82.9657 82.9615C81.3682 83.998 80.747 85.532 80.3862 87.4015Z" fill="#ADA04F"/>
<path d="M51.1835 82.2985C51.0675 83.0698 50.7758 83.761 50.349 84.3515C49.3498 85.7518 47.62 86.549 45.7993 86.275C43.2175 85.8868 41.4388 83.4783 41.8278 80.8915C41.8758 80.5715 41.9555 80.2563 42.0643 79.9613L42.065 79.956C42.8255 77.8973 44.9498 76.58 47.206 76.9195C49.793 77.3085 51.5718 79.717 51.1835 82.2985Z" fill="#4F2138"/>
<path d="M50.3486 84.3516C49.3493 85.7518 47.6196 86.5491 45.7988 86.2751C43.2171 85.8868 41.4383 83.4783 41.8273 80.8916C41.8753 80.5716 41.9551 80.2563 42.0638 79.9613C42.2258 80.4901 42.4833 80.9903 42.8078 81.4361C43.4588 82.3173 44.3603 82.9948 45.3246 83.5048C46.2933 84.0206 47.3481 84.3938 48.4391 84.4883C49.0746 84.5463 49.7248 84.5046 50.3486 84.3516Z" fill="#3F0727"/>
<path d="M47.1865 77.4552C46.9948 77.488 46.7635 77.643 46.9283 77.8532C46.982 77.9217 47.0605 77.9652 47.138 78.005C47.5788 78.232 48.0578 78.3982 48.5525 78.4277C48.7453 78.4392 49.1785 78.3775 49.0218 78.0765C48.9933 78.0215 48.947 77.9777 48.9003 77.9372C48.439 77.5397 47.8028 77.3552 47.1865 77.4552Z" fill="#3F0727"/>
<path d="M50.0104 80.6223C49.9776 80.9833 50.0269 81.351 50.1514 81.6753C50.1904 81.777 50.2419 81.8803 50.3266 81.9268C50.4379 81.9878 50.5786 81.929 50.6661 81.8198C50.7533 81.7105 50.7964 81.5615 50.8221 81.415C50.8994 80.9738 50.8466 80.4483 50.6369 80.0783C50.3491 79.5708 50.0426 80.266 50.0104 80.6223Z" fill="#F9E9CF"/>
<path d="M50.2078 83.0485C50.2278 83.0795 50.2518 83.1078 50.282 83.1235C50.3058 83.136 50.3325 83.14 50.359 83.14C50.5253 83.1398 50.6835 82.9668 50.6998 82.7673C50.7178 82.5475 50.506 82.2313 50.3055 82.3398C50.0918 82.4553 50.0875 82.864 50.2078 83.0485Z" fill="#F9E9CF"/>
<path d="M45.2812 86.5581C44.7405 86.7021 44.1675 86.5688 43.6322 86.4058C42.248 85.9843 40.9137 85.3541 39.7947 84.4368C38.6755 83.5196 37.7789 82.3028 37.3667 80.9158C39.2339 80.5436 41.284 80.9493 42.847 82.0368C44.4097 83.1246 44.981 84.6778 45.2812 86.5581Z" fill="#ADA04F"/>
<path d="M46.2896 86.6192C46.7641 86.916 47.3511 86.957 47.9106 86.9587C49.3576 86.963 50.8181 86.7532 52.1573 86.2055C53.4968 85.6577 54.7115 84.7585 55.5135 83.5542C53.8383 82.6492 51.7596 82.4342 49.9461 83.014C48.1323 83.5937 47.1293 84.9102 46.2896 86.6192Z" fill="#ADA04F"/>
<path d="M70.2259 98.575C70.2259 99.355 70.0401 100.082 69.7059 100.729C68.9259 102.263 67.3341 103.308 65.4929 103.308C62.8821 103.308 60.7651 101.191 60.7651 98.5748C60.7651 98.251 60.7969 97.9275 60.8606 97.6198V97.6145C61.3064 95.4655 63.2114 93.847 65.4929 93.847C68.1086 93.847 70.2259 95.9643 70.2259 98.575Z" fill="#4F2138"/>
<path d="M69.7059 100.729C68.9259 102.263 67.3341 103.308 65.4929 103.308C62.8821 103.308 60.7651 101.191 60.7651 98.5748C60.7651 98.251 60.7969 97.9275 60.8606 97.6198C61.0994 98.1185 61.4284 98.5747 61.8156 98.9675C62.5904 99.7422 63.5826 100.278 64.6121 100.639C65.6469 101.005 66.7454 101.217 67.8384 101.148C68.4749 101.111 69.1116 100.973 69.7059 100.729Z" fill="#3F0727"/>
<path d="M65.5534 94.3798C65.3687 94.4406 65.1629 94.6283 65.3572 94.8116C65.4204 94.8713 65.5047 94.9028 65.5872 94.9306C66.0567 95.0896 66.5552 95.1826 67.0489 95.1381C67.2412 95.1208 67.6604 94.9953 67.4607 94.7211C67.4242 94.6711 67.3722 94.6346 67.3197 94.6016C66.8044 94.2771 66.1477 94.1893 65.5534 94.3798Z" fill="#3F0727"/>
<path d="M68.8169 97.0917C68.8382 97.4537 68.9417 97.81 69.1129 98.112C69.1667 98.2067 69.2329 98.3012 69.3237 98.3345C69.4427 98.3782 69.5734 98.2992 69.6434 98.1782C69.7137 98.0572 69.7339 97.9035 69.7374 97.7547C69.7482 97.307 69.6179 96.795 69.3557 96.4602C68.9954 96.0015 68.7959 96.7345 68.8169 97.0917Z" fill="#F9E9CF"/>
<path d="M69.3729 99.4617C69.3974 99.4892 69.4254 99.5137 69.4574 99.525C69.4829 99.5337 69.5099 99.5337 69.5359 99.5297C69.7001 99.5047 69.8311 99.31 69.8176 99.1107C69.8026 98.8905 69.5464 98.6095 69.3641 98.7465C69.1701 98.8922 69.2266 99.297 69.3729 99.4617Z" fill="#F9E9CF"/>
<path d="M65.0224 103.665C64.5092 103.888 63.9227 103.841 63.3692 103.76C61.9377 103.549 60.5244 103.124 59.2814 102.383C58.0384 101.643 56.9707 100.573 56.3569 99.2625C58.1482 98.6168 60.2357 98.7133 61.9429 99.5563C63.6502 100.399 64.4462 101.85 65.0224 103.665Z" fill="#ADA04F"/>
<path d="M66.0288 103.575C66.5421 103.798 67.1286 103.752 67.6821 103.67C69.1136 103.459 70.5268 103.034 71.7698 102.294C73.0128 101.553 74.0806 100.483 74.6946 99.1731C72.9033 98.5273 70.8158 98.6236 69.1086 99.4666C67.4013 100.31 66.6053 101.761 66.0288 103.575Z" fill="#ADA04F"/>
</g>
<defs>
<clipPath id="clip0_5_30175">
<rect width="128" height="128" fill="white"/>
</clipPath>
</defs>
</svg>
