<svg width="128" height="128" viewBox="0 0 128 128" fill="none" xmlns="http://www.w3.org/2000/svg">
<g clip-path="url(#clip0_5_30165)">
<path d="M127.955 81.1683C127.819 79.4128 126.354 78.0578 124.594 78.0578H119.128C118.868 74.606 118.554 71.1935 118.192 67.8773C117.223 58.9973 115.734 49.6848 111.436 41.741C108.822 36.911 105.236 32.7165 100.995 29.5088L120.231 30.685C120.301 30.6895 120.371 30.6913 120.44 30.6913C122.105 30.6913 123.537 29.465 123.774 27.7948L124.008 26.1513L124.348 23.701C124.434 23.0878 124.345 22.4708 124.107 21.9128L124.205 20.8813L124.432 18.4188C124.52 17.465 124.198 16.5188 123.546 15.8165C122.908 15.1283 122.012 14.738 121.075 14.738C121.057 14.738 102.956 15.045 102.956 15.045L34.6035 16.2143C32.9033 16.2433 31.4905 17.5343 31.3095 19.2253L31.185 20.409C31.163 20.6238 31.1645 20.838 31.1833 21.0495L31.1055 21.5595C30.966 22.4938 31.2255 23.444 31.8203 24.1785C32.4145 24.9128 33.29 25.3638 34.2333 25.4215L40.5133 25.806C39.6118 27.7655 39.1115 29.8655 39.0625 31.977C33.5903 36.3258 29.137 41.7515 26.0558 47.824C10.79 51.0568 7.60354 56.3988 6.98304 58.0038C6.92754 58.1478 6.88154 58.2955 6.84654 58.4463C6.82079 58.5548 6.21879 61.1493 6.12229 64.9895C6.06529 67.288 6.19629 69.5685 6.50529 71.7185C6.53654 71.9618 6.57379 72.2053 6.61604 72.4813C6.66879 72.8025 6.72529 73.126 6.78729 73.4505C1.72804 80.564 -0.727206 89.8363 0.188544 98.5835C0.427794 100.874 1.87729 102.926 3.97029 103.938C11.5698 107.613 19.5218 109.216 26.2983 110.3C38.5918 112.266 50.8175 113.262 62.6353 113.262C62.6365 113.262 62.6348 113.262 62.6358 113.262C78.0858 113.262 92.9838 111.562 106.919 108.207C108.342 108.067 109.704 107.84 110.971 107.531C111.507 107.401 111.997 107.142 112.401 106.785C113.4 106.51 114.328 106.246 115.209 105.985C117.409 105.334 119.069 103.637 119.715 101.517C119.761 101.48 120.073 101.229 120.146 101.168C121.729 99.7155 124.261 97.294 125.98 93.04C128.05 87.9148 128.142 83.4273 127.955 81.1683Z" fill="white"/>
<path d="M115.309 102.753C116.736 102.33 117.711 101.003 117.701 99.5151C117.633 89.0676 117.031 78.6221 115.898 68.2431C114.958 59.6291 113.578 50.8306 109.528 43.3456C106.848 38.3931 103.041 34.1648 98.5442 31.1456C93.1837 27.5468 86.9582 25.7063 80.7125 24.8676C70.7205 23.5256 60.3592 24.6998 51.1395 29.0496C41.9197 33.3993 33.9135 41.0316 29.416 50.8011C27.188 55.6403 25.7152 61.1113 22.106 64.8356C20.346 66.6518 18.184 67.9281 16.2142 69.4693C8.01872 75.8821 3.45697 87.3268 4.59822 98.2338C4.71922 99.3906 5.44797 100.397 6.49497 100.903C13.2677 104.178 20.5267 105.794 27.8877 106.971C56.8375 111.6 87.1122 111.103 115.309 102.753Z" fill="#ADA04F"/>
<path d="M106.303 61.7833C106.237 62.9595 106.119 64.3588 105.924 65.9253C105.785 67.018 105.607 68.194 105.372 69.426C105.172 70.4795 104.946 71.5373 104.681 72.598C104.603 72.9213 104.519 73.2448 104.43 73.5735C104.425 73.5958 104.419 73.6125 104.414 73.6348C104.387 73.738 103.832 74.008 103.804 74.1108C103.769 74.241 104.261 74.2038 104.224 74.3315C104.146 74.5935 104.074 74.8555 103.995 75.1175C103.586 76.456 103.142 77.795 102.613 79.0978C102.535 79.2985 102.457 79.499 102.373 79.6998C102.312 79.8513 101.765 80.0233 101.701 80.1765C101.665 80.26 102.115 80.325 102.078 80.4078C102.05 80.469 102.022 80.536 101.994 80.6028C101.854 80.9205 101.715 81.2438 101.565 81.5615C95.5052 94.6395 77.226 99.785 77.226 99.785L77.3653 101.502L77.5103 103.342C63.8468 108.749 42.641 102.344 42.641 102.344L42.2118 99.0715C42.089 99.0493 41.961 99.027 41.8383 99.0048C32.551 97.388 25.9618 94.2273 21.3125 90.364C21.2138 90.2825 21.6 90.1433 21.503 90.0615C21.348 89.9308 20.7108 89.8568 20.56 89.723C14.4503 84.3048 11.9248 77.6485 10.9995 71.9403C10.9825 71.8298 11.4868 71.84 11.4705 71.7295C11.4548 71.6228 10.9183 71.3948 10.9048 71.288C10.576 68.9968 10.5035 66.873 10.548 65.0723L73.1388 58.3843L106.303 61.7833Z" fill="#F7764F"/>
<path d="M106.359 57.9368C106.359 57.9368 105.685 58.7785 104.079 59.9493C100.651 62.4468 92.9746 66.4493 78.5528 66.951C56.6668 67.7148 26.0621 66.0535 14.4613 61.1145C13.0846 60.5293 11.9806 59.8993 11.1836 59.219C11.1836 59.219 15.4538 48.1423 60.0061 48.6885C102.658 49.207 106.359 57.9368 106.359 57.9368Z" fill="#F95438"/>
<path d="M72.7761 53.0083C72.7589 53.1153 72.7419 53.2221 72.7246 53.3291C72.7074 53.4361 72.6849 53.5431 72.6619 53.6503C72.6391 53.7576 72.6166 53.8646 72.5881 53.9721C72.5646 54.0626 72.5411 54.1531 72.5176 54.2433C72.4796 54.3791 72.4356 54.5096 72.3919 54.6401C72.3281 54.8218 72.2646 55.0091 72.1841 55.1916C72.0449 55.5443 71.8776 55.8928 71.6826 56.2428C71.6259 56.3406 71.5694 56.4381 71.5126 56.5358C71.2959 56.8978 71.0614 57.2441 70.8039 57.5748C70.7361 57.6728 70.6624 57.7658 70.5834 57.8588C70.4991 57.9633 70.4149 58.0678 70.3249 58.1671C70.2566 58.2541 70.1824 58.3358 70.1026 58.4178C69.8966 58.6568 69.6679 58.8911 69.4331 59.1143C69.2894 59.2553 69.1399 59.3963 68.9846 59.5323C68.9474 59.5676 68.9044 59.6033 68.8614 59.6388C68.6684 59.8046 68.4754 59.9646 68.2766 60.1248C68.0671 60.2913 67.8519 60.4581 67.6306 60.6138C64.5451 62.1306 61.1866 63.0803 57.7684 63.0283C56.8634 63.0108 55.9549 62.9208 55.0594 62.7521C55.0539 62.7523 55.0484 62.7526 55.0424 62.7473C54.8134 62.7416 54.5894 62.7301 54.3599 62.7133C54.1694 62.7003 53.9611 62.6601 53.7414 62.6206C53.4901 62.5043 53.2436 62.3713 52.9969 62.2326C52.9741 62.2226 52.9511 62.2068 52.9339 62.1966C49.6999 60.2993 48.3391 56.6371 48.8556 53.1293C49.0074 52.1118 49.3159 51.1091 49.7836 50.1653C51.9284 45.8198 57.5676 42.0641 62.4619 42.0556C65.0904 42.0511 67.5096 43.0278 69.3494 44.5963C71.7881 46.6713 73.2169 49.7833 72.7761 53.0083Z" fill="#F9E9CF"/>
<path opacity="0.2" d="M72.7763 53.0083C72.7591 53.1153 72.7421 53.2221 72.7248 53.3291C72.7076 53.4361 72.6851 53.5431 72.6621 53.6503C72.6393 53.7576 72.6168 53.8646 72.5883 53.9721C72.5648 54.0626 72.5413 54.1531 72.5178 54.2433C72.4798 54.3791 72.4358 54.5096 72.3921 54.6401C72.3283 54.8218 72.2648 55.0091 72.1843 55.1916C72.0451 55.5443 71.8778 55.8928 71.6828 56.2428C71.6261 56.3406 71.5696 56.4381 71.5128 56.5358C71.2961 56.8978 71.0616 57.2441 70.8041 57.5748C70.7363 57.6728 70.6626 57.7658 70.5836 57.8588C70.4993 57.9633 70.4151 58.0678 70.3251 58.1671C70.2568 58.2541 70.1826 58.3358 70.1028 58.4178C69.8968 58.6568 69.6681 58.8911 69.4333 59.1143C69.2896 59.2553 69.1401 59.3963 68.9848 59.5323C68.9476 59.5676 68.9046 59.6033 68.8616 59.6388C68.6686 59.8046 68.4756 59.9646 68.2768 60.1248C68.0673 60.2913 67.8521 60.4581 67.6308 60.6138C64.5453 62.1306 61.1868 63.0803 57.7686 63.0283C56.8636 63.0108 55.9551 62.9208 55.0596 62.7521C56.2388 62.7843 57.4218 62.6656 58.5703 62.4091C61.2536 61.8046 63.7506 60.4726 65.8766 58.7343C66.9073 57.8918 67.8606 56.9471 68.5766 55.8296C68.7631 55.5303 68.9381 55.2261 69.0846 54.9121C69.9388 53.1908 70.2678 51.2268 70.2803 49.2953C70.2938 48.0781 70.1843 46.8498 69.7988 45.6908C69.6746 45.3173 69.5231 44.9506 69.3496 44.5963C71.7883 46.6713 73.2171 49.7833 72.7763 53.0083Z" fill="#FCB666"/>
<path d="M64.9471 52.2688C64.6431 53.2366 64.0509 54.1003 63.3501 54.8573C61.7659 56.5558 59.3179 57.6618 56.9824 57.0426C56.1816 56.8273 55.5256 56.3988 55.0369 55.8313C55.0354 55.8261 55.0301 55.8276 55.0301 55.8276C54.1414 54.8116 53.7904 53.3623 54.1061 51.9768C54.6114 49.7638 56.8079 47.3996 59.0811 46.8076C61.4004 46.2133 63.7739 47.2991 64.7249 49.1648C65.1791 50.0578 65.3081 51.1261 64.9471 52.2688Z" fill="#FCB666"/>
<path opacity="0.3" d="M64.9474 52.2688C64.6434 53.2365 64.0511 54.1003 63.3504 54.8573C61.7661 56.5558 59.3181 57.6618 56.9826 57.0425C56.1819 56.8273 55.5259 56.3988 55.0371 55.8313C55.6144 56.0975 56.2771 56.1858 56.9114 56.2013C59.1954 56.2533 61.5056 55.306 63.0004 53.5825C64.0616 52.365 64.6804 50.7703 64.7249 49.1648C65.1794 50.0578 65.3084 51.126 64.9474 52.2688Z" fill="#D7773B"/>
<path d="M57.0828 49.1521C56.9908 49.3993 56.9738 49.6843 57.0868 49.9226C57.255 50.2768 57.682 50.4546 58.0733 50.4241C58.4643 50.3936 58.822 50.1923 59.1358 49.9568C59.7588 49.4891 60.9953 48.0546 59.6713 47.6156C58.6493 47.2771 57.4188 48.2486 57.0828 49.1521Z" fill="#F9E9CF"/>
<path d="M94.9427 53.4937C94.9204 53.5997 94.8982 53.7055 94.8759 53.8115C94.8537 53.9175 94.8259 54.0232 94.7979 54.1292C94.7699 54.2352 94.7422 54.341 94.7087 54.447C94.6807 54.5362 94.6529 54.6255 94.6249 54.7145C94.5804 54.8482 94.5302 54.9765 94.4799 55.1047C94.4074 55.283 94.3349 55.467 94.2457 55.6455C94.0894 55.9912 93.9057 56.3312 93.6939 56.6712C93.6327 56.766 93.5712 56.8607 93.5099 56.9555C93.2759 57.3067 93.0249 57.6412 92.7519 57.959C92.6794 58.0537 92.6014 58.143 92.5177 58.2322C92.4284 58.3325 92.3394 58.433 92.2444 58.5277C92.1719 58.6115 92.0939 58.6895 92.0102 58.7675C91.7929 58.996 91.5532 59.219 91.3079 59.4307C91.1574 59.5647 91.0012 59.6985 90.8397 59.8265C90.8007 59.86 90.7562 59.8932 90.7114 59.9267C90.5107 60.083 90.3099 60.2335 90.1037 60.384C89.8862 60.54 89.6632 60.6962 89.4347 60.841C86.2794 62.2067 82.8789 62.9927 79.4672 62.7755C78.5639 62.7142 77.6609 62.5805 76.7747 62.3685C76.7692 62.3685 76.7634 62.3685 76.7579 62.363C76.5294 62.3462 76.3064 62.324 76.0777 62.296C75.8882 62.2737 75.6819 62.2235 75.4644 62.1732C75.2192 62.045 74.9794 61.9002 74.7397 61.7497C74.7174 61.7385 74.6952 61.7217 74.6784 61.7107C71.5399 59.6592 70.3582 55.9355 71.0437 52.4567C71.2444 51.4477 71.6012 50.461 72.1139 49.5412C74.4664 45.3045 80.2807 41.826 85.1697 42.0545C87.7954 42.1772 90.1644 43.2697 91.9262 44.9255C94.2624 47.1165 95.5392 50.294 94.9427 53.4937Z" fill="#F9E9CF"/>
<path opacity="0.2" d="M94.9424 53.4937C94.9202 53.5997 94.8979 53.7054 94.8757 53.8114C94.8534 53.9174 94.8257 54.0232 94.7977 54.1292C94.7697 54.2352 94.7419 54.3409 94.7084 54.4469C94.6804 54.5362 94.6527 54.6254 94.6247 54.7144C94.5802 54.8482 94.5299 54.9764 94.4797 55.1047C94.4072 55.2829 94.3347 55.4669 94.2454 55.6454C94.0892 55.9912 93.9054 56.3312 93.6937 56.6712C93.6324 56.7659 93.5709 56.8607 93.5097 56.9554C93.2757 57.3067 93.0247 57.6412 92.7517 57.9589C92.6792 58.0537 92.6012 58.1429 92.5174 58.2322C92.4282 58.3324 92.3392 58.4329 92.2442 58.5277C92.1717 58.6114 92.0937 58.6894 92.0099 58.7674C91.7927 58.9959 91.5529 59.2189 91.3077 59.4307C91.1572 59.5647 91.0009 59.6984 90.8394 59.8264C90.8004 59.8599 90.7559 59.8932 90.7112 59.9267C90.5104 60.0829 90.3097 60.2334 90.1034 60.3839C89.8859 60.5399 89.6629 60.6962 89.4344 60.8409C86.2792 62.2067 82.8787 62.9927 79.4669 62.7754C78.5637 62.7142 77.6607 62.5804 76.7744 62.3684C77.9507 62.4577 79.1379 62.3962 80.2974 62.1957C83.0067 61.7219 85.5654 60.5122 87.7729 58.8787C88.8432 58.0872 89.8412 57.1897 90.6104 56.1082C90.8112 55.8182 91.0007 55.5229 91.1624 55.2162C92.0989 53.5382 92.5227 51.5927 92.6287 49.6639C92.7012 48.4487 92.6509 47.2167 92.3219 46.0404C92.2159 45.6614 92.0822 45.2879 91.9262 44.9254C94.2622 47.1164 95.5389 50.2939 94.9424 53.4937Z" fill="#FCB666"/>
<path d="M87.1584 52.3763C86.8081 53.3283 86.1746 54.1623 85.4379 54.8845C83.7734 56.5043 81.2746 57.4905 78.9719 56.759C78.1826 56.5053 77.5479 56.0455 77.0871 55.4553C77.0859 55.4498 77.0804 55.4513 77.0804 55.4513C76.2419 54.3933 75.9614 52.9288 76.3439 51.5603C76.9556 49.3743 79.2639 47.119 81.5631 46.638C83.9084 46.1568 86.2266 47.356 87.0861 49.2655C87.4969 50.1793 87.5744 51.2523 87.1584 52.3763Z" fill="#FCB666"/>
<path opacity="0.3" d="M87.1582 52.3763C86.8079 53.3283 86.1744 54.1623 85.4377 54.8845C83.7732 56.5043 81.2744 57.4905 78.9717 56.759C78.1824 56.5053 77.5477 56.0455 77.0869 55.4553C77.6507 55.749 78.3082 55.8695 78.9412 55.9155C81.2202 56.078 83.5734 55.2435 85.1499 53.5945C86.2687 52.43 86.9642 50.8668 87.0862 49.2655C87.4967 50.1793 87.5742 51.2523 87.1582 52.3763Z" fill="#D7773B"/>
<path d="M79.4547 48.8827C79.351 49.1252 79.3202 49.4089 79.4215 49.6524C79.5722 50.0144 79.9902 50.2127 80.3825 50.2012C80.7745 50.1897 81.1417 50.0059 81.4665 49.7859C82.1115 49.3489 83.4157 47.9759 82.1145 47.4734C81.11 47.0857 79.834 47.9964 79.4547 48.8827Z" fill="#F9E9CF"/>
<path opacity="0.25" d="M93.6937 56.6713C93.6324 56.766 93.5709 56.8608 93.5097 56.9555C93.2757 57.3068 93.0247 57.6413 92.7517 57.959C92.6792 58.0538 92.6012 58.143 92.5174 58.2323C92.4282 58.3325 92.3392 58.433 92.2442 58.5278C92.1717 58.6115 92.0937 58.6895 92.0099 58.7675C91.7927 58.996 91.5529 59.219 91.3077 59.4308C91.1572 59.5648 91.0009 59.6985 90.8394 59.8265C90.8004 59.86 90.7559 59.8933 90.7112 59.9268C90.5104 60.083 90.3097 60.2335 90.1034 60.384C89.8859 60.54 89.6629 60.6963 89.4344 60.841C86.2792 62.2068 82.8787 62.9928 79.4669 62.7755C78.5637 62.7143 77.6607 62.5805 76.7744 62.3685C76.7689 62.3685 76.7632 62.3685 76.7577 62.363C76.0497 62.1903 75.3529 61.9783 74.6784 61.7108C71.5399 59.6593 70.3582 55.9355 71.0437 52.4568C72.7439 52.2058 74.4722 52.1725 76.2057 52.2673H76.2112C77.9559 52.3565 79.7009 52.5683 81.4234 52.8025C82.7057 52.981 84.0099 53.176 85.2977 53.4325C85.6879 53.505 86.0782 53.5885 86.4684 53.6778C88.0962 54.0458 89.6794 54.5363 91.1622 55.2163C92.0492 55.6233 92.8964 56.1028 93.6937 56.6713Z" fill="#FCB666"/>
<path d="M104.079 59.9493C103.979 60.0218 103.873 60.0943 103.767 60.1723C102.836 60.8246 101.621 61.5716 100.093 62.3186C99.9707 62.3743 99.8482 62.4356 99.7254 62.4913C99.1624 62.7588 98.5604 63.0263 97.9192 63.2886C97.8132 63.3276 97.7074 63.3721 97.5959 63.4168C96.7262 63.7626 95.7784 64.0968 94.7529 64.4203C94.6247 64.4593 94.4964 64.4983 94.3627 64.5373C91.1517 65.5128 87.1824 66.3268 82.3382 66.7281C82.1319 66.7448 81.9257 66.7616 81.7194 66.7783C80.6992 66.8563 79.6457 66.9121 78.5529 66.9511C76.2227 67.0348 73.7922 67.0848 71.2947 67.1128C71.2947 67.1128 71.2947 67.1128 71.2892 67.1128C70.9882 67.1183 70.6814 67.1183 70.3804 67.1183C70.3804 67.1183 70.3804 67.1183 70.3749 67.1183C69.3604 67.1293 68.3459 67.1293 67.3144 67.1293C67.3144 67.1293 67.3144 67.1293 67.3089 67.1293C66.9522 67.1293 66.5954 67.1293 66.2387 67.1238C61.5392 67.1016 56.6949 66.9788 51.9119 66.7503C51.9064 66.7503 51.9064 66.7503 51.9009 66.7503C51.5107 66.7336 51.1204 66.7168 50.7302 66.6946C49.5929 66.6388 48.4612 66.5718 47.3352 66.4996C47.3297 66.4996 47.3297 66.4996 47.3297 66.4996C46.9674 66.4773 46.5994 66.4551 46.2372 66.4326H46.2317C44.1692 66.2933 42.1344 66.1371 40.1442 65.9588H40.1387C39.9547 65.9421 39.7764 65.9253 39.5979 65.9143C37.9089 65.7581 36.2532 65.5853 34.6477 65.4013H34.6422C34.5084 65.3846 34.3747 65.3678 34.2409 65.3511C31.1804 64.9943 28.2817 64.5763 25.6224 64.0968C25.4942 64.0746 25.3604 64.0523 25.2322 64.0243C23.3312 63.6786 21.5584 63.2996 19.9364 62.8871C19.8082 62.8536 19.6799 62.8201 19.5517 62.7923C17.6004 62.2793 15.8892 61.7221 14.4619 61.1143C14.5624 61.0698 14.6627 61.0306 14.7629 60.9861C14.9024 60.9303 15.0362 60.8691 15.1754 60.8133C16.8979 60.0886 18.6372 59.4196 20.3932 58.7953C33.0364 54.2966 46.5494 52.3066 59.9842 52.4513C72.6942 52.5963 85.3432 54.6198 97.6017 58.0148C99.6864 58.5946 101.76 59.2133 103.823 59.8656C103.907 59.8936 103.996 59.9213 104.079 59.9493Z" fill="#FEB544"/>
<path d="M66.4769 35.355C66.3457 35.355 66.2289 35.2617 66.2037 35.1285C66.1427 34.808 65.8109 34.6117 65.6709 34.542C65.4859 34.4492 65.2829 34.3867 65.0684 34.321C64.9394 34.2815 64.8107 34.2415 64.6844 34.1952C63.3549 33.708 62.2742 32.4757 61.7929 30.899C61.4219 29.681 61.3777 28.2912 61.6542 26.5257L61.7254 26.0917C61.8499 25.3462 61.9789 24.5752 61.8719 23.8422C61.7599 23.0707 61.2827 22.2007 60.4697 21.9972C60.3204 21.96 60.2299 21.8085 60.2672 21.6587C60.3049 21.51 60.4537 21.4212 60.6057 21.4562C61.6684 21.723 62.2844 22.8065 62.4239 23.7622C62.5434 24.5807 62.4069 25.3955 62.2752 26.184L62.2049 26.6125C61.9422 28.2912 61.9804 29.602 62.3262 30.7367C62.7564 32.1472 63.7099 33.2447 64.8764 33.672C64.9932 33.7147 65.1129 33.7515 65.2319 33.7882C65.4592 33.858 65.6944 33.9297 65.9204 34.0432C66.3724 34.2687 66.6754 34.6265 66.7512 35.0242C66.7797 35.1757 66.6804 35.3215 66.5294 35.3502C66.5119 35.3532 66.4944 35.355 66.4769 35.355Z" fill="#FEB544"/>
<path d="M122.131 18.1088L121.904 20.5715L121.748 22.2135L103.686 21.9078L35.5938 20.7508L35.6362 20.3368L35.7165 19.5845L104.068 18.4153L122.131 18.1088Z" fill="#FCC07B"/>
<path d="M122.131 18.1088L121.904 20.5715L121.748 22.2135L103.687 21.9078C103.795 20.7418 103.925 19.5753 104.069 18.4153L122.131 18.1088Z" fill="#D7773B"/>
<path opacity="0.1" d="M121.904 20.5715L121.748 22.2135L35.5938 20.7508L35.6362 20.3368L121.904 20.5715Z" fill="#380E0E"/>
<path d="M122.066 23.237L121.725 25.687L121.493 27.3205L103.464 26.218L35.4951 22.0567L35.5569 21.645L35.6719 20.897L104.008 22.746L122.066 23.237Z" fill="#FCC07B"/>
<path d="M122.066 23.237L121.726 25.6872L121.494 27.3207L103.465 26.2182C103.627 25.0585 103.811 23.8987 104.009 22.7462L122.066 23.237Z" fill="#D7773B"/>
<path opacity="0.1" d="M121.725 25.687L121.493 27.3205L35.4951 22.0568L35.5569 21.645L121.725 25.687Z" fill="#380E0E"/>
<path d="M60.9143 21.5957C60.9311 21.7685 60.7303 21.8632 60.5686 21.9247C59.8886 22.1867 59.3311 22.705 58.8461 23.2515C57.8258 24.3887 57.0233 25.721 56.4936 27.1482C55.9528 28.5977 55.6963 30.2477 56.3096 31.6692C56.5493 32.221 56.9116 32.7172 57.1961 33.2525C58.0991 34.925 58.1996 37.0042 57.4691 38.7547C56.7723 40.4327 55.4008 41.7315 54.5258 43.3202C52.8368 46.3695 53.2326 50.439 55.4678 53.1037L53.4053 53.494L53.1266 53.5497L51.1366 53.9232L50.8523 53.979L47.6858 54.5755L47.4071 54.6312L44.7758 55.1275L44.4916 55.1832L43.1928 55.4285C41.6431 52.7695 40.4333 50.0712 41.8716 47.0945C42.7246 45.3327 44.1071 43.8612 44.8206 42.027C45.7013 39.7637 44.7816 37.9742 44.0513 35.828C42.2396 30.5265 44.9098 24.623 49.4141 21.5847C49.5088 21.5847 49.6148 21.501 49.7096 21.501H60.6191C60.4628 21.4285 60.9031 21.4285 60.9143 21.5957Z" fill="#FEB544"/>
<path d="M52.5415 21.501C50.384 23.0395 48.7395 24.7455 47.6415 26.5572C46.2867 28.7927 45.7405 31.2735 46.0972 33.5312C46.2197 34.3285 46.4595 35.12 46.6937 35.8892C47.017 36.9427 47.346 38.041 47.385 39.167C47.4687 41.4302 46.376 43.5262 45.4115 45.104C45.3222 45.249 45.233 45.3995 45.144 45.5442C44.7315 46.2075 44.3077 46.8877 44.0122 47.618C43.1035 49.8477 43.4047 52.6352 44.776 55.127C44.9767 55.4837 45.194 55.8405 45.4395 56.1862L45.211 56.3422C44.9435 55.9632 44.7037 55.5785 44.4917 55.1827C43.1147 52.6407 42.825 49.7977 43.756 47.512C44.057 46.765 44.4917 46.0682 44.9042 45.3937C44.9935 45.2487 45.0882 45.104 45.1717 44.959C46.1137 43.4147 47.1842 41.3632 47.1062 39.178C47.0672 38.0855 46.744 37.0095 46.426 35.967C46.1917 35.192 45.9465 34.3895 45.8182 33.57C45.456 31.251 46.019 28.709 47.4015 26.4177C48.4662 24.656 50.0327 23.0005 52.0675 21.501H52.5415Z" fill="#542D1B"/>
<path d="M51.354 26.5962C49.9325 29.01 49.258 31.5352 49.3972 33.899C49.442 34.5902 49.5535 35.2927 49.6647 35.9672C49.7762 36.6807 49.899 37.4167 49.938 38.1525C50.0272 39.9475 49.6537 41.854 48.8175 43.833C48.6335 44.2735 48.4272 44.7082 48.2322 45.1262C47.803 46.046 47.357 46.9882 47.1062 47.9805C46.5377 50.2495 47.028 52.6297 47.686 54.5752C47.8812 55.1717 48.0985 55.7292 48.3047 56.2252L48.0427 56.331C47.8365 55.8182 47.6135 55.2495 47.4072 54.6307C46.7492 52.6572 46.2587 50.2322 46.8387 47.9132C47.0952 46.8985 47.5467 45.9342 47.9815 45.0087C48.1765 44.5907 48.3772 44.1557 48.5612 43.7265C49.3807 41.7865 49.7487 39.919 49.6595 38.1685C49.6205 37.4437 49.5032 36.719 49.3862 36.011C49.2747 35.3252 49.1632 34.6172 49.1187 33.915C48.9737 31.4955 49.665 28.92 51.1145 26.4562C52.0787 24.823 53.3332 23.2565 55.1115 21.5002H55.5017C53.6395 23.3295 52.3407 24.9237 51.354 26.5962Z" fill="#542D1B"/>
<path d="M57.9823 21.501C56.0868 23.179 54.7043 24.8737 53.7568 26.6687C52.3743 29.3 51.9841 32.2267 52.6921 34.6905C52.7756 34.986 52.8816 35.287 52.9763 35.577C53.1436 36.0565 53.3163 36.5525 53.4111 37.0655C53.7846 38.9887 53.0933 40.9287 52.5471 42.222C52.3353 42.7182 52.1011 43.2142 51.8726 43.6992C51.3763 44.7697 50.8581 45.8735 50.5458 47.0272C49.9383 49.285 50.1611 51.788 51.1368 53.923C51.2986 54.2852 51.4826 54.631 51.6886 54.971L51.4488 55.116C51.2258 54.7537 51.0251 54.369 50.8523 53.9787C49.8768 51.7935 49.6593 49.2515 50.2781 46.9547C50.5958 45.7785 51.1143 44.658 51.6216 43.582C51.8446 43.1027 52.0786 42.6065 52.2906 42.1102C53.1436 40.1145 53.4111 38.5257 53.1381 37.1152C53.0433 36.6247 52.8761 36.1342 52.7143 35.6657C52.6141 35.3702 52.5081 35.0692 52.4243 34.7627C51.6941 32.2317 52.0898 29.2327 53.5113 26.5402C54.4311 24.7897 55.7691 23.1285 57.5696 21.5007L57.9823 21.501Z" fill="#542D1B"/>
<path d="M56.0807 26.2952C55.3559 27.7557 54.6702 29.9355 55.5289 32.0315C55.7129 32.4775 55.9859 32.89 56.2592 33.2857C56.5824 33.765 56.9169 34.2612 57.1064 34.841C57.4187 35.8277 57.3684 36.965 56.9504 38.1245C56.4709 39.4735 55.6907 40.6832 54.9379 41.8485C54.3192 42.7962 53.6892 43.7772 53.2209 44.8252C52.0112 47.5567 52.0949 50.818 53.4049 53.4937C53.4997 53.6832 53.5944 53.8672 53.7004 54.0512L53.4607 54.1907C53.3437 53.979 53.2264 53.767 53.1262 53.5495C51.8049 50.8125 51.7382 47.4955 52.9699 44.7137C53.4382 43.649 54.0792 42.6567 54.7037 41.6977C55.4452 40.5437 56.2199 39.3507 56.6882 38.0352C57.0839 36.926 57.1342 35.8555 56.8387 34.9247C56.6659 34.384 56.3537 33.927 56.0247 33.4417C55.7514 33.035 55.4617 32.6112 55.2722 32.1372C54.5587 30.4035 54.7537 28.341 55.8297 26.1722C56.7272 24.3662 58.0039 22.7662 59.5647 21.5007H60.0162C58.3607 22.772 57.0117 24.4165 56.0807 26.2952Z" fill="#542D1B"/>
<path opacity="0.3" d="M104.079 59.9491C103.979 60.0216 103.873 60.0941 103.767 60.1721C102.836 60.8244 101.621 61.5714 100.093 62.3184C99.9707 62.3741 99.8482 62.4354 99.7254 62.4911C99.1624 62.7586 98.5604 63.0261 97.9192 63.2884C97.8132 63.3274 97.7074 63.3719 97.5959 63.4166C96.7262 63.7624 95.7784 64.0966 94.7529 64.4201C94.6247 64.4591 94.4964 64.4981 94.3627 64.5371C91.1517 65.5126 87.1824 66.3266 82.3382 66.7279C82.1319 66.7446 81.9257 66.7614 81.7194 66.7781C80.6992 66.8561 79.6457 66.9119 78.5529 66.9509C76.2227 67.0346 73.7922 67.0846 71.2947 67.1126C71.2947 67.1126 71.2947 67.1126 71.2892 67.1126C70.9882 67.1181 70.6814 67.1181 70.3804 67.1181C70.3804 67.1181 70.3804 67.1181 70.3749 67.1181C69.3604 67.1291 68.3459 67.1291 67.3144 67.1291C67.3144 67.1291 67.3144 67.1291 67.3089 67.1291C66.9522 67.1291 66.5954 67.1291 66.2387 67.1236C61.5392 67.1014 56.6949 66.9786 51.9119 66.7501C51.9064 66.7501 51.9064 66.7501 51.9009 66.7501C51.5107 66.7334 51.1204 66.7167 50.7302 66.6944C49.5929 66.6387 48.4612 66.5716 47.3352 66.4994C47.3297 66.4994 47.3297 66.4994 47.3297 66.4994C46.9674 66.4771 46.5994 66.4549 46.2372 66.4324H46.2317C44.1692 66.2931 42.1344 66.1369 40.1442 65.9586H40.1387C39.9547 65.9419 39.7764 65.9252 39.5979 65.9142C37.9089 65.7579 36.2532 65.5851 34.6477 65.4011H34.6422C34.5084 65.3844 34.3747 65.3676 34.2409 65.3509C31.1804 64.9941 28.2817 64.5761 25.6224 64.0966C25.4942 64.0744 25.3604 64.0521 25.2322 64.0241C23.3312 63.6784 21.5584 63.2994 19.9364 62.8869C19.8082 62.8534 19.6799 62.8199 19.5517 62.7921C17.6004 62.2791 15.8892 61.7219 14.4619 61.1141C14.5624 61.0696 14.6627 61.0304 14.7629 60.9859C14.9024 60.9301 15.0362 60.8689 15.1754 60.8131C16.8979 60.0884 18.6372 59.4194 20.3932 58.7951C33.3542 62.5636 46.8169 64.6261 60.3132 64.8939C73.0679 65.1446 86.2742 63.6561 97.6019 58.0146C99.6867 58.5944 101.761 59.2131 103.823 59.8654C103.907 59.8934 103.996 59.9211 104.079 59.9491Z" fill="#F7764F"/>
<path d="M104.079 59.9492C103.979 60.0217 103.873 60.0942 103.767 60.1722C101.593 60.7855 99.2017 60.635 97.1667 59.6482C96.4867 59.3192 95.84 58.9067 95.2157 58.4997C94.2122 57.8532 93.1754 57.1897 92.0214 56.8997C90.5554 56.5317 88.9999 56.7937 87.5005 57.0447C85.9675 57.3012 84.3842 57.5687 82.8679 57.1897C81.7864 56.9167 80.8164 56.3367 79.8744 55.7792C78.8542 55.1717 77.8062 54.5472 76.6467 54.341C75.0077 54.0455 73.4302 54.575 71.7634 55.1382C70.3697 55.612 68.9259 56.097 67.4487 56.047C65.743 55.9912 64.1652 55.222 62.6434 54.4805C61.0937 53.728 59.4882 52.9475 57.7824 52.942H57.7769C55.8814 52.942 54.0922 53.8952 52.3639 54.8205C50.3459 55.8965 48.2609 57.0057 46.0199 56.5765C45.0834 56.3925 44.2249 55.9522 43.3887 55.523C42.5357 55.0825 41.6494 54.6255 40.7017 54.475C38.4997 54.1182 36.4649 55.4002 34.4972 56.638C32.4904 57.9035 30.4109 59.2077 28.1087 58.8455C27.5957 58.7675 27.0997 58.6002 26.6202 58.4442C26.0739 58.2602 25.4997 58.0762 24.9254 58.0205C23.2809 57.87 21.7589 58.7675 20.2929 59.637C20.1257 59.7375 19.9639 59.8322 19.8024 59.927C18.3474 60.7745 17.0932 61.198 16.0059 61.198C15.5654 61.198 15.1529 61.1255 14.7627 60.9862C14.9022 60.9305 15.0359 60.8692 15.1752 60.8135C16.3794 61.1032 17.8844 60.7242 19.6627 59.6875C19.8244 59.5927 19.9859 59.498 20.1477 59.3975C21.6584 58.5055 23.2137 57.5857 24.9474 57.7417C25.5607 57.7975 26.1459 57.9927 26.7092 58.1765C27.1774 58.3325 27.6624 58.4942 28.1529 58.5722C30.3437 58.9177 32.3842 57.6412 34.3519 56.4037C36.3644 55.1382 38.4437 53.834 40.7459 54.2017C41.7382 54.3577 42.6412 54.8262 43.5164 55.2777C44.3304 55.6957 45.1777 56.1307 46.0697 56.3035C48.216 56.7105 50.1672 55.6735 52.2297 54.5752C53.9914 53.6332 55.8087 52.6632 57.7764 52.6632H57.7819C59.5547 52.6687 61.1824 53.4605 62.7599 54.2297C64.2594 54.96 65.8092 55.7125 67.4594 55.7682C68.8699 55.8185 70.3024 55.339 71.6737 54.8762C73.3014 54.3245 74.9795 53.7557 76.6964 54.068C77.9007 54.2855 78.9764 54.921 80.0134 55.5397C80.9389 56.0917 81.8977 56.6545 82.9344 56.9167C84.4007 57.279 85.9502 57.0227 87.4499 56.7717C88.9829 56.5097 90.5662 56.2477 92.0879 56.6267C93.2867 56.9277 94.3457 57.6077 95.3659 58.2657C95.9847 58.667 96.6257 59.0797 97.2892 59.3972C99.3017 60.3785 101.682 60.5065 103.823 59.8655C103.907 59.8935 103.996 59.9212 104.079 59.9492Z" fill="#542D1B"/>
<path d="M100.094 62.3184C99.9708 62.3742 99.8483 62.4354 99.7255 62.4912C99.5025 62.4187 99.2908 62.3349 99.0788 62.2347C98.2648 61.8557 97.5068 61.3259 96.7708 60.8187C95.55 59.9714 94.396 59.1687 92.9968 58.9789C91.603 58.7894 90.1983 59.2744 88.838 59.7482C87.528 60.2109 86.1678 60.6847 84.7685 60.5677C83.2133 60.4394 81.8475 59.5977 80.5263 58.7837C79.2273 57.9864 77.8838 57.1614 76.3898 57.0444C75.0408 56.9384 73.7865 57.3902 72.454 57.8749C71.456 58.2317 70.4248 58.6052 69.3658 58.7167C67.2363 58.9342 65.1793 58.1092 63.189 57.3062C61.1208 56.4757 58.9858 55.6114 56.8228 55.9849C55.351 56.2359 53.9798 57.0442 52.6473 57.8302C50.8578 58.8894 49.0128 59.9877 46.95 59.6474C45.796 59.4634 44.7703 58.8334 43.778 58.2314C42.6743 57.5569 41.6318 56.9214 40.4165 56.8267C38.5435 56.6817 37.0383 57.8134 35.4328 59.0119C34.2008 59.9374 32.9185 60.8907 31.447 61.2474C30.1203 61.5652 28.7378 61.3644 27.4055 61.1694C26.0565 60.9744 24.6573 60.7737 23.3473 61.1249C22.4275 61.3702 21.5858 61.8887 20.7718 62.3904C20.4985 62.5577 20.2198 62.7304 19.9355 62.8867C19.8073 62.8532 19.679 62.8197 19.5508 62.7919C19.913 62.5912 20.2755 62.3682 20.6268 62.1507C21.4573 61.6434 22.316 61.1139 23.2748 60.8574C24.6405 60.4894 26.0675 60.6957 27.4445 60.8964C28.7545 61.0859 30.1093 61.2812 31.3803 60.9744C32.8018 60.6344 34.056 59.6979 35.2658 58.7892C36.8433 57.6129 38.4768 56.3922 40.4335 56.5482C41.7213 56.6484 42.836 57.3287 43.9233 57.9919C44.8933 58.5829 45.891 59.1962 46.9948 59.3744C48.9515 59.6867 50.6795 58.6719 52.508 57.5904C53.857 56.7932 55.2563 55.9682 56.7783 55.7062C59.0138 55.3272 61.1878 56.2024 63.2895 57.0497C65.2518 57.8357 67.2753 58.6497 69.3323 58.4377C70.3635 58.3317 71.3783 57.9637 72.3593 57.6069C73.6583 57.1387 75.0128 56.6537 76.412 56.7652C77.973 56.8877 79.3443 57.7352 80.671 58.5492C81.9643 59.3464 83.3023 60.1659 84.7908 60.2884C86.1343 60.4054 87.461 59.9372 88.7488 59.4857C90.1313 59.0007 91.564 58.4989 93.0358 58.6997C94.502 58.9004 95.7395 59.7589 96.9325 60.5894C97.6573 61.0912 98.4043 61.6097 99.2015 61.9774C99.4915 62.1119 99.7868 62.2292 100.094 62.3184Z" fill="#542D1B"/>
<path d="M97.9197 63.2884C97.8137 63.3274 97.7079 63.3719 97.5964 63.4167C97.3902 63.2884 97.1784 63.1492 96.9722 63.0152C95.6287 62.1399 94.2407 61.2369 92.6742 61.1757C91.4812 61.1367 90.3774 61.5772 89.2067 62.0454C88.1864 62.4524 87.1329 62.8762 86.0234 62.9374C84.2674 63.0377 82.6397 62.2182 81.0677 61.4322C79.6239 60.7074 78.1299 59.9604 76.5467 59.9382H76.4687C75.2312 59.9382 74.0214 60.3787 72.8562 60.8022C71.9364 61.1367 70.9942 61.4824 70.0132 61.6272C67.8279 61.9562 65.6537 61.2592 63.5634 60.5847C61.6179 59.9604 59.6054 59.3137 57.5874 59.4919C56.0934 59.6314 54.6329 60.2222 53.2282 60.7909C51.4219 61.5267 49.5544 62.2849 47.5979 62.0787C46.3102 61.9449 45.0727 61.4042 43.8742 60.8802C42.1404 60.1222 40.5014 59.4029 38.7902 59.8599C37.7364 60.1442 36.8447 60.8522 35.9862 61.5379C35.1332 62.2179 34.2469 62.9204 33.1877 63.2382C32.1564 63.5447 31.0637 63.4499 30.0044 63.3609C28.9732 63.2774 27.8972 63.1824 26.9104 63.4837C26.4532 63.6232 26.0297 63.8404 25.6227 64.0969C25.4944 64.0747 25.3607 64.0524 25.2324 64.0244C25.7287 63.6844 26.2527 63.3944 26.8324 63.2162C27.8694 62.9039 28.9677 62.9932 30.0324 63.0824C31.0582 63.1717 32.1229 63.2609 33.1097 62.9709C34.1187 62.6699 34.9772 61.9842 35.8134 61.3209C36.6942 60.6129 37.6084 59.8882 38.7177 59.5927C40.5239 59.1132 42.2854 59.8824 43.9857 60.6239C45.1619 61.1369 46.3827 61.6719 47.6259 61.8002C49.5102 61.9954 51.2662 61.2874 53.1224 60.5347C54.5497 59.9549 56.0269 59.3584 57.5654 59.2189C59.6337 59.0294 61.6739 59.6872 63.6474 60.3172C65.7099 60.9804 67.8452 61.6662 69.9747 61.3539C70.9224 61.2147 71.8589 60.8744 72.7619 60.5399C73.9772 60.0994 75.2259 59.6369 76.5527 59.6592C78.2027 59.6814 79.7247 60.4452 81.1964 61.1809C82.7294 61.9559 84.3182 62.7474 86.0074 62.6582C87.0722 62.5969 88.1034 62.1844 89.1014 61.7884C90.2497 61.3257 91.4372 60.8629 92.6859 60.8964C94.3304 60.9577 95.7519 61.8832 97.1234 62.7807C97.3464 62.9257 97.5694 63.0707 97.7924 63.2099C97.8362 63.2382 97.8807 63.2659 97.9197 63.2884Z" fill="#542D1B"/>
<path d="M94.7527 64.42C94.6245 64.459 94.4962 64.498 94.3625 64.537C94.3012 64.498 94.2397 64.47 94.173 64.4422C92.5507 63.7397 90.8115 64.052 88.9717 64.3752C87.7175 64.6037 86.4187 64.8322 85.1587 64.721C83.765 64.5927 82.4382 64.0465 81.1617 63.5167C79.7402 62.9257 78.2685 62.3182 76.73 62.3182H76.7132C75.4422 62.3237 74.1992 62.7475 73.0007 63.16C72.2817 63.4052 71.5402 63.6562 70.7875 63.8232C69.3102 64.1522 67.7492 64.1467 66.272 63.8122C65.2462 63.5782 64.254 63.1822 63.2895 62.7977C62.3475 62.4242 61.3662 62.034 60.3685 61.8055C58.4565 61.365 56.3937 61.5045 54.5597 62.2012C53.9855 62.413 53.4225 62.6917 52.8817 62.9537C52.2407 63.266 51.5772 63.5837 50.886 63.8232C48.5837 64.6092 45.8465 64.4587 43.1817 63.394C42.97 63.3105 42.758 63.2212 42.5517 63.132C41.6487 62.753 40.7232 62.357 39.7532 62.385C38.248 62.424 37.0717 63.4107 35.8287 64.4532C35.4442 64.7767 35.054 65.1055 34.647 65.401H34.6415C34.5077 65.3842 34.374 65.3675 34.2402 65.3507C34.7252 65.0162 35.1935 64.6205 35.6507 64.2415C36.877 63.2102 38.1425 62.151 39.748 62.1065C40.7737 62.0842 41.7325 62.4855 42.658 62.8757C42.8697 62.965 43.076 63.0542 43.2822 63.1377C45.8855 64.1745 48.5557 64.325 50.7967 63.5557C51.4712 63.3272 52.1235 63.0095 52.759 62.7027C53.3052 62.4352 53.8737 62.162 54.4592 61.939C56.3435 61.2255 58.4617 61.0805 60.4297 61.5322C61.45 61.7662 62.4365 62.1622 63.3955 62.5412C64.343 62.9202 65.33 63.3105 66.339 63.539C67.7717 63.868 69.288 63.868 70.7262 63.5502C71.462 63.3885 72.198 63.1377 72.906 62.8925C74.1325 62.4745 75.3977 62.0452 76.7135 62.0397H76.7302C78.3245 62.0397 79.8185 62.6585 81.268 63.255C82.5277 63.779 83.8322 64.3197 85.1815 64.4422C86.408 64.5537 87.6845 64.3252 88.922 64.1022C90.7227 63.7845 92.5845 63.45 94.2847 64.186C94.446 64.2527 94.6022 64.3365 94.7527 64.42Z" fill="#542D1B"/>
<path d="M46.9456 66.3879C47.0739 66.4269 47.2019 66.4659 47.3301 66.4994C46.9679 66.4771 46.5999 66.4549 46.2376 66.4324H46.2321C45.9756 66.3377 45.7249 66.2317 45.4741 66.1314C44.4206 65.7077 43.4226 65.3064 42.3469 65.3509C41.5944 65.3789 40.8584 65.6351 40.1449 65.9586H40.1394C39.9554 65.9419 39.7771 65.9252 39.5986 65.9142C40.4739 65.4849 41.3769 65.1114 42.3356 65.0724C43.4784 65.0279 44.5431 65.4569 45.5746 65.8752C46.0256 66.0532 46.4829 66.2429 46.9456 66.3879Z" fill="#542D1B"/>
<path d="M63.5187 65.7133C64.7617 66.2708 66.0272 66.845 67.3095 67.1293C66.9527 67.1293 66.596 67.1293 66.2392 67.1238C65.2805 66.8115 64.3382 66.388 63.4072 65.9643C61.144 64.944 59.0087 63.974 56.7845 64.5763C56.004 64.788 55.2737 65.195 54.5657 65.5853C54.1587 65.8138 53.7295 66.0535 53.2947 66.2543C52.8487 66.4605 52.386 66.6223 51.9122 66.7505C51.9067 66.7505 51.9067 66.7505 51.9012 66.7505C51.511 66.7338 51.1207 66.717 50.7305 66.6948C51.5722 66.5833 52.4027 66.349 53.1777 65.9978C53.607 65.8028 54.025 65.5685 54.432 65.3455C55.1512 64.944 55.898 64.526 56.712 64.3085C59.0312 63.6785 61.3112 64.7155 63.5187 65.7133Z" fill="#542D1B"/>
<path d="M82.3384 66.7279C82.1321 66.7447 81.9259 66.7614 81.7196 66.7782C81.4296 66.6554 81.1399 66.5272 80.8556 66.3992C79.4174 65.7524 78.0516 65.1449 76.5631 65.2117C75.3031 65.2674 74.1159 65.8304 72.9731 66.3767C72.4269 66.6332 71.8694 66.8952 71.2951 67.1127C71.2951 67.1127 71.2951 67.1127 71.2896 67.1127C70.9886 67.1182 70.6819 67.1182 70.3809 67.1182C71.2339 66.8952 72.0534 66.5049 72.8504 66.1259C74.0211 65.5684 75.2364 64.9944 76.5519 64.9329C78.1129 64.8604 79.5621 65.5127 80.9669 66.1427C81.4186 66.3432 81.8756 66.5494 82.3384 66.7279Z" fill="#542D1B"/>
<path d="M77.3654 101.502C61.5781 104.524 46.9111 99.5012 46.9111 99.5012C64.6274 102.06 77.2259 99.7855 77.2259 99.7855L77.3654 101.502Z" fill="#380E0E"/>
<path d="M104.413 73.635C104.352 73.869 104.291 74.1032 104.224 74.3317C100.299 76.1657 96.018 77.643 91.4075 78.7692C88.3528 79.5107 85.1586 80.096 81.7411 80.5365C76.6626 81.1942 71.0935 81.5287 64.7663 81.5677C64.3315 81.5732 63.8965 81.5732 63.4675 81.5732C42.9028 81.5732 25.677 78.4125 10.999 71.9402C10.9655 71.723 10.932 71.5055 10.9043 71.288C25.8778 77.9665 43.5215 81.1327 64.7608 81.0102C71.4615 80.9655 77.3093 80.5922 82.6163 79.8507C85.66 79.4327 88.5253 78.8862 91.2738 78.223C96.0123 77.0745 100.4 75.5415 104.413 73.635Z" fill="#F9E9CF"/>
<path d="M102.373 79.7C102.278 79.9342 102.183 80.1737 102.077 80.408C91.7476 84.3937 80.8381 86.791 70.0456 88.2905C61.1818 89.528 52.4018 90.1525 44.0788 90.5592C40.3158 90.7432 36.4638 90.8992 32.5783 90.8992C28.8433 90.8992 25.0748 90.76 21.3121 90.364C21.0556 90.1522 20.8048 89.9402 20.5596 89.723C28.4643 90.6205 36.4306 90.3752 44.0566 90.0072C52.7808 89.5835 62.0181 88.9147 71.3166 87.5542C81.8023 86.0217 92.3718 83.6135 102.373 79.7Z" fill="#F9E9CF"/>
<path opacity="0.25" d="M106.303 61.7833C106.236 62.9596 106.119 64.3588 105.924 65.9253C105.785 67.0181 105.606 68.1941 105.372 69.4261C104.588 73.5908 103.347 77.7048 101.564 81.5621C95.5049 94.6401 77.2256 99.7856 77.2256 99.7856L77.3649 101.503L77.5099 103.342C63.8464 108.75 42.6406 102.344 42.6406 102.344L42.2114 99.0721C42.0886 99.0498 41.9606 99.0276 41.8379 99.0053C43.0699 98.5648 44.5919 98.4478 45.6399 98.1746C50.1944 97.0038 54.6709 95.5043 59.0134 93.6926C62.7986 92.1206 66.4834 90.3143 70.0456 88.2908C70.4694 88.0511 70.8929 87.8058 71.3166 87.5548C74.9346 85.4366 78.4186 83.0896 81.7411 80.5363C82.0366 80.3078 82.3264 80.0848 82.6164 79.8506C82.8616 79.6611 83.1069 79.4658 83.3524 79.2708C87.4886 75.9483 91.3631 72.2968 94.9141 68.3501C95.9009 67.2518 96.8764 66.1203 98.0694 65.2338C99.7641 63.9738 101.799 63.2883 103.8 62.6193C104.636 62.3408 105.472 62.0621 106.303 61.7833Z" fill="#F91B0B"/>
<path d="M105.924 65.9253C100.445 68.066 84.5901 73.0273 55.4961 73.0273C27.2829 73.0273 14.8739 67.6478 10.5479 65.0723C10.6371 61.538 11.1834 59.219 11.1834 59.219C11.1834 59.219 25.5101 67.2353 62.5201 67.1405C101.085 67.0458 106.359 57.9368 106.359 57.9368C106.359 57.9368 106.526 61.1755 105.924 65.9253Z" fill="#F9E9CF"/>
<path d="M53.6237 84.6002C53.5274 85.835 52.4482 86.758 51.2137 86.6615C49.9789 86.5652 49.0559 85.486 49.1524 84.2512C49.2487 83.0165 50.3279 82.0938 51.5624 82.19C52.7972 82.2865 53.7202 83.3655 53.6237 84.6002Z" fill="#380E0E"/>
<path d="M73.3749 84.1915C73.2786 85.4263 72.1994 86.3493 70.9646 86.2528C69.7299 86.1565 68.8071 85.0776 68.9034 83.8428C68.9996 82.6081 70.0789 81.6853 71.3136 81.7816C72.5481 81.8778 73.4711 82.9568 73.3749 84.1915Z" fill="#380E0E"/>
<path d="M61.9437 88.9033C61.1294 88.9033 60.3159 88.606 59.7074 88.0555C59.2099 87.6055 58.8542 87.0065 58.7324 86.4118C58.6957 86.2335 58.8109 86.0595 58.9887 86.0228C59.1669 85.987 59.3414 86.1008 59.3777 86.279C59.4719 86.7398 59.7534 87.209 60.1497 87.5673C60.8354 88.1873 61.8472 88.4073 62.7277 88.1235C63.6077 87.842 64.3049 87.0763 64.5037 86.173C64.5427 85.9953 64.7177 85.881 64.8959 85.9223C65.0737 85.9613 65.1862 86.1368 65.1467 86.3145C64.8987 87.4425 64.0279 88.3988 62.9284 88.751C62.6097 88.8533 62.2767 88.9033 61.9437 88.9033Z" fill="#380E0E"/>
<path opacity="0.5" d="M40.7153 94.7976C44.2132 94.7976 47.0488 91.962 47.0488 88.4641C47.0488 84.9662 44.2132 82.1306 40.7153 82.1306C37.2174 82.1306 34.3818 84.9662 34.3818 88.4641C34.3818 91.962 37.2174 94.7976 40.7153 94.7976Z" fill="#F9E9CF"/>
<path opacity="0.5" d="M80.9978 94.7978C84.4959 94.7978 87.3316 91.962 87.3316 88.464C87.3316 84.966 84.4959 82.1302 80.9978 82.1302C77.4998 82.1302 74.6641 84.966 74.6641 88.464C74.6641 91.962 77.4998 94.7978 80.9978 94.7978Z" fill="#F9E9CF"/>
<path d="M111.229 104.256C107.588 105.144 103.738 105.164 99.9898 104.707C99.2763 104.626 98.5698 104.518 97.8633 104.404C98.2333 103.812 98.637 103.247 99.0813 102.708C99.0948 102.695 99.1083 102.675 99.1218 102.661C99.2228 102.533 99.3235 102.412 99.4313 102.291C99.5793 102.116 99.734 101.941 99.8955 101.773C101.208 101.611 102.567 101.632 103.94 101.706C104.136 101.712 104.337 101.719 104.533 101.733C106.289 101.827 108.052 101.941 109.735 101.753C109.95 101.988 110.159 102.278 110.354 102.594C110.468 102.796 110.583 102.998 110.697 103.207C110.892 103.576 111.074 103.946 111.229 104.256Z" fill="#FCB666"/>
<path d="M110.697 103.206C109.822 103.334 108.752 103.442 108.57 103.462C107.46 103.57 106.336 103.61 105.219 103.583C104.101 103.549 102.991 103.448 101.887 103.28C101.887 103.28 101.887 103.287 101.881 103.28C101.41 103.206 99.7136 103.078 99.0811 102.708C99.0946 102.695 99.1081 102.675 99.1216 102.661C99.2226 102.533 99.3233 102.412 99.4311 102.291C100.212 102.136 101.208 102.177 101.908 102.083C102.527 102.002 103.153 101.914 103.772 101.834C104.028 101.8 104.277 101.766 104.532 101.733C106.289 101.827 108.052 101.941 109.734 101.753C109.95 101.988 110.158 102.278 110.354 102.594C110.468 102.796 110.582 102.997 110.697 103.206Z" fill="#542D1B"/>
<path d="M121.942 95.393C120.711 97.163 119.069 98.8117 116.888 100.124C115.098 101.214 112.945 102.075 110.354 102.594C108.604 102.944 106.646 103.139 104.472 103.139C103.678 103.139 102.918 103.112 102.184 103.051C101.1 102.977 100.084 102.843 99.1218 102.661C96.5308 102.163 94.357 101.302 92.54 100.198C90.5548 99.007 88.9935 97.5332 87.762 95.945C82.856 89.6257 83.1388 81.429 83.1388 81.429H125.651C125.651 81.429 126.31 89.1545 121.942 95.393Z" fill="#FCB666"/>
<path opacity="0.2" d="M110.354 102.594C110.469 102.796 110.583 102.997 110.697 103.206C110.893 103.576 111.074 103.946 111.229 104.256C107.588 105.144 103.739 105.164 99.9902 104.707C100.623 104.243 101.255 103.765 101.881 103.28C101.888 103.287 101.888 103.28 101.888 103.28C101.989 103.206 102.09 103.132 102.184 103.051C102.716 102.648 103.247 102.244 103.772 101.833C103.833 101.793 103.887 101.746 103.94 101.706C108.12 98.462 112.191 95.0837 116.148 91.5842C117.757 90.1642 119.352 88.7172 120.839 87.1695C122.138 85.81 123.363 84.3767 124.433 82.8287C124.614 82.5595 124.937 81.8662 125.287 81.429H125.651C125.651 81.429 127.165 99.229 110.354 102.594Z" fill="#F7764F"/>
<path d="M124.917 81.9199C124.917 81.9199 117.702 85.4397 104.64 85.4397C91.5841 85.4397 83.8516 81.9199 83.8516 81.9199H124.917Z" fill="#ADA04F"/>
<path opacity="0.27" d="M124.917 81.9199C124.917 81.9199 117.702 85.4397 104.64 85.4397C91.5841 85.4397 83.8516 81.9199 83.8516 81.9199H84.1746C84.3966 82.0074 84.6053 82.1017 84.7736 82.1487C85.5273 82.3842 86.2878 82.5794 87.0616 82.7477C88.6363 83.0909 90.2313 83.3129 91.8331 83.4744C93.6636 83.6562 95.5008 83.7572 97.3381 83.8447C102.904 84.1204 108.51 84.3427 114.048 83.6764C116.928 83.3332 119.789 82.7409 122.575 81.9199H124.917Z" fill="#4F2138"/>
<path d="M100.199 93.658C100.136 94.4572 99.4378 95.0545 98.6385 94.9922C97.8393 94.93 97.2418 94.2315 97.3043 93.4322C97.3668 92.633 98.065 92.0355 98.8645 92.0977C99.6633 92.1602 100.261 92.8587 100.199 93.658Z" fill="#380E0E"/>
<path d="M112.984 93.3932C112.921 94.1925 112.223 94.79 111.424 94.7275C110.624 94.6652 110.027 93.9667 110.089 93.1672C110.152 92.368 110.85 91.7705 111.649 91.833C112.449 91.8955 113.046 92.594 112.984 93.3932Z" fill="#380E0E"/>
<path d="M105.585 96.4433C105.058 96.4433 104.531 96.2508 104.137 95.8945C103.815 95.6038 103.585 95.2158 103.505 94.83C103.482 94.7148 103.556 94.6023 103.672 94.5783C103.784 94.5568 103.899 94.6288 103.923 94.7445C103.985 95.043 104.167 95.347 104.423 95.5785C104.866 95.979 105.522 96.121 106.092 95.939C106.662 95.7563 107.113 95.2603 107.24 94.6765C107.266 94.5613 107.376 94.4888 107.494 94.5135C107.61 94.5388 107.682 94.6523 107.657 94.7675C107.498 95.4973 106.934 96.1168 106.222 96.3448C106.016 96.411 105.801 96.4433 105.585 96.4433Z" fill="#380E0E"/>
<path d="M95.945 96.1603C95.945 98.1928 94.471 99.8685 92.5397 100.198C90.5545 99.007 88.9932 97.5333 87.7617 95.945C87.8695 93.7848 89.6527 92.062 91.8467 92.062C94.1077 92.0618 95.945 93.899 95.945 96.1603Z" fill="#F7764F"/>
<path d="M121.942 95.393C120.711 97.163 119.068 98.8118 116.888 100.124C115.125 99.673 113.819 98.0715 113.819 96.1603C113.819 93.899 115.657 92.0618 117.918 92.0618C119.923 92.0618 121.586 93.4953 121.942 95.393Z" fill="#F7764F"/>
<path d="M104.437 43.9423C104.167 43.8815 103.844 43.8668 103.655 44.069C103.482 44.2535 103.496 44.5505 103.596 44.7825C103.788 45.226 104.236 45.5188 104.704 45.6355C104.986 45.7055 105.302 45.716 105.546 45.5603C105.932 45.3148 105.835 44.8855 105.592 44.5843C105.309 44.2323 104.869 44.0393 104.437 43.9423Z" fill="#F9E9CF"/>
<path d="M100.568 45.073C100.298 45.0123 99.9749 44.9975 99.7856 45.1998C99.6129 45.3843 99.6269 45.6813 99.7271 45.9133C99.9186 46.3568 100.366 46.6495 100.835 46.7663C101.116 46.8363 101.433 46.8468 101.677 46.691C102.063 46.4455 101.966 46.0163 101.723 45.715C101.439 45.3633 100.999 45.1703 100.568 45.073Z" fill="#F9E9CF"/>
<path d="M105.45 48.0653C105.179 48.0046 104.857 47.9898 104.667 48.1921C104.495 48.3766 104.509 48.6736 104.609 48.9056C104.801 49.3491 105.248 49.6418 105.717 49.7586C105.998 49.8286 106.315 49.8388 106.559 49.6833C106.945 49.4378 106.848 49.0086 106.605 48.7073C106.321 48.3556 105.881 48.1623 105.45 48.0653Z" fill="#F9E9CF"/>
<path d="M13.7754 90.7465C13.5837 90.5457 13.3224 90.354 13.0524 90.4177C12.8059 90.4757 12.6527 90.7312 12.6074 90.9805C12.5207 91.4567 12.7319 91.95 13.0579 92.3077C13.2537 92.5225 13.5119 92.7067 13.8022 92.7127C14.2602 92.7222 14.4182 92.3105 14.3827 91.9237C14.3414 91.4725 14.0817 91.0672 13.7754 90.7465Z" fill="#F9E9CF"/>
<path d="M9.91899 89.5405C9.72724 89.3397 9.46599 89.148 9.19599 89.2115C8.94949 89.2695 8.79624 89.525 8.75099 89.7742C8.66424 90.2505 8.87549 90.7437 9.20149 91.1015C9.39724 91.3162 9.65549 91.5005 9.94574 91.5065C10.4037 91.516 10.5617 91.1042 10.5262 90.7175C10.4847 90.2665 10.225 89.8612 9.91899 89.5405Z" fill="#F9E9CF"/>
<path d="M12.3293 94.7487C12.1376 94.548 11.8766 94.3562 11.6063 94.4197C11.3598 94.4777 11.2066 94.7332 11.1611 94.9825C11.0746 95.4587 11.2856 95.952 11.6116 96.3097C11.8073 96.5245 12.0656 96.7087 12.3561 96.7147C12.8141 96.7242 12.9721 96.3125 12.9366 95.9257C12.8953 95.475 12.6353 95.0695 12.3293 94.7487Z" fill="#F9E9CF"/>
<path d="M110.258 77.1013C110.129 77.1013 110.023 76.9961 110.023 76.8666V68.6543C110.023 68.5248 110.129 68.4196 110.258 68.4196C110.388 68.4196 110.493 68.5248 110.493 68.6543V76.8666C110.493 76.9961 110.387 77.1013 110.258 77.1013Z" fill="#F9E9CF"/>
<path d="M114.093 73.0653H106.341C106.212 73.0653 106.106 72.9601 106.106 72.8306C106.106 72.7011 106.212 72.5958 106.341 72.5958H114.093C114.223 72.5958 114.328 72.7011 114.328 72.8306C114.328 72.9601 114.223 73.0653 114.093 73.0653Z" fill="#F9E9CF"/>
<path d="M108.299 75.5825C108.248 75.5825 108.196 75.5655 108.152 75.5305C108.051 75.4493 108.035 75.3018 108.117 75.2008L111.993 70.3858C112.074 70.2848 112.221 70.2683 112.323 70.35C112.424 70.4313 112.44 70.5788 112.358 70.6798L108.482 75.4948C108.436 75.5525 108.368 75.5825 108.299 75.5825Z" fill="#F9E9CF"/>
<path d="M112.635 74.9633C112.583 74.9633 112.532 74.9463 112.488 74.9118L107.633 71.0356C107.532 70.9548 107.515 70.8073 107.597 70.7058C107.677 70.6038 107.825 70.5878 107.926 70.6691L112.781 74.5453C112.883 74.6261 112.899 74.7736 112.818 74.8751C112.772 74.9331 112.703 74.9633 112.635 74.9633Z" fill="#F9E9CF"/>
<path d="M42.3026 51.2598C42.1901 51.2598 42.0986 51.1683 42.0986 51.0558V43.921C42.0986 43.8085 42.1904 43.717 42.3026 43.717C42.4151 43.717 42.5066 43.8088 42.5066 43.921V51.0558C42.5069 51.1683 42.4151 51.2598 42.3026 51.2598Z" fill="#F9E9CF"/>
<path d="M45.6355 47.7533H38.9003C38.7878 47.7533 38.6963 47.6616 38.6963 47.5493C38.6963 47.4371 38.788 47.3453 38.9003 47.3453H45.6355C45.748 47.3453 45.8395 47.4371 45.8395 47.5493C45.8395 47.6616 45.748 47.7533 45.6355 47.7533Z" fill="#F9E9CF"/>
<path d="M40.6013 49.9404C40.5563 49.9404 40.5113 49.9256 40.4735 49.8953C40.3858 49.8246 40.372 49.6961 40.4423 49.6083L43.8098 45.4254C43.881 45.3376 44.009 45.3244 44.0968 45.3941C44.1845 45.4649 44.1983 45.5933 44.128 45.6811L40.7605 49.8641C40.7198 49.9141 40.6605 49.9404 40.6013 49.9404Z" fill="#F9E9CF"/>
<path d="M44.3682 49.4025C44.3232 49.4025 44.2787 49.3877 44.241 49.358L40.023 45.9905C39.9352 45.9197 39.9205 45.792 39.9907 45.7035C40.0615 45.6152 40.19 45.602 40.2777 45.6712L44.4957 49.0387C44.5835 49.1095 44.5982 49.2372 44.528 49.3257C44.4872 49.3762 44.428 49.4025 44.3682 49.4025Z" fill="#F9E9CF"/>
<path d="M82.2495 37.003C82.1173 37.003 82.0098 36.8955 82.0098 36.7633V28.385C82.0098 28.2528 82.1173 28.1453 82.2495 28.1453C82.3818 28.1453 82.4893 28.2528 82.4893 28.385V36.7635C82.4893 36.8955 82.3818 37.003 82.2495 37.003Z" fill="#F9E9CF"/>
<path d="M86.1627 32.885H78.2534C78.1212 32.885 78.0137 32.7775 78.0137 32.6453C78.0137 32.513 78.1212 32.4055 78.2534 32.4055H86.1627C86.2949 32.4055 86.4024 32.513 86.4024 32.6453C86.4024 32.7775 86.2949 32.885 86.1627 32.885Z" fill="#F9E9CF"/>
<path d="M80.2512 35.4538C80.1985 35.4538 80.1452 35.4363 80.101 35.4005C79.9977 35.3178 79.982 35.1668 80.0647 35.0638L84.0195 30.1505C84.1022 30.0473 84.2532 30.0315 84.3562 30.1143C84.4595 30.197 84.4752 30.348 84.3925 30.451L80.4377 35.3643C80.3907 35.423 80.321 35.4538 80.2512 35.4538Z" fill="#F9E9CF"/>
<path d="M84.6748 34.8218C84.6221 34.8218 84.5696 34.8043 84.5256 34.769L79.5719 30.8143C79.4681 30.732 79.4511 30.581 79.5341 30.478C79.6176 30.3748 79.7684 30.3585 79.8704 30.4403L84.8241 34.395C84.9279 34.4773 84.9449 34.6283 84.8619 34.7313C84.8149 34.7905 84.7451 34.8218 84.6748 34.8218Z" fill="#F9E9CF"/>
<path d="M43.0984 107.198C42.9767 107.198 42.8779 107.099 42.8779 106.978V99.2608C42.8779 99.139 42.9767 99.0403 43.0984 99.0403C43.2202 99.0403 43.3189 99.139 43.3189 99.2608V106.978C43.3189 107.099 43.2202 107.198 43.0984 107.198Z" fill="#F9E9CF"/>
<path d="M46.7028 103.405H39.4178C39.296 103.405 39.1973 103.306 39.1973 103.185C39.1973 103.063 39.296 102.964 39.4178 102.964H46.7028C46.8245 102.964 46.9233 103.063 46.9233 103.185C46.9233 103.306 46.8245 103.405 46.7028 103.405Z" fill="#F9E9CF"/>
<path d="M41.2576 105.771C41.2088 105.771 41.1598 105.755 41.1193 105.722C41.0243 105.646 41.0096 105.507 41.0858 105.412L44.7284 100.888C44.8046 100.792 44.9438 100.778 45.0383 100.854C45.1333 100.93 45.1481 101.069 45.0718 101.164L41.4294 105.689C41.3859 105.743 41.3218 105.771 41.2576 105.771Z" fill="#F9E9CF"/>
<path d="M45.3319 105.189C45.2837 105.189 45.2349 105.173 45.1942 105.14L40.6317 101.498C40.5367 101.422 40.5209 101.283 40.5972 101.188C40.6729 101.093 40.8122 101.078 40.9072 101.153L45.4697 104.796C45.5647 104.872 45.5804 105.01 45.5042 105.106C45.4609 105.16 45.3967 105.189 45.3319 105.189Z" fill="#F9E9CF"/>
<path d="M13.7729 80.2621C13.6819 80.2621 13.6084 80.1886 13.6084 80.0976V74.3383C13.6084 74.2473 13.6819 74.1738 13.7729 74.1738C13.8639 74.1738 13.9374 74.2473 13.9374 74.3383V80.0976C13.9376 80.1886 13.8641 80.2621 13.7729 80.2621Z" fill="#F9E9CF"/>
<path d="M16.4641 77.4315H11.0268C10.9358 77.4315 10.8623 77.358 10.8623 77.267C10.8623 77.176 10.9358 77.1025 11.0268 77.1025H16.4641C16.5551 77.1025 16.6286 77.176 16.6286 77.267C16.6286 77.358 16.5551 77.4315 16.4641 77.4315Z" fill="#F9E9CF"/>
<path d="M12.4001 79.1971C12.3639 79.1971 12.3271 79.1851 12.2969 79.1608C12.2261 79.1038 12.2146 79.0001 12.2716 78.9293L14.9901 75.5523C15.0484 75.4816 15.1519 75.4711 15.2216 75.5271C15.2924 75.5841 15.3039 75.6878 15.2469 75.7586L12.5284 79.1356C12.4956 79.1763 12.4484 79.1971 12.4001 79.1971Z" fill="#F9E9CF"/>
<path d="M15.4412 78.7631C15.4049 78.7631 15.3687 78.7516 15.3387 78.7274L11.9332 76.0089C11.8619 75.9519 11.8504 75.8481 11.9069 75.7774C11.9652 75.7071 12.0682 75.6951 12.1384 75.7511L15.5439 78.4696C15.6152 78.5266 15.6267 78.6304 15.5702 78.7011C15.5372 78.7419 15.4894 78.7631 15.4412 78.7631Z" fill="#F9E9CF"/>
<path d="M115.309 102.753C116.736 102.33 117.711 101.003 117.701 99.5151C117.633 89.0676 117.031 78.6221 115.898 68.2431C114.958 59.6291 113.578 50.8306 109.528 43.3456C106.848 38.3931 103.041 34.1648 98.5442 31.1456C93.1837 27.5468 86.9582 25.7063 80.7125 24.8676C70.7205 23.5256 60.3592 24.6998 51.1395 29.0496C41.9197 33.3993 33.9135 41.0316 29.416 50.8011C27.188 55.6403 25.7152 61.1113 22.106 64.8356C20.346 66.6518 18.184 67.9281 16.2142 69.4693C8.01872 75.8821 3.45697 87.3268 4.59822 98.2338C4.71922 99.3906 5.44797 100.397 6.49497 100.903C13.2677 104.178 20.5267 105.794 27.8877 106.971C56.8375 111.6 87.1122 111.103 115.309 102.753Z" fill="#ADA04F"/>
<path d="M106.304 61.7833C106.237 62.9595 106.12 64.3588 105.925 65.9253C105.786 67.018 105.607 68.194 105.373 69.426C105.173 70.4795 104.946 71.5373 104.682 72.598C104.604 72.9213 104.52 73.2448 104.431 73.5735C104.426 73.5958 104.42 73.6125 104.414 73.6348C104.387 73.738 103.833 74.008 103.805 74.1108C103.77 74.241 104.262 74.2038 104.225 74.3315C104.147 74.5935 104.074 74.8555 103.996 75.1175C103.587 76.456 103.143 77.795 102.614 79.0978C102.536 79.2985 102.458 79.499 102.374 79.6998C102.313 79.8513 101.766 80.0233 101.701 80.1765C101.666 80.26 102.116 80.325 102.078 80.4078C102.051 80.469 102.023 80.536 101.995 80.6028C101.855 80.9205 101.716 81.2438 101.566 81.5615C95.5062 94.6395 77.227 99.785 77.227 99.785L77.3662 101.502L77.5112 103.342C63.8477 108.749 42.642 102.344 42.642 102.344L42.2127 99.0715C42.09 99.0493 41.962 99.027 41.8392 99.0048C32.552 97.388 25.9627 94.2273 21.3135 90.364C21.2147 90.2825 21.601 90.1433 21.504 90.0615C21.349 89.9308 20.7117 89.8568 20.561 89.723C14.4512 84.3048 11.9257 77.6485 11.0005 71.9403C10.9835 71.8298 11.4877 71.84 11.4715 71.7295C11.4557 71.6228 10.9192 71.3948 10.9057 71.288C10.577 68.9968 10.5045 66.873 10.549 65.0723L73.1397 58.3843L106.304 61.7833Z" fill="#F7764F"/>
<path d="M106.359 57.9368C106.359 57.9368 105.685 58.7785 104.079 59.9493C100.651 62.4468 92.9746 66.4493 78.5528 66.951C56.6668 67.7148 26.0621 66.0535 14.4613 61.1145C13.0846 60.5293 11.9806 59.8993 11.1836 59.219C11.1836 59.219 15.4538 48.1423 60.0061 48.6885C102.658 49.207 106.359 57.9368 106.359 57.9368Z" fill="#F95438"/>
<path d="M72.7771 53.0083C72.7598 53.1153 72.7428 53.2221 72.7256 53.3291C72.7083 53.4361 72.6858 53.5431 72.6628 53.6503C72.6401 53.7576 72.6176 53.8646 72.5891 53.9721C72.5656 54.0626 72.5421 54.1531 72.5186 54.2433C72.4806 54.3791 72.4366 54.5096 72.3928 54.6401C72.3291 54.8218 72.2656 55.0091 72.1851 55.1916C72.0458 55.5443 71.8786 55.8928 71.6836 56.2428C71.6268 56.3406 71.5703 56.4381 71.5136 56.5358C71.2968 56.8978 71.0623 57.2441 70.8048 57.5748C70.7371 57.6728 70.6633 57.7658 70.5843 57.8588C70.5001 57.9633 70.4158 58.0678 70.3258 58.1671C70.2576 58.2541 70.1833 58.3358 70.1036 58.4178C69.8976 58.6568 69.6688 58.8911 69.4341 59.1143C69.2903 59.2553 69.1408 59.3963 68.9856 59.5323C68.9483 59.5676 68.9053 59.6033 68.8623 59.6388C68.6693 59.8046 68.4763 59.9646 68.2776 60.1248C68.0681 60.2913 67.8528 60.4581 67.6316 60.6138C64.5461 62.1306 61.1876 63.0803 57.7693 63.0283C56.8643 63.0108 55.9558 62.9208 55.0603 62.7521C55.0548 62.7523 55.0493 62.7526 55.0433 62.7473C54.8143 62.7416 54.5903 62.7301 54.3608 62.7133C54.1703 62.7003 53.9621 62.6601 53.7423 62.6206C53.4911 62.5043 53.2446 62.3713 52.9978 62.2326C52.9751 62.2226 52.9521 62.2068 52.9348 62.1966C49.7008 60.2993 48.3401 56.6371 48.8566 53.1293C49.0083 52.1118 49.3168 51.1091 49.7846 50.1653C51.9293 45.8198 57.5686 42.0641 62.4628 42.0556C65.0913 42.0511 67.5106 43.0278 69.3503 44.5963C71.7891 46.6713 73.2178 49.7833 72.7771 53.0083Z" fill="#F9E9CF"/>
<path opacity="0.2" d="M72.7773 53.0083C72.76 53.1153 72.743 53.2221 72.7258 53.3291C72.7085 53.4361 72.686 53.5431 72.663 53.6503C72.6403 53.7576 72.6178 53.8646 72.5893 53.9721C72.5658 54.0626 72.5423 54.1531 72.5188 54.2433C72.4808 54.3791 72.4368 54.5096 72.393 54.6401C72.3293 54.8218 72.2658 55.0091 72.1853 55.1916C72.046 55.5443 71.8788 55.8928 71.6838 56.2428C71.627 56.3406 71.5705 56.4381 71.5138 56.5358C71.297 56.8978 71.0625 57.2441 70.805 57.5748C70.7373 57.6728 70.6635 57.7658 70.5845 57.8588C70.5003 57.9633 70.416 58.0678 70.326 58.1671C70.2578 58.2541 70.1835 58.3358 70.1038 58.4178C69.8978 58.6568 69.669 58.8911 69.4343 59.1143C69.2905 59.2553 69.141 59.3963 68.9858 59.5323C68.9485 59.5676 68.9055 59.6033 68.8625 59.6388C68.6695 59.8046 68.4765 59.9646 68.2778 60.1248C68.0683 60.2913 67.853 60.4581 67.6318 60.6138C64.5463 62.1306 61.1878 63.0803 57.7695 63.0283C56.8645 63.0108 55.956 62.9208 55.0605 62.7521C56.2398 62.7843 57.4228 62.6656 58.5713 62.4091C61.2545 61.8046 63.7515 60.4726 65.8775 58.7343C66.9083 57.8918 67.8615 56.9471 68.5775 55.8296C68.764 55.5303 68.939 55.2261 69.0855 54.9121C69.9398 53.1908 70.2688 51.2268 70.2813 49.2953C70.2948 48.0781 70.1853 46.8498 69.7998 45.6908C69.6755 45.3173 69.524 44.9506 69.3505 44.5963C71.7893 46.6713 73.218 49.7833 72.7773 53.0083Z" fill="#FCB666"/>
<path d="M64.9481 52.2688C64.6441 53.2366 64.0518 54.1003 63.3511 54.8573C61.7668 56.5558 59.3188 57.6618 56.9833 57.0426C56.1826 56.8273 55.5266 56.3988 55.0378 55.8313C55.0363 55.8261 55.0311 55.8276 55.0311 55.8276C54.1423 54.8116 53.7913 53.3623 54.1071 51.9768C54.6123 49.7638 56.8088 47.3996 59.0821 46.8076C61.4013 46.2133 63.7748 47.2991 64.7258 49.1648C65.1801 50.0578 65.3091 51.1261 64.9481 52.2688Z" fill="#FCB666"/>
<path opacity="0.3" d="M64.9483 52.2688C64.6443 53.2365 64.0521 54.1003 63.3513 54.8573C61.7671 56.5558 59.3191 57.6618 56.9836 57.0425C56.1828 56.8273 55.5268 56.3988 55.0381 55.8313C55.6153 56.0975 56.2781 56.1858 56.9123 56.2013C59.1963 56.2533 61.5066 55.306 63.0013 53.5825C64.0626 52.365 64.6813 50.7703 64.7258 49.1648C65.1803 50.0578 65.3093 51.126 64.9483 52.2688Z" fill="#D7773B"/>
<path d="M57.0837 49.1521C56.9917 49.3993 56.9747 49.6843 57.0877 49.9226C57.256 50.2768 57.683 50.4546 58.0742 50.4241C58.4652 50.3936 58.823 50.1923 59.1367 49.9568C59.7597 49.4891 60.9962 48.0546 59.6722 47.6156C58.6502 47.2771 57.4197 48.2486 57.0837 49.1521Z" fill="#F9E9CF"/>
<path d="M94.9427 53.4938C94.9204 53.5998 94.8982 53.7056 94.8759 53.8116C94.8537 53.9176 94.8259 54.0233 94.7979 54.1293C94.7699 54.2353 94.7422 54.3411 94.7087 54.4471C94.6807 54.5363 94.6529 54.6256 94.6249 54.7146C94.5804 54.8483 94.5302 54.9766 94.4799 55.1048C94.4074 55.2831 94.3349 55.4671 94.2457 55.6456C94.0894 55.9913 93.9057 56.3313 93.6939 56.6713C93.6327 56.7661 93.5712 56.8608 93.5099 56.9556C93.2759 57.3068 93.0249 57.6413 92.7519 57.9591C92.6794 58.0538 92.6014 58.1431 92.5177 58.2323C92.4284 58.3326 92.3394 58.4331 92.2444 58.5278C92.1719 58.6116 92.0939 58.6896 92.0102 58.7676C91.7929 58.9961 91.5532 59.2191 91.3079 59.4308C91.1574 59.5648 91.0012 59.6986 90.8397 59.8266C90.8007 59.8601 90.7562 59.8933 90.7114 59.9268C90.5107 60.0831 90.3099 60.2336 90.1037 60.3841C89.8862 60.5401 89.6632 60.6963 89.4347 60.8411C86.2794 62.2068 82.8789 62.9928 79.4672 62.7756C78.5639 62.7143 77.6609 62.5806 76.7747 62.3686C76.7692 62.3686 76.7634 62.3686 76.7579 62.3631C76.5294 62.3463 76.3064 62.3241 76.0777 62.2961C75.8882 62.2738 75.6819 62.2236 75.4644 62.1733C75.2192 62.0451 74.9794 61.9003 74.7397 61.7498C74.7174 61.7386 74.6952 61.7218 74.6784 61.7108C71.5399 59.6593 70.3582 55.9356 71.0437 52.4568C71.2444 51.4478 71.6012 50.4611 72.1139 49.5413C74.4664 45.3046 80.2807 41.8261 85.1697 42.0546C87.7954 42.1773 90.1644 43.2698 91.9262 44.9256C94.2624 47.1166 95.5392 50.2941 94.9427 53.4938Z" fill="#F9E9CF"/>
<path opacity="0.2" d="M94.9424 53.4938C94.9202 53.5998 94.8979 53.7055 94.8757 53.8115C94.8534 53.9175 94.8257 54.0233 94.7977 54.1293C94.7697 54.2353 94.7419 54.341 94.7084 54.447C94.6804 54.5363 94.6527 54.6255 94.6247 54.7145C94.5802 54.8483 94.5299 54.9765 94.4797 55.1048C94.4072 55.283 94.3347 55.467 94.2454 55.6455C94.0892 55.9913 93.9054 56.3313 93.6937 56.6713C93.6324 56.766 93.5709 56.8608 93.5097 56.9555C93.2757 57.3068 93.0247 57.6413 92.7517 57.959C92.6792 58.0538 92.6012 58.143 92.5174 58.2323C92.4282 58.3325 92.3392 58.433 92.2442 58.5278C92.1717 58.6115 92.0937 58.6895 92.0099 58.7675C91.7927 58.996 91.5529 59.219 91.3077 59.4308C91.1572 59.5648 91.0009 59.6985 90.8394 59.8265C90.8004 59.86 90.7559 59.8933 90.7112 59.9268C90.5104 60.083 90.3097 60.2335 90.1034 60.384C89.8859 60.54 89.6629 60.6963 89.4344 60.841C86.2792 62.2068 82.8787 62.9928 79.4669 62.7755C78.5637 62.7143 77.6607 62.5805 76.7744 62.3685C77.9507 62.4578 79.1379 62.3963 80.2974 62.1958C83.0067 61.722 85.5654 60.5123 87.7729 58.8788C88.8432 58.0873 89.8412 57.1898 90.6104 56.1083C90.8112 55.8183 91.0007 55.523 91.1624 55.2163C92.0989 53.5383 92.5227 51.5928 92.6287 49.664C92.7012 48.4488 92.6509 47.2168 92.3219 46.0405C92.2159 45.6615 92.0822 45.288 91.9262 44.9255C94.2622 47.1165 95.5389 50.294 94.9424 53.4938Z" fill="#FCB666"/>
<path d="M87.1584 52.3764C86.8081 53.3284 86.1746 54.1624 85.4379 54.8846C83.7734 56.5044 81.2746 57.4906 78.9719 56.7591C78.1826 56.5054 77.5479 56.0456 77.0871 55.4554C77.0859 55.4499 77.0804 55.4514 77.0804 55.4514C76.2419 54.3934 75.9614 52.9289 76.3439 51.5604C76.9556 49.3744 79.2639 47.1191 81.5631 46.6381C83.9084 46.1569 86.2266 47.3561 87.0861 49.2656C87.4969 50.1794 87.5744 51.2524 87.1584 52.3764Z" fill="#FCB666"/>
<path opacity="0.3" d="M87.1582 52.3764C86.8079 53.3284 86.1744 54.1624 85.4377 54.8846C83.7732 56.5044 81.2744 57.4906 78.9717 56.7591C78.1824 56.5054 77.5477 56.0456 77.0869 55.4554C77.6507 55.7491 78.3082 55.8696 78.9412 55.9156C81.2202 56.0781 83.5734 55.2436 85.1499 53.5946C86.2687 52.4301 86.9642 50.8669 87.0862 49.2656C87.4967 50.1794 87.5742 51.2524 87.1582 52.3764Z" fill="#D7773B"/>
<path d="M79.4547 48.8828C79.351 49.1253 79.3202 49.4091 79.4215 49.6526C79.5722 50.0146 79.9902 50.2128 80.3825 50.2013C80.7745 50.1898 81.1417 50.0061 81.4665 49.7861C82.1115 49.3491 83.4157 47.9761 82.1145 47.4736C81.11 47.0858 79.834 47.9966 79.4547 48.8828Z" fill="#F9E9CF"/>
<path opacity="0.25" d="M93.6937 56.6714C93.6324 56.7661 93.5709 56.8609 93.5097 56.9556C93.2757 57.3069 93.0247 57.6414 92.7517 57.9591C92.6792 58.0539 92.6012 58.1431 92.5174 58.2324C92.4282 58.3326 92.3392 58.4331 92.2442 58.5279C92.1717 58.6116 92.0937 58.6896 92.0099 58.7676C91.7927 58.9961 91.5529 59.2191 91.3077 59.4309C91.1572 59.5649 91.0009 59.6986 90.8394 59.8266C90.8004 59.8601 90.7559 59.8934 90.7112 59.9269C90.5104 60.0831 90.3097 60.2336 90.1034 60.3841C89.8859 60.5401 89.6629 60.6964 89.4344 60.8411C86.2792 62.2069 82.8787 62.9929 79.4669 62.7756C78.5637 62.7144 77.6607 62.5806 76.7744 62.3686C76.7689 62.3686 76.7632 62.3686 76.7577 62.3631C76.0497 62.1904 75.3529 61.9784 74.6784 61.7109C71.5399 59.6594 70.3582 55.9356 71.0437 52.4569C72.7439 52.2059 74.4722 52.1726 76.2057 52.2674H76.2112C77.9559 52.3566 79.7009 52.5684 81.4234 52.8026C82.7057 52.9811 84.0099 53.1761 85.2977 53.4326C85.6879 53.5051 86.0782 53.5886 86.4684 53.6779C88.0962 54.0459 89.6794 54.5364 91.1622 55.2164C92.0492 55.6234 92.8964 56.1029 93.6937 56.6714Z" fill="#FCB666"/>
<path d="M104.079 59.9493C103.979 60.0218 103.873 60.0943 103.767 60.1723C102.836 60.8246 101.621 61.5716 100.093 62.3186C99.9707 62.3743 99.8482 62.4356 99.7254 62.4913C99.1624 62.7588 98.5604 63.0263 97.9192 63.2886C97.8132 63.3276 97.7074 63.3721 97.5959 63.4168C96.7262 63.7626 95.7784 64.0968 94.7529 64.4203C94.6247 64.4593 94.4964 64.4983 94.3627 64.5373C91.1517 65.5128 87.1824 66.3268 82.3382 66.7281C82.1319 66.7448 81.9257 66.7616 81.7194 66.7783C80.6992 66.8563 79.6457 66.9121 78.5529 66.9511C76.2227 67.0348 73.7922 67.0848 71.2947 67.1128C71.2947 67.1128 71.2947 67.1128 71.2892 67.1128C70.9882 67.1183 70.6814 67.1183 70.3804 67.1183C70.3804 67.1183 70.3804 67.1183 70.3749 67.1183C69.3604 67.1293 68.3459 67.1293 67.3144 67.1293C67.3144 67.1293 67.3144 67.1293 67.3089 67.1293C66.9522 67.1293 66.5954 67.1293 66.2387 67.1238C61.5392 67.1016 56.6949 66.9788 51.9119 66.7503C51.9064 66.7503 51.9064 66.7503 51.9009 66.7503C51.5107 66.7336 51.1204 66.7168 50.7302 66.6946C49.5929 66.6388 48.4612 66.5718 47.3352 66.4996C47.3297 66.4996 47.3297 66.4996 47.3297 66.4996C46.9674 66.4773 46.5994 66.4551 46.2372 66.4326H46.2317C44.1692 66.2933 42.1344 66.1371 40.1442 65.9588H40.1387C39.9547 65.9421 39.7764 65.9253 39.5979 65.9143C37.9089 65.7581 36.2532 65.5853 34.6477 65.4013H34.6422C34.5084 65.3846 34.3747 65.3678 34.2409 65.3511C31.1804 64.9943 28.2817 64.5763 25.6224 64.0968C25.4942 64.0746 25.3604 64.0523 25.2322 64.0243C23.3312 63.6786 21.5584 63.2996 19.9364 62.8871C19.8082 62.8536 19.6799 62.8201 19.5517 62.7923C17.6004 62.2793 15.8892 61.7221 14.4619 61.1143C14.5624 61.0698 14.6627 61.0306 14.7629 60.9861C14.9024 60.9303 15.0362 60.8691 15.1754 60.8133C16.8979 60.0886 18.6372 59.4196 20.3932 58.7953C33.0364 54.2966 46.5494 52.3066 59.9842 52.4513C72.6942 52.5963 85.3432 54.6198 97.6017 58.0148C99.6864 58.5946 101.76 59.2133 103.823 59.8656C103.907 59.8936 103.996 59.9213 104.079 59.9493Z" fill="#FEB544"/>
<path d="M66.4779 35.355C66.3466 35.355 66.2299 35.2617 66.2046 35.1285C66.1436 34.808 65.8119 34.6117 65.6719 34.542C65.4869 34.4492 65.2839 34.3867 65.0694 34.321C64.9404 34.2815 64.8116 34.2415 64.6854 34.1952C63.3559 33.708 62.2751 32.4757 61.7939 30.899C61.4229 29.681 61.3786 28.2912 61.6551 26.5257L61.7264 26.0917C61.8509 25.3462 61.9799 24.5752 61.8729 23.8422C61.7609 23.0707 61.2836 22.2007 60.4706 21.9972C60.3214 21.96 60.2309 21.8085 60.2681 21.6587C60.3059 21.51 60.4546 21.4212 60.6066 21.4562C61.6694 21.723 62.2854 22.8065 62.4249 23.7622C62.5444 24.5807 62.4079 25.3955 62.2761 26.184L62.2059 26.6125C61.9431 28.2912 61.9814 29.602 62.3271 30.7367C62.7574 32.1472 63.7109 33.2447 64.8774 33.672C64.9941 33.7147 65.1139 33.7515 65.2329 33.7882C65.4601 33.858 65.6954 33.9297 65.9214 34.0432C66.3734 34.2687 66.6764 34.6265 66.7521 35.0242C66.7806 35.1757 66.6814 35.3215 66.5304 35.3502C66.5129 35.3532 66.4954 35.355 66.4779 35.355Z" fill="#FEB544"/>
<path d="M122.131 18.1088L121.905 20.5715L121.749 22.2135L103.687 21.9078L35.5947 20.7508L35.6372 20.3368L35.7175 19.5845L104.069 18.4153L122.131 18.1088Z" fill="#FCC07B"/>
<path d="M122.132 18.1088L121.905 20.5715L121.749 22.2135L103.688 21.9078C103.796 20.7418 103.926 19.5753 104.07 18.4153L122.132 18.1088Z" fill="#D7773B"/>
<path opacity="0.1" d="M121.905 20.5715L121.749 22.2135L35.5947 20.7508L35.6372 20.3368L121.905 20.5715Z" fill="#380E0E"/>
<path d="M122.067 23.237L121.726 25.687L121.494 27.3205L103.465 26.218L35.4961 22.0567L35.5578 21.645L35.6728 20.897L104.009 22.746L122.067 23.237Z" fill="#FCC07B"/>
<path d="M122.067 23.237L121.727 25.6872L121.495 27.3207L103.466 26.2182C103.628 25.0585 103.812 23.8987 104.01 22.7462L122.067 23.237Z" fill="#D7773B"/>
<path opacity="0.1" d="M121.726 25.687L121.494 27.3205L35.4961 22.0568L35.5578 21.645L121.726 25.687Z" fill="#380E0E"/>
<path d="M60.9153 21.5957C60.932 21.7685 60.7313 21.8632 60.5695 21.9247C59.8895 22.1867 59.332 22.705 58.847 23.2515C57.8268 24.3887 57.0243 25.721 56.4945 27.1482C55.9538 28.5977 55.6973 30.2477 56.3105 31.6692C56.5503 32.221 56.9125 32.7172 57.197 33.2525C58.1 34.925 58.2005 37.0042 57.47 38.7547C56.7733 40.4327 55.4018 41.7315 54.5268 43.3202C52.8378 46.3695 53.2335 50.439 55.4688 53.1037L53.4063 53.494L53.1275 53.5497L51.1375 53.9232L50.8533 53.979L47.6868 54.5755L47.408 54.6312L44.7768 55.1275L44.4925 55.1832L43.1938 55.4285C41.644 52.7695 40.4343 50.0712 41.8725 47.0945C42.7255 45.3327 44.108 43.8612 44.8215 42.027C45.7023 39.7637 44.7825 37.9742 44.0523 35.828C42.2405 30.5265 44.9108 24.623 49.415 21.5847C49.5098 21.5847 49.6158 21.501 49.7105 21.501H60.62C60.4638 21.4285 60.904 21.4285 60.9153 21.5957Z" fill="#FEB544"/>
<path d="M52.5425 21.501C50.385 23.0395 48.7405 24.7455 47.6425 26.5572C46.2877 28.7927 45.7415 31.2735 46.0982 33.5312C46.2207 34.3285 46.4605 35.12 46.6947 35.8892C47.018 36.9427 47.347 38.041 47.386 39.167C47.4697 41.4302 46.377 43.5262 45.4125 45.104C45.3232 45.249 45.234 45.3995 45.145 45.5442C44.7325 46.2075 44.3087 46.8877 44.0132 47.618C43.1045 49.8477 43.4057 52.6352 44.777 55.127C44.9777 55.4837 45.195 55.8405 45.4405 56.1862L45.212 56.3422C44.9445 55.9632 44.7047 55.5785 44.4927 55.1827C43.1157 52.6407 42.826 49.7977 43.757 47.512C44.058 46.765 44.4927 46.0682 44.9052 45.3937C44.9945 45.2487 45.0892 45.104 45.1727 44.959C46.1147 43.4147 47.1852 41.3632 47.1072 39.178C47.0682 38.0855 46.745 37.0095 46.427 35.967C46.1927 35.192 45.9475 34.3895 45.8192 33.57C45.457 31.251 46.02 28.709 47.4025 26.4177C48.4672 24.656 50.0337 23.0005 52.0685 21.501H52.5425Z" fill="#542D1B"/>
<path d="M51.355 26.5962C49.9335 29.01 49.259 31.5352 49.3982 33.899C49.443 34.5902 49.5545 35.2927 49.6657 35.9672C49.7772 36.6807 49.9 37.4167 49.939 38.1525C50.0282 39.9475 49.6547 41.854 48.8185 43.833C48.6345 44.2735 48.4282 44.7082 48.2332 45.1262C47.804 46.046 47.358 46.9882 47.1072 47.9805C46.5387 50.2495 47.029 52.6297 47.687 54.5752C47.8822 55.1717 48.0995 55.7292 48.3057 56.2252L48.0437 56.331C47.8375 55.8182 47.6145 55.2495 47.4082 54.6307C46.7502 52.6572 46.2597 50.2322 46.8397 47.9132C47.0962 46.8985 47.5477 45.9342 47.9825 45.0087C48.1775 44.5907 48.3782 44.1557 48.5622 43.7265C49.3817 41.7865 49.7497 39.919 49.6605 38.1685C49.6215 37.4437 49.5042 36.719 49.3872 36.011C49.2757 35.3252 49.1642 34.6172 49.1197 33.915C48.9747 31.4955 49.666 28.92 51.1155 26.4562C52.0797 24.823 53.3342 23.2565 55.1125 21.5002H55.5027C53.6405 23.3295 52.3417 24.9237 51.355 26.5962Z" fill="#542D1B"/>
<path d="M57.9833 21.501C56.0878 23.179 54.7053 24.8737 53.7578 26.6687C52.3753 29.3 51.9851 32.2267 52.6931 34.6905C52.7766 34.986 52.8826 35.287 52.9773 35.577C53.1446 36.0565 53.3173 36.5525 53.4121 37.0655C53.7856 38.9887 53.0943 40.9287 52.5481 42.222C52.3363 42.7182 52.1021 43.2142 51.8736 43.6992C51.3773 44.7697 50.8591 45.8735 50.5468 47.0272C49.9393 49.285 50.1621 51.788 51.1378 53.923C51.2996 54.2852 51.4836 54.631 51.6896 54.971L51.4498 55.116C51.2268 54.7537 51.0261 54.369 50.8533 53.9787C49.8778 51.7935 49.6603 49.2515 50.2791 46.9547C50.5968 45.7785 51.1153 44.658 51.6226 43.582C51.8456 43.1027 52.0796 42.6065 52.2916 42.1102C53.1446 40.1145 53.4121 38.5257 53.1391 37.1152C53.0443 36.6247 52.8771 36.1342 52.7153 35.6657C52.6151 35.3702 52.5091 35.0692 52.4253 34.7627C51.6951 32.2317 52.0908 29.2327 53.5123 26.5402C54.4321 24.7897 55.7701 23.1285 57.5706 21.5007L57.9833 21.501Z" fill="#542D1B"/>
<path d="M56.0817 26.2952C55.3569 27.7557 54.6712 29.9355 55.5299 32.0315C55.7139 32.4775 55.9869 32.89 56.2602 33.2857C56.5834 33.765 56.9179 34.2612 57.1074 34.841C57.4197 35.8277 57.3694 36.965 56.9514 38.1245C56.4719 39.4735 55.6917 40.6832 54.9389 41.8485C54.3202 42.7962 53.6902 43.7772 53.2219 44.8252C52.0122 47.5567 52.0959 50.818 53.4059 53.4937C53.5007 53.6832 53.5954 53.8672 53.7014 54.0512L53.4617 54.1907C53.3447 53.979 53.2274 53.767 53.1272 53.5495C51.8059 50.8125 51.7392 47.4955 52.9709 44.7137C53.4392 43.649 54.0802 42.6567 54.7047 41.6977C55.4462 40.5437 56.2209 39.3507 56.6892 38.0352C57.0849 36.926 57.1352 35.8555 56.8397 34.9247C56.6669 34.384 56.3547 33.927 56.0257 33.4417C55.7524 33.035 55.4627 32.6112 55.2732 32.1372C54.5597 30.4035 54.7547 28.341 55.8307 26.1722C56.7282 24.3662 58.0049 22.7662 59.5657 21.5007H60.0172C58.3617 22.772 57.0127 24.4165 56.0817 26.2952Z" fill="#542D1B"/>
<path opacity="0.3" d="M104.079 59.9494C103.979 60.0219 103.873 60.0944 103.767 60.1724C102.836 60.8246 101.621 61.5716 100.093 62.3186C99.9707 62.3744 99.8482 62.4356 99.7254 62.4914C99.1624 62.7589 98.5604 63.0264 97.9192 63.2886C97.8132 63.3276 97.7074 63.3721 97.5959 63.4169C96.7262 63.7626 95.7784 64.0969 94.7529 64.4204C94.6247 64.4594 94.4964 64.4984 94.3627 64.5374C91.1517 65.5129 87.1824 66.3269 82.3382 66.7281C82.1319 66.7449 81.9257 66.7616 81.7194 66.7784C80.6992 66.8564 79.6457 66.9121 78.5529 66.9511C76.2227 67.0349 73.7922 67.0849 71.2947 67.1129C71.2947 67.1129 71.2947 67.1129 71.2892 67.1129C70.9882 67.1184 70.6814 67.1184 70.3804 67.1184C70.3804 67.1184 70.3804 67.1184 70.3749 67.1184C69.3604 67.1294 68.3459 67.1294 67.3144 67.1294C67.3144 67.1294 67.3144 67.1294 67.3089 67.1294C66.9522 67.1294 66.5954 67.1294 66.2387 67.1239C61.5392 67.1016 56.6949 66.9789 51.9119 66.7504C51.9064 66.7504 51.9064 66.7504 51.9009 66.7504C51.5107 66.7336 51.1204 66.7169 50.7302 66.6946C49.5929 66.6389 48.4612 66.5719 47.3352 66.4996C47.3297 66.4996 47.3297 66.4996 47.3297 66.4996C46.9674 66.4774 46.5994 66.4551 46.2372 66.4326H46.2317C44.1692 66.2934 42.1344 66.1371 40.1442 65.9589H40.1387C39.9547 65.9421 39.7764 65.9254 39.5979 65.9144C37.9089 65.7581 36.2532 65.5854 34.6477 65.4014H34.6422C34.5084 65.3846 34.3747 65.3679 34.2409 65.3511C31.1804 64.9944 28.2817 64.5764 25.6224 64.0969C25.4942 64.0746 25.3604 64.0524 25.2322 64.0244C23.3312 63.6786 21.5584 63.2996 19.9364 62.8871C19.8082 62.8536 19.6799 62.8201 19.5517 62.7924C17.6004 62.2794 15.8892 61.7221 14.4619 61.1144C14.5624 61.0699 14.6627 61.0306 14.7629 60.9861C14.9024 60.9304 15.0362 60.8691 15.1754 60.8134C16.8979 60.0886 18.6372 59.4196 20.3932 58.7954C33.3542 62.5639 46.8169 64.6264 60.3132 64.8941C73.0679 65.1449 86.2742 63.6564 97.6019 58.0149C99.6867 58.5946 101.761 59.2134 103.823 59.8656C103.907 59.8936 103.996 59.9214 104.079 59.9494Z" fill="#F7764F"/>
<path d="M104.079 59.9493C103.979 60.0218 103.873 60.0943 103.767 60.1723C101.593 60.7856 99.2017 60.6351 97.1667 59.6483C96.4867 59.3193 95.84 58.9068 95.2157 58.4998C94.2122 57.8533 93.1754 57.1898 92.0214 56.8998C90.5554 56.5318 88.9999 56.7938 87.5005 57.0448C85.9675 57.3013 84.3842 57.5688 82.8679 57.1898C81.7864 56.9168 80.8164 56.3368 79.8744 55.7793C78.8542 55.1718 77.8062 54.5473 76.6467 54.3411C75.0077 54.0456 73.4302 54.5751 71.7634 55.1383C70.3697 55.6121 68.9259 56.0971 67.4487 56.0471C65.743 55.9913 64.1652 55.2221 62.6434 54.4806C61.0937 53.7281 59.4882 52.9476 57.7824 52.9421H57.7769C55.8814 52.9421 54.0922 53.8953 52.3639 54.8206C50.3459 55.8966 48.2609 57.0058 46.0199 56.5766C45.0834 56.3926 44.2249 55.9523 43.3887 55.5231C42.5357 55.0826 41.6494 54.6256 40.7017 54.4751C38.4997 54.1183 36.4649 55.4003 34.4972 56.6381C32.4904 57.9036 30.4109 59.2078 28.1087 58.8456C27.5957 58.7676 27.0997 58.6003 26.6202 58.4443C26.0739 58.2603 25.4997 58.0763 24.9254 58.0206C23.2809 57.8701 21.7589 58.7676 20.2929 59.6371C20.1257 59.7376 19.9639 59.8323 19.8024 59.9271C18.3474 60.7746 17.0932 61.1981 16.0059 61.1981C15.5654 61.1981 15.1529 61.1256 14.7627 60.9863C14.9022 60.9306 15.0359 60.8693 15.1752 60.8136C16.3794 61.1033 17.8844 60.7243 19.6627 59.6876C19.8244 59.5928 19.9859 59.4981 20.1477 59.3976C21.6584 58.5056 23.2137 57.5858 24.9474 57.7418C25.5607 57.7976 26.1459 57.9928 26.7092 58.1766C27.1774 58.3326 27.6624 58.4943 28.1529 58.5723C30.3437 58.9178 32.3842 57.6413 34.3519 56.4038C36.3644 55.1383 38.4437 53.8341 40.7459 54.2018C41.7382 54.3578 42.6412 54.8263 43.5164 55.2778C44.3304 55.6958 45.1777 56.1308 46.0697 56.3036C48.216 56.7106 50.1672 55.6736 52.2297 54.5753C53.9914 53.6333 55.8087 52.6633 57.7764 52.6633H57.7819C59.5547 52.6688 61.1824 53.4606 62.7599 54.2298C64.2594 54.9601 65.8092 55.7126 67.4594 55.7683C68.8699 55.8186 70.3024 55.3391 71.6737 54.8763C73.3014 54.3246 74.9795 53.7558 76.6964 54.0681C77.9007 54.2856 78.9764 54.9211 80.0134 55.5398C80.9389 56.0918 81.8977 56.6546 82.9344 56.9168C84.4007 57.2791 85.9502 57.0228 87.4499 56.7718C88.9829 56.5098 90.5662 56.2478 92.0879 56.6268C93.2867 56.9278 94.3457 57.6078 95.3659 58.2658C95.9847 58.6671 96.6257 59.0798 97.2892 59.3973C99.3017 60.3786 101.682 60.5066 103.823 59.8656C103.907 59.8936 103.996 59.9213 104.079 59.9493Z" fill="#542D1B"/>
<path d="M100.094 62.3185C99.9708 62.3743 99.8483 62.4355 99.7255 62.4913C99.5025 62.4188 99.2908 62.335 99.0788 62.2348C98.2648 61.8558 97.5068 61.326 96.7708 60.8188C95.55 59.9715 94.396 59.1688 92.9968 58.979C91.603 58.7895 90.1983 59.2745 88.838 59.7483C87.528 60.211 86.1678 60.6848 84.7685 60.5678C83.2133 60.4395 81.8475 59.5978 80.5263 58.7838C79.2273 57.9865 77.8838 57.1615 76.3898 57.0445C75.0408 56.9385 73.7865 57.3903 72.454 57.875C71.456 58.2318 70.4248 58.6053 69.3658 58.7168C67.2363 58.9343 65.1793 58.1093 63.189 57.3063C61.1208 56.4758 58.9858 55.6115 56.8228 55.985C55.351 56.236 53.9798 57.0443 52.6473 57.8303C50.8578 58.8895 49.0128 59.9878 46.95 59.6475C45.796 59.4635 44.7703 58.8335 43.778 58.2315C42.6743 57.557 41.6318 56.9215 40.4165 56.8268C38.5435 56.6818 37.0383 57.8135 35.4328 59.012C34.2008 59.9375 32.9185 60.8908 31.447 61.2475C30.1203 61.5653 28.7378 61.3645 27.4055 61.1695C26.0565 60.9745 24.6573 60.7738 23.3473 61.125C22.4275 61.3703 21.5858 61.8888 20.7718 62.3905C20.4985 62.5578 20.2198 62.7305 19.9355 62.8868C19.8073 62.8533 19.679 62.8198 19.5508 62.792C19.913 62.5913 20.2755 62.3683 20.6268 62.1508C21.4573 61.6435 22.316 61.114 23.2748 60.8575C24.6405 60.4895 26.0675 60.6958 27.4445 60.8965C28.7545 61.086 30.1093 61.2813 31.3803 60.9745C32.8018 60.6345 34.056 59.698 35.2658 58.7893C36.8433 57.613 38.4768 56.3923 40.4335 56.5483C41.7213 56.6485 42.836 57.3288 43.9233 57.992C44.8933 58.583 45.891 59.1963 46.9948 59.3745C48.9515 59.6868 50.6795 58.672 52.508 57.5905C53.857 56.7933 55.2563 55.9683 56.7783 55.7063C59.0138 55.3273 61.1878 56.2025 63.2895 57.0498C65.2518 57.8358 67.2753 58.6498 69.3323 58.4378C70.3635 58.3318 71.3783 57.9638 72.3593 57.607C73.6583 57.1388 75.0128 56.6538 76.412 56.7653C77.973 56.8878 79.3443 57.7353 80.671 58.5493C81.9643 59.3465 83.3023 60.166 84.7908 60.2885C86.1343 60.4055 87.461 59.9373 88.7488 59.4858C90.1313 59.0008 91.564 58.499 93.0358 58.6998C94.502 58.9005 95.7395 59.759 96.9325 60.5895C97.6573 61.0913 98.4043 61.6098 99.2015 61.9775C99.4915 62.112 99.7868 62.2293 100.094 62.3185Z" fill="#542D1B"/>
<path d="M97.9197 63.2885C97.8137 63.3275 97.7079 63.372 97.5964 63.4168C97.3902 63.2885 97.1784 63.1493 96.9722 63.0153C95.6287 62.14 94.2407 61.237 92.6742 61.1758C91.4812 61.1368 90.3774 61.5773 89.2067 62.0455C88.1864 62.4525 87.1329 62.8763 86.0234 62.9375C84.2674 63.0378 82.6397 62.2183 81.0677 61.4323C79.6239 60.7075 78.1299 59.9605 76.5467 59.9383H76.4687C75.2312 59.9383 74.0214 60.3788 72.8562 60.8023C71.9364 61.1368 70.9942 61.4825 70.0132 61.6273C67.8279 61.9563 65.6537 61.2593 63.5634 60.5848C61.6179 59.9605 59.6054 59.3138 57.5874 59.492C56.0934 59.6315 54.6329 60.2223 53.2282 60.791C51.4219 61.5268 49.5544 62.285 47.5979 62.0788C46.3102 61.945 45.0727 61.4043 43.8742 60.8803C42.1404 60.1223 40.5014 59.403 38.7902 59.86C37.7364 60.1443 36.8447 60.8523 35.9862 61.538C35.1332 62.218 34.2469 62.9205 33.1877 63.2383C32.1564 63.5448 31.0637 63.45 30.0044 63.361C28.9732 63.2775 27.8972 63.1825 26.9104 63.4838C26.4532 63.6233 26.0297 63.8405 25.6227 64.097C25.4944 64.0748 25.3607 64.0525 25.2324 64.0245C25.7287 63.6845 26.2527 63.3945 26.8324 63.2163C27.8694 62.904 28.9677 62.9933 30.0324 63.0825C31.0582 63.1718 32.1229 63.261 33.1097 62.971C34.1187 62.67 34.9772 61.9843 35.8134 61.321C36.6942 60.613 37.6084 59.8883 38.7177 59.5928C40.5239 59.1133 42.2854 59.8825 43.9857 60.624C45.1619 61.137 46.3827 61.672 47.6259 61.8003C49.5102 61.9955 51.2662 61.2875 53.1224 60.5348C54.5497 59.955 56.0269 59.3585 57.5654 59.219C59.6337 59.0295 61.6739 59.6873 63.6474 60.3173C65.7099 60.9805 67.8452 61.6663 69.9747 61.354C70.9224 61.2148 71.8589 60.8745 72.7619 60.54C73.9772 60.0995 75.2259 59.637 76.5527 59.6593C78.2027 59.6815 79.7247 60.4453 81.1964 61.181C82.7294 61.956 84.3182 62.7475 86.0074 62.6583C87.0722 62.597 88.1034 62.1845 89.1014 61.7885C90.2497 61.3258 91.4372 60.863 92.6859 60.8965C94.3304 60.9578 95.7519 61.8833 97.1234 62.7808C97.3464 62.9258 97.5694 63.0708 97.7924 63.21C97.8362 63.2383 97.8807 63.266 97.9197 63.2885Z" fill="#542D1B"/>
<path d="M94.7527 64.4201C94.6245 64.4591 94.4962 64.4981 94.3625 64.5371C94.3012 64.4981 94.2397 64.4701 94.173 64.4423C92.5507 63.7398 90.8115 64.0521 88.9717 64.3753C87.7175 64.6038 86.4187 64.8323 85.1587 64.7211C83.765 64.5928 82.4382 64.0466 81.1617 63.5168C79.7402 62.9258 78.2685 62.3183 76.73 62.3183H76.7132C75.4422 62.3238 74.1992 62.7476 73.0007 63.1601C72.2817 63.4053 71.5402 63.6563 70.7875 63.8233C69.3102 64.1523 67.7492 64.1468 66.272 63.8123C65.2462 63.5783 64.254 63.1823 63.2895 62.7978C62.3475 62.4243 61.3662 62.0341 60.3685 61.8056C58.4565 61.3651 56.3937 61.5046 54.5597 62.2013C53.9855 62.4131 53.4225 62.6918 52.8817 62.9538C52.2407 63.2661 51.5772 63.5838 50.886 63.8233C48.5837 64.6093 45.8465 64.4588 43.1817 63.3941C42.97 63.3106 42.758 63.2213 42.5517 63.1321C41.6487 62.7531 40.7232 62.3571 39.7532 62.3851C38.248 62.4241 37.0717 63.4108 35.8287 64.4533C35.4442 64.7768 35.054 65.1056 34.647 65.4011H34.6415C34.5077 65.3843 34.374 65.3676 34.2402 65.3508C34.7252 65.0163 35.1935 64.6206 35.6507 64.2416C36.877 63.2103 38.1425 62.1511 39.748 62.1066C40.7737 62.0843 41.7325 62.4856 42.658 62.8758C42.8697 62.9651 43.076 63.0543 43.2822 63.1378C45.8855 64.1746 48.5557 64.3251 50.7967 63.5558C51.4712 63.3273 52.1235 63.0096 52.759 62.7028C53.3052 62.4353 53.8737 62.1621 54.4592 61.9391C56.3435 61.2256 58.4617 61.0806 60.4297 61.5323C61.45 61.7663 62.4365 62.1623 63.3955 62.5413C64.343 62.9203 65.33 63.3106 66.339 63.5391C67.7717 63.8681 69.288 63.8681 70.7262 63.5503C71.462 63.3886 72.198 63.1378 72.906 62.8926C74.1325 62.4746 75.3977 62.0453 76.7135 62.0398H76.7302C78.3245 62.0398 79.8185 62.6586 81.268 63.2551C82.5277 63.7791 83.8322 64.3198 85.1815 64.4423C86.408 64.5538 87.6845 64.3253 88.922 64.1023C90.7227 63.7846 92.5845 63.4501 94.2847 64.1861C94.446 64.2528 94.6022 64.3366 94.7527 64.4201Z" fill="#542D1B"/>
<path d="M46.9456 66.388C47.0739 66.427 47.2019 66.466 47.3301 66.4995C46.9679 66.4773 46.5999 66.455 46.2376 66.4325H46.2321C45.9756 66.3378 45.7249 66.2318 45.4741 66.1315C44.4206 65.7078 43.4226 65.3065 42.3469 65.351C41.5944 65.379 40.8584 65.6353 40.1449 65.9588H40.1394C39.9554 65.942 39.7771 65.9253 39.5986 65.9143C40.4739 65.485 41.3769 65.1115 42.3356 65.0725C43.4784 65.028 44.5431 65.457 45.5746 65.8753C46.0256 66.0533 46.4829 66.243 46.9456 66.388Z" fill="#542D1B"/>
<path d="M63.5187 65.7134C64.7617 66.2709 66.0272 66.8451 67.3095 67.1294C66.9527 67.1294 66.596 67.1294 66.2392 67.1239C65.2805 66.8116 64.3382 66.3881 63.4072 65.9644C61.144 64.9441 59.0087 63.9741 56.7845 64.5764C56.004 64.7881 55.2737 65.1951 54.5657 65.5854C54.1587 65.8139 53.7295 66.0536 53.2947 66.2544C52.8487 66.4606 52.386 66.6224 51.9122 66.7506C51.9067 66.7506 51.9067 66.7506 51.9012 66.7506C51.511 66.7339 51.1207 66.7171 50.7305 66.6949C51.5722 66.5834 52.4027 66.3491 53.1777 65.9979C53.607 65.8029 54.025 65.5686 54.432 65.3456C55.1512 64.9441 55.898 64.5261 56.712 64.3086C59.0312 63.6786 61.3112 64.7156 63.5187 65.7134Z" fill="#542D1B"/>
<path d="M82.3384 66.728C82.1321 66.7448 81.9259 66.7615 81.7196 66.7783C81.4296 66.6555 81.1399 66.5273 80.8556 66.3993C79.4174 65.7525 78.0516 65.145 76.5631 65.2118C75.3031 65.2675 74.1159 65.8305 72.9731 66.3768C72.4269 66.6333 71.8694 66.8953 71.2951 67.1128C71.2951 67.1128 71.2951 67.1128 71.2896 67.1128C70.9886 67.1183 70.6819 67.1183 70.3809 67.1183C71.2339 66.8953 72.0534 66.505 72.8504 66.126C74.0211 65.5685 75.2364 64.9945 76.5519 64.933C78.1129 64.8605 79.5621 65.5128 80.9669 66.1428C81.4186 66.3433 81.8756 66.5495 82.3384 66.728Z" fill="#542D1B"/>
<path d="M77.3664 101.503C61.5791 104.524 46.9121 99.5013 46.9121 99.5013C64.6284 102.06 77.2269 99.7856 77.2269 99.7856L77.3664 101.503Z" fill="#380E0E"/>
<path d="M104.413 73.635C104.352 73.869 104.291 74.1032 104.224 74.3317C100.299 76.1657 96.018 77.643 91.4075 78.7692C88.3528 79.5107 85.1586 80.096 81.7411 80.5365C76.6626 81.1942 71.0935 81.5287 64.7663 81.5677C64.3315 81.5732 63.8965 81.5732 63.4675 81.5732C42.9028 81.5732 25.677 78.4125 10.999 71.9402C10.9655 71.723 10.932 71.5055 10.9043 71.288C25.8778 77.9665 43.5215 81.1327 64.7608 81.0102C71.4615 80.9655 77.3093 80.5922 82.6163 79.8507C85.66 79.4327 88.5253 78.8862 91.2738 78.223C96.0123 77.0745 100.4 75.5415 104.413 73.635Z" fill="#F9E9CF"/>
<path d="M102.373 79.7C102.278 79.9342 102.183 80.1737 102.077 80.408C91.7476 84.3937 80.8381 86.791 70.0456 88.2905C61.1818 89.528 52.4018 90.1525 44.0788 90.5592C40.3158 90.7432 36.4638 90.8992 32.5783 90.8992C28.8433 90.8992 25.0748 90.76 21.3121 90.364C21.0556 90.1522 20.8048 89.9402 20.5596 89.723C28.4643 90.6205 36.4306 90.3752 44.0566 90.0072C52.7808 89.5835 62.0181 88.9147 71.3166 87.5542C81.8023 86.0217 92.3718 83.6135 102.373 79.7Z" fill="#F9E9CF"/>
<path opacity="0.25" d="M106.303 61.7833C106.236 62.9596 106.119 64.3588 105.924 65.9253C105.785 67.0181 105.606 68.1941 105.372 69.4261C104.588 73.5908 103.347 77.7048 101.564 81.5621C95.5049 94.6401 77.2256 99.7856 77.2256 99.7856L77.3649 101.503L77.5099 103.342C63.8464 108.75 42.6406 102.344 42.6406 102.344L42.2114 99.0721C42.0886 99.0498 41.9606 99.0276 41.8379 99.0053C43.0699 98.5648 44.5919 98.4478 45.6399 98.1746C50.1944 97.0038 54.6709 95.5043 59.0134 93.6926C62.7986 92.1206 66.4834 90.3143 70.0456 88.2908C70.4694 88.0511 70.8929 87.8058 71.3166 87.5548C74.9346 85.4366 78.4186 83.0896 81.7411 80.5363C82.0366 80.3078 82.3264 80.0848 82.6164 79.8506C82.8616 79.6611 83.1069 79.4658 83.3524 79.2708C87.4886 75.9483 91.3631 72.2968 94.9141 68.3501C95.9009 67.2518 96.8764 66.1203 98.0694 65.2338C99.7641 63.9738 101.799 63.2883 103.8 62.6193C104.636 62.3408 105.472 62.0621 106.303 61.7833Z" fill="#F91B0B"/>
<path d="M105.924 65.9253C100.445 68.066 84.5901 73.0273 55.4961 73.0273C27.2829 73.0273 14.8739 67.6478 10.5479 65.0723C10.6371 61.538 11.1834 59.219 11.1834 59.219C11.1834 59.219 25.5101 67.2353 62.5201 67.1405C101.085 67.0458 106.359 57.9368 106.359 57.9368C106.359 57.9368 106.526 61.1755 105.924 65.9253Z" fill="#F9E9CF"/>
<path d="M53.6237 84.6002C53.5274 85.835 52.4482 86.758 51.2137 86.6615C49.9789 86.5652 49.0559 85.486 49.1524 84.2512C49.2487 83.0165 50.3279 82.0938 51.5624 82.19C52.7972 82.2865 53.7202 83.3655 53.6237 84.6002Z" fill="#380E0E"/>
<path d="M73.3749 84.1915C73.2786 85.4263 72.1994 86.3493 70.9646 86.2528C69.7299 86.1565 68.8071 85.0776 68.9034 83.8428C68.9996 82.6081 70.0789 81.6853 71.3136 81.7816C72.5481 81.8778 73.4711 82.9568 73.3749 84.1915Z" fill="#380E0E"/>
<path d="M61.9437 88.9033C61.1294 88.9033 60.3159 88.606 59.7074 88.0555C59.2099 87.6055 58.8542 87.0065 58.7324 86.4118C58.6957 86.2335 58.8109 86.0595 58.9887 86.0228C59.1669 85.987 59.3414 86.1008 59.3777 86.279C59.4719 86.7398 59.7534 87.209 60.1497 87.5673C60.8354 88.1873 61.8472 88.4073 62.7277 88.1235C63.6077 87.842 64.3049 87.0763 64.5037 86.173C64.5427 85.9953 64.7177 85.881 64.8959 85.9223C65.0737 85.9613 65.1862 86.1368 65.1467 86.3145C64.8987 87.4425 64.0279 88.3988 62.9284 88.751C62.6097 88.8533 62.2767 88.9033 61.9437 88.9033Z" fill="#380E0E"/>
<path opacity="0.5" d="M40.7153 94.7976C44.2132 94.7976 47.0488 91.962 47.0488 88.4641C47.0488 84.9662 44.2132 82.1306 40.7153 82.1306C37.2174 82.1306 34.3818 84.9662 34.3818 88.4641C34.3818 91.962 37.2174 94.7976 40.7153 94.7976Z" fill="#F9E9CF"/>
<path opacity="0.5" d="M80.9978 94.7978C84.4959 94.7978 87.3316 91.962 87.3316 88.464C87.3316 84.966 84.4959 82.1302 80.9978 82.1302C77.4998 82.1302 74.6641 84.966 74.6641 88.464C74.6641 91.962 77.4998 94.7978 80.9978 94.7978Z" fill="#F9E9CF"/>
<path d="M111.23 104.256C107.589 105.144 103.739 105.164 99.9908 104.707C99.2773 104.626 98.5708 104.518 97.8643 104.404C98.2343 103.812 98.638 103.247 99.0823 102.708C99.0958 102.695 99.1093 102.675 99.1228 102.661C99.2238 102.533 99.3245 102.412 99.4323 102.291C99.5803 102.116 99.735 101.941 99.8965 101.773C101.209 101.611 102.568 101.632 103.941 101.706C104.137 101.712 104.338 101.719 104.534 101.733C106.29 101.827 108.053 101.941 109.736 101.753C109.951 101.988 110.16 102.278 110.355 102.594C110.469 102.796 110.584 102.998 110.698 103.207C110.893 103.576 111.075 103.946 111.23 104.256Z" fill="#FCB666"/>
<path d="M110.698 103.206C109.823 103.334 108.753 103.442 108.571 103.462C107.461 103.57 106.337 103.61 105.22 103.583C104.102 103.549 102.992 103.448 101.888 103.28C101.888 103.28 101.888 103.287 101.882 103.28C101.411 103.206 99.7145 103.078 99.082 102.708C99.0955 102.695 99.109 102.675 99.1225 102.661C99.2235 102.533 99.3243 102.412 99.432 102.291C100.213 102.136 101.209 102.177 101.909 102.083C102.528 102.002 103.154 101.914 103.773 101.834C104.029 101.8 104.278 101.766 104.533 101.733C106.29 101.827 108.053 101.941 109.735 101.753C109.951 101.988 110.159 102.278 110.355 102.594C110.469 102.796 110.583 102.997 110.698 103.206Z" fill="#542D1B"/>
<path d="M121.943 95.3931C120.712 97.1631 119.069 98.8118 116.889 100.124C115.099 101.214 112.945 102.076 110.355 102.594C108.605 102.944 106.647 103.139 104.473 103.139C103.679 103.139 102.918 103.112 102.185 103.052C101.101 102.978 100.085 102.843 99.1227 102.661C96.5317 102.163 94.358 101.302 92.541 100.198C90.5557 99.0071 88.9945 97.5333 87.763 95.9451C82.857 89.6258 83.1397 81.4291 83.1397 81.4291H125.652C125.652 81.4291 126.311 89.1546 121.943 95.3931Z" fill="#FCB666"/>
<path opacity="0.2" d="M110.354 102.594C110.469 102.796 110.583 102.998 110.697 103.206C110.893 103.576 111.074 103.947 111.229 104.256C107.588 105.144 103.739 105.165 99.9902 104.707C100.623 104.243 101.255 103.765 101.881 103.28C101.888 103.287 101.888 103.28 101.888 103.28C101.989 103.206 102.09 103.132 102.184 103.052C102.716 102.648 103.247 102.244 103.772 101.834C103.833 101.793 103.887 101.746 103.94 101.706C108.12 98.4621 112.191 95.0838 116.148 91.5843C117.757 90.1643 119.352 88.7173 120.839 87.1696C122.138 85.8101 123.363 84.3768 124.433 82.8288C124.614 82.5596 124.937 81.8663 125.287 81.4291H125.651C125.651 81.4291 127.165 99.2291 110.354 102.594Z" fill="#F7764F"/>
<path d="M124.918 81.92C124.918 81.92 117.703 85.4398 104.641 85.4398C91.585 85.4398 83.8525 81.92 83.8525 81.92H124.918Z" fill="#ADA04F"/>
<path opacity="0.27" d="M124.918 81.92C124.918 81.92 117.703 85.4398 104.641 85.4398C91.585 85.4398 83.8525 81.92 83.8525 81.92H84.1755C84.3975 82.0075 84.6063 82.1018 84.7745 82.1488C85.5283 82.3843 86.2888 82.5795 87.0625 82.7478C88.6373 83.091 90.2323 83.313 91.834 83.4745C93.6645 83.6563 95.5018 83.7573 97.339 83.8448C102.905 84.1205 108.511 84.3428 114.049 83.6765C116.929 83.3333 119.79 82.741 122.576 81.92H124.918Z" fill="#4F2138"/>
<path d="M100.2 93.6581C100.137 94.4573 99.4388 95.0546 98.6395 94.9923C97.8403 94.9301 97.2428 94.2316 97.3053 93.4323C97.3678 92.6331 98.066 92.0356 98.8655 92.0978C99.6643 92.1603 100.262 92.8588 100.2 93.6581Z" fill="#380E0E"/>
<path d="M112.985 93.3934C112.922 94.1926 112.224 94.7901 111.425 94.7276C110.625 94.6654 110.028 93.9669 110.09 93.1674C110.153 92.3681 110.851 91.7706 111.65 91.8331C112.45 91.8956 113.047 92.5941 112.985 93.3934Z" fill="#380E0E"/>
<path d="M105.586 96.4434C105.059 96.4434 104.532 96.2509 104.138 95.8946C103.816 95.6039 103.586 95.2159 103.506 94.8301C103.483 94.7149 103.557 94.6024 103.673 94.5784C103.785 94.5569 103.9 94.6289 103.924 94.7446C103.986 95.0431 104.168 95.3471 104.424 95.5786C104.867 95.9791 105.523 96.1211 106.093 95.9391C106.663 95.7564 107.114 95.2604 107.241 94.6766C107.267 94.5614 107.377 94.4889 107.495 94.5136C107.611 94.5389 107.683 94.6524 107.658 94.7676C107.499 95.4974 106.935 96.1169 106.223 96.3449C106.017 96.4111 105.802 96.4434 105.586 96.4434Z" fill="#380E0E"/>
<path d="M95.9459 96.1604C95.9459 98.1929 94.4719 99.8686 92.5407 100.198C90.5554 99.0071 88.9942 97.5334 87.7627 95.9451C87.8704 93.7849 89.6537 92.0621 91.8477 92.0621C94.1087 92.0619 95.9459 93.8991 95.9459 96.1604Z" fill="#F7764F"/>
<path d="M121.943 95.3931C120.712 97.1631 119.069 98.8119 116.889 100.124C115.126 99.6731 113.82 98.0716 113.82 96.1604C113.82 93.8991 115.658 92.0619 117.919 92.0619C119.924 92.0619 121.587 93.4954 121.943 95.3931Z" fill="#F7764F"/>
<path d="M104.438 43.9423C104.168 43.8815 103.845 43.8668 103.656 44.069C103.483 44.2535 103.497 44.5505 103.597 44.7825C103.789 45.226 104.237 45.5188 104.705 45.6355C104.987 45.7055 105.303 45.716 105.547 45.5603C105.933 45.3148 105.836 44.8855 105.593 44.5843C105.31 44.2323 104.87 44.0393 104.438 43.9423Z" fill="#F9E9CF"/>
<path d="M100.569 45.073C100.299 45.0123 99.9759 44.9975 99.7866 45.1998C99.6139 45.3843 99.6279 45.6813 99.7281 45.9133C99.9196 46.3568 100.367 46.6495 100.836 46.7663C101.117 46.8363 101.434 46.8468 101.678 46.691C102.064 46.4455 101.967 46.0163 101.724 45.715C101.44 45.3633 101 45.1703 100.569 45.073Z" fill="#F9E9CF"/>
<path d="M105.451 48.0653C105.18 48.0046 104.858 47.9898 104.668 48.1921C104.496 48.3766 104.51 48.6736 104.61 48.9056C104.802 49.3491 105.249 49.6418 105.718 49.7586C105.999 49.8286 106.316 49.8388 106.56 49.6833C106.946 49.4378 106.849 49.0086 106.606 48.7073C106.322 48.3556 105.882 48.1623 105.451 48.0653Z" fill="#F9E9CF"/>
<path d="M13.7764 90.7466C13.5847 90.5459 13.3234 90.3541 13.0534 90.4179C12.8069 90.4759 12.6537 90.7314 12.6084 90.9806C12.5217 91.4569 12.7329 91.9501 13.0589 92.3079C13.2547 92.5226 13.5129 92.7069 13.8032 92.7129C14.2612 92.7224 14.4192 92.3106 14.3837 91.9239C14.3424 91.4726 14.0827 91.0674 13.7764 90.7466Z" fill="#F9E9CF"/>
<path d="M9.91997 89.5406C9.72822 89.3398 9.46697 89.1481 9.19697 89.2116C8.95047 89.2696 8.79722 89.5251 8.75197 89.7743C8.66522 90.2506 8.87647 90.7438 9.20247 91.1016C9.39822 91.3163 9.65647 91.5006 9.94672 91.5066C10.4047 91.5161 10.5627 91.1043 10.5272 90.7176C10.4857 90.2666 10.226 89.8613 9.91997 89.5406Z" fill="#F9E9CF"/>
<path d="M12.3303 94.7488C12.1385 94.5481 11.8775 94.3563 11.6073 94.4198C11.3608 94.4778 11.2075 94.7333 11.162 94.9826C11.0755 95.4588 11.2865 95.9521 11.6125 96.3098C11.8083 96.5246 12.0665 96.7088 12.357 96.7148C12.815 96.7243 12.973 96.3126 12.9375 95.9258C12.8963 95.4751 12.6363 95.0696 12.3303 94.7488Z" fill="#F9E9CF"/>
<path d="M110.258 77.1013C110.129 77.1013 110.023 76.9961 110.023 76.8666V68.6543C110.023 68.5248 110.129 68.4196 110.258 68.4196C110.388 68.4196 110.493 68.5248 110.493 68.6543V76.8666C110.493 76.9961 110.387 77.1013 110.258 77.1013Z" fill="#F9E9CF"/>
<path d="M114.094 73.0653H106.342C106.213 73.0653 106.107 72.9601 106.107 72.8306C106.107 72.7011 106.213 72.5958 106.342 72.5958H114.094C114.224 72.5958 114.329 72.7011 114.329 72.8306C114.329 72.9601 114.224 73.0653 114.094 73.0653Z" fill="#F9E9CF"/>
<path d="M108.3 75.5825C108.249 75.5825 108.196 75.5655 108.153 75.5305C108.052 75.4493 108.036 75.3018 108.117 75.2008L111.994 70.3858C112.074 70.2848 112.222 70.2683 112.323 70.35C112.424 70.4313 112.441 70.5788 112.359 70.6798L108.483 75.4948C108.437 75.5525 108.369 75.5825 108.3 75.5825Z" fill="#F9E9CF"/>
<path d="M112.636 74.9633C112.584 74.9633 112.533 74.9463 112.489 74.9118L107.634 71.0356C107.533 70.9548 107.516 70.8073 107.598 70.7058C107.678 70.6038 107.826 70.5878 107.927 70.6691L112.782 74.5453C112.884 74.6261 112.9 74.7736 112.819 74.8751C112.773 74.9331 112.704 74.9633 112.636 74.9633Z" fill="#F9E9CF"/>
<path d="M42.3036 51.2598C42.1911 51.2598 42.0996 51.1683 42.0996 51.0558V43.921C42.0996 43.8085 42.1914 43.717 42.3036 43.717C42.4161 43.717 42.5076 43.8088 42.5076 43.921V51.0558C42.5079 51.1683 42.4161 51.2598 42.3036 51.2598Z" fill="#F9E9CF"/>
<path d="M45.6365 47.7533H38.9013C38.7888 47.7533 38.6973 47.6616 38.6973 47.5493C38.6973 47.4371 38.789 47.3453 38.9013 47.3453H45.6365C45.749 47.3453 45.8405 47.4371 45.8405 47.5493C45.8405 47.6616 45.749 47.7533 45.6365 47.7533Z" fill="#F9E9CF"/>
<path d="M40.6023 49.9404C40.5573 49.9404 40.5123 49.9256 40.4745 49.8953C40.3868 49.8246 40.373 49.6961 40.4433 49.6083L43.8108 45.4254C43.882 45.3376 44.01 45.3244 44.0978 45.3941C44.1855 45.4649 44.1993 45.5933 44.129 45.6811L40.7615 49.8641C40.7208 49.9141 40.6615 49.9404 40.6023 49.9404Z" fill="#F9E9CF"/>
<path d="M44.3692 49.4025C44.3242 49.4025 44.2797 49.3877 44.2419 49.358L40.0239 45.9905C39.9362 45.9197 39.9214 45.792 39.9917 45.7035C40.0624 45.6152 40.1909 45.602 40.2787 45.6712L44.4967 49.0387C44.5844 49.1095 44.5992 49.2372 44.5289 49.3257C44.4882 49.3762 44.4289 49.4025 44.3692 49.4025Z" fill="#F9E9CF"/>
<path d="M82.2505 37.003C82.1182 37.003 82.0107 36.8955 82.0107 36.7633V28.385C82.0107 28.2528 82.1182 28.1453 82.2505 28.1453C82.3827 28.1453 82.4902 28.2528 82.4902 28.385V36.7635C82.4902 36.8955 82.3827 37.003 82.2505 37.003Z" fill="#F9E9CF"/>
<path d="M86.1637 32.885H78.2544C78.1221 32.885 78.0146 32.7775 78.0146 32.6453C78.0146 32.513 78.1221 32.4055 78.2544 32.4055H86.1637C86.2959 32.4055 86.4034 32.513 86.4034 32.6453C86.4034 32.7775 86.2959 32.885 86.1637 32.885Z" fill="#F9E9CF"/>
<path d="M80.2522 35.4538C80.1994 35.4538 80.1462 35.4363 80.1019 35.4005C79.9987 35.3178 79.9829 35.1668 80.0657 35.0638L84.0204 30.1505C84.1032 30.0473 84.2542 30.0315 84.3572 30.1143C84.4604 30.197 84.4762 30.348 84.3934 30.451L80.4387 35.3643C80.3917 35.423 80.3219 35.4538 80.2522 35.4538Z" fill="#F9E9CF"/>
<path d="M84.6758 34.8218C84.6231 34.8218 84.5706 34.8043 84.5266 34.769L79.5728 30.8143C79.4691 30.732 79.4521 30.581 79.5351 30.478C79.6186 30.3748 79.7693 30.3585 79.8713 30.4403L84.8251 34.395C84.9288 34.4773 84.9458 34.6283 84.8628 34.7313C84.8158 34.7905 84.7461 34.8218 84.6758 34.8218Z" fill="#F9E9CF"/>
<path d="M43.0994 107.198C42.9777 107.198 42.8789 107.099 42.8789 106.978V99.2608C42.8789 99.139 42.9777 99.0403 43.0994 99.0403C43.2212 99.0403 43.3199 99.139 43.3199 99.2608V106.978C43.3199 107.099 43.2212 107.198 43.0994 107.198Z" fill="#F9E9CF"/>
<path d="M46.7037 103.405H39.4187C39.297 103.405 39.1982 103.306 39.1982 103.185C39.1982 103.063 39.297 102.964 39.4187 102.964H46.7037C46.8255 102.964 46.9242 103.063 46.9242 103.185C46.9242 103.306 46.8255 103.405 46.7037 103.405Z" fill="#F9E9CF"/>
<path d="M41.2586 105.771C41.2098 105.771 41.1608 105.755 41.1203 105.722C41.0253 105.646 41.0106 105.507 41.0868 105.412L44.7293 100.888C44.8056 100.792 44.9448 100.778 45.0393 100.854C45.1343 100.93 45.1491 101.069 45.0728 101.164L41.4303 105.689C41.3868 105.743 41.3228 105.771 41.2586 105.771Z" fill="#F9E9CF"/>
<path d="M45.3329 105.189C45.2846 105.189 45.2359 105.173 45.1952 105.14L40.6327 101.498C40.5377 101.422 40.5219 101.283 40.5982 101.188C40.6739 101.093 40.8132 101.078 40.9082 101.153L45.4707 104.796C45.5657 104.872 45.5814 105.01 45.5052 105.106C45.4619 105.16 45.3976 105.189 45.3329 105.189Z" fill="#F9E9CF"/>
<path d="M13.7739 80.2621C13.6829 80.2621 13.6094 80.1886 13.6094 80.0976V74.3383C13.6094 74.2473 13.6829 74.1738 13.7739 74.1738C13.8649 74.1738 13.9384 74.2473 13.9384 74.3383V80.0976C13.9386 80.1886 13.8651 80.2621 13.7739 80.2621Z" fill="#F9E9CF"/>
<path d="M16.465 77.4315H11.0278C10.9368 77.4315 10.8633 77.358 10.8633 77.267C10.8633 77.176 10.9368 77.1025 11.0278 77.1025H16.465C16.556 77.1025 16.6295 77.176 16.6295 77.267C16.6295 77.358 16.556 77.4315 16.465 77.4315Z" fill="#F9E9CF"/>
<path d="M12.4011 79.1971C12.3648 79.1971 12.3281 79.1851 12.2978 79.1608C12.2271 79.1038 12.2156 79.0001 12.2726 78.9293L14.9911 75.5523C15.0493 75.4816 15.1528 75.4711 15.2226 75.5271C15.2933 75.5841 15.3048 75.6878 15.2478 75.7586L12.5293 79.1356C12.4966 79.1763 12.4493 79.1971 12.4011 79.1971Z" fill="#F9E9CF"/>
<path d="M15.4421 78.7631C15.4059 78.7631 15.3696 78.7516 15.3396 78.7274L11.9341 76.0089C11.8629 75.9519 11.8514 75.8481 11.9079 75.7774C11.9661 75.7071 12.0691 75.6951 12.1394 75.7511L15.5449 78.4696C15.6161 78.5266 15.6276 78.6304 15.5711 78.7011C15.5381 78.7419 15.4904 78.7631 15.4421 78.7631Z" fill="#F9E9CF"/>
</g>
<defs>
<clipPath id="clip0_5_30165">
<rect width="128" height="128" fill="white"/>
</clipPath>
</defs>
</svg>
