<svg width="128" height="128" viewBox="0 0 128 128" fill="none" xmlns="http://www.w3.org/2000/svg">
<g clip-path="url(#clip0_5_30173)">
<path d="M63.8366 110.059C51.8296 110.059 39.4158 109.172 26.9408 107.424C19.9363 106.442 11.7208 104.984 3.89983 101.609C1.86158 100.73 0.443833 98.885 0.201583 96.7955C-1.12067 85.4318 4.14283 73.8003 13.6101 67.164C14.3316 66.6585 15.0613 66.191 15.7666 65.7385C17.1153 64.8738 18.3891 64.0565 19.4278 63.0978C21.7541 60.9513 23.1546 57.881 24.6371 54.6308C25.1996 53.3978 25.7811 52.1228 26.4258 50.8765C28.2708 47.3098 30.6778 43.9578 33.5538 40.9225L31.9313 41.1425C31.7963 41.1608 31.6606 41.17 31.5248 41.17C29.9118 41.17 28.5803 39.904 28.5016 38.2935L28.4406 37C28.3716 35.4755 29.4491 34.1388 30.9533 33.8818L46.2998 31.2645C47.7303 30.498 49.1596 29.811 50.5556 29.2188C57.8716 26.1153 65.9531 24.5418 74.5756 24.5418C77.2981 24.5418 80.0703 24.705 82.8146 25.0268L82.8516 25.0313L100.209 22.0713L100.74 21.9845L124.202 17.9848C124.371 17.956 124.541 17.9418 124.71 17.9418C125.388 17.9418 126.052 18.1695 126.59 18.5975C127.263 19.1315 127.677 19.927 127.729 20.7845L127.891 23.4863L127.995 25.294C128.088 26.8725 126.949 28.2563 125.382 28.4688L102.997 31.5045C107.878 34.5283 111.994 38.6803 114.925 43.54C119.274 50.7498 120.827 59.188 121.814 67.28L123.515 67.3975C125.091 67.5058 126.317 68.8088 126.331 70.3883L126.347 72.1943L126.363 74.91C126.368 75.7695 126.007 76.59 125.371 77.1675C124.812 77.675 124.086 77.9523 123.338 77.9523C123.235 77.9523 123.132 77.9468 123.028 77.9365L122.875 77.9208C123.389 84.3903 123.66 90.8955 123.685 97.307C123.694 100.01 121.784 102.411 119.037 103.146C101.922 107.732 83.3496 110.059 63.8366 110.059Z" fill="white"/>
<path d="M119.027 100.225C120.457 99.8413 121.437 98.6503 121.432 97.3178C121.395 87.589 120.8 77.8635 119.651 68.2018C118.699 60.2058 117.292 52.04 113.108 45.1018C110.339 40.511 106.397 36.5963 101.736 33.806C96.1789 30.4805 89.7186 28.79 83.2346 28.0303C72.8611 26.8143 62.0971 27.9358 52.5089 32.0025C42.9209 36.0693 34.5834 43.1805 29.8841 52.2658C27.5564 56.7663 26.0106 61.8508 22.2514 65.32C20.4181 67.0118 18.1689 68.2035 16.1186 69.6405C7.57114 75.632 2.79789 86.3043 3.97789 96.447C4.09839 97.4823 4.82389 98.3803 5.87064 98.8318C12.9126 101.871 20.4689 103.355 28.1329 104.429C58.2161 108.645 89.6931 108.086 119.027 100.225Z" fill="#FFD6C9"/>
<path d="M92.4566 98.0656L90.4744 100.726C89.5806 101.925 88.1766 102.635 86.6781 102.635H49.0746C47.9074 102.635 46.7821 102.198 45.9094 101.42L45.8304 101.347L43.5326 99.2803L42.7861 98.6073C42.9229 98.4703 92.4566 98.0656 92.4566 98.0656Z" fill="#723E01"/>
<path d="M90.8427 99.8795L45.831 101.346L43.5332 99.28L90.8427 99.8795Z" fill="#380E0E"/>
<path d="M36.0787 88.9396L19.563 99.5893L111.787 99.5446L99.7635 89.3421C99.7635 89.3421 35.5502 88.9396 36.0787 88.9396Z" fill="#723E01"/>
<path d="M104.188 86.8926L103.457 88.9431L103.326 89.3164L101.654 94.0221L101.517 94.3953L101.286 95.0526C101.065 95.6783 100.466 96.0988 99.7979 96.0988H69.4604C68.7874 96.0988 68.1879 95.6731 67.9671 95.0421L65.5644 88.1333L64.8546 86.0881C64.8546 86.0828 64.8494 86.0776 64.8494 86.0776C64.4761 85.0156 64.4341 83.9008 64.6759 82.8598C64.6916 82.7863 64.7126 82.7126 64.7389 82.6391C65.0439 81.4928 65.7116 80.4466 66.6844 79.6683L70.1019 76.9238C71.1586 76.0721 72.4836 75.6199 73.8401 75.6461L96.6064 76.0879C98.4151 76.1194 100.108 77.0026 101.17 78.4696L103.415 81.5506C103.972 82.3181 104.325 83.2016 104.456 84.1111C104.593 85.0366 104.509 85.9883 104.188 86.8926Z" fill="#380E0E"/>
<path d="M74.0187 96.099H73.2037C71.1847 94.9318 69.5862 93.4228 68.4507 92.1293C67.357 90.878 66.4055 89.516 65.5642 88.1333L64.8545 86.088C65.9217 88.0755 67.1837 90.084 68.7505 91.8663C69.9755 93.265 71.7472 94.916 74.0187 96.099Z" fill="#542D1B"/>
<path d="M83.0778 96.099H82.1735C79.5658 94.8003 77.2627 93.3913 75.2175 91.8403C71.3687 88.9223 68.4402 85.531 66.521 81.7558L66.8732 81.577C68.766 85.2995 71.6525 88.6435 75.4593 91.5248C77.6728 93.202 80.186 94.711 83.0778 96.099Z" fill="#542D1B"/>
<path d="M92.51 96.0991H91.4638C84.5445 93.1968 78.519 88.0283 74.7388 81.5771L75.0805 81.3773C78.9765 88.0283 85.2913 93.3071 92.51 96.0991Z" fill="#542D1B"/>
<path d="M101.654 94.0223L101.517 94.3955C93.8299 92.303 86.9211 87.287 82.6309 80.5833L82.9621 80.373C87.2051 87.003 94.0509 91.9665 101.654 94.0223Z" fill="#542D1B"/>
<path d="M103.457 88.9433L103.325 89.3165C101.07 88.5805 99.0772 87.1293 97.4734 85.8148C95.4124 84.127 93.9927 82.6918 92.8677 81.1615L93.1832 80.9303C94.2874 82.4288 95.6912 83.843 97.7207 85.5098C99.2982 86.798 101.254 88.2283 103.457 88.9433Z" fill="#542D1B"/>
<path opacity="0.4" d="M96.4906 96.099H69.4604C68.7874 96.099 68.1879 95.6733 67.9671 95.0423L65.5644 88.1335L64.8546 86.0883C64.8546 86.083 64.8494 86.0778 64.8494 86.0778C64.4761 85.0158 64.4341 83.901 64.6759 82.86C64.6916 82.7865 64.7126 82.7128 64.7389 82.6393C65.4749 83.5015 66.3004 84.2955 67.1944 85.0053C69.2974 86.6825 71.7371 87.876 74.1976 88.9643C81.3429 92.1348 88.8301 94.5323 96.4906 96.099Z" fill="#230202"/>
<path d="M103.026 83.4968C103.335 82.2961 102.102 81.6036 101.803 80.5768C101.723 80.3016 101.709 79.9976 101.553 79.7593C101.326 79.4108 100.868 79.3056 100.597 78.9926C100.116 78.4376 100.382 77.4483 99.8646 76.9303C99.6379 76.7033 99.3126 76.6263 99.0259 76.4901C98.2949 76.1423 97.7309 75.3651 96.9276 75.3166C96.4891 75.2903 96.0686 75.4948 95.6311 75.5366C94.6439 75.6308 93.7186 74.8963 92.7296 74.9693C92.1326 75.0133 91.5769 75.3508 90.9784 75.3536C90.3606 75.3566 89.7746 75.0021 89.1579 75.0391C88.6679 75.0686 88.2104 75.3441 87.7194 75.3428C87.0554 75.3411 86.4604 74.8353 85.7969 74.8586C85.3246 74.8751 84.8966 75.1588 84.4276 75.2188C83.9161 75.2843 83.4109 75.0798 82.8974 75.0333C82.4669 74.9943 82.0351 75.0671 81.6049 75.1078C81.0124 75.1641 80.4164 75.1598 79.8216 75.1553C77.9596 75.1418 76.0976 75.1283 74.2359 75.1148C73.8549 75.1121 73.4689 75.1098 73.1001 75.2091C72.7681 75.2983 72.4616 75.4668 72.1629 75.6413C70.3591 76.6941 68.7016 78.0146 67.2574 79.5501C66.8169 80.0183 66.4001 80.5396 66.1474 81.1358C65.9624 81.5728 65.7241 82.2386 66.0304 82.6753C66.3374 83.1133 66.9509 83.3023 67.4284 83.4788C68.0456 83.7068 68.6576 83.9363 69.3121 84.0336C70.3609 84.1896 71.4261 84.1681 72.4834 84.1711C81.5119 84.2128 90.5404 84.2546 99.5686 84.2963C100.068 84.2986 100.569 84.2923 101.067 84.2478C101.319 84.2253 101.57 84.1933 101.819 84.1466C101.955 84.1211 102.091 84.0728 102.229 84.0606C102.461 84.0401 102.709 84.0618 102.862 83.8501C102.94 83.7426 102.993 83.6228 103.026 83.4968Z" fill="#F9E9CF"/>
<path opacity="0.4" d="M75.4539 78.4173C75.1732 78.92 74.7204 79.1933 74.4427 79.0273C74.1649 78.8615 74.1672 78.3193 74.4479 77.8165C74.7287 77.3138 75.1814 77.0405 75.4592 77.2065C75.7369 77.3723 75.7347 77.9143 75.4539 78.4173Z" fill="#FCC07B"/>
<path opacity="0.4" d="M96.0745 78.2886C95.7938 78.7914 95.341 79.0646 95.0633 78.8986C94.7855 78.7326 94.7878 78.1906 95.0685 77.6879C95.3493 77.1851 95.802 76.9119 96.0798 77.0779C96.3575 77.2436 96.355 77.7856 96.0745 78.2886Z" fill="#FCC07B"/>
<path opacity="0.4" d="M78.9687 77.1005C78.4349 77.2803 77.9217 77.1703 77.8224 76.8548C77.7232 76.5393 78.0754 76.1378 78.6092 75.958C79.1429 75.7783 79.6562 75.8883 79.7554 76.2038C79.8549 76.5193 79.5027 76.9208 78.9687 77.1005Z" fill="#FCC07B"/>
<path opacity="0.4" d="M90.7268 77.0276C90.1808 76.8923 89.7988 76.5213 89.8736 76.1986C89.9483 75.8758 90.4513 75.7238 90.9973 75.8591C91.5433 75.9943 91.9254 76.3653 91.8506 76.6881C91.7759 77.0108 91.2726 77.1628 90.7268 77.0276Z" fill="#FCC07B"/>
<path opacity="0.4" d="M71.0053 82.4683C70.4476 82.4015 70.0253 82.0803 70.0623 81.7508C70.0991 81.4213 70.5811 81.2081 71.1388 81.2748C71.6966 81.3416 72.1188 81.6628 72.0818 81.9923C72.0448 82.3218 71.5628 82.5348 71.0053 82.4683Z" fill="#FCC07B"/>
<path opacity="0.4" d="M98.7197 82.4683C98.1619 82.4015 97.7397 82.0803 97.7767 81.7508C97.8134 81.4213 98.2954 81.2081 98.8532 81.2748C99.4109 81.3416 99.8332 81.6628 99.7962 81.9923C99.7594 82.3218 99.2774 82.5348 98.7197 82.4683Z" fill="#FCC07B"/>
<path opacity="0.4" d="M70.4881 79.0038C70.2409 78.4826 70.2739 77.9416 70.5616 77.7953C70.8494 77.6491 71.2836 77.9533 71.5309 78.4743C71.7781 78.9956 71.7454 79.5366 71.4574 79.6828C71.1694 79.8291 70.7354 79.5251 70.4881 79.0038Z" fill="#FCC07B"/>
<path opacity="0.4" d="M76.3333 82.3586C75.8781 82.0191 75.6611 81.5254 75.8488 81.2564C76.0366 80.9874 76.5578 81.0446 77.0131 81.3841C77.4683 81.7239 77.6853 82.2174 77.4976 82.4864C77.3098 82.7556 76.7886 82.6984 76.3333 82.3586Z" fill="#FCC07B"/>
<path opacity="0.4" d="M93.2606 82.3586C92.8053 82.0191 92.5883 81.5254 92.7761 81.2564C92.9638 80.9874 93.4851 81.0446 93.9403 81.3841C94.3956 81.7236 94.6126 82.2174 94.4248 82.4864C94.2373 82.7556 93.7161 82.6984 93.2606 82.3586Z" fill="#FCC07B"/>
<path d="M83.2645 76.1673C83.6458 76.1638 84.0308 76.1811 84.3818 76.2396C84.535 76.2653 84.6788 76.2981 84.81 76.3396C85.2358 76.4691 85.549 76.6683 85.6623 76.8933C85.779 77.1225 85.6893 77.358 85.4628 77.5773C85.2113 77.825 84.7845 78.0493 84.283 78.2123C83.3403 78.52 82.1868 78.6568 81.0648 78.7873C80.5355 78.849 80.0033 78.912 79.484 78.9945C79.1865 79.0423 78.5835 79.2146 78.2548 79.1501C77.814 79.0628 78.6655 78.2611 78.81 78.0566C79.2555 77.4253 79.9103 76.7638 81.2018 76.4183C81.8238 76.2511 82.5495 76.1733 83.2645 76.1673Z" fill="#FCB666"/>
<path d="M84.8099 76.3396C85.2357 76.4691 85.5489 76.6683 85.6622 76.8933C85.7789 77.1226 85.6892 77.3581 85.4627 77.5773C85.2347 77.6136 85.0037 77.6514 84.7789 77.6931C84.3169 77.7796 81.4687 78.5401 81.2002 78.3383C81.6407 78.1573 82.1044 78.0146 82.4872 77.8028C82.9859 77.5281 83.3852 77.2236 83.8007 76.9243C84.0849 76.7163 84.4039 76.5018 84.8099 76.3396Z" fill="#542D1B"/>
<path d="M89.4028 76.4985C89.6676 76.6738 89.7778 76.896 90.1121 77.046C90.4141 77.1798 90.8476 77.2351 91.2028 77.3398C92.0573 77.5916 92.3238 78.0938 92.3381 78.5561C92.3448 78.7053 92.3208 78.8918 92.2266 79.0703C92.1138 79.2728 91.9056 79.4638 91.5363 79.5733C91.0031 79.7301 90.0843 79.7258 89.4873 79.7358C88.6963 79.7478 87.9041 79.7153 87.1396 79.6388C85.6136 79.4855 84.1883 79.1593 83.0773 78.683C82.6856 78.515 82.3081 78.2823 82.4803 78.0448C82.4896 78.0305 82.5018 78.0178 82.5143 78.0048C82.5981 77.9188 82.7426 77.8456 82.8773 77.7738C83.4766 77.4561 83.9991 77.1096 84.6368 76.8063C85.2746 76.5031 86.0596 76.2383 86.9631 76.1466C87.8666 76.0548 88.8991 76.1698 89.4028 76.4985Z" fill="#ADA04F"/>
<path d="M82.5141 78.0048C82.5298 78.0043 82.5426 78.0055 82.5553 78.0053C83.2673 78.0133 83.9528 78.0973 84.6438 78.163C85.6981 78.2633 86.7801 78.321 87.8641 78.3355C88.6016 78.3458 89.3483 78.336 90.0678 78.397C90.7876 78.4565 91.4933 78.5975 91.9283 78.8525C92.0638 78.9318 92.1608 79.0035 92.2261 79.0703C92.1133 79.2728 91.9051 79.4638 91.5358 79.5733C91.0026 79.73 90.0838 79.7258 89.4868 79.7358C88.6958 79.7478 87.9036 79.7153 87.1391 79.6388C85.6131 79.4855 84.1878 79.1593 83.0768 78.683C82.6851 78.515 82.3076 78.2823 82.4798 78.0448C82.4893 78.0305 82.5018 78.0178 82.5141 78.0048Z" fill="#542D1B"/>
<path d="M82.2529 77.9693L82.3766 77.9663C82.6816 77.9603 82.9899 77.9668 83.2891 77.9863C84.6609 78.0733 85.8859 78.3988 87.2549 78.493C88.4899 78.5778 89.9116 78.4905 90.8514 78.8408C91.0469 78.9143 91.2081 79.0028 91.3469 79.097C91.3661 79.1093 91.3856 79.1228 91.4019 79.1348C91.4341 79.1578 91.4666 79.1808 91.4956 79.2038C91.8291 79.464 92.0556 79.7633 92.1234 80.0663C92.1269 80.0773 92.1304 80.0885 92.1336 80.101C92.1886 80.403 92.0879 80.7073 91.7864 80.9843C91.7771 80.9958 91.7646 81.0073 91.7459 81.0188C91.7211 81.043 91.6931 81.0675 91.6619 81.0908C91.3966 81.2928 91.0321 81.4665 90.6451 81.6295C90.6169 81.6413 90.5916 81.6533 90.5666 81.6635C90.5006 81.6918 90.4314 81.7185 90.3651 81.7468C89.9056 81.9353 89.4366 82.12 88.9611 82.299C88.9171 82.3155 88.8761 82.3318 88.8319 82.3483C88.7721 82.3708 88.7121 82.393 88.6524 82.4155C88.2366 82.5723 87.8114 82.7265 87.3309 82.8373C87.0021 82.9138 86.6571 82.9668 86.3019 82.999C86.2289 83.0063 86.1561 83.0138 86.0831 83.0183C85.2074 83.0798 84.2909 83.0265 83.4709 82.8913C82.2489 82.6903 81.2166 82.3223 80.2916 81.9225C78.9139 81.3255 77.6824 80.602 77.4361 79.7458C77.4294 79.7305 77.4259 79.7138 77.4224 79.6985L77.4284 79.6858L77.5186 79.4768L77.5369 79.4385L77.5851 79.3283C77.7999 79.1385 78.0754 78.9643 78.3956 78.8085L78.4521 78.782C78.6154 78.7025 78.7949 78.6298 78.9806 78.561C79.0026 78.552 79.0279 78.543 79.0499 78.5355C79.5886 78.3435 80.2079 78.1933 80.8604 78.095C80.8984 78.0885 80.9331 78.0835 80.9711 78.0783C81.3896 78.0195 81.8209 77.9825 82.2529 77.9693Z" fill="#FF8661"/>
<path opacity="0.57" d="M81.1199 81.9821C82.5581 82.5818 84.5414 82.8498 86.3024 82.9988C86.2294 83.0061 86.1566 83.0136 86.0836 83.0181C84.3636 82.8626 82.4598 82.5898 81.0633 82.0071C80.2061 81.6491 79.5851 81.1916 78.9831 80.7506C78.5139 80.4056 78.0351 80.0523 77.4366 79.7453C77.4298 79.7301 77.4264 79.7133 77.4229 79.6981L77.4288 79.6853C78.0593 80.0028 78.5608 80.3721 79.0526 80.7321C79.6511 81.1721 80.2691 81.6268 81.1199 81.9821Z" fill="#F9E9CF"/>
<path opacity="0.57" d="M77.5373 79.4385C78.5918 79.8057 79.505 80.249 80.2288 80.7445C80.3808 80.8497 80.5295 80.958 80.6718 81.0635C81.0343 81.3327 81.4095 81.6117 81.9045 81.8387C82.9778 82.33 84.6588 82.587 86.402 82.524C87.1833 82.4967 87.966 82.408 88.7268 82.324C88.806 82.3152 88.882 82.3062 88.9613 82.2987C88.9173 82.3152 88.8763 82.3315 88.832 82.348C88.8035 82.3502 88.7718 82.3537 88.7433 82.357C87.9795 82.4425 87.1903 82.5315 86.406 82.5587C84.6373 82.6222 82.934 82.363 81.8448 81.8637C81.3435 81.6327 80.968 81.3525 80.6023 81.0817C80.46 80.9775 80.3143 80.868 80.1625 80.764C79.4515 80.2767 78.5513 79.8387 77.519 79.4765L77.5373 79.4385Z" fill="#F9E9CF"/>
<path opacity="0.57" d="M83.2575 80.6182C85.1757 81.226 87.6122 81.4467 89.5222 81.5697C89.8947 81.5942 90.2702 81.6147 90.6455 81.6292C90.6172 81.641 90.592 81.653 90.567 81.6632C90.2107 81.648 89.8575 81.6272 89.5072 81.605C87.5877 81.4807 85.1385 81.259 83.2107 80.6472C82.4485 80.4057 81.777 80.1075 81.1282 79.8185C80.3315 79.4645 79.5092 79.0987 78.524 78.8402C78.4825 78.8287 78.4377 78.8185 78.396 78.8085L78.4525 78.782C78.4877 78.791 78.526 78.7997 78.5645 78.81C79.5592 79.0697 80.388 79.4382 81.1847 79.7935C81.8335 80.081 82.5017 80.3795 83.2575 80.6182Z" fill="#F9E9CF"/>
<path opacity="0.57" d="M79.0502 78.5355C80.3915 78.8023 81.5205 79.232 82.6175 79.647C82.826 79.7273 83.0377 79.8073 83.246 79.8848C84.5767 80.378 86.0502 80.8528 87.8232 80.972C88.549 81.0203 89.3082 81.006 90.0387 80.9928C90.293 80.988 90.5565 80.983 90.814 80.981C91.138 80.9773 91.4622 80.9793 91.7865 80.984C91.7772 80.9955 91.7647 81.007 91.746 81.0185C91.4345 81.0135 91.123 81.0125 90.8115 81.016C90.5542 81.018 90.2937 81.0228 90.0395 81.0275C89.3025 81.041 88.5402 81.0553 87.808 81.006C86.016 80.8858 84.5297 80.4088 83.1957 79.9125C82.9842 79.8338 82.7725 79.7538 82.564 79.6748C81.4637 79.257 80.3252 78.8245 78.981 78.5608C79.003 78.552 79.0282 78.543 79.0502 78.5355Z" fill="#F9E9CF"/>
<path opacity="0.57" d="M90.6586 80.078C91.1294 80.0917 91.6316 80.0977 92.1234 80.0665C92.1269 80.0775 92.1304 80.0887 92.1336 80.1012C91.6354 80.1327 91.1236 80.127 90.6466 80.1132C88.1279 80.0385 86.1576 79.7785 84.6274 79.3165C84.1536 79.1742 83.7141 79.0087 83.2876 78.8485C82.9414 78.7185 82.5854 78.5845 82.2169 78.465C81.7876 78.3245 81.3334 78.2012 80.8604 78.0952C80.8984 78.0887 80.9331 78.0837 80.9711 78.0785C81.4216 78.1822 81.8536 78.3017 82.2636 78.4357C82.6384 78.5567 82.9944 78.6907 83.3409 78.8207C83.7644 78.981 84.2036 79.1465 84.6741 79.2875C86.1919 79.7455 88.1494 80.0042 90.6586 80.078Z" fill="#F9E9CF"/>
<path opacity="0.57" d="M82.2529 77.9693L82.3767 77.9663C83.9467 78.4973 85.7897 79.0118 87.8954 79.0923C88.4617 79.1136 89.0397 79.1038 89.6019 79.0931C89.9927 79.0863 90.3994 79.0793 90.7967 79.0838C90.9874 79.0848 91.1719 79.0901 91.3469 79.0971C91.3662 79.1093 91.3857 79.1228 91.4019 79.1348C91.2079 79.1256 91.0044 79.1206 90.7914 79.1188C90.3972 79.1143 89.9937 79.1213 89.6029 79.1278C89.0374 79.1386 88.4562 79.1486 87.8867 79.1273C85.7237 79.0441 83.8422 78.5096 82.2529 77.9693Z" fill="#F9E9CF"/>
<path d="M63.2443 86.8926L62.5135 88.9431L62.382 89.3164L60.71 94.0221L60.5733 94.3953L60.342 95.0526C60.1213 95.6783 59.5218 96.0988 58.854 96.0988H28.5165C27.8435 96.0988 27.244 95.6731 27.0233 95.0421L24.6205 88.1333L23.9108 86.0881C23.9108 86.0828 23.9055 86.0776 23.9055 86.0776C23.5323 85.0156 23.4903 83.9008 23.732 82.8598C23.7478 82.7863 23.7688 82.7126 23.795 82.6391C24.1 81.4928 24.7678 80.4466 25.7405 79.6683L29.158 76.9238C30.2148 76.0721 31.5398 75.6199 32.8963 75.6461L55.6625 76.0879C57.4713 76.1194 59.1643 77.0026 60.2263 78.4696L62.4713 81.5506C63.0285 82.3181 63.3808 83.2016 63.5123 84.1111C63.649 85.0366 63.565 85.9883 63.2443 86.8926Z" fill="#380E0E"/>
<path d="M33.0749 96.099H32.2599C30.2409 94.9318 28.6424 93.4228 27.5069 92.1293C26.4131 90.878 25.4616 89.516 24.6204 88.1333L23.9106 86.088C24.9779 88.0755 26.2399 90.084 27.8066 91.8663C29.0316 93.265 30.8034 94.916 33.0749 96.099Z" fill="#542D1B"/>
<path d="M42.1344 96.099H41.2301C38.6224 94.8003 36.3194 93.3913 34.2741 91.8403C30.4254 88.9223 27.4969 85.531 25.5776 81.7558L25.9299 81.577C27.8226 85.2995 30.7091 88.6435 34.5159 91.5248C36.7294 93.202 39.2426 94.711 42.1344 96.099Z" fill="#542D1B"/>
<path d="M51.5667 96.0991H50.5204C43.6012 93.1968 37.5757 88.0283 33.7954 81.5771L34.1372 81.3773C38.0329 88.0283 44.3477 93.3071 51.5667 96.0991Z" fill="#542D1B"/>
<path d="M60.7098 94.0223L60.573 94.3955C52.886 92.303 45.9773 87.287 41.687 80.5833L42.0183 80.373C46.2613 87.003 53.107 91.9665 60.7098 94.0223Z" fill="#542D1B"/>
<path d="M62.5136 88.9433L62.3821 89.3165C60.1266 88.5805 58.1338 87.1293 56.5301 85.8148C54.4691 84.127 53.0493 82.6918 51.9243 81.1615L52.2398 80.9303C53.3441 82.4288 54.7478 83.843 56.7773 85.5098C58.3546 86.798 60.3106 88.2283 62.5136 88.9433Z" fill="#542D1B"/>
<path opacity="0.4" d="M55.5468 96.099H28.5165C27.8435 96.099 27.244 95.6733 27.0233 95.0423L24.6205 88.1335L23.9108 86.0883C23.9108 86.083 23.9055 86.0778 23.9055 86.0778C23.5323 85.0158 23.4903 83.901 23.732 82.86C23.7478 82.7865 23.7688 82.7128 23.795 82.6393C24.531 83.5015 25.3565 84.2955 26.2505 85.0053C28.3535 86.6825 30.7933 87.876 33.254 88.9643C40.399 92.1348 47.8863 94.5323 55.5468 96.099Z" fill="#230202"/>
<path d="M62.0818 83.4968C62.3908 82.2961 61.1583 81.6036 60.8591 80.5768C60.7788 80.3016 60.7646 79.9976 60.6093 79.7593C60.3823 79.4108 59.9238 79.3056 59.6526 78.9926C59.1718 78.4376 59.4383 77.4483 58.9206 76.9303C58.6938 76.7033 58.3686 76.6263 58.0818 76.4901C57.3508 76.1423 56.7868 75.3651 55.9836 75.3166C55.5451 75.2903 55.1246 75.4948 54.6871 75.5366C53.6998 75.6308 52.7746 74.8963 51.7856 74.9693C51.1883 75.0133 50.6328 75.3508 50.0343 75.3536C49.4166 75.3566 48.8306 75.0021 48.2138 75.0391C47.7238 75.0686 47.2663 75.3441 46.7753 75.3428C46.1113 75.3411 45.5163 74.8353 44.8528 74.8586C44.3806 74.8751 43.9526 75.1588 43.4836 75.2188C42.9721 75.2843 42.4668 75.0798 41.9533 75.0333C41.5228 74.9943 41.0911 75.0671 40.6608 75.1078C40.0683 75.1641 39.4723 75.1598 38.8776 75.1553C37.0156 75.1418 35.1536 75.1283 33.2916 75.1148C32.9106 75.1121 32.5246 75.1098 32.1558 75.2091C31.8238 75.2983 31.5173 75.4668 31.2186 75.6413C29.4148 76.6941 27.7573 78.0146 26.3131 79.5501C25.8726 80.0183 25.4558 80.5396 25.2031 81.1358C25.0181 81.5728 24.7798 82.2386 25.0861 82.6753C25.3931 83.1133 26.0068 83.3023 26.4841 83.4788C27.1011 83.7068 27.7133 83.9363 28.3678 84.0336C29.4166 84.1896 30.4818 84.1681 31.5391 84.1711C40.5676 84.2128 49.5961 84.2546 58.6243 84.2963C59.1241 84.2986 59.6246 84.2923 60.1226 84.2478C60.3746 84.2253 60.6258 84.1933 60.8746 84.1466C61.0106 84.1211 61.1468 84.0728 61.2848 84.0606C61.5171 84.0401 61.7646 84.0618 61.9178 83.8501C61.9961 83.7426 62.0493 83.6228 62.0818 83.4968Z" fill="#F9E9CF"/>
<path opacity="0.4" d="M34.5106 78.4173C34.2298 78.92 33.7771 79.1933 33.4993 79.0273C33.2216 78.8615 33.2238 78.3193 33.5046 77.8165C33.7853 77.3138 34.2381 77.0405 34.5158 77.2065C34.7936 77.3723 34.7913 77.9143 34.5106 78.4173Z" fill="#FCC07B"/>
<path opacity="0.4" d="M55.1307 78.2886C54.8499 78.7914 54.3972 79.0646 54.1194 78.8986C53.8417 78.7326 53.8439 78.1906 54.1247 77.6879C54.4054 77.1851 54.8582 76.9119 55.1359 77.0779C55.4137 77.2436 55.4114 77.7856 55.1307 78.2886Z" fill="#FCC07B"/>
<path opacity="0.4" d="M38.0248 77.1005C37.4911 77.2803 36.9778 77.1703 36.8786 76.8548C36.7793 76.5393 37.1316 76.1378 37.6653 75.958C38.1991 75.7783 38.7123 75.8883 38.8116 76.2038C38.9108 76.5193 38.5586 76.9208 38.0248 77.1005Z" fill="#FCC07B"/>
<path opacity="0.4" d="M49.783 77.0276C49.237 76.8923 48.855 76.5213 48.9298 76.1986C49.0045 75.8758 49.5075 75.7238 50.0535 75.8591C50.5995 75.9943 50.9815 76.3653 50.9068 76.6881C50.832 77.0108 50.329 77.1628 49.783 77.0276Z" fill="#FCC07B"/>
<path opacity="0.4" d="M30.0615 82.4683C29.5037 82.4015 29.0815 82.0803 29.1185 81.7508C29.1552 81.4213 29.6372 81.2081 30.195 81.2748C30.7527 81.3416 31.175 81.6628 31.138 81.9923C31.101 82.3218 30.6192 82.5348 30.0615 82.4683Z" fill="#FCC07B"/>
<path opacity="0.4" d="M57.7763 82.4683C57.2186 82.4015 56.7963 82.0803 56.8333 81.7508C56.8701 81.4213 57.3521 81.2081 57.9098 81.2748C58.4676 81.3416 58.8898 81.6628 58.8528 81.9923C58.8158 82.3218 58.3338 82.5348 57.7763 82.4683Z" fill="#FCC07B"/>
<path opacity="0.4" d="M29.5444 79.0038C29.2971 78.4826 29.3299 77.9416 29.6179 77.7953C29.9059 77.6491 30.3399 77.9533 30.5871 78.4743C30.8344 78.9956 30.8014 79.5366 30.5136 79.6828C30.2259 79.8291 29.7916 79.5251 29.5444 79.0038Z" fill="#FCC07B"/>
<path opacity="0.4" d="M35.3895 82.3586C34.9342 82.0191 34.7172 81.5254 34.905 81.2564C35.0927 80.9874 35.614 81.0446 36.0692 81.3841C36.5245 81.7239 36.7415 82.2174 36.5537 82.4864C36.366 82.7556 35.8447 82.6984 35.3895 82.3586Z" fill="#FCC07B"/>
<path opacity="0.4" d="M52.3172 82.3586C51.8619 82.0191 51.6449 81.5254 51.8327 81.2564C52.0204 80.9874 52.5417 81.0446 52.9969 81.3841C53.4522 81.7239 53.6692 82.2174 53.4814 82.4864C53.2937 82.7556 52.7724 82.6984 52.3172 82.3586Z" fill="#FCC07B"/>
<path d="M42.0833 76.2592C42.4658 76.2554 42.8518 76.2727 43.2038 76.3314C43.3573 76.3569 43.5016 76.3899 43.6334 76.4314C44.0604 76.5609 44.3743 76.7602 44.4881 76.9852C44.6051 77.2144 44.5153 77.4499 44.2878 77.6692C44.0356 77.9169 43.6076 78.1412 43.1046 78.3042C42.1591 78.6122 41.0021 78.7489 39.8768 78.8797C39.3461 78.9414 38.8121 79.0044 38.2913 79.0869C37.9928 79.1346 37.3883 79.3072 37.0583 79.2424C36.6163 79.1552 37.4703 78.3534 37.6153 78.1487C38.0623 77.5174 38.7188 76.8559 40.0141 76.5104C40.6383 76.3429 41.3663 76.2652 42.0833 76.2592Z" fill="#FCB666"/>
<path d="M43.6332 76.4314C44.0602 76.5609 44.3742 76.7601 44.4879 76.9851C44.6049 77.2144 44.5152 77.4499 44.2877 77.6691C44.0592 77.7054 43.8272 77.7431 43.6019 77.7849C43.1387 77.8716 40.2822 78.6321 40.0127 78.4304C40.4544 78.2491 40.9197 78.1066 41.3034 77.8949C41.8037 77.6201 42.2042 77.3156 42.6209 77.0161C42.9059 76.8081 43.2259 76.5934 43.6332 76.4314Z" fill="#542D1B"/>
<path d="M48.2396 76.5899C48.5051 76.7651 48.6159 76.9874 48.9509 77.1374C49.2536 77.2711 49.6886 77.3264 50.0449 77.4311C50.9019 77.6829 51.1691 78.1851 51.1834 78.6474C51.1901 78.7966 51.1661 78.9831 51.0714 79.1616C50.9584 79.3641 50.7494 79.5551 50.3791 79.6646C49.8441 79.8214 48.9231 79.8171 48.3241 79.8274C47.5309 79.8396 46.7364 79.8069 45.9696 79.7304C44.4391 79.5771 43.0099 79.2511 41.8956 78.7749C41.5026 78.6069 41.1241 78.3744 41.2969 78.1366C41.3061 78.1224 41.3186 78.1096 41.3309 78.0966C41.4149 78.0109 41.5599 77.9374 41.6951 77.8656C42.2961 77.5479 42.8201 77.2014 43.4599 76.8979C44.0996 76.5946 44.8869 76.3296 45.7931 76.2379C46.6991 76.1464 47.7346 76.2611 48.2396 76.5899Z" fill="#ADA04F"/>
<path d="M41.3311 78.0968C41.3471 78.0966 41.3598 78.0976 41.3726 78.0973C42.0868 78.1053 42.7741 78.1893 43.4673 78.2551C44.5248 78.3553 45.6098 78.4131 46.6971 78.4273C47.4368 78.4373 48.1856 78.4278 48.9073 78.4886C49.6291 78.5481 50.3368 78.6888 50.7733 78.9438C50.9091 79.0231 51.0066 79.0948 51.0718 79.1616C50.9588 79.3641 50.7498 79.5551 50.3796 79.6646C49.8446 79.8213 48.9236 79.8171 48.3246 79.8273C47.5313 79.8396 46.7368 79.8068 45.9701 79.7303C44.4396 79.5771 43.0103 79.2511 41.8961 78.7748C41.5031 78.6068 41.1246 78.3743 41.2973 78.1366C41.3063 78.1226 41.3186 78.1096 41.3311 78.0968Z" fill="#542D1B"/>
<path d="M41.0686 78.0611L41.1929 78.0581C41.4986 78.0521 41.8081 78.0586 42.1081 78.0778C43.4839 78.1648 44.7126 78.4901 46.0854 78.5843C47.3241 78.6691 48.7499 78.5816 49.6921 78.9318C49.8884 79.0053 50.0499 79.0938 50.1891 79.1881C50.2086 79.2001 50.2279 79.2136 50.2441 79.2258C50.2766 79.2488 50.3089 79.2718 50.3384 79.2948C50.6729 79.5551 50.9001 79.8543 50.9679 80.1573C50.9714 80.1683 50.9749 80.1796 50.9784 80.1921C51.0334 80.4941 50.9324 80.7983 50.6299 81.0753C50.6206 81.0868 50.6081 81.0981 50.5894 81.1098C50.5644 81.1341 50.5364 81.1586 50.5051 81.1818C50.2391 81.3838 49.8736 81.5576 49.4854 81.7206C49.4571 81.7323 49.4319 81.7443 49.4066 81.7546C49.3404 81.7828 49.2709 81.8096 49.2046 81.8378C48.7439 82.0263 48.2734 82.2111 47.7964 82.3903C47.7521 82.4068 47.7111 82.4231 47.6669 82.4396C47.6069 82.4621 47.5469 82.4843 47.4869 82.5068C47.0699 82.6636 46.6434 82.8178 46.1616 82.9286C45.8319 83.0051 45.4859 83.0581 45.1296 83.0903C45.0564 83.0976 44.9834 83.1051 44.9101 83.1096C44.0319 83.1713 43.1126 83.1181 42.2904 82.9828C41.0649 82.7818 40.0296 82.4141 39.1021 82.0143C37.7204 81.4173 36.4854 80.6938 36.2384 79.8376C36.2316 79.8223 36.2281 79.8056 36.2246 79.7903L36.2306 79.7776L36.3214 79.5686L36.3396 79.5303L36.3879 79.4201C36.6031 79.2303 36.8794 79.0561 37.2009 78.9001L37.2576 78.8736C37.4214 78.7941 37.6014 78.7213 37.7879 78.6526C37.8099 78.6436 37.8351 78.6346 37.8574 78.6271C38.3979 78.4351 39.0189 78.2846 39.6731 78.1863C39.7111 78.1798 39.7461 78.1748 39.7844 78.1696C40.2029 78.1113 40.6356 78.0743 41.0686 78.0611Z" fill="#FF8661"/>
<path opacity="0.57" d="M39.9316 82.0741C41.3741 82.6738 43.3629 82.9416 45.1291 83.0906C45.0559 83.0978 44.9829 83.1053 44.9096 83.1098C43.1846 82.9543 41.2754 82.6818 39.8749 82.0993C39.0151 81.7413 38.3924 81.2841 37.7889 80.8431C37.3184 80.4981 36.8381 80.1448 36.2379 79.8381C36.2311 79.8228 36.2276 79.8061 36.2241 79.7908L36.2301 79.7781C36.8626 80.0953 37.3654 80.4648 37.8586 80.8246C38.4586 81.2641 39.0784 81.7188 39.9316 82.0741Z" fill="#F9E9CF"/>
<path opacity="0.57" d="M36.3388 79.5308C37.3963 79.898 38.3121 80.3413 39.0381 80.8365C39.1903 80.9418 39.3395 81.05 39.4823 81.1555C39.8458 81.4248 40.2223 81.7035 40.7186 81.9305C41.7951 82.4215 43.4808 82.6785 45.2293 82.6155C46.0128 82.5883 46.7978 82.4995 47.5608 82.4153C47.6403 82.4063 47.7166 82.3975 47.7961 82.39C47.7518 82.4065 47.7108 82.4228 47.6666 82.4393C47.6381 82.4413 47.6061 82.445 47.5776 82.4483C46.8116 82.5338 46.0201 82.6228 45.2333 82.6503C43.4596 82.714 41.7513 82.4548 40.6588 81.9558C40.1561 81.7248 39.7795 81.4445 39.4128 81.1738C39.27 81.0695 39.1241 80.96 38.9718 80.856C38.2588 80.3688 37.3558 79.9308 36.3208 79.5685L36.3388 79.5308Z" fill="#F9E9CF"/>
<path opacity="0.57" d="M42.0757 80.71C43.9994 81.3178 46.4432 81.5383 48.3584 81.661C48.7319 81.6855 49.1084 81.7058 49.4849 81.7205C49.4567 81.7323 49.4314 81.7443 49.4062 81.7545C49.0489 81.7393 48.6944 81.7185 48.3434 81.6963C46.4184 81.5723 43.9622 81.3505 42.0287 80.739C41.2642 80.4975 40.5909 80.1993 39.9402 79.9105C39.1412 79.5568 38.3164 79.1908 37.3284 78.9323C37.2867 78.9208 37.2419 78.9105 37.2002 78.9005L37.2569 78.874C37.2922 78.883 37.3307 78.8918 37.3692 78.902C38.3667 79.1618 39.1979 79.53 39.9969 79.8853C40.6477 80.173 41.3179 80.4713 42.0757 80.71Z" fill="#F9E9CF"/>
<path opacity="0.57" d="M37.8566 78.6276C39.2016 78.8941 40.3341 79.3238 41.4341 79.7388C41.6431 79.8191 41.8556 79.8991 42.0646 79.9766C43.3994 80.4698 44.8769 80.9443 46.6551 81.0636C47.3829 81.1118 48.1444 81.0976 48.8771 81.0841C49.1319 81.0793 49.3964 81.0743 49.6546 81.0723C49.9796 81.0686 50.3049 81.0706 50.6299 81.0753C50.6206 81.0868 50.6081 81.0981 50.5894 81.1098C50.2769 81.1048 49.9646 81.1038 49.6524 81.1073C49.3944 81.1093 49.1329 81.1143 48.8781 81.1191C48.1389 81.1328 47.3744 81.1468 46.6401 81.0976C44.8429 80.9773 43.3524 80.5006 42.0144 80.0046C41.8021 79.9258 41.5899 79.8458 41.3806 79.7668C40.2774 79.3491 39.1354 78.9168 37.7871 78.6531C37.8091 78.6443 37.8344 78.6353 37.8566 78.6276Z" fill="#F9E9CF"/>
<path opacity="0.57" d="M49.4986 80.1693C49.9706 80.183 50.4744 80.189 50.9676 80.1575C50.9711 80.1685 50.9746 80.1798 50.9781 80.1923C50.4784 80.2238 49.9651 80.218 49.4866 80.2045C46.9604 80.1298 44.9844 79.87 43.4499 79.4083C42.9746 79.266 42.5341 79.1005 42.1064 78.9405C41.7591 78.8105 41.4021 78.6765 41.0326 78.557C40.6021 78.4165 40.1466 78.2933 39.6724 78.1873C39.7104 78.1808 39.7454 78.1758 39.7836 78.1705C40.2356 78.2743 40.6686 78.3938 41.0799 78.5278C41.4556 78.6488 41.8126 78.7825 42.1601 78.9125C42.5846 79.0728 43.0254 79.2383 43.4974 79.3793C45.0189 79.837 46.9821 80.0958 49.4986 80.1693Z" fill="#F9E9CF"/>
<path opacity="0.57" d="M41.0684 78.0611L41.1926 78.0581C42.7674 78.5889 44.6156 79.1034 46.7274 79.1839C47.2951 79.2051 47.8751 79.1954 48.4389 79.1846C48.8309 79.1779 49.2386 79.1709 49.6371 79.1754C49.8284 79.1764 50.0134 79.1816 50.1889 79.1886C50.2084 79.2006 50.2276 79.2141 50.2439 79.2264C50.0491 79.2171 49.8451 79.2121 49.6316 79.2104C49.2364 79.2059 48.8316 79.2129 48.4399 79.2196C47.8729 79.2304 47.2899 79.2404 46.7186 79.2191C44.5494 79.1356 42.6624 78.6014 41.0684 78.0611Z" fill="#F9E9CF"/>
<path d="M61.7687 65.4873L49.6117 65.8878C48.2957 65.9311 46.9745 65.7043 45.7292 65.1928C45.4355 65.0711 45.118 64.9348 44.7882 64.7756C44.7255 64.7506 44.6667 64.7216 44.6037 64.6888C44.5645 64.6708 44.5215 64.6528 44.482 64.6311C43.1547 63.9793 41.6172 63.0486 40.1872 61.7473C40.1395 61.7063 40.0917 61.6616 40.0437 61.6168C38.9117 60.5646 37.8495 59.2783 37.0212 57.7138C36.9882 57.6531 36.9592 57.5923 36.9302 57.5313C36.1992 56.1028 35.662 54.4513 35.4407 52.5423C35.4302 52.4616 35.4237 52.3806 35.4172 52.2996C35.361 51.7643 35.331 51.2091 35.3275 50.6336C35.317 48.9108 35.5715 47.3686 36.013 45.9901C36.0445 45.8923 36.08 45.7946 36.1155 45.6968C36.9055 43.4068 38.2247 41.5861 39.7267 40.1496C39.854 40.0218 39.9852 39.9016 40.1165 39.7851C41.1632 38.8388 42.2777 38.0681 43.3507 37.4531C44.856 36.5843 46.2782 36.0121 47.2982 35.6618C48.1845 35.3583 49.0947 35.1931 50.021 35.1626L60.415 34.9553L60.472 36.2208L60.4782 36.4138L61.7687 65.4873Z" fill="#380E0E"/>
<g opacity="0.24">
<path d="M62.3453 36.3141L62.3285 36.5078C61.7128 36.4663 61.0935 36.4326 60.4788 36.4143C53.397 36.1841 46.2843 37.4768 39.7271 40.1501C39.8543 40.0223 39.9855 39.9021 40.1168 39.7856C46.566 37.2318 53.5338 35.9978 60.4723 36.2213C61.0988 36.2391 61.722 36.2726 62.3453 36.3141Z" fill="#FCC07B"/>
<path d="M51.3619 39.7395C45.9562 40.8913 40.7027 43.0308 36.0132 45.9903C36.0447 45.8925 36.0802 45.7948 36.1157 45.697C40.7722 42.7928 45.9727 40.6898 51.3249 39.5513L51.3619 39.7395Z" fill="#FCC07B"/>
<path d="M49.5597 44.8408C44.2817 46.1196 39.3747 48.8118 35.441 52.5423C35.4305 52.4616 35.424 52.3806 35.4175 52.2996C39.356 48.5961 44.2522 45.9273 49.511 44.6531L49.5597 44.8408Z" fill="#FCC07B"/>
<path d="M48.7109 48.2726C44.2094 50.6076 40.2357 53.8256 37.0217 57.7138C36.9887 57.6531 36.9597 57.5923 36.9307 57.5313C40.1447 53.6508 44.1227 50.4366 48.6242 48.1016L48.7109 48.2726Z" fill="#FCC07B"/>
<path d="M50.7632 53.1041C46.7442 55.3073 43.1477 58.2539 40.1874 61.7476C40.1397 61.7066 40.0919 61.6618 40.0439 61.6171C43.0192 58.1076 46.6307 55.1488 50.6684 52.9333L50.7632 53.1041Z" fill="#FCC07B"/>
<path d="M55.5688 57.0759C51.4308 58.7151 47.6943 61.3959 44.788 64.7756C44.7253 64.7506 44.6665 64.7216 44.6035 64.6889C47.539 61.2656 51.3173 58.5526 55.501 56.8964L55.5688 57.0759Z" fill="#FCC07B"/>
<path d="M56.7782 61.2976C54.6117 62.5011 52.596 64.0549 50.8585 65.8469L50.5845 65.8559C52.366 63.9891 54.4415 62.3754 56.684 61.1306L56.7782 61.2976Z" fill="#FCC07B"/>
</g>
<path opacity="0.4" d="M71.9986 49.8228C72.0366 50.9793 71.1916 52.0503 70.9814 53.1403C70.7641 54.266 71.1419 55.574 70.6886 56.5983C70.2281 57.6393 69.0016 58.2388 68.3279 59.142C67.6509 60.0495 67.4249 61.3953 66.5639 62.1305C65.7069 62.8623 64.3439 62.8753 63.3356 63.4033C62.3436 63.9228 61.5584 65.0395 60.4496 65.3303C59.3756 65.6118 58.1451 65.032 56.9886 65.07C55.8321 65.108 54.6424 65.7678 53.5521 65.5575C52.4266 65.3403 51.5694 64.2778 50.5454 63.8248C49.5044 63.3643 48.1434 63.441 47.2401 62.7673C46.3324 62.0903 46.0186 60.7623 45.2831 59.9013C44.5514 59.0443 43.2881 58.5268 42.7601 57.5185C42.2406 56.5265 42.5314 55.1963 42.2406 54.0875C41.9591 53.0135 41.0454 52.0005 41.0071 50.844C40.9689 49.6875 41.8141 48.6165 42.0244 47.5263C42.2416 46.4005 41.8639 45.0925 42.3171 44.0683C42.7776 43.0273 44.0041 42.4278 44.6779 41.5245C45.3549 40.617 45.5809 39.2713 46.4419 38.536C47.2989 37.8043 48.6619 37.7913 49.6701 37.2633C50.6621 36.7438 51.4474 35.627 52.5561 35.3363C53.6301 35.0548 54.8606 35.6345 56.0171 35.5965C57.1736 35.5585 58.3634 34.8988 59.4536 35.109C60.5794 35.3263 61.4364 36.3888 62.4604 36.8418C63.5014 37.3023 64.8624 37.2255 65.7656 37.8993C66.6731 38.5763 66.9874 39.9043 67.7226 40.7653C68.4544 41.6223 69.7176 42.1398 70.2456 43.148C70.7651 44.14 70.4744 45.4703 70.7651 46.579C71.0469 47.6533 71.9606 48.6663 71.9986 49.8228Z" fill="#230202"/>
<path d="M73.3295 49.8183C73.3683 50.9943 72.5088 52.0835 72.295 53.192C72.0743 54.3368 72.4583 55.667 71.9975 56.7083C71.5293 57.7668 70.282 58.3765 69.5968 59.295C68.9083 60.218 68.6785 61.5863 67.8028 62.334C66.9313 63.078 65.5453 63.0913 64.5198 63.6283C63.511 64.1565 62.7125 65.292 61.585 65.5878C60.493 65.874 59.2415 65.2845 58.0655 65.3233C56.8895 65.362 55.6795 66.0328 54.571 65.819C53.4263 65.5983 52.5548 64.5178 51.5135 64.057C50.455 63.5888 49.071 63.6668 48.1525 62.9815C47.2295 62.293 46.9103 60.9428 46.1625 60.067C45.4185 59.1955 44.1338 58.6693 43.5968 57.644C43.0685 56.6353 43.3643 55.2825 43.0685 54.155C42.7823 53.063 41.853 52.0328 41.8143 50.8568C41.7755 49.6808 42.635 48.5915 42.8488 47.483C43.0695 46.3383 42.6855 45.008 43.1463 43.9668C43.6145 42.9083 44.862 42.2985 45.547 41.38C46.2355 40.457 46.4653 39.0888 47.341 38.341C48.2125 37.597 49.5985 37.5838 50.624 37.0468C51.6328 36.5185 52.4313 35.383 53.5588 35.0873C54.6508 34.8008 55.9023 35.3905 57.0783 35.3518C58.2543 35.313 59.4643 34.6423 60.5728 34.856C61.7175 35.0768 62.589 36.1573 63.6303 36.6183C64.6888 37.0865 66.0728 37.0085 66.9913 37.6938C67.9143 38.3823 68.2335 39.7325 68.9813 40.6083C69.7253 41.4798 71.01 42.006 71.547 43.0315C72.0753 44.0403 71.7795 45.393 72.0753 46.5205C72.3615 47.612 73.2908 48.6423 73.3295 49.8183Z" fill="#F9E9CF"/>
<path d="M66.5793 48.3795C66.579 48.843 66.5213 49.3125 66.3498 49.7433C66.2748 49.9313 66.1803 50.1083 66.062 50.2705C65.693 50.7965 65.1343 51.1898 64.5095 51.3415C63.8733 51.4978 63.225 51.4033 62.6253 51.141C61.9473 50.8503 61.3395 50.345 60.9025 49.745C60.0773 48.617 59.7298 47.2223 59.3993 45.8653C59.243 45.2253 59.0825 44.5815 58.8688 43.9548C58.745 43.5958 58.2845 42.873 58.472 42.4688C58.7245 41.9273 60.9168 42.9135 61.4785 43.0768C63.2105 43.58 65.0203 44.3355 65.9408 45.8853C66.3865 46.6318 66.5815 47.51 66.5793 48.3795Z" fill="#FCB666"/>
<path d="M66.0618 50.2702C65.6928 50.7962 65.1341 51.1894 64.5093 51.3412C63.8731 51.4974 63.2248 51.4029 62.6251 51.1407C62.5311 50.8657 62.4331 50.5867 62.3236 50.3162C62.0966 49.7594 60.0716 46.3414 60.6361 46.0022C61.1248 46.5269 61.5063 47.0824 62.0813 47.5347C62.8271 48.1244 63.6578 48.5917 64.4736 49.0787C65.0406 49.4114 65.6248 49.7862 66.0618 50.2702Z" fill="#542D1B"/>
<path d="M65.5009 55.8677C65.0096 56.2007 64.3924 56.3484 63.9696 56.7642C63.5919 57.1397 63.4276 57.6707 63.1291 58.1092C62.4104 59.1644 61.0159 59.5194 59.7386 59.5654C59.3259 59.5829 58.8114 59.5652 58.3211 59.4614C57.7646 59.3369 57.2426 59.0952 56.9499 58.6527C56.5309 58.0134 56.5674 56.8957 56.5551 56.1699C56.5429 55.2082 56.6539 54.2427 56.8859 53.3077C57.3499 51.4417 58.2889 49.6877 59.6341 48.3067C60.1089 47.8197 60.7616 47.3462 61.4131 47.5409C61.4521 47.5512 61.4874 47.5654 61.5226 47.5799C61.7576 47.6764 61.9564 47.8477 62.1511 48.0074C63.0129 48.7169 63.9564 49.3312 64.7774 50.0884C65.5981 50.8457 66.3091 51.7842 66.5384 52.8779C66.7676 53.9714 66.4229 55.2347 65.5009 55.8677Z" fill="#ADA04F"/>
<path d="M61.5224 47.5799C61.5229 47.5992 61.5196 47.6147 61.5201 47.6302C61.4791 48.4969 61.2286 49.3359 61.0286 50.1809C60.7234 51.4699 60.5351 52.7897 60.4664 54.1094C60.4186 55.0074 60.4254 55.9152 60.2381 56.7944C60.0546 57.6737 59.6466 58.5409 58.9304 59.0862C58.7081 59.2557 58.5071 59.3784 58.3206 59.4617C57.7641 59.3372 57.2421 59.0954 56.9494 58.6529C56.5304 58.0137 56.5669 56.8959 56.5546 56.1702C56.5424 55.2084 56.6534 54.2429 56.8854 53.3079C57.3494 51.4419 58.2884 49.6879 59.6336 48.3069C60.1084 47.8199 60.7611 47.3464 61.4126 47.5412C61.4521 47.5514 61.4874 47.5657 61.5224 47.5799Z" fill="#542D1B"/>
<path d="M61.628 47.2597L61.633 47.4102C61.6415 47.781 61.615 48.1565 61.5537 48.5217C61.2767 50.196 60.345 51.7065 60.0485 53.3775C59.7815 54.8855 59.985 56.6095 58.9917 57.7742C58.7835 58.0167 58.535 58.218 58.2702 58.393C58.2362 58.4172 58.1985 58.4417 58.1642 58.4622C58.1 58.503 58.0355 58.5437 57.971 58.5807C57.243 59.0027 56.4105 59.2967 55.5715 59.3977C55.5407 59.4025 55.51 59.4075 55.4755 59.4125C54.64 59.498 53.802 59.3942 53.0447 59.0445C53.0135 59.034 52.982 59.0195 52.9505 58.9972C52.884 58.9685 52.817 58.936 52.754 58.8995C52.2027 58.5892 51.7327 58.1565 51.2925 57.6957C51.2605 57.662 51.2285 57.6322 51.2005 57.6022C51.1245 57.5235 51.0522 57.441 50.9762 57.3625C50.4675 56.8152 49.97 56.2557 49.4877 55.6885C49.4435 55.6357 49.3995 55.587 49.3552 55.5345C49.295 55.463 49.2347 55.3917 49.1742 55.3202C48.7522 54.8242 48.3375 54.3162 48.0442 53.7385C47.842 53.3432 47.7045 52.9267 47.6247 52.4967C47.6065 52.4085 47.588 52.3202 47.5775 52.2317C47.4305 51.1702 47.6022 50.052 47.998 49.046C48.5862 47.547 49.6297 46.2685 50.7585 45.1185C52.4445 43.4055 54.4762 41.8627 56.8482 41.5102C56.8905 41.5012 56.9367 41.4957 56.979 41.4905L57.014 41.497L57.589 41.594L57.694 41.6137L57.997 41.6655C58.5152 41.915 58.9895 42.2395 59.4117 42.6195L59.4835 42.6867C59.6985 42.8805 59.895 43.0942 60.08 43.3162C60.104 43.3425 60.1282 43.3725 60.1485 43.399C60.6642 44.0427 61.0635 44.7867 61.3175 45.5742C61.3345 45.62 61.3475 45.6622 61.3605 45.708C61.5122 46.2127 61.603 46.7352 61.628 47.2597Z" fill="#FF8661"/>
<path opacity="0.57" d="M50.5716 46.1287C48.8764 47.9155 48.0834 50.3447 47.6249 52.4962C47.6066 52.408 47.5881 52.3197 47.5776 52.2312C48.0531 50.1292 48.8571 47.7962 50.5039 46.0612C51.5159 44.9962 52.7959 44.2125 54.0304 43.453C54.9961 42.861 55.9846 42.2565 56.8486 41.5095C56.8909 41.5005 56.9371 41.495 56.9794 41.4897L57.0144 41.4962C56.1209 42.283 55.0869 42.9157 54.0796 43.5362C52.8486 44.292 51.5761 45.072 50.5716 46.1287Z" fill="#F9E9CF"/>
<path opacity="0.57" d="M57.6943 41.6135C56.6515 42.919 55.4025 44.0572 54.0145 44.9685C53.7195 45.1597 53.4165 45.3475 53.121 45.5272C52.3673 45.9847 51.587 46.4587 50.9465 47.0747C49.561 48.4107 48.806 50.4717 48.9338 52.5887C48.9883 53.5375 49.2125 54.4842 49.4245 55.4045C49.447 55.5002 49.4693 55.5922 49.488 55.6882C49.4438 55.6355 49.3998 55.5867 49.3555 55.5342C49.3505 55.4997 49.3415 55.4612 49.3328 55.4267C49.1168 54.5027 48.8923 53.548 48.8378 52.5957C48.709 50.448 49.471 48.3597 50.879 47.0037C51.5308 46.3795 52.3148 45.9055 53.0723 45.444C53.3638 45.2645 53.6708 45.0805 53.962 44.8892C55.3273 43.9942 56.5615 42.8717 57.5895 41.594L57.6943 41.6135Z" fill="#F9E9CF"/>
<path opacity="0.57" d="M54.2829 48.6455C52.5529 51.0168 51.8782 53.9945 51.4877 56.3255C51.4099 56.78 51.3439 57.2383 51.2932 57.6958C51.2612 57.662 51.2292 57.6323 51.2012 57.6023C51.2527 57.1678 51.3194 56.7368 51.3904 56.3095C51.7847 53.9668 52.4627 50.9735 54.2039 48.5903C54.8914 47.648 55.7332 46.8128 56.5489 46.0055C57.5479 45.0145 58.5804 43.9913 59.3209 42.777C59.3539 42.7258 59.3832 42.6708 59.4124 42.6195L59.4842 42.6868C59.4587 42.73 59.4332 42.7773 59.4037 42.8245C58.6597 44.0505 57.6197 45.0818 56.6169 46.0728C55.8049 46.8798 54.9629 47.7113 54.2829 48.6455Z" fill="#F9E9CF"/>
<path opacity="0.57" d="M60.1487 43.3988C59.3762 45.0468 58.1589 46.447 56.9829 47.807C56.7557 48.0658 56.5287 48.328 56.3092 48.5865C54.9109 50.236 53.5607 52.0578 53.1837 54.222C53.0312 55.108 53.0502 56.0308 53.0677 56.9188C53.0739 57.2278 53.0807 57.548 53.0794 57.861C53.0807 58.255 53.0667 58.6495 53.0449 59.0445C53.0137 59.034 52.9822 59.0195 52.9507 58.9973C52.9729 58.618 52.9837 58.239 52.9827 57.8603C52.9839 57.5473 52.9774 57.2308 52.9712 56.9218C52.9532 56.026 52.9344 55.0993 53.0904 54.2055C53.4704 52.0178 54.8279 50.1805 56.2337 48.5268C56.4569 48.2645 56.6839 48.002 56.9072 47.7435C58.0909 46.3793 59.3154 44.9675 60.0802 43.3158C60.1044 43.3423 60.1284 43.3723 60.1487 43.3988Z" fill="#F9E9CF"/>
<path opacity="0.57" d="M55.5787 57.6165C55.5279 58.19 55.4979 58.8015 55.5717 59.3977C55.5409 59.4025 55.5102 59.4075 55.4757 59.4125C55.4017 58.8082 55.4314 58.1852 55.4817 57.604C55.7554 54.535 56.5259 52.122 57.8429 50.2317C58.2487 49.6465 58.7174 49.1017 59.1714 48.573C59.5397 48.1437 59.9192 47.7022 60.2597 47.2467C60.6594 46.7157 61.0119 46.1555 61.3172 45.5737C61.3342 45.6195 61.3472 45.6617 61.3602 45.7075C61.0617 46.262 60.7199 46.795 60.3387 47.302C59.9947 47.7655 59.6152 48.2067 59.2467 48.6362C58.7927 49.1612 58.3237 49.706 57.9217 50.287C56.6162 52.1617 55.8489 54.5592 55.5787 57.6165Z" fill="#F9E9CF"/>
<path opacity="0.57" d="M61.628 47.2598L61.633 47.4103C60.1245 49.353 58.654 51.627 58.3755 54.1938C58.3018 54.8838 58.3133 55.5868 58.328 56.27C58.336 56.745 58.3446 57.2393 58.3218 57.723C58.3141 57.955 58.2943 58.1798 58.2705 58.393C58.2365 58.4173 58.1988 58.4418 58.1646 58.4623C58.1953 58.2255 58.2143 57.9778 58.225 57.7185C58.2478 57.2388 58.2395 56.7483 58.2315 56.2733C58.2165 55.586 58.2051 54.8795 58.2788 54.1855C58.5666 51.5488 60.0933 49.2268 61.628 47.2598Z" fill="#F9E9CF"/>
<path d="M106.155 28.1263L104.042 28.4118L103.53 28.4801L102.148 28.6696L101.642 28.7376L32.2966 38.1458L32.2714 37.6893L32.2339 36.8631L101.489 25.0523L102.001 24.9686L103.381 24.7328L103.897 24.6441L105.992 24.2871L117.164 24.1223L106.155 28.1263Z" fill="#FCC07B"/>
<path d="M104.042 28.4118L103.53 28.48C103.469 27.233 103.422 25.9805 103.381 24.7328L103.897 24.6438C103.933 25.902 103.98 27.1598 104.042 28.4118Z" fill="#723E01"/>
<path d="M102.148 28.6695L101.642 28.7375C101.576 27.5113 101.53 26.2793 101.49 25.052L102.001 24.9683C102.041 26.2058 102.087 27.443 102.148 28.6695Z" fill="#723E01"/>
<path d="M125.482 20.9656L125.644 23.6676L125.747 25.4698L106.156 28.1283C106.08 26.8491 106.028 25.5653 105.992 24.2863L125.482 20.9656Z" fill="#723E01"/>
<path opacity="0.2" d="M125.644 23.6676L125.747 25.4699L32.2947 38.1461L32.272 37.6911L125.644 23.6676Z" fill="#380E0E"/>
<path d="M104.354 69.0546L102.226 68.9089L101.711 68.8744L100.32 68.7764L99.8101 68.7416L29.9961 63.9176L30.0008 64.3751L30.0178 65.2019L99.9006 72.4291L100.416 72.4789L101.809 72.6231L102.33 72.6781L104.444 72.8961L112.079 72.2231L104.354 69.0546Z" fill="#FCC07B"/>
<path d="M102.226 68.9088L101.711 68.8743C101.731 70.1225 101.768 71.3755 101.809 72.623L102.33 72.6778C102.283 71.4203 102.247 70.1623 102.226 68.9088Z" fill="#723E01"/>
<path d="M100.32 68.7763L99.8101 68.7416C99.8248 69.9696 99.8603 71.2018 99.9008 72.4291L100.416 72.4788C100.376 71.2416 100.34 70.0041 100.32 68.7763Z" fill="#723E01"/>
<path d="M124.11 74.9279L124.094 72.2211L124.078 70.4159L104.354 69.0526C104.363 70.3341 104.395 71.6184 104.443 72.8969L124.11 74.9279Z" fill="#723E01"/>
<path opacity="0.2" d="M124.094 72.2209L124.079 70.4159L29.9941 63.9176L30.0014 64.3731L124.094 72.2209Z" fill="#380E0E"/>
<path d="M102.113 59.0581C101.504 58.5913 101.411 57.7189 101.431 56.9519C101.477 55.1676 101.865 53.3774 102.694 51.7966C103.523 50.2161 104.807 48.8541 106.405 48.0583C106.91 49.9966 106.793 51.8996 106.3 53.8409C105.777 55.8979 103.983 58.0551 102.113 59.0581Z" fill="#ADA04F"/>
<path d="M105.486 95.8091C105.576 96.5711 105.016 97.2461 104.452 97.7668C103.141 98.9783 101.587 99.9483 99.8764 100.456C98.1654 100.964 96.2939 100.993 94.6094 100.403C95.6461 98.6893 97.0921 97.4463 98.8276 96.4463C100.667 95.3871 103.463 95.1681 105.486 95.8091Z" fill="#ADA04F"/>
<path d="M76.4707 34.2923C77.0859 34.1723 78.2512 34.8568 79.0162 35.3406C80.5247 36.2946 81.5567 37.8213 82.3334 39.4283C83.1099 41.0353 83.4397 42.8778 83.1284 44.6353C81.2702 43.8878 79.8107 42.6608 78.5444 41.1086C77.2029 39.4643 76.1637 36.3921 76.4707 34.2923Z" fill="#ADA04F"/>
<path d="M25.8545 64.678C26.4592 64.206 27.327 64.3353 28.0645 64.5468C29.78 65.0393 31.4152 65.865 32.7367 67.0645C34.0582 68.264 35.0535 69.8495 35.4222 71.5958C33.4192 71.5978 31.6067 71.006 29.8517 70.0408C27.9927 69.018 26.3555 66.74 25.8545 64.678Z" fill="#ADA04F"/>
<path d="M85.7067 61.4453C85.5422 61.4453 85.4087 61.3118 85.4087 61.1473V50.3676C85.4087 50.2031 85.5422 50.0696 85.7067 50.0696C85.8712 50.0696 86.0047 50.2031 86.0047 50.3676V61.1473C86.0047 61.3121 85.8712 61.4453 85.7067 61.4453Z" fill="white"/>
<path d="M90.4148 56.1476H80.9005C80.736 56.1476 80.6025 56.0141 80.6025 55.8496C80.6025 55.6851 80.736 55.5516 80.9005 55.5516H90.4148C90.5793 55.5516 90.7128 55.6851 90.7128 55.8496C90.7128 56.0141 90.5793 56.1476 90.4148 56.1476Z" fill="white"/>
<path d="M83.3038 59.4523C83.2415 59.4523 83.1785 59.4328 83.1248 59.3923C82.9933 59.2933 82.9668 59.1066 83.0658 58.9751L87.8228 52.6541C87.9215 52.5223 88.108 52.4956 88.24 52.5951C88.3715 52.6941 88.398 52.8808 88.299 53.0123L83.542 59.3333C83.4835 59.4111 83.394 59.4523 83.3038 59.4523Z" fill="white"/>
<path d="M88.6243 58.6391C88.5561 58.6391 88.4871 58.6156 88.4311 58.5676L82.4726 53.4794C82.3476 53.3726 82.3326 53.1844 82.4396 53.0591C82.5463 52.9339 82.7341 52.9191 82.8598 53.0261L88.8183 58.1144C88.9433 58.2211 88.9583 58.4094 88.8513 58.5346C88.7921 58.6036 88.7083 58.6391 88.6243 58.6391Z" fill="white"/>
<path d="M113.137 91.963C112.972 91.963 112.839 91.8295 112.839 91.665V80.885C112.839 80.7205 112.972 80.587 113.137 80.587C113.301 80.587 113.435 80.7205 113.435 80.885V91.665C113.435 91.8295 113.301 91.963 113.137 91.963Z" fill="white"/>
<path d="M117.845 86.6648H108.331C108.166 86.6648 108.033 86.5314 108.033 86.3669C108.033 86.2024 108.166 86.0688 108.331 86.0688H117.845C118.009 86.0688 118.143 86.2024 118.143 86.3669C118.143 86.5316 118.009 86.6648 117.845 86.6648Z" fill="white"/>
<path d="M110.734 89.9698C110.672 89.9698 110.609 89.9503 110.555 89.9098C110.423 89.8108 110.397 89.6241 110.496 89.4926L115.253 83.1713C115.352 83.0396 115.538 83.0128 115.67 83.1123C115.802 83.2113 115.828 83.3981 115.729 83.5296L110.972 89.8508C110.914 89.9288 110.824 89.9698 110.734 89.9698Z" fill="white"/>
<path d="M116.055 89.1566C115.987 89.1566 115.918 89.1331 115.862 89.0853L109.903 83.9971C109.778 83.8903 109.763 83.7021 109.87 83.5768C109.977 83.4516 110.164 83.4368 110.29 83.5438L116.249 88.6321C116.374 88.7388 116.389 88.9271 116.282 89.0523C116.223 89.1211 116.139 89.1566 116.055 89.1566Z" fill="white"/>
<path d="M15.9443 88.0156C15.785 88.0156 15.6562 87.8866 15.6562 87.7276V77.3056C15.6562 77.1463 15.7853 77.0176 15.9443 77.0176C16.1033 77.0176 16.2323 77.1466 16.2323 77.3056V87.7276C16.2325 87.8866 16.1035 88.0156 15.9443 88.0156Z" fill="white"/>
<path d="M20.4958 82.8931H11.2978C11.1385 82.8931 11.0098 82.7641 11.0098 82.6051C11.0098 82.4461 11.1388 82.3171 11.2978 82.3171H20.496C20.6553 82.3171 20.784 82.4461 20.784 82.6051C20.784 82.7641 20.655 82.8931 20.4958 82.8931Z" fill="white"/>
<path d="M13.621 86.0884C13.5607 86.0884 13.4997 86.0696 13.448 86.0304C13.3207 85.9349 13.2952 85.7541 13.391 85.6269L17.9897 79.5156C18.0852 79.3884 18.2662 79.3631 18.3932 79.4586C18.5205 79.5541 18.546 79.7349 18.4502 79.8621L13.8515 85.9734C13.795 86.0489 13.7085 86.0884 13.621 86.0884Z" fill="white"/>
<path d="M18.7649 85.3021C18.6986 85.3021 18.6324 85.2793 18.5779 85.2331L12.8174 80.3138C12.6964 80.2103 12.6819 80.0286 12.7854 79.9076C12.8889 79.7868 13.0706 79.7726 13.1916 79.8756L18.9521 84.7948C19.0731 84.8983 19.0876 85.0801 18.9841 85.2011C18.9271 85.2676 18.8464 85.3021 18.7649 85.3021Z" fill="white"/>
<path d="M98.1835 39.6283C98.1835 40.6663 97.3421 41.5078 96.3041 41.5078C95.2661 41.5078 94.4248 40.6663 94.4248 39.6283C94.4248 38.5903 95.2663 37.7488 96.3041 37.7488C97.3421 37.7488 98.1835 38.5903 98.1835 39.6283Z" fill="white"/>
<path d="M111.406 63.5903C111.406 64.6283 110.565 65.4698 109.527 65.4698C108.489 65.4698 107.647 64.6283 107.647 63.5903C107.647 62.5523 108.489 61.7111 109.527 61.7111C110.565 61.7111 111.406 62.5523 111.406 63.5903Z" fill="white"/>
<path d="M64.2517 72.844C64.9857 73.578 64.9857 74.768 64.2517 75.5018C63.5177 76.2358 62.328 76.2358 61.594 75.5018C60.86 74.7678 60.86 73.578 61.594 72.844C62.3277 72.1103 63.5177 72.1103 64.2517 72.844Z" fill="white"/>
<path d="M40.6252 99.2898C41.3592 100.024 41.3592 101.214 40.6252 101.948C39.8912 102.682 38.7012 102.682 37.9675 101.948C37.2335 101.214 37.2335 100.024 37.9675 99.2898C38.7012 98.5558 39.8912 98.5558 40.6252 99.2898Z" fill="white"/>
</g>
<defs>
<clipPath id="clip0_5_30173">
<rect width="128" height="128" fill="white"/>
</clipPath>
</defs>
</svg>
