<svg width="128" height="128" viewBox="0 0 128 128" fill="none" xmlns="http://www.w3.org/2000/svg">
<g clip-path="url(#clip0_5_30159)">
<path d="M64.1725 106.987C52.1013 106.987 39.622 106.096 27.0808 104.339C26.3035 104.229 25.527 104.116 24.7523 103.997C24.6513 104 24.5508 104.001 24.4498 104.001C24.3418 104.001 24.234 104 24.126 103.996C23.355 103.967 22.5728 103.87 21.8005 103.707C21.7668 103.7 21.7333 103.692 21.6995 103.684C21.5268 103.646 21.353 103.602 21.185 103.556C20.7668 103.45 20.3463 103.325 19.909 103.173C13.6568 101.989 8.57051 100.5 3.91801 98.4923C1.86726 97.6066 0.442258 95.7518 0.198758 93.6521C-0.555242 87.1716 0.850758 80.4013 4.16551 74.4736C4.04626 74.0671 3.83626 73.5908 3.61801 73.0956C3.10051 71.9206 2.45701 70.4586 2.46101 68.7113C2.46101 65.5991 4.58751 62.6448 8.14876 60.8158C8.92951 60.4153 9.70401 60.0851 10.4535 59.7658C11.3605 59.3791 12.2315 59.0078 12.9623 58.5681C13.2083 56.8308 13.9148 55.1898 15.021 53.8283C15.8855 52.7633 16.9798 51.8933 18.2243 51.2756C18.7075 50.5943 19.1853 50.0181 19.6958 49.4991C21.4683 47.6988 23.8378 46.4686 26.3535 46.0121C27.124 45.0966 27.98 44.2583 28.9108 43.5063C33.997 35.8651 41.7583 29.5586 50.8213 25.7146C58.176 22.5951 66.3003 21.0133 74.9683 21.0133C77.7058 21.0133 80.4928 21.1773 83.2515 21.5008C91.0228 22.4116 97.687 24.5033 103.059 27.7181C108.177 30.7811 112.491 35.0671 115.534 40.1126C116.78 42.1793 117.84 44.4006 118.749 46.8596C119.482 46.9923 120.147 47.1571 120.765 47.3191C120.86 47.3418 120.957 47.3666 121.058 47.3928C121.905 47.6131 122.635 48.1918 123.028 48.9733C123.422 49.7546 123.48 50.6726 123.153 51.4841L123.104 51.6023C122.697 52.5776 122.213 53.5173 121.664 54.3983C121.606 54.4968 121.546 54.5903 121.485 54.6826C121.365 54.8718 121.238 55.0643 121.095 55.2683C121.786 58.6513 122.219 61.9593 122.527 64.5476C122.685 65.8711 122.837 67.2593 122.989 68.7541C123.729 69.0555 124.49 69.5191 125.122 70.2296C126.771 71.0253 127.9 72.6868 127.962 74.5961L127.997 75.7006C128.058 77.5716 127.054 79.2986 125.489 80.2126L124.269 89.2801C124.312 91.1535 124.334 92.7116 124.34 94.1663C124.345 95.6408 123.78 97.0593 122.768 98.1648C121.915 99.8076 120.224 100.86 118.315 100.86H116.489C100.179 104.925 82.5788 106.987 64.1725 106.987Z" fill="white"/>
<path d="M119.139 97.0993C120.577 96.714 121.562 95.5165 121.557 94.1773C121.52 84.3968 120.922 74.6198 119.766 64.9068C118.81 56.8685 117.395 48.6593 113.188 41.6843C110.405 37.0693 106.443 33.1335 101.756 30.3288C96.1698 26.9855 89.6753 25.2863 83.1568 24.5223C72.7283 23.2998 61.907 24.4273 52.268 28.5155C42.629 32.6038 34.2475 39.7528 29.523 48.8863C27.1828 53.4105 25.629 58.5223 21.8498 62.0098C20.0068 63.7105 17.7455 64.9085 15.6845 66.3533C7.09175 72.376 2.29325 83.105 3.47925 93.3015C3.60025 94.3423 4.32975 95.245 5.382 95.699C12.4615 98.754 20.0578 100.246 27.7623 101.326C58.0055 105.564 89.6497 105.002 119.139 97.0993Z" fill="#D9CE89"/>
<path d="M108.97 75.9837C108.742 76.6377 108.412 77.2563 108.063 77.8698C107.586 78.7113 107.084 79.5327 106.77 80.4047C106.572 80.9422 106.45 81.505 106.456 82.098C106.476 84.1512 108.068 86.1438 107.419 88.0855C107.323 88.3695 107.191 88.623 107.023 88.851C106.537 89.5305 105.781 89.9868 104.935 90.306C104.205 90.59 103.398 90.7622 102.648 90.889C100.498 91.249 98.344 91.5532 96.179 91.8067C92.9495 92.187 89.7097 92.4507 86.465 92.628C69.8255 93.5557 53.0085 92.2528 36.3032 92.5925C29.0177 92.7395 21.6157 93.2212 14.4062 91.908C13.1085 91.6747 11.9067 91.3705 10.837 90.9295C10.6697 90.8585 10.5025 90.7875 10.34 90.7065C9.86348 90.4835 9.41723 90.2248 9.00648 89.9258C8.92548 89.87 8.84423 89.804 8.76323 89.7432C8.66698 89.6672 8.57048 89.5912 8.47923 89.505C8.29173 89.3427 8.10923 89.1653 7.94698 88.9778C7.87098 88.9018 7.80498 88.8257 7.73898 88.7445C7.69323 88.6887 7.64773 88.633 7.60723 88.572C7.51098 88.4555 7.42473 88.3288 7.33848 88.202V88.197C7.13073 87.8827 6.94298 87.543 6.79098 87.178C6.75548 87.1173 6.73023 87.0512 6.70473 86.9802C6.64398 86.8432 6.59323 86.7015 6.54748 86.5595C6.49673 86.4228 6.45623 86.2807 6.41573 86.1387C6.30923 85.794 6.23323 85.424 6.16723 85.0385C5.90873 83.4212 5.85298 81.7025 6.20773 80.0953C6.59298 78.336 7.65273 76.6832 7.56148 74.8327C7.45498 72.6932 5.75648 70.858 5.76173 68.7185C5.76173 66.4067 7.74398 64.5765 9.79748 63.5217C11.8507 62.4672 14.1677 61.8385 15.9422 60.3632C16.0182 60.3025 16.0942 60.2365 16.1652 60.1705C18.097 58.4365 19.111 55.9117 20.5152 53.7062V53.7012C20.9917 52.961 21.509 52.2563 22.1225 51.6328C23.7245 50.0053 25.9502 49.0167 28.2267 48.8747C28.6425 48.8495 29.0632 48.8495 29.484 48.885C29.778 48.9102 30.0772 48.9457 30.3662 48.9965C30.9392 49.0877 31.502 49.2195 32.0647 49.3615C32.668 49.5085 33.2662 49.6708 33.8645 49.8128C34.0722 49.8635 34.2752 49.909 34.483 49.9445C35.0862 50.0712 35.6897 50.1575 36.298 50.1727C36.6122 50.1827 36.9317 50.1777 37.2512 50.1422C37.6517 50.1017 38.037 50.0205 38.4122 49.909C39.3247 49.6555 40.1817 49.2245 41.013 48.7075C41.2412 48.5655 41.4692 48.4135 41.6975 48.2562C42.752 47.5312 43.771 46.6947 44.8105 45.9392C45.1907 45.6602 45.576 45.3917 45.9615 45.1432C46.6002 44.7377 47.2542 44.3828 47.9337 44.1193C47.9387 44.1193 47.9387 44.1193 47.9387 44.1193C48.6485 43.8405 49.3837 43.663 50.1695 43.6275C52.7755 43.5107 55.2292 45.0522 57.8352 45.0167C59.4372 44.9915 60.9635 44.378 62.4895 43.8912C65.5567 42.928 68.8775 42.492 72.0107 43.222C73.3237 43.5262 74.6015 44.0635 75.737 44.7988C77.3137 45.8128 78.6217 47.217 79.3772 48.9257C79.7827 49.8382 80.0515 50.8575 80.3862 51.8155C80.807 53.022 81.3292 54.1425 82.3482 54.8675C83.0125 55.339 83.7475 55.552 84.5282 55.623C84.5282 55.623 84.5282 55.618 84.5332 55.623C84.665 55.6383 84.7917 55.6432 84.9237 55.6482C85.5727 55.6685 86.247 55.6128 86.9365 55.5265C87.5855 55.4505 88.2445 55.3542 88.8985 55.2982C89.4055 55.2527 89.9125 55.2273 90.4092 55.2475C90.6172 55.2578 90.82 55.2727 91.0227 55.3032C92.5742 55.5162 94.0342 56.2512 95.17 57.3312C96.032 58.1525 96.7062 59.1665 97.0812 60.3022C97.1675 60.566 97.2385 60.8345 97.2992 61.1085C97.5982 62.3355 97.7455 63.6332 98.3385 64.6777C98.4957 64.9567 98.6832 65.2153 98.9165 65.4485C99.8442 66.4018 101.162 66.6702 102.511 66.9088C102.856 66.9695 103.205 67.0305 103.55 67.0963C103.971 67.1825 104.382 67.2787 104.772 67.4105C105.005 67.4865 105.233 67.5777 105.451 67.6892C105.913 67.9022 106.339 68.181 106.729 68.5005C108.854 70.2548 109.893 73.3575 108.97 75.9837Z" fill="#ADA04F"/>
<path d="M108.97 75.9837C108.742 76.6377 108.412 77.2563 108.063 77.8698C107.586 78.7113 107.084 79.5327 106.77 80.4047C106.572 80.9422 106.45 81.505 106.456 82.098C106.476 84.1512 108.068 86.1438 107.419 88.0855C107.323 88.3695 107.191 88.623 107.023 88.851C106.537 89.5305 105.781 89.9868 104.935 90.306C104.205 90.59 103.398 90.7622 102.648 90.889C100.498 91.249 98.344 91.5532 96.179 91.8067C92.9495 92.187 89.7097 92.4507 86.465 92.628C69.8255 93.5557 53.0085 92.2528 36.3032 92.5925C29.0177 92.7395 21.6157 93.2212 14.4062 91.908C13.1085 91.6747 11.9067 91.3705 10.837 90.9295C10.6697 90.8585 10.5025 90.7875 10.34 90.7065C9.86348 90.4835 9.41723 90.2248 9.00648 89.9258C8.92548 89.87 8.84423 89.804 8.76323 89.7432C8.66698 89.6672 8.57048 89.5912 8.47923 89.505C8.29173 89.3427 8.10923 89.1653 7.94698 88.9778C7.87098 88.9018 7.80498 88.8257 7.73898 88.7445C7.69323 88.6887 7.64773 88.633 7.60723 88.572C7.51098 88.4555 7.42473 88.3288 7.33848 88.202V88.197C7.13073 87.8827 6.94298 87.543 6.79098 87.178C6.75548 87.1173 6.73023 87.0512 6.70473 86.9802C6.64398 86.8432 6.59323 86.7015 6.54748 86.5595C6.49673 86.4228 6.45623 86.2807 6.41573 86.1387C6.30923 85.794 6.23323 85.424 6.16723 85.0385C5.90873 83.4212 5.85298 81.7025 6.20773 80.0953C6.59298 78.336 7.65273 76.6832 7.56148 74.8327C7.45498 72.6932 5.75648 70.858 5.76173 68.7185C5.76173 66.4067 7.74398 64.5765 9.79748 63.5217C11.8507 62.4672 14.1677 61.8385 15.9422 60.3632C16.0182 60.3025 16.0942 60.2365 16.1652 60.1705C18.097 58.4365 19.111 55.9117 20.5152 53.7062V53.7012C20.9917 52.961 21.509 52.2563 22.1225 51.6328C23.7245 50.0053 25.9502 49.0167 28.2267 48.8747C28.6425 48.8495 29.0632 48.8495 29.484 48.885C29.778 48.9102 30.0772 48.9457 30.3662 48.9965C30.9392 49.0877 31.502 49.2195 32.0647 49.3615C32.668 49.5085 33.2662 49.6708 33.8645 49.8128C34.0722 49.8635 34.2752 49.909 34.483 49.9445C35.0862 50.0712 35.6897 50.1575 36.298 50.1727C36.6122 50.1827 36.9317 50.1777 37.2512 50.1422C37.6517 50.1017 38.037 50.0205 38.4122 49.909C39.3247 49.6555 40.1817 49.2245 41.013 48.7075C41.2412 48.5655 41.4692 48.4135 41.6975 48.2562C42.752 47.5312 43.771 46.6947 44.8105 45.9392C45.1907 45.6602 45.576 45.3917 45.9615 45.1432C46.6002 44.7377 47.2542 44.3828 47.9337 44.1193C47.9387 44.1193 47.9387 44.1193 47.9387 44.1193C48.6485 43.8405 49.3837 43.663 50.1695 43.6275C52.7755 43.5107 55.2292 45.0522 57.8352 45.0167C59.4372 44.9915 60.9635 44.378 62.4895 43.8912C65.5567 42.928 68.8775 42.492 72.0107 43.222C73.3237 43.5262 74.6015 44.0635 75.737 44.7988C77.3137 45.8128 78.6217 47.217 79.3772 48.9257C79.7827 49.8382 80.0515 50.8575 80.3862 51.8155C80.807 53.022 81.3292 54.1425 82.3482 54.8675C83.0125 55.339 83.7475 55.552 84.5282 55.623C84.5282 55.623 84.5282 55.618 84.5332 55.623C84.665 55.6383 84.7917 55.6432 84.9237 55.6482C85.5727 55.6685 86.247 55.6128 86.9365 55.5265C87.5855 55.4505 88.2445 55.3542 88.8985 55.2982C89.4055 55.2527 89.9125 55.2273 90.4092 55.2475C90.6172 55.2578 90.82 55.2727 91.0227 55.3032C92.5742 55.5162 94.0342 56.2512 95.17 57.3312C96.032 58.1525 96.7062 59.1665 97.0812 60.3022C97.1675 60.566 97.2385 60.8345 97.2992 61.1085C97.5982 62.3355 97.7455 63.6332 98.3385 64.6777C98.4957 64.9567 98.6832 65.2153 98.9165 65.4485C99.8442 66.4018 101.162 66.6702 102.511 66.9088C102.856 66.9695 103.205 67.0305 103.55 67.0963C103.971 67.1825 104.382 67.2787 104.772 67.4105C105.005 67.4865 105.233 67.5777 105.451 67.6892C105.913 67.9022 106.339 68.181 106.729 68.5005C108.854 70.2548 109.893 73.3575 108.97 75.9837Z" fill="#ADA04F"/>
<path d="M107.419 88.0856C107.322 88.3696 107.19 88.6231 107.023 88.8511C106.536 89.5306 105.781 89.9868 104.934 90.3061C104.204 90.5901 103.398 90.7623 102.648 90.8891C100.498 91.2491 98.3437 91.5533 96.1787 91.8068C96.199 91.2491 96.2295 90.6916 96.27 90.1338C96.3967 88.1566 96.6097 86.1893 96.843 84.2223C96.9242 83.5176 97.0102 82.8078 97.0965 82.0981C97.2587 80.7798 97.421 79.4616 97.568 78.1436C97.6847 77.0738 97.791 75.9991 97.8722 74.9293C97.923 74.2906 97.9737 72.8913 98.2017 71.6796C98.2372 71.4818 98.2777 71.2893 98.3235 71.1066C98.572 70.1181 98.9725 69.3981 99.6417 69.6058C99.8395 69.6566 100.067 69.7986 100.321 70.0521C100.321 70.0571 100.326 70.0571 100.326 70.0571C100.453 70.1788 100.59 70.3361 100.737 70.5183C100.965 70.8073 101.188 71.0963 101.401 71.3903C101.888 72.0393 102.349 72.7033 102.795 73.3828C102.973 73.6466 103.145 73.9151 103.313 74.1838C103.713 74.8176 104.104 75.4616 104.479 76.1156C104.869 76.7848 105.244 77.4641 105.609 78.1436C106.01 78.8938 106.395 79.6493 106.77 80.4048C106.572 80.9423 106.451 81.5051 106.456 82.0981C106.476 84.1513 108.067 86.1438 107.419 88.0856Z" fill="#380E0E"/>
<path d="M20.4556 60.5326C18.7216 63.4811 17.8393 66.3208 16.8183 69.5896C14.6131 76.6406 12.6191 83.7581 10.8368 90.9298C8.70406 90.0476 7.11506 88.6278 6.41406 86.1386C8.89706 76.6283 13.7548 67.7346 20.4556 60.5326Z" fill="#380E0E"/>
<path d="M42.2136 53.755C41.5763 51.245 38.4548 49.712 36.0791 50.7425C34.0758 49.5652 31.3031 49.9005 29.6381 51.5212C27.3618 49.9527 23.7941 50.844 22.5228 53.2987C20.6481 53.375 18.8231 54.2897 17.6403 55.7462C16.4576 57.2027 15.9366 59.1765 16.2463 61.027C14.5413 61.545 13.2851 63.2747 13.3203 65.0565C13.3331 65.6997 13.4913 66.3725 13.2468 66.9677C13.0996 67.326 12.8218 67.6112 12.5851 67.9177C11.4498 69.3887 11.2748 71.5365 12.1571 73.1717C23.1691 69.7232 33.4166 63.011 40.5598 53.9485L42.2136 53.755Z" fill="#723E01"/>
<path d="M92.6242 63.1346C94.2339 61.1061 93.5604 57.6943 91.3007 56.4298C91.0222 54.1231 89.0747 52.1214 86.7762 51.7799C86.6437 49.0186 83.7717 46.7216 81.0489 47.1991C79.8517 45.7544 78.0177 44.8579 76.1424 44.8004C74.2669 44.7426 72.3814 45.5251 71.0979 46.8933C69.6524 45.8516 67.5149 45.9014 66.1197 47.0094C65.6159 47.4094 65.1769 47.9434 64.5552 48.1096C64.1812 48.2096 63.7859 48.1618 63.3987 48.1593C61.5404 48.1483 59.7264 49.3113 58.9609 51.0043C68.3797 57.6708 79.9307 61.7506 91.4684 61.9366L92.6242 63.1346Z" fill="#723E01"/>
<path d="M51.8742 69.0187C57.9587 62.9342 57.9587 53.0692 51.8742 46.9847C45.7897 40.9002 35.9247 40.9002 29.8402 46.9847C23.7557 53.0692 23.7557 62.9342 29.8402 69.0187C35.9247 75.1032 45.7897 75.1032 51.8742 69.0187Z" fill="#F95438"/>
<path d="M40.858 71.9851C33.1477 71.9851 26.875 65.7123 26.875 58.0018C26.875 50.2916 33.1477 44.0186 40.858 44.0186C48.5682 44.0186 54.8413 50.2913 54.8413 58.0018C54.8413 65.7123 48.5682 71.9851 40.858 71.9851ZM40.858 44.3206C33.3145 44.3206 27.177 50.4578 27.177 58.0018C27.177 65.5458 33.3142 71.6833 40.858 71.6833C48.402 71.6833 54.5395 65.5458 54.5395 58.0018C54.5395 50.4578 48.402 44.3206 40.858 44.3206Z" fill="#F9E9CF"/>
<path d="M41.2117 57.5798C41.2104 57.5798 41.2092 57.5796 41.2074 57.5796C41.1422 57.5778 41.0839 57.5366 41.0612 57.4751L36.7292 45.8636C36.7134 45.8223 36.7157 45.7763 36.7349 45.7368C36.7544 45.6973 36.7889 45.6673 36.8312 45.6538C36.8817 45.6378 42.0064 44.0488 46.0392 46.3421C46.1104 46.3828 46.1397 46.4706 46.1072 46.5458L41.3597 57.4828C41.3334 57.5416 41.2754 57.5798 41.2117 57.5798ZM37.0909 45.9136L41.2227 56.9886L45.7532 46.5513C42.2662 44.6513 37.9739 45.6718 37.0909 45.9136Z" fill="#F9E9CF"/>
<path d="M41.527 70.8548C39.9093 70.8548 38.0318 70.5751 36.3448 69.6158C36.2735 69.5751 36.2443 69.4873 36.277 69.4121L41.0245 58.4751C41.0503 58.4161 41.108 58.3781 41.172 58.3781C41.1733 58.3781 41.1745 58.3783 41.1763 58.3783C41.2415 58.3801 41.2998 58.4213 41.3225 58.4828L45.6545 70.0946C45.6703 70.1358 45.668 70.1818 45.6488 70.2213C45.6293 70.2608 45.5948 70.2908 45.5525 70.3043C45.5233 70.3133 43.7763 70.8548 41.527 70.8548ZM36.6303 69.4063C40.1185 71.3073 44.4103 70.2861 45.2925 70.0443L41.1608 58.9691L36.6303 69.4063Z" fill="#F9E9CF"/>
<path d="M41.6717 57.8486C41.6169 57.8486 41.5647 57.8203 41.5349 57.7723C41.5002 57.7166 41.5032 57.6453 41.5419 57.5923L48.8637 47.5928C48.8894 47.5573 48.9289 47.5341 48.9729 47.5283C49.0152 47.5216 49.0609 47.5353 49.0947 47.5626C49.1364 47.5966 53.2792 51.0051 53.5789 55.6343C53.5842 55.7163 53.5267 55.7893 53.4457 55.8033L41.6989 57.8458C41.6899 57.8478 41.6807 57.8486 41.6717 57.8486ZM49.0207 47.9233L42.0372 57.4606L53.2474 55.5116C52.9184 51.5526 49.7074 48.5281 49.0207 47.9233Z" fill="#F9E9CF"/>
<path d="M33.3917 68.4305C33.3552 68.4305 33.319 68.418 33.2902 68.3945C33.2485 68.3605 29.1057 64.9518 28.806 60.3228C28.8007 60.2408 28.8582 60.1678 28.9392 60.1538L40.686 58.1113C40.75 58.1013 40.8152 58.129 40.85 58.185C40.8847 58.2408 40.8817 58.312 40.843 58.365L33.5212 68.3645C33.4955 68.4 33.456 68.4233 33.412 68.429C33.4057 68.4303 33.3987 68.4305 33.3917 68.4305ZM29.1377 60.4463C29.4667 64.405 32.6777 67.43 33.3645 68.0345L40.348 58.4973L29.1377 60.4463Z" fill="#F9E9CF"/>
<path d="M49.4859 67.4208C49.4406 67.4208 49.3959 67.4016 49.3641 67.3651L41.5674 58.3448C41.5246 58.2951 41.5161 58.2243 41.5461 58.1661C41.5761 58.1081 41.6361 58.0738 41.7041 58.0793L54.0459 59.2103C54.0899 59.2143 54.1299 59.2361 54.1574 59.2706C54.1849 59.3051 54.1966 59.3493 54.1904 59.3931C54.1829 59.4463 53.3924 64.7523 49.5776 67.3921C49.5494 67.4113 49.5176 67.4208 49.4859 67.4208ZM42.0714 58.4363L49.5124 67.0443C52.7374 64.7251 53.6781 60.4151 53.8431 59.5151L42.0714 58.4363Z" fill="#F9E9CF"/>
<path d="M40.696 57.8793C40.6912 57.8793 40.6865 57.879 40.6813 57.8785L28.3395 56.7473C28.2955 56.7433 28.2555 56.7215 28.228 56.687C28.2005 56.6525 28.1887 56.6083 28.195 56.5645C28.2025 56.5113 28.993 51.2055 32.8077 48.5658C32.8752 48.519 32.9665 48.5305 33.021 48.5928L40.8177 57.613C40.8605 57.6628 40.869 57.7335 40.839 57.7918C40.8115 57.8458 40.7562 57.8793 40.696 57.8793ZM28.542 56.4428L40.3138 57.5215L32.8727 48.9135C29.645 51.2345 28.7065 55.543 28.542 56.4428Z" fill="#F9E9CF"/>
<path d="M25.2836 56.7198C25.3711 55.2928 25.7146 53.8818 26.2931 52.5743C34.0304 49.8336 41.9801 47.5521 50.1864 47.3718C42.9949 50.2001 35.8799 53.2233 28.8516 56.4353C27.9781 56.8346 27.1001 57.2388 26.1696 57.4768C26.1156 57.1233 25.2616 57.0768 25.2836 56.7198Z" fill="#380E0E"/>
<path d="M105.649 70.1888C105.649 72.2878 105.233 74.2853 104.478 76.1155C104.3 76.5515 104.103 76.9825 103.885 77.3983C102.333 80.359 99.859 82.7623 96.8425 84.2223C94.7943 85.2108 92.4925 85.7685 90.064 85.7685C87.5798 85.7685 85.2273 85.1855 83.1435 84.1513V84.1463C78.0128 81.6013 74.4893 76.303 74.4893 70.1888C74.4893 66.3205 75.8988 62.7818 78.2308 60.059C79.909 58.097 82.0688 56.5558 84.5275 55.6228C84.5275 55.6228 84.5275 55.6178 84.5325 55.6228C84.6188 55.5873 84.705 55.5518 84.7963 55.5213C85.2728 55.349 85.7648 55.2018 86.2615 55.0803C86.9258 54.908 87.6103 54.7863 88.3048 54.7103C88.8878 54.6393 89.4708 54.6038 90.064 54.6038C90.282 54.6038 90.5 54.6088 90.713 54.619C97.5118 54.8978 103.18 59.5268 105.015 65.793H105.02C105.203 66.4115 105.345 67.0453 105.451 67.6893C105.583 68.5055 105.649 69.337 105.649 70.1888Z" fill="#F95438"/>
<path d="M90.0672 84.1718C82.357 84.1718 76.084 77.8991 76.084 70.1886C76.084 62.4783 82.357 56.2053 90.0672 56.2053C97.7775 56.2053 104.05 62.4781 104.05 70.1886C104.05 77.8991 97.7775 84.1718 90.0672 84.1718ZM90.0672 56.5073C82.5232 56.5073 76.3857 62.6446 76.3857 70.1886C76.3857 77.7326 82.523 83.8701 90.0672 83.8701C97.6112 83.8701 103.748 77.7326 103.748 70.1886C103.748 62.6446 97.6112 56.5073 90.0672 56.5073Z" fill="#F9E9CF"/>
<path d="M90.4204 69.7665C90.4192 69.7665 90.4179 69.7663 90.4162 69.7663C90.3509 69.7645 90.2927 69.7233 90.2699 69.6615L85.9382 58.05C85.9224 58.009 85.9247 57.963 85.9439 57.9235C85.9634 57.884 85.9979 57.854 86.0402 57.8405C86.0912 57.824 91.2159 56.2355 95.2482 58.5288C95.3194 58.5695 95.3487 58.6573 95.3162 58.7328L90.5682 69.6698C90.5422 69.7283 90.4844 69.7665 90.4204 69.7665ZM86.3002 58.1005L90.4317 69.1753L94.9627 58.738C91.4747 56.8375 87.1832 57.8585 86.3002 58.1005Z" fill="#F9E9CF"/>
<path d="M90.7361 83.0416C89.1184 83.0416 87.2409 82.7618 85.5539 81.8026C85.4826 81.7618 85.4534 81.6741 85.4859 81.5988L90.2334 70.6621C90.2591 70.6031 90.3169 70.5651 90.3809 70.5651C90.3821 70.5651 90.3834 70.5653 90.3851 70.5653C90.4504 70.5671 90.5086 70.6083 90.5314 70.6698L94.8634 82.2813C94.8791 82.3226 94.8769 82.3686 94.8576 82.4081C94.8381 82.4476 94.8036 82.4776 94.7614 82.4911C94.7324 82.5001 92.9854 83.0416 90.7361 83.0416ZM85.8394 81.5931C89.3276 83.4941 93.6194 82.4728 94.5016 82.2311L90.3699 71.1561L85.8394 81.5931Z" fill="#F9E9CF"/>
<path d="M90.8807 70.0353C90.8259 70.0353 90.7737 70.007 90.7439 69.959C90.7092 69.9033 90.7122 69.832 90.7509 69.779L98.0727 59.7795C98.0984 59.744 98.1379 59.7208 98.1819 59.715C98.2229 59.7088 98.2699 59.7218 98.3037 59.7493C98.3454 59.7833 102.488 63.1918 102.788 67.821C102.793 67.903 102.735 67.976 102.654 67.99L90.9079 70.0325C90.8989 70.0345 90.8897 70.0353 90.8807 70.0353ZM98.2297 60.11L91.2459 69.6473L102.456 67.6983C102.127 63.7393 98.9164 60.7148 98.2297 60.11Z" fill="#F9E9CF"/>
<path d="M82.6007 80.6173C82.5642 80.6173 82.528 80.6048 82.4992 80.5813C82.4575 80.5473 78.3147 77.1388 78.015 72.5096C78.0097 72.4276 78.0672 72.3546 78.1482 72.3406L89.895 70.298C89.959 70.2875 90.0247 70.3161 90.059 70.3718C90.0937 70.4276 90.0907 70.4988 90.052 70.5518L82.7302 80.5513C82.7045 80.5868 82.665 80.6101 82.6215 80.6158C82.6147 80.6171 82.6077 80.6173 82.6007 80.6173ZM78.3465 72.6331C78.6755 76.5921 81.8865 79.6168 82.5732 80.2213L89.557 70.684L78.3465 72.6331Z" fill="#F9E9CF"/>
<path d="M98.6948 79.6075C98.6496 79.6075 98.6048 79.5883 98.5731 79.5518L90.7763 70.5315C90.7336 70.4818 90.7251 70.411 90.7551 70.3528C90.7851 70.2945 90.8431 70.2623 90.9131 70.266L103.255 71.3973C103.299 71.4013 103.339 71.423 103.366 71.4575C103.394 71.492 103.406 71.5363 103.399 71.58C103.392 71.6333 102.601 76.939 98.7866 79.5788C98.7583 79.598 98.7266 79.6075 98.6948 79.6075ZM91.2804 70.623L98.7213 79.231C101.949 76.91 102.888 72.6015 103.052 71.702L91.2804 70.623Z" fill="#F9E9CF"/>
<path d="M89.905 70.066C89.9002 70.066 89.8955 70.0658 89.8902 70.0653L77.5485 68.9343C77.5045 68.9303 77.4645 68.9085 77.437 68.874C77.4095 68.8395 77.3977 68.7953 77.404 68.7515C77.4115 68.6983 78.202 63.3923 82.0167 60.7525C82.0842 60.7053 82.1755 60.7175 82.23 60.7795L90.0267 69.7998C90.0695 69.8495 90.078 69.9203 90.048 69.9785C90.0202 70.0325 89.965 70.066 89.905 70.066ZM77.751 68.6298L89.5227 69.7085L82.0817 61.1005C78.8565 63.4195 77.9157 67.7295 77.751 68.6298Z" fill="#F9E9CF"/>
<path d="M102.372 76C102.221 75.849 102.076 75.698 101.925 75.5468C100.463 74.0665 99.0069 72.5803 97.6111 71.0395C97.1641 70.55 96.7229 70.0485 96.2939 69.5473C96.1429 69.372 95.9919 69.1908 95.8406 69.0095C95.0794 68.1033 94.3301 67.1548 93.5809 66.188C93.2244 65.7288 92.8679 65.2635 92.5114 64.7923C90.6926 62.4178 88.8681 59.9888 86.9286 57.7835C86.6689 57.4935 86.4091 57.2035 86.1554 56.9195C85.7084 56.436 85.2551 55.971 84.7959 55.5238C85.9136 55.119 87.0859 54.841 88.3064 54.708C88.8621 55.2458 89.4121 55.7955 89.9499 56.3575C90.3004 56.726 90.6507 57.0948 90.9892 57.4693C92.0767 58.6475 93.1219 59.8618 94.1069 61.1185C94.6689 61.8193 95.2067 62.5323 95.7262 63.2573C96.9287 64.9248 98.0401 66.6588 99.0251 68.4595C99.5509 69.39 100.034 70.3385 100.487 71.3053C101.08 72.574 101.617 73.873 102.088 75.2023C102.191 75.4683 102.281 75.7343 102.372 76Z" fill="#380E0E"/>
<path d="M107.185 90.1391C107.185 90.1391 107.059 90.1846 106.82 90.2811C105.213 90.8946 98.3842 93.3636 87.5802 95.4676C69.6934 98.9506 40.9064 101.43 6.81641 92.8161C6.81641 92.8161 6.87716 91.0466 7.33866 88.2023C7.94191 84.5166 9.20941 79.0308 11.8712 73.2563C11.9219 73.1398 11.9777 73.0281 12.0334 72.9116C13.1692 70.4881 14.5582 68.0191 16.2414 65.6161C16.2719 65.5706 16.3022 65.5299 16.3327 65.4893C18.6952 62.1431 21.6459 58.9238 25.3317 56.1353C25.3519 56.1201 25.3722 56.1048 25.3924 56.0898C26.0514 55.5878 26.7309 55.1064 27.4407 54.6399C28.0287 54.2496 28.6322 53.8693 29.2507 53.5093C30.9389 52.5056 32.7592 51.5929 34.7109 50.7919C34.9797 50.6804 35.2534 50.5689 35.5322 50.4674C35.7857 50.3609 36.0392 50.2646 36.2977 50.1733C36.9364 49.9351 37.5904 49.7118 38.2597 49.4991C39.1519 49.2101 40.0697 48.9463 41.0127 48.7081C42.4119 48.3481 43.8722 48.0389 45.3932 47.7854C45.8494 47.7094 46.3109 47.6333 46.7824 47.5673C46.7924 47.5673 46.8077 47.5673 46.8229 47.5623C47.7102 47.4356 48.6227 47.3291 49.5507 47.2428C50.3314 47.1668 51.1324 47.1058 51.9437 47.0603C53.2467 46.9843 54.5902 46.9438 55.9742 46.9438C59.3609 46.9438 62.5194 47.1618 65.4752 47.5673C71.1889 48.3583 76.1219 49.8489 80.3859 51.8161C82.5052 52.7946 84.4622 53.8896 86.2619 55.0811C86.4902 55.2231 86.7132 55.3751 86.9362 55.5273C87.3874 55.8416 87.8334 56.1561 88.2644 56.4806C88.7004 56.8001 89.1212 57.1246 89.5369 57.4541C90.9564 58.5998 92.2697 59.7963 93.4712 61.0333C93.6284 61.1906 93.7804 61.3528 93.9377 61.5098C94.5207 62.1333 95.0834 62.7621 95.6209 63.4008C95.9809 63.8216 96.3257 64.2476 96.6602 64.6733C96.7919 64.8356 96.9187 65.0028 97.0404 65.1651C97.0454 65.1651 97.0454 65.1701 97.0507 65.1753C97.8669 66.2451 98.6224 67.3251 99.3119 68.4099C99.6669 68.9574 100.001 69.5048 100.321 70.0526C100.321 70.0576 100.326 70.0576 100.326 70.0576C100.579 70.4936 100.828 70.9296 101.061 71.3606C101.588 72.3238 102.07 73.2771 102.511 74.2098C102.668 74.5443 102.82 74.8741 102.962 75.2036C103.297 75.9488 103.601 76.6789 103.885 77.3988C105.898 82.4991 106.719 86.8036 107.023 88.8519C107.145 89.6776 107.185 90.1391 107.185 90.1391Z" fill="#FCB666"/>
<path opacity="0.3" d="M106.82 90.2807C105.213 90.8942 98.3842 93.3632 87.5802 95.4672C69.6934 98.9502 40.9064 101.429 6.81641 92.8157C6.81641 92.8157 6.87716 91.0462 7.33866 88.202C7.94191 84.5162 9.20941 79.0305 11.8712 73.256C13.0627 73.5347 14.2542 73.8137 15.4454 74.1027C30.1229 77.6262 44.6734 81.6975 59.4319 84.8865C67.9189 86.7217 76.5024 88.263 85.1364 89.2312C88.8374 89.647 92.5537 89.9512 96.2699 90.1337C99.1547 90.2757 102.045 90.3365 104.934 90.3062C105.563 90.3062 106.192 90.296 106.82 90.2807Z" fill="#F7764F"/>
<path opacity="0.3" d="M72.2481 57.755C72.5044 57.6728 72.7334 57.5135 72.7857 57.2485C72.8514 56.9143 72.5744 56.6093 72.2826 56.4333C71.8581 56.1773 70.0136 55.7093 70.1389 56.668C70.1591 56.8223 70.2372 56.9633 70.3299 57.088C70.6634 57.5368 71.2119 57.8175 71.7709 57.8258C71.9161 57.8278 72.0876 57.8065 72.2481 57.755Z" fill="#F7764F"/>
<path opacity="0.3" d="M75.3754 56.4401C75.6319 56.3581 75.8606 56.1986 75.9129 55.9336C75.9786 55.5993 75.7016 55.2943 75.4096 55.1183C74.9851 54.8623 73.1406 54.3943 73.2659 55.3531C73.2861 55.5071 73.3644 55.6481 73.4569 55.7731C73.7904 56.2218 74.3389 56.5026 74.8979 56.5108C75.0436 56.5128 75.2149 56.4916 75.3754 56.4401Z" fill="#F7764F"/>
<path opacity="0.3" d="M71.9027 54.8776C72.1589 54.7956 72.3879 54.6361 72.4399 54.3711C72.5057 54.0368 72.2287 53.7318 71.9369 53.5558C71.5122 53.2998 69.6679 52.8318 69.7932 53.7906C69.8132 53.9448 69.8914 54.0856 69.9842 54.2106C70.3174 54.6593 70.8662 54.9401 71.4252 54.9481C71.5707 54.9501 71.7419 54.9291 71.9027 54.8776Z" fill="#F7764F"/>
<path opacity="0.29" d="M90.093 82.1178C90.2835 81.9276 90.4142 81.6813 90.3392 81.4216C90.245 81.0943 89.859 80.9495 89.5192 80.9263C89.0245 80.8925 87.1702 81.3195 87.72 82.115C87.8085 82.243 87.9425 82.3326 88.082 82.4013C88.5835 82.6478 89.2 82.647 89.7007 82.3985C89.8307 82.334 89.9735 82.2371 90.093 82.1178Z" fill="#F7764F"/>
<path opacity="0.29" d="M92.2727 79.5188C92.4632 79.3286 92.5939 79.0823 92.5192 78.8226C92.4249 78.4953 92.0389 78.3505 91.6989 78.3273C91.2042 78.2935 89.3499 78.7205 89.8997 79.516C89.9882 79.644 90.1219 79.7336 90.2617 79.8023C90.7632 80.0488 91.3794 80.0481 91.8804 79.7998C92.0107 79.7351 92.1534 79.6381 92.2727 79.5188Z" fill="#F7764F"/>
<path opacity="0.29" d="M88.4699 79.7165C88.6604 79.5263 88.7912 79.28 88.7164 79.0203C88.6222 78.693 88.2362 78.5483 87.8962 78.5251C87.4014 78.4913 85.5472 78.9183 86.0969 79.7138C86.1854 79.8418 86.3192 79.9313 86.4587 80.0001C86.9602 80.2468 87.5767 80.2458 88.0774 79.9975C88.2077 79.9328 88.3504 79.8358 88.4699 79.7165Z" fill="#F7764F"/>
<path opacity="0.2" d="M22.6154 87.8768C22.8059 87.6866 22.9367 87.4403 22.8619 87.1806C22.7677 86.8533 22.3817 86.7086 22.0417 86.6856C21.5469 86.6518 19.6927 87.0788 20.2424 87.8741C20.3309 88.0021 20.4647 88.0916 20.6044 88.1603C21.1059 88.4071 21.7224 88.4061 22.2232 88.1578C22.3534 88.0933 22.4962 87.9961 22.6154 87.8768Z" fill="#F7764F"/>
<path opacity="0.2" d="M24.7959 85.2781C24.9864 85.0878 25.1171 84.8416 25.0424 84.5818C24.9481 84.2546 24.5621 84.1098 24.2224 84.0866C23.7276 84.0528 21.8734 84.4798 22.4231 85.2753C22.5116 85.4033 22.6456 85.4928 22.7851 85.5616C23.2866 85.8083 23.9031 85.8073 24.4039 85.5591C24.5339 85.4943 24.6766 85.3971 24.7959 85.2781Z" fill="#F7764F"/>
<path opacity="0.2" d="M20.9924 85.4756C21.1829 85.2853 21.3136 85.0391 21.2389 84.7793C21.1446 84.4521 20.7586 84.3073 20.4186 84.2841C19.9239 84.2503 18.0696 84.6773 18.6194 85.4728C18.7079 85.6008 18.8416 85.6903 18.9814 85.7588C19.4829 86.0056 20.0994 86.0046 20.6001 85.7563C20.7304 85.6921 20.8731 85.5948 20.9924 85.4756Z" fill="#F7764F"/>
<path d="M83.3042 74.2451C83.5284 73.2578 83.7722 72.2298 84.4222 71.4538C84.5782 71.2673 84.7554 71.0993 84.9439 70.9461C85.7389 70.3003 86.7497 69.9253 87.7734 69.8963C88.0157 68.8788 88.8062 67.8531 89.6599 67.2488C90.5137 66.6446 91.5384 66.3103 92.5757 66.1778C93.9959 65.9966 95.5689 66.2366 96.5809 67.2493C97.7902 66.9956 99.1804 66.8403 100.388 67.1001C101.596 67.3598 102.754 68.0793 103.297 69.1896C104.355 67.9921 105.892 67.0406 107.48 66.8581C109.067 66.6756 110.74 67.1691 111.913 68.2546C113.393 67.3041 115.282 67.0456 116.944 67.6246C118.605 68.2036 119.969 69.5761 120.538 71.2406C121.442 71.2796 122.517 71.5783 123.114 72.2576C123.711 72.9368 124.015 73.8646 123.938 74.7656C123.534 74.8783 123.221 75.2033 122.803 75.2033H84.6854C84.2609 75.3178 83.2067 74.6738 83.3042 74.2451Z" fill="#ADA04F"/>
<path d="M90.4451 71.4425C90.8201 72.0088 90.8424 72.6545 90.4949 72.8848C90.1471 73.115 89.5614 72.8428 89.1861 72.2768C88.8111 71.7105 88.7889 71.0648 89.1364 70.8345C89.4841 70.604 90.0701 70.8763 90.4451 71.4425Z" fill="#723E01"/>
<path d="M96.3481 68.346C97.0244 68.2843 97.6034 68.5708 97.6414 68.986C97.6794 69.4013 97.1619 69.788 96.4856 69.85C95.8094 69.9118 95.2301 69.6253 95.1924 69.21C95.1544 68.7948 95.6719 68.4078 96.3481 68.346Z" fill="#723E01"/>
<path d="M100.857 72.8551C101.533 72.7933 102.113 73.0798 102.15 73.4951C102.188 73.9103 101.671 74.297 100.994 74.359C100.318 74.4208 99.7389 74.1343 99.7012 73.719C99.6634 73.3035 100.181 72.9168 100.857 72.8551Z" fill="#723E01"/>
<path d="M106.853 69.3647C107.505 69.5527 107.941 70.03 107.825 70.4305C107.71 70.8312 107.087 71.0037 106.435 70.8157C105.782 70.6277 105.346 70.1505 105.462 69.75C105.577 69.3495 106.2 69.1767 106.853 69.3647Z" fill="#723E01"/>
<path d="M112.343 72.1706C112.976 71.9226 113.612 72.0363 113.764 72.4246C113.916 72.8128 113.527 73.3286 112.895 73.5766C112.263 73.8246 111.627 73.7108 111.474 73.3226C111.322 72.9343 111.711 72.4186 112.343 72.1706Z" fill="#723E01"/>
<path d="M117.621 69.2592C118.136 69.7022 118.333 70.3177 118.061 70.6337C117.789 70.9497 117.151 70.847 116.636 70.404C116.121 69.961 115.925 69.3455 116.197 69.0295C116.469 68.7132 117.107 68.8162 117.621 69.2592Z" fill="#723E01"/>
<path d="M125.216 75.7986C125.246 76.7314 124.618 77.5629 123.71 77.7911L122.98 77.9686L120.541 96.0986C120.41 97.0821 119.568 97.8174 118.574 97.8174H88.9407C87.9875 97.8174 87.1662 97.1381 86.9887 96.2051L84.0685 80.8736L83.592 78.3791L83.1862 78.3131L82.735 78.2371C81.802 78.0799 81.1075 77.2839 81.077 76.3359C81.0465 75.2459 81.8982 74.3384 82.9882 74.2926L84.3925 74.2369L123.121 72.7716C124.222 72.7311 125.144 73.5929 125.18 74.6931L125.216 75.7986Z" fill="#F9E9CF"/>
<path d="M90.4367 97.8174H89.9144C88.7534 92.1189 87.8864 86.3087 87.3489 80.5239C87.2982 80.0272 87.2527 79.5252 87.2119 79.0284L87.7139 78.9827C87.7544 79.4794 87.8002 79.9764 87.8509 80.4732C88.3934 86.2832 89.2654 92.1034 90.4367 97.8174Z" fill="#FFD6C9"/>
<path d="M95.2631 97.8174H94.7461C93.7878 92.4381 93.1643 86.9679 92.8906 81.5024C92.8601 80.9854 92.8398 80.4631 92.8196 79.9459C92.8096 79.6619 92.7993 79.3781 92.7891 79.0941L93.2961 79.0789C93.3063 79.3526 93.3113 79.6214 93.3266 79.8951C93.3518 80.5744 93.3823 81.2539 93.4178 81.9331C93.7066 87.2516 94.3201 92.5801 95.2631 97.8174Z" fill="#FFD6C9"/>
<path d="M100.394 97.8174H99.8867C99.7042 94.1214 99.5824 90.4001 99.5369 86.6839C99.5014 84.1946 99.4964 81.7104 99.5269 79.2361C99.5269 79.0689 99.5319 78.9066 99.5319 78.7394L100.039 78.7444C100.039 78.8914 100.034 79.0384 100.034 79.1854C100.009 81.8014 100.014 84.4329 100.054 87.0691C100.105 90.6586 100.216 94.2531 100.394 97.8174Z" fill="#FFD6C9"/>
<path d="M107.168 97.8174H106.661L106.346 91.5761L105.682 78.5871L105.662 78.1511L106.169 78.1256L106.189 78.5314L106.869 91.9411L107.168 97.8174Z" fill="#FFD6C9"/>
<path d="M113.094 77.7152V77.7202C113.094 77.7454 113.094 77.776 113.089 77.8012C112.998 80.2602 112.932 82.7647 112.866 85.1882C112.775 88.6407 112.679 92.1744 112.506 95.6829C112.476 96.3977 112.435 97.1077 112.395 97.8175H111.888C111.938 97.0012 111.979 96.185 112.014 95.3637C112.182 91.9567 112.273 88.5244 112.359 85.1732C112.425 82.7752 112.491 80.2909 112.582 77.8574C112.582 77.8169 112.582 77.7712 112.587 77.7307V77.7002L113.094 77.7152Z" fill="#FFD6C9"/>
<path d="M119.416 77.6441C118.757 84.3416 118.159 91.1199 117.647 97.8174H117.135C117.657 91.1049 118.255 84.3061 118.914 77.5934L119.416 77.6441Z" fill="#FFD6C9"/>
<path d="M114.002 77.7048L113.089 77.8011L112.582 77.8568L106.189 78.5313L105.682 78.5871L100.034 79.1853L99.5268 79.2358L93.3263 79.8951L92.8193 79.9458L91.197 80.1181L87.8508 80.4731L87.3488 80.5238L84.0685 80.8736L83.592 78.3791L83.1865 78.3133L83.1915 78.2221L88.8343 78.1256L112.587 77.7301L113.094 77.7201L114.002 77.7048Z" fill="#723E01"/>
<path opacity="0.1" d="M115.897 97.8174H88.9407C87.9875 97.8174 87.1662 97.1382 86.9887 96.2052L84.0685 80.8737L83.592 78.3792L83.1862 78.3132L82.735 78.2372C81.802 78.0799 81.1075 77.2839 81.077 76.3359C81.0465 75.2459 81.8982 74.3384 82.9882 74.2927L84.3925 74.2369C85.3912 75.1394 86.4052 76.0317 87.4192 76.9139C87.8907 77.3194 88.3572 77.7252 88.8337 78.1257C89.6145 78.7999 90.4055 79.4592 91.1962 80.1182C91.759 80.5847 92.3217 81.0459 92.8895 81.5022C93.067 81.6492 93.2392 81.7912 93.4167 81.9332C93.9795 82.3844 94.5422 82.8357 95.11 83.2817C96.5702 84.4377 98.0455 85.5732 99.536 86.6837C99.7085 86.8154 99.8807 86.9422 100.053 87.0689C102.121 88.6152 104.22 90.1159 106.345 91.5762C106.517 91.7029 106.689 91.8247 106.867 91.9412C108.312 92.9349 109.777 93.9134 111.247 94.8717C111.501 95.0389 111.759 95.2012 112.013 95.3634C112.175 95.4749 112.342 95.5814 112.505 95.6829C113.626 96.4079 114.757 97.1177 115.897 97.8174Z" fill="#723E01"/>
<path d="M106.035 43.631C106.103 44.327 106.089 45.061 106.013 45.813C106.001 45.9413 105.989 46.074 105.968 46.2028C105.699 48.4015 104.94 50.7163 104.204 52.5818C104.19 52.5785 104.178 52.5795 104.165 52.5763C104.078 52.566 103.995 52.5555 103.908 52.541C102.023 52.2273 100.365 50.8373 99.4063 49.1203C99.1535 48.668 98.941 48.1903 98.7705 47.7048L98.77 47.7005C98.7275 47.5813 98.689 47.4573 98.655 47.3375L98.6545 47.3333C98.2318 45.9873 98.0908 44.5473 98.1078 43.1423C98.1105 43.0455 98.1093 42.9493 98.1163 42.852C98.1148 42.7558 98.122 42.6585 98.1248 42.5618C98.185 41.201 98.3838 39.855 98.7243 38.5495L98.7238 38.5453C98.7445 38.4558 98.77 38.3703 98.7948 38.2805C98.9068 37.8718 99.0276 37.4668 99.1706 37.0685C99.1963 36.9873 99.2223 36.9063 99.2565 36.8243C99.5985 35.8653 100.017 34.9435 100.509 34.0595C100.527 34.0273 100.541 33.9998 100.559 33.9675C100.653 34.0473 100.743 34.123 100.828 34.199C101.439 34.7175 102.01 35.2173 102.541 35.7555C102.604 35.8205 102.666 35.881 102.728 35.9458C103.147 36.384 103.543 36.8548 103.916 37.389C104.625 38.399 105.133 39.5315 105.484 40.717C105.516 40.8238 105.544 40.9313 105.573 41.0428C105.684 41.45 105.774 41.8593 105.851 42.2738L105.852 42.278C105.867 42.382 105.886 42.4858 105.901 42.5853C105.959 42.9358 106.003 43.2828 106.035 43.631Z" fill="#ADA04F"/>
<path d="M103.666 44.9248C103.676 45.0248 103.69 45.12 103.696 45.216C103.794 46.0763 103.863 46.9435 103.896 47.8048C103.907 47.909 103.91 48.0143 103.912 48.1238C103.928 48.561 103.939 48.9945 103.937 49.4333L103.933 49.7713C103.933 50.7145 103.93 51.6798 104.165 52.5768C104.078 52.5665 103.996 52.556 103.908 52.5415C103.759 51.9355 103.71 51.2993 103.701 50.6685C103.695 50.5725 103.694 50.4805 103.697 50.388C103.693 50.1778 103.693 49.9718 103.693 49.7655L103.696 49.4275C103.695 48.4713 103.656 47.514 103.583 46.5595L103.582 46.5553C103.576 46.4593 103.57 46.3545 103.56 46.2588L103.559 46.2545C103.445 44.9088 103.263 43.5643 103.009 42.2348C102.987 42.105 102.961 41.9758 102.93 41.851C102.794 41.1608 102.642 40.4763 102.459 39.794L102.459 39.7898C102.428 39.6565 102.393 39.5278 102.357 39.3905C101.873 37.5718 101.254 35.7863 100.509 34.0598C100.527 34.0275 100.541 34 100.559 33.9678C100.653 34.0475 100.743 34.1233 100.828 34.1993C101.259 35.211 101.641 36.2448 101.985 37.2903C102.024 37.4143 102.067 37.5378 102.106 37.666C102.311 38.3243 102.505 38.992 102.678 39.666L102.678 39.6703C102.686 39.7003 102.692 39.7218 102.7 39.7518C103.053 41.1343 103.336 42.536 103.534 43.9448C103.555 44.0658 103.571 44.1828 103.584 44.3045C103.615 44.5123 103.64 44.7208 103.666 44.9248Z" fill="#380E0E"/>
<path d="M102.7 39.7515C102.702 39.7732 102.691 39.796 102.676 39.815C102.653 39.8432 102.625 39.8587 102.595 39.8612C102.561 39.8642 102.53 39.8537 102.506 39.8292C102.492 39.8172 102.473 39.8012 102.46 39.7937L102.459 39.7895C101.777 39.2115 101.097 38.6505 100.437 38.1102C100.02 37.7727 99.5981 37.427 99.1709 37.0685C99.1966 36.9872 99.2226 36.9062 99.2569 36.8242C99.7036 37.203 100.148 37.5645 100.584 37.9222C101.161 38.3952 101.756 38.8842 102.358 39.3902C102.456 39.4695 102.559 39.5575 102.658 39.641C102.668 39.649 102.673 39.6572 102.678 39.6657C102.682 39.6655 102.682 39.6655 102.678 39.67C102.686 39.7 102.692 39.7215 102.7 39.7515Z" fill="#380E0E"/>
<path d="M103.109 42.2083C103.089 42.2275 103.065 42.2383 103.039 42.2405C103.031 42.2413 103.018 42.2423 103.009 42.2343C102.983 42.232 102.96 42.2208 102.941 42.205C102.176 41.397 101.296 40.6865 100.444 39.9958C99.8724 39.531 99.2874 39.0588 98.7241 38.5495L98.7236 38.5453C98.7444 38.4558 98.7699 38.3703 98.7946 38.2805C99.3689 38.8153 99.9916 39.3193 100.591 39.8035C101.382 40.447 102.201 41.1098 102.93 41.8508C102.992 41.9113 103.054 41.9718 103.112 42.0328C103.16 42.0813 103.16 42.1603 103.109 42.2083Z" fill="#380E0E"/>
<path d="M105.574 41.0428L103.702 44.154C103.673 44.2048 103.648 44.255 103.584 44.3045C103.577 44.314 103.565 44.3238 103.553 44.3335C103.533 44.344 103.512 44.3545 103.495 44.356C103.453 44.3595 103.412 44.341 103.383 44.3043C103.343 44.2463 103.356 44.1705 103.408 44.131C103.452 44.101 103.462 44.078 103.488 44.032C103.498 44.0093 103.509 43.9908 103.523 43.9633L103.534 43.9448L105.484 40.717C105.516 40.8238 105.545 40.931 105.574 41.0428Z" fill="#380E0E"/>
<path d="M102.729 35.9458L102.112 37.6475C102.108 37.6522 102.109 37.661 102.105 37.6655C102.088 37.702 102.051 37.7228 102.013 37.726C101.996 37.7275 101.979 37.7245 101.961 37.7173C101.898 37.6918 101.865 37.62 101.888 37.5568L101.985 37.2897L102.542 35.7552C102.604 35.8202 102.666 35.8808 102.729 35.9458Z" fill="#380E0E"/>
<path d="M105.901 42.5853C105.251 43.3028 104.644 44.0651 104.093 44.8666C104.018 44.9738 103.934 45.0336 103.842 45.0983C103.799 45.1328 103.751 45.1676 103.696 45.2161C103.692 45.2208 103.684 45.2258 103.68 45.2306C103.656 45.2458 103.636 45.2563 103.61 45.2583C103.572 45.2616 103.536 45.2471 103.507 45.2146C103.463 45.1656 103.468 45.0863 103.515 45.0428C103.57 44.9943 103.622 44.9591 103.666 44.9248C103.678 44.9151 103.689 44.9053 103.701 44.8956C103.785 44.8401 103.841 44.7961 103.893 44.7213C104.49 43.8591 105.146 43.0401 105.852 42.2781C105.867 42.3821 105.886 42.4858 105.901 42.5853Z" fill="#380E0E"/>
<path d="M103.714 46.5043C103.696 46.5365 103.664 46.5568 103.625 46.56C103.613 46.561 103.595 46.5583 103.582 46.5593L103.582 46.555C103.573 46.5513 103.56 46.548 103.55 46.54C101.721 45.3575 99.8944 44.1178 98.1164 42.852C98.1149 42.7558 98.1222 42.6585 98.1249 42.5618C99.9032 43.832 101.73 45.076 103.559 46.2543L103.56 46.2585C103.596 46.2818 103.638 46.3088 103.674 46.332C103.734 46.371 103.75 46.444 103.714 46.5043Z" fill="#380E0E"/>
<path d="M106.013 45.8132C106 45.9415 105.989 46.0742 105.968 46.203C105.299 46.8695 104.615 47.5067 103.912 48.1237C103.908 48.124 103.908 48.1285 103.904 48.1287C103.884 48.148 103.864 48.154 103.838 48.1562C103.8 48.1595 103.76 48.1455 103.735 48.1122C103.691 48.0632 103.696 47.984 103.747 47.9402C103.798 47.8965 103.845 47.853 103.896 47.8047C104.619 47.1687 105.33 46.503 106.013 45.8132Z" fill="#380E0E"/>
<path d="M103.881 50.6268C103.863 50.6633 103.827 50.6883 103.789 50.6915C103.763 50.6938 103.742 50.6913 103.719 50.68C103.714 50.676 103.705 50.6725 103.701 50.6683C102.017 49.7718 100.366 48.7758 98.7708 47.705L98.7703 47.7008C98.7278 47.5815 98.6893 47.4575 98.6553 47.3378C100.279 48.4413 101.972 49.4685 103.697 50.388C103.743 50.4148 103.784 50.4378 103.829 50.46C103.888 50.4903 103.913 50.567 103.881 50.6268Z" fill="#380E0E"/>
<path d="M111.025 51.4117C110.509 51.731 110.011 52.131 109.533 52.587C109.452 52.6645 109.367 52.7437 109.289 52.8277C107.917 54.1952 106.725 55.9882 105.831 57.5265C105.84 57.5345 105.846 57.5445 105.856 57.5527C105.909 57.6117 105.96 57.6675 106.016 57.7247C107.233 58.9585 109.071 59.452 110.763 59.2522C111.209 59.2 111.651 59.104 112.076 58.9727L112.079 58.9707C112.184 58.939 112.29 58.9017 112.391 58.8632L112.394 58.8612C113.546 58.4605 114.613 57.8005 115.572 57.0415C115.637 56.988 115.704 56.938 115.767 56.881C115.834 56.8307 115.897 56.774 115.963 56.7205C116.868 55.953 117.69 55.0905 118.408 54.1442L118.412 54.1422C118.462 54.0792 118.508 54.015 118.556 53.9487C118.778 53.6485 118.993 53.3437 119.192 53.0257C119.234 52.9635 119.276 52.9012 119.314 52.832C119.793 52.0685 120.206 51.268 120.554 50.4335C120.566 50.403 120.578 50.3777 120.59 50.347C120.486 50.3195 120.386 50.2932 120.288 50.2705C119.606 50.0917 118.959 49.9332 118.306 49.8237C118.228 49.8117 118.153 49.7977 118.075 49.786C117.551 49.7077 117.016 49.6635 116.45 49.6702C115.377 49.6797 114.328 49.9037 113.325 50.273C113.234 50.3055 113.145 50.3415 113.053 50.3795C112.713 50.5135 112.384 50.664 112.057 50.8267L112.054 50.8287C111.974 50.8727 111.893 50.9135 111.816 50.9555C111.545 51.0992 111.282 51.2505 111.025 51.4117Z" fill="#ADA04F"/>
<path d="M111.392 53.8593C111.317 53.9048 111.244 53.9448 111.175 53.9915C110.531 54.3755 109.897 54.7853 109.285 55.2175C109.208 55.2648 109.134 55.319 109.057 55.375C108.748 55.5958 108.443 55.818 108.142 56.0523L107.911 56.2345C107.261 56.736 106.598 57.2505 105.855 57.5525C105.909 57.6115 105.96 57.6673 106.016 57.7245C106.512 57.5133 106.977 57.2115 107.416 56.8838C107.486 56.837 107.549 56.7888 107.611 56.7373C107.759 56.629 107.901 56.5195 108.043 56.41L108.274 56.228C108.933 55.7208 109.613 55.2415 110.31 54.789L110.313 54.787C110.382 54.7403 110.458 54.6895 110.529 54.646L110.532 54.644C111.52 54.014 112.543 53.4355 113.594 52.918C113.695 52.8655 113.798 52.8163 113.9 52.7725C114.448 52.507 115 52.2568 115.567 52.03L115.57 52.028C115.679 51.9803 115.786 51.9378 115.899 51.8913C117.41 51.2855 118.968 50.7968 120.554 50.4335C120.566 50.403 120.578 50.3778 120.59 50.347C120.485 50.3195 120.386 50.2933 120.288 50.2705C119.362 50.4878 118.447 50.753 117.544 51.0523C117.438 51.0895 117.33 51.1233 117.221 51.1623C116.659 51.359 116.096 51.5698 115.539 51.7993L115.536 51.8013C115.511 51.8118 115.493 51.8183 115.469 51.8288C114.328 52.3003 113.213 52.8345 112.137 53.436C112.042 53.4845 111.953 53.5345 111.862 53.5898C111.703 53.6785 111.546 53.7698 111.392 53.8593Z" fill="#380E0E"/>
<path d="M115.469 51.8295C115.453 51.8395 115.443 51.8593 115.438 51.8805C115.431 51.9125 115.435 51.9418 115.449 51.9653C115.465 51.992 115.489 52.0098 115.518 52.0145C115.534 52.0188 115.555 52.024 115.568 52.0303L115.571 52.0283C116.331 52.2278 117.079 52.435 117.802 52.6388C118.256 52.769 118.718 52.8988 119.192 53.026C119.234 52.9638 119.276 52.9015 119.314 52.8323C118.816 52.7015 118.331 52.563 117.853 52.4293C117.221 52.2523 116.568 52.0695 115.9 51.8915C115.793 51.8608 115.677 51.8305 115.567 51.8015C115.557 51.7988 115.548 51.7993 115.54 51.8C115.538 51.7965 115.538 51.7965 115.537 51.802C115.512 51.8125 115.494 51.819 115.469 51.8295Z" fill="#380E0E"/>
<path d="M113.558 52.83C113.556 52.8547 113.561 52.8787 113.573 52.8987C113.577 52.9055 113.583 52.9155 113.594 52.9182C113.609 52.9365 113.629 52.9472 113.65 52.9527C114.613 53.0925 115.57 53.369 116.498 53.635C117.122 53.8127 117.758 53.9965 118.408 54.1442L118.411 54.1422C118.462 54.0792 118.507 54.015 118.556 53.9487C117.882 53.806 117.204 53.6112 116.552 53.4232C115.689 53.177 114.797 52.9205 113.9 52.7725C113.825 52.7585 113.75 52.7447 113.678 52.734C113.619 52.7245 113.565 52.7667 113.558 52.83Z" fill="#380E0E"/>
<path d="M113.053 50.3799L111.904 53.4232C111.884 53.4717 111.863 53.5169 111.863 53.5902C111.86 53.6009 111.86 53.6147 111.859 53.6287C111.863 53.6494 111.866 53.6702 111.875 53.6834C111.895 53.7169 111.929 53.7372 111.97 53.7394C112.031 53.7387 112.076 53.6882 112.076 53.6289C112.073 53.5802 112.084 53.5604 112.102 53.5172C112.112 53.4972 112.119 53.4792 112.13 53.4542L112.137 53.4362L113.325 50.2732C113.234 50.3062 113.145 50.3422 113.053 50.3799Z" fill="#380E0E"/>
<path d="M118.075 49.7865L117.23 51.1483C117.229 51.1535 117.223 51.1575 117.221 51.1628C117.206 51.1953 117.211 51.2333 117.229 51.2635C117.237 51.277 117.248 51.2882 117.262 51.2977C117.313 51.3307 117.38 51.3175 117.411 51.2663L117.544 51.0527L118.306 49.8242C118.228 49.8125 118.153 49.7985 118.075 49.7865Z" fill="#380E0E"/>
<path d="M111.817 50.956C111.668 51.82 111.465 52.6757 111.206 53.511C111.171 53.6232 111.175 53.7175 111.179 53.82C111.178 53.8705 111.18 53.9247 111.176 53.9912C111.174 53.9965 111.175 54.0052 111.174 54.0105C111.176 54.0365 111.18 54.0572 111.192 54.0772C111.21 54.1075 111.239 54.1262 111.277 54.1307C111.334 54.1372 111.386 54.0917 111.391 54.0337C111.395 53.967 111.392 53.9097 111.392 53.859C111.393 53.845 111.393 53.831 111.394 53.817C111.387 53.725 111.388 53.6602 111.412 53.5817C111.689 52.6807 111.904 51.7577 112.054 50.829C111.975 50.8735 111.893 50.914 111.817 50.956Z" fill="#380E0E"/>
<path d="M110.278 54.6623C110.266 54.6928 110.269 54.7275 110.287 54.7578C110.293 54.7678 110.304 54.7793 110.31 54.7893L110.313 54.7873C110.321 54.792 110.33 54.8 110.34 54.8028C112.127 55.5338 113.951 56.2325 115.767 56.881C115.834 56.8308 115.897 56.774 115.963 56.7205C114.143 56.0738 112.316 55.3773 110.533 54.644L110.529 54.646C110.494 54.631 110.453 54.6148 110.418 54.5998C110.359 54.5763 110.3 54.603 110.278 54.6623Z" fill="#380E0E"/>
<path d="M109.533 52.587C109.452 52.6645 109.367 52.7438 109.289 52.8278C109.185 53.6783 109.109 54.525 109.058 55.3753C109.06 55.3785 109.056 55.3805 109.058 55.384C109.056 55.4088 109.062 55.4275 109.074 55.4475C109.092 55.4775 109.123 55.5 109.159 55.5008C109.216 55.5073 109.268 55.4618 109.272 55.4003C109.275 55.339 109.28 55.281 109.286 55.2178C109.34 54.3428 109.421 53.4608 109.533 52.587Z" fill="#380E0E"/>
<path d="M107.35 56.728C107.334 56.7605 107.336 56.8005 107.354 56.8307C107.366 56.8507 107.379 56.8655 107.399 56.8765C107.404 56.878 107.411 56.8825 107.417 56.884C108.929 57.6587 110.492 58.3567 112.076 58.9727L112.08 58.9707C112.184 58.939 112.29 58.9017 112.391 58.8632C110.768 58.2427 109.161 57.5305 107.612 56.7375C107.569 56.7177 107.532 56.6995 107.492 56.678C107.44 56.65 107.373 56.6722 107.35 56.728Z" fill="#380E0E"/>
<path d="M23.0281 90.9608C23.7678 91.3168 24.4956 91.7778 25.2036 92.3125C25.3246 92.403 25.4503 92.4958 25.5671 92.5955C27.6088 94.2053 29.4686 96.3768 30.8911 98.2525C30.8798 98.2638 30.8731 98.2773 30.8618 98.2885C30.7986 98.3693 30.7378 98.4458 30.6701 98.5245C29.2068 100.224 26.8021 101.04 24.4956 100.956C23.8878 100.934 23.2791 100.856 22.6881 100.731L22.6833 100.729C22.5378 100.698 22.3901 100.662 22.2491 100.623L22.2443 100.62C20.6366 100.224 19.1061 99.4883 17.7068 98.6148C17.6116 98.553 17.5138 98.4958 17.4208 98.4295C17.3233 98.3723 17.2303 98.306 17.1348 98.2443C15.8066 97.3548 14.5776 96.335 13.4753 95.198L13.4706 95.1958C13.3936 95.1205 13.3233 95.0428 13.2483 94.963C12.9066 94.6018 12.5738 94.2335 12.2616 93.8475C12.1958 93.772 12.1303 93.6968 12.0691 93.6123C11.3153 92.6848 10.6461 91.703 10.0586 90.6715C10.0373 90.6338 10.0183 90.6025 9.99707 90.5648C10.1343 90.519 10.2648 90.4755 10.3931 90.4365C11.2856 90.1393 12.1348 89.8713 12.9988 89.6658C13.1021 89.6428 13.2006 89.6173 13.3038 89.5943C13.9986 89.4415 14.7121 89.3308 15.4751 89.2825C16.9206 89.1863 18.3661 89.367 19.7686 89.738C19.8956 89.7705 20.0206 89.8075 20.1501 89.8468C20.6263 89.9838 21.0913 90.143 21.5543 90.318L21.5591 90.3203C21.6726 90.3685 21.7883 90.4123 21.8973 90.4583C22.2838 90.6138 22.6593 90.7805 23.0281 90.9608Z" fill="#ADA04F"/>
<path d="M22.8821 94.126C22.9888 94.1765 23.0931 94.2203 23.1928 94.2733C24.1156 94.6993 25.0271 95.1588 25.9116 95.6498C26.0228 95.7025 26.1298 95.764 26.2411 95.828C26.6893 96.079 27.1306 96.3323 27.5696 96.6015L27.9066 96.811C28.8523 97.3863 29.8191 97.9773 30.8618 98.2885C30.7986 98.3693 30.7378 98.4458 30.6701 98.5245C29.9716 98.3045 29.3036 97.9658 28.6648 97.5913C28.5651 97.5383 28.4721 97.4833 28.3816 97.4238C28.1678 97.3005 27.9611 97.1748 27.7543 97.049L27.4173 96.8395C26.4576 96.2575 25.4733 95.7138 24.4711 95.2058L24.4663 95.2035C24.3666 95.1508 24.2576 95.0935 24.1553 95.0453L24.1506 95.043C22.7311 94.3373 21.2713 93.7013 19.7828 93.1458C19.6393 93.0888 19.4936 93.0363 19.3501 92.9905C18.5746 92.7063 17.7951 92.4423 16.9998 92.2095L16.9951 92.2073C16.8423 92.157 16.6921 92.1135 16.5326 92.0658C14.4126 91.4438 12.2448 90.9763 10.0586 90.6718C10.0373 90.634 10.0183 90.6028 9.99707 90.565C10.1343 90.5193 10.2648 90.4758 10.3931 90.4368C11.6706 90.621 12.9401 90.868 14.1988 91.1595C14.3466 91.1963 14.4968 91.2285 14.6491 91.2675C15.4346 91.4623 16.2226 91.675 17.0041 91.9123L17.0088 91.9145C17.0436 91.9253 17.0688 91.9318 17.1036 91.9428C18.7058 92.4305 20.2843 93.0008 21.8181 93.661C21.9523 93.7135 22.0798 93.7683 22.2096 93.8298C22.4371 93.9263 22.6618 94.0273 22.8821 94.126Z" fill="#380E0E"/>
<path d="M17.1036 91.9427C17.1268 91.9537 17.1433 91.9782 17.1528 92.0047C17.1673 92.0447 17.1656 92.0827 17.1501 92.1142C17.1323 92.15 17.1028 92.175 17.0638 92.184C17.0431 92.191 17.0158 92.2 16.9998 92.209L16.9951 92.2067C15.9996 92.5382 15.0228 92.8787 14.0781 93.212C13.4858 93.4242 12.8818 93.6367 12.2618 93.847C12.1961 93.7715 12.1306 93.6962 12.0693 93.6117C12.7213 93.3945 13.3551 93.1685 13.9796 92.9492C14.8053 92.6592 15.6588 92.36 16.5328 92.065C16.6723 92.0147 16.8233 91.9645 16.9676 91.9165C16.9813 91.912 16.9928 91.9117 17.0043 91.9117C17.0066 91.9072 17.0066 91.9072 17.0091 91.914C17.0436 91.9252 17.0688 91.9317 17.1036 91.9427Z" fill="#380E0E"/>
<path d="M19.818 93.029C19.8255 93.0602 19.8213 93.0915 19.808 93.1185C19.8035 93.1275 19.7968 93.1407 19.7833 93.1455C19.7653 93.1702 19.7403 93.186 19.7128 93.1952C18.4358 93.471 17.1868 93.9207 15.9745 94.3545C15.1603 94.6445 14.33 94.9435 13.476 95.198L13.4713 95.1957C13.3943 95.1205 13.324 95.0427 13.249 94.963C14.1353 94.7127 15.0205 94.3952 15.8713 94.0895C16.999 93.6875 18.1633 93.2697 19.3505 92.9902C19.449 92.965 19.5475 92.9395 19.6438 92.9187C19.7215 92.9002 19.8005 92.9487 19.818 93.029Z" fill="#380E0E"/>
<path d="M20.1505 89.8465L22.1308 93.6205C22.164 93.6805 22.1993 93.736 22.2103 93.8298C22.215 93.843 22.2178 93.861 22.2203 93.8788C22.2185 93.9055 22.2165 93.9325 22.2075 93.9503C22.1853 93.995 22.142 94.0245 22.087 94.0315C22.0043 94.0365 21.9365 93.9768 21.9285 93.901C21.9253 93.8385 21.9088 93.814 21.878 93.7608C21.8615 93.7363 21.8495 93.714 21.8308 93.683L21.819 93.6608L19.7695 89.7378C19.8963 89.7703 20.021 89.8075 20.1505 89.8465Z" fill="#380E0E"/>
<path d="M13.3038 89.5942L14.6353 91.2495C14.6375 91.2562 14.647 91.2605 14.6493 91.2672C14.6753 91.3072 14.6738 91.3565 14.6538 91.3967C14.645 91.4147 14.6313 91.4305 14.6133 91.444C14.5495 91.4915 14.4573 91.481 14.408 91.4187L14.199 91.1592L12.999 89.6657C13.102 89.6427 13.2005 89.6175 13.3038 89.5942Z" fill="#380E0E"/>
<path d="M21.8968 90.4582C22.2206 91.5477 22.6153 92.6209 23.0833 93.6622C23.1453 93.8024 23.1543 93.9229 23.1633 94.0547C23.1713 94.1194 23.1771 94.1887 23.1921 94.2732C23.1946 94.2799 23.1946 94.2909 23.1971 94.2977C23.1976 94.3312 23.1958 94.3579 23.1823 94.3849C23.1623 94.4252 23.1258 94.4524 23.0756 94.4617C22.9998 94.4757 22.9231 94.4227 22.9081 94.3492C22.8928 94.2644 22.8893 94.1907 22.8813 94.1262C22.8788 94.1084 22.8763 94.0904 22.8736 94.0727C22.8693 93.9544 22.8588 93.8719 22.8158 93.7739C22.3143 92.6502 21.8928 91.4924 21.5586 90.3204C21.6723 90.3682 21.7881 90.4119 21.8968 90.4582Z" fill="#380E0E"/>
<path d="M24.4958 95.04C24.517 95.0778 24.5178 95.1225 24.4978 95.1628C24.491 95.1763 24.4775 95.192 24.4708 95.2055L24.466 95.2033C24.457 95.21 24.4455 95.2213 24.4318 95.2258C22.1308 96.3403 19.774 97.4173 17.4208 98.4293C17.3233 98.372 17.2303 98.3058 17.1348 98.244C19.4925 97.234 21.854 96.1593 24.1503 95.0428L24.155 95.045C24.2008 95.0223 24.2533 94.9973 24.2988 94.9748C24.3745 94.9383 24.4578 94.9665 24.4958 95.04Z" fill="#380E0E"/>
<path d="M25.2041 92.3125C25.3251 92.403 25.4509 92.4957 25.5676 92.5955C25.8291 93.672 26.0514 94.7465 26.2416 95.828C26.2394 95.8325 26.2441 95.8347 26.2418 95.8392C26.2493 95.8705 26.2429 95.895 26.2294 95.922C26.2094 95.9622 26.1706 95.994 26.1224 95.9987C26.0466 96.0127 25.9698 95.9598 25.9571 95.8818C25.9443 95.8038 25.9293 95.7303 25.9118 95.65C25.7143 94.537 25.4799 93.4178 25.2041 92.3125Z" fill="#380E0E"/>
<path d="M28.7328 97.385C28.7588 97.425 28.762 97.4762 28.7418 97.5167C28.7285 97.5435 28.7125 97.5638 28.6875 97.5798C28.6805 97.582 28.6715 97.5888 28.6648 97.591C26.7393 98.7338 24.734 99.7833 22.688 100.731L22.6833 100.728C22.5378 100.698 22.39 100.661 22.249 100.622C24.3455 99.6658 26.4078 98.5933 28.3813 97.4235C28.436 97.394 28.4838 97.367 28.534 97.3353C28.6003 97.2945 28.6925 97.316 28.7328 97.385Z" fill="#380E0E"/>
<path d="M33.8535 89.539C33.6702 90.2268 33.5672 90.9695 33.5265 91.7438C33.519 91.8758 33.5102 92.0118 33.5115 92.1463C33.4415 94.4188 33.8682 96.9095 34.3437 98.9428C34.3582 98.9423 34.3715 98.946 34.3857 98.9453C34.4787 98.9528 34.5672 98.9593 34.6612 98.9628C36.694 99.036 38.661 97.9768 39.9447 96.4435C40.2832 96.0398 40.5832 95.602 40.8405 95.1475L40.8417 95.1433C40.9055 95.0318 40.966 94.9148 41.0207 94.801L41.022 94.7968C41.6827 93.527 42.062 92.1043 42.2695 90.6838C42.282 90.5855 42.299 90.4888 42.3072 90.3893C42.3242 90.2925 42.3322 90.193 42.345 90.0948C42.5 88.7105 42.5067 87.3123 42.3582 85.9255L42.3595 85.9213C42.352 85.8268 42.339 85.7353 42.3272 85.6395C42.275 85.2043 42.213 84.771 42.1265 84.34C42.1122 84.2528 42.0982 84.1658 42.0752 84.076C41.8692 83.0385 41.5767 82.0225 41.2017 81.0298C41.188 80.9935 41.1772 80.9628 41.1635 80.9265C41.0517 80.9875 40.9457 81.0455 40.844 81.1045C40.118 81.501 39.4375 81.887 38.7917 82.3198C38.7157 82.3723 38.6407 82.4205 38.5645 82.473C38.054 82.8285 37.5617 83.2213 37.084 83.6828C36.1757 84.5548 35.4597 85.5918 34.9012 86.7145C34.85 86.8155 34.803 86.9178 34.7547 87.0245C34.5727 87.4123 34.4127 87.8063 34.265 88.2083L34.2637 88.2125C34.2312 88.3143 34.1942 88.4148 34.1627 88.5123C34.0455 88.8538 33.943 89.1945 33.8535 89.539Z" fill="#ADA04F"/>
<path d="M36.1382 91.3328C36.1112 91.4315 36.081 91.5245 36.0597 91.6203C35.8187 92.4675 35.6072 93.3275 35.4337 94.189C35.4055 94.292 35.3862 94.3975 35.3657 94.5073C35.2792 94.945 35.1985 95.3798 35.1297 95.8225L35.0792 96.164C34.9285 97.115 34.7765 98.089 34.3857 98.9448C34.4787 98.9523 34.5672 98.9588 34.6612 98.9623C34.9147 98.382 35.0685 97.7505 35.18 97.1165C35.2015 97.0208 35.2172 96.9283 35.2285 96.8345C35.267 96.6235 35.3002 96.4158 35.3332 96.2078L35.3837 95.8663C35.538 94.9023 35.733 93.9453 35.9635 92.9978L35.9645 92.9935C35.986 92.8978 36.0097 92.7938 36.0355 92.6993L36.0365 92.695C36.3725 91.3615 36.78 90.0438 37.2605 88.7558C37.3045 88.6295 37.353 88.5045 37.4045 88.385C37.6582 87.717 37.9287 87.0583 38.2297 86.4083L38.231 86.404C38.285 86.276 38.3422 86.1535 38.4017 86.0223C39.2035 84.2885 40.1405 82.616 41.2015 81.0293C41.1877 80.993 41.177 80.9623 41.1632 80.926C41.0515 80.987 40.9455 81.045 40.8437 81.104C40.2282 82.0353 39.6607 82.9985 39.1307 83.9815C39.0702 84.0985 39.0052 84.2143 38.9437 84.3355C38.622 84.9568 38.311 85.59 38.021 86.234L38.0197 86.2383C38.0072 86.267 37.997 86.2873 37.9842 86.316C37.3902 87.637 36.868 88.9918 36.434 90.3715C36.3922 90.4893 36.3562 90.6038 36.3235 90.724C36.2585 90.9278 36.1977 91.1325 36.1382 91.3328Z" fill="#380E0E"/>
<path d="M37.9845 86.3163C37.9785 86.3378 37.986 86.3631 37.999 86.3851C38.0185 86.4183 38.0458 86.4398 38.0768 86.4486C38.112 86.4586 38.1465 86.4543 38.1755 86.4348C38.1923 86.4256 38.2145 86.4136 38.2303 86.4086L38.2315 86.4043C39.0413 85.9623 39.8465 85.5373 40.628 85.1288C41.1203 84.8746 41.6195 84.613 42.1265 84.34C42.1123 84.2528 42.0983 84.1658 42.0753 84.076C41.5448 84.3658 41.0188 84.6383 40.5028 84.9088C39.8205 85.2666 39.1158 85.6368 38.402 86.0228C38.286 86.0826 38.163 86.1496 38.0458 86.2138C38.0345 86.2198 38.0278 86.2273 38.021 86.2346C38.0165 86.2333 38.0165 86.2333 38.0198 86.2388C38.0073 86.2673 37.997 86.2876 37.9845 86.3163Z" fill="#380E0E"/>
<path d="M37.1595 88.709C37.177 88.7323 37.201 88.7485 37.2275 88.7558C37.2363 88.7583 37.2495 88.762 37.2608 88.756C37.2883 88.7593 37.314 88.7525 37.3363 88.7403C38.2713 88.0838 39.3108 87.5493 40.3178 87.0288C40.9933 86.6783 41.6843 86.3228 42.3583 85.9258L42.3595 85.9215C42.352 85.827 42.339 85.7355 42.3273 85.6398C41.6373 86.0603 40.9015 86.44 40.1938 86.8045C39.258 87.2898 38.29 87.789 37.4048 88.3855C37.3298 88.4338 37.2548 88.482 37.1843 88.5313C37.1263 88.5703 37.114 88.65 37.1595 88.709Z" fill="#380E0E"/>
<path d="M34.7549 87.0245L36.2249 90.5485C36.2471 90.6057 36.2654 90.6615 36.3241 90.7242C36.3306 90.7352 36.3414 90.7475 36.3524 90.76C36.3721 90.7747 36.3919 90.7895 36.4094 90.7945C36.4534 90.807 36.4991 90.7967 36.5361 90.7655C36.5879 90.7152 36.5856 90.6362 36.5376 90.5857C36.4961 90.5462 36.4889 90.521 36.4696 90.4695C36.4624 90.4442 36.4536 90.4235 36.4431 90.3927L36.4346 90.372L34.9014 86.7147C34.8499 86.8157 34.8031 86.918 34.7549 87.0245Z" fill="#380E0E"/>
<path d="M38.5645 82.4731L38.94 84.3163C38.9432 84.3218 38.941 84.3303 38.9442 84.3358C38.957 84.3763 38.992 84.4048 39.0317 84.4158C39.0495 84.4208 39.0682 84.4213 39.0882 84.4178C39.1582 84.4051 39.2047 84.3396 39.1902 84.2708L39.1315 83.9816L38.7922 82.3196C38.7157 82.3723 38.6407 82.4206 38.5645 82.4731Z" fill="#380E0E"/>
<path d="M34.1631 88.5123C34.7316 89.3703 35.2478 90.264 35.6991 91.186C35.7603 91.3095 35.8388 91.3873 35.9251 91.4715C35.9653 91.515 36.0101 91.56 36.0603 91.6205C36.0636 91.626 36.0713 91.6328 36.0746 91.6383C36.0976 91.6585 36.1173 91.6735 36.1436 91.6808C36.1833 91.692 36.2233 91.6848 36.2591 91.6578C36.3128 91.6175 36.3208 91.5365 36.2783 91.483C36.2283 91.4228 36.1791 91.3765 36.1388 91.3328C36.1278 91.3205 36.1171 91.308 36.1061 91.2958C36.0263 91.2225 35.9751 91.1665 35.9321 91.0805C35.4431 90.088 34.8838 89.1265 34.2638 88.2125C34.2316 88.3143 34.1946 88.4148 34.1631 88.5123Z" fill="#380E0E"/>
<path d="M35.8343 92.9155C35.8483 92.9517 35.8788 92.9787 35.9186 92.99C35.9318 92.9937 35.9506 92.9945 35.9638 92.998L35.9648 92.9937C35.9748 92.992 35.9891 92.9915 36.0003 92.9852C38.1141 92.1707 40.2343 91.2982 42.3076 90.389C42.3246 90.2922 42.3326 90.1927 42.3453 90.0945C40.2711 91.0077 38.1496 91.8847 36.0368 92.695L36.0358 92.6992C35.9936 92.715 35.9456 92.734 35.9033 92.7497C35.8343 92.7767 35.8056 92.8472 35.8343 92.9155Z" fill="#380E0E"/>
<path d="M33.5268 91.7438C33.5193 91.8758 33.5106 92.0118 33.5118 92.1463C34.1078 92.9563 34.7251 93.7403 35.3661 94.5075C35.3703 94.5088 35.3693 94.513 35.3736 94.5143C35.3911 94.5378 35.4118 94.5483 35.4383 94.5555C35.4781 94.5668 35.5223 94.5608 35.5538 94.5325C35.6076 94.4923 35.6156 94.4113 35.5686 94.3565C35.5218 94.3018 35.4793 94.2483 35.4338 94.1893C34.7758 93.3985 34.1346 92.5803 33.5268 91.7438Z" fill="#380E0E"/>
<path d="M34.9975 97.0378C35.0103 97.0783 35.044 97.111 35.0838 97.122C35.1103 97.1295 35.1335 97.1315 35.159 97.1248C35.1645 97.1218 35.1745 97.12 35.1803 97.1168C37.0953 96.5605 38.9918 95.8975 40.841 95.1473L40.8423 95.143C40.906 95.0315 40.9665 94.9145 41.0213 94.8008C39.1363 95.578 37.1905 96.264 35.2288 96.8348C35.1765 96.8523 35.1295 96.867 35.0785 96.8803C35.012 96.8985 34.9733 96.9708 34.9975 97.0378Z" fill="#380E0E"/>
<path d="M52.3851 44.1469C52.2389 44.1469 52.1201 44.0284 52.1201 43.8819V34.4676C52.1201 34.3211 52.2389 34.2026 52.3851 34.2026C52.5314 34.2026 52.6501 34.3211 52.6501 34.4676V43.8819C52.6501 44.0284 52.5314 44.1469 52.3851 44.1469Z" fill="white"/>
<path d="M56.6496 39.5201H48.0326C47.8863 39.5201 47.7676 39.4016 47.7676 39.2551C47.7676 39.1086 47.8863 38.9901 48.0326 38.9901H56.6496C56.7958 38.9901 56.9146 39.1086 56.9146 39.2551C56.9146 39.4014 56.7958 39.5201 56.6496 39.5201Z" fill="white"/>
<path d="M50.2094 42.4062C50.1524 42.4062 50.0949 42.3879 50.0462 42.3499C49.9309 42.2599 49.9104 42.0934 50.0004 41.9782L54.3089 36.4577C54.3989 36.3422 54.5647 36.3217 54.6809 36.4117C54.7962 36.5017 54.8167 36.6682 54.7267 36.7834L50.4182 42.3039C50.3659 42.3712 50.2882 42.4062 50.2094 42.4062Z" fill="white"/>
<path d="M55.0281 41.6961C54.9686 41.6961 54.9089 41.6763 54.8596 41.6356L49.4629 37.1918C49.3496 37.0988 49.3336 36.9318 49.4269 36.8188C49.5204 36.7053 49.6884 36.6903 49.7999 36.7828L55.1966 41.2266C55.3099 41.3196 55.3259 41.4866 55.2326 41.5996C55.1806 41.6631 55.1044 41.6961 55.0281 41.6961Z" fill="white"/>
<path d="M65.7611 103.433C65.6149 103.433 65.4961 103.314 65.4961 103.168V93.7533C65.4961 93.6068 65.6149 93.4883 65.7611 93.4883C65.9074 93.4883 66.0261 93.6068 66.0261 93.7533V103.168C66.0261 103.314 65.9074 103.433 65.7611 103.433Z" fill="white"/>
<path d="M70.0251 98.8055H61.4086C61.2623 98.8055 61.1436 98.687 61.1436 98.5405C61.1436 98.394 61.2623 98.2755 61.4086 98.2755H70.0251C70.1713 98.2755 70.2901 98.394 70.2901 98.5405C70.2901 98.6868 70.1713 98.8055 70.0251 98.8055Z" fill="white"/>
<path d="M63.5844 101.692C63.5274 101.692 63.4699 101.674 63.4212 101.636C63.3059 101.546 63.2854 101.379 63.3754 101.264L67.6834 95.7433C67.7739 95.6278 67.9397 95.6073 68.0554 95.6973C68.1707 95.7873 68.1912 95.9538 68.1012 96.0691L63.7932 101.59C63.7412 101.657 63.6632 101.692 63.5844 101.692Z" fill="white"/>
<path d="M68.4041 100.982C68.3446 100.982 68.2848 100.962 68.2356 100.921L62.8388 96.4775C62.7256 96.3845 62.7096 96.2175 62.8028 96.1045C62.8958 95.991 63.0638 95.976 63.1758 96.0685L68.5726 100.512C68.6858 100.605 68.7018 100.772 68.6086 100.885C68.5563 100.949 68.4803 100.982 68.4041 100.982Z" fill="white"/>
<path d="M83.5384 40.9538C83.3922 40.9538 83.2734 40.8353 83.2734 40.6888V31.2743C83.2734 31.1278 83.3922 31.0093 83.5384 31.0093C83.6847 31.0093 83.8034 31.1278 83.8034 31.2743V40.6888C83.8034 40.8353 83.6847 40.9538 83.5384 40.9538Z" fill="white"/>
<path d="M87.8029 36.3268H79.1859C79.0396 36.3268 78.9209 36.2083 78.9209 36.0618C78.9209 35.9153 79.0396 35.7968 79.1859 35.7968H87.8029C87.9491 35.7968 88.0679 35.9153 88.0679 36.0618C88.0676 36.2083 87.9489 36.3268 87.8029 36.3268Z" fill="white"/>
<path d="M81.3618 39.213C81.3048 39.213 81.2473 39.1948 81.1985 39.1568C81.0833 39.0668 81.0628 38.9003 81.1528 38.785L85.4613 33.2648C85.5513 33.1493 85.7175 33.1288 85.8333 33.2188C85.9485 33.3088 85.969 33.4753 85.879 33.5905L81.5705 39.1108C81.5185 39.178 81.4405 39.213 81.3618 39.213Z" fill="white"/>
<path d="M86.1814 38.5027C86.1219 38.5027 86.0622 38.483 86.0129 38.4422L80.6162 33.9985C80.5029 33.9055 80.4869 33.7385 80.5802 33.6255C80.6737 33.512 80.8412 33.497 80.9532 33.5895L86.3499 38.0332C86.4632 38.1262 86.4792 38.2932 86.3859 38.4062C86.3337 38.47 86.2574 38.5027 86.1814 38.5027Z" fill="white"/>
<path d="M107.27 64.5129C107.124 64.5129 107.005 64.3944 107.005 64.2479V54.8334C107.005 54.6869 107.124 54.5684 107.27 54.5684C107.416 54.5684 107.535 54.6869 107.535 54.8334V64.2479C107.535 64.3944 107.416 64.5129 107.27 64.5129Z" fill="white"/>
<path d="M111.534 59.8858H102.917C102.771 59.8858 102.652 59.7673 102.652 59.6208C102.652 59.4743 102.771 59.3558 102.917 59.3558H111.534C111.68 59.3558 111.799 59.4743 111.799 59.6208C111.799 59.7673 111.68 59.8858 111.534 59.8858Z" fill="white"/>
<path d="M105.093 62.7721C105.036 62.7721 104.979 62.7538 104.93 62.7158C104.815 62.6258 104.794 62.4593 104.884 62.3441L109.193 56.8238C109.283 56.7088 109.449 56.6878 109.565 56.7778C109.68 56.8678 109.7 57.0343 109.61 57.1496L105.302 62.6698C105.25 62.7368 105.172 62.7721 105.093 62.7721Z" fill="white"/>
<path d="M109.913 62.0619C109.853 62.0619 109.794 62.0421 109.744 62.0014L104.348 57.5576C104.234 57.4646 104.218 57.2976 104.312 57.1846C104.405 57.0714 104.573 57.0561 104.685 57.1486L110.081 61.5924C110.195 61.6854 110.211 61.8524 110.117 61.9654C110.065 62.0291 109.989 62.0619 109.913 62.0619Z" fill="white"/>
<path d="M10.7904 89.5389C10.6441 89.5389 10.5254 89.4204 10.5254 89.2739V79.8594C10.5254 79.7129 10.6441 79.5944 10.7904 79.5944C10.9366 79.5944 11.0554 79.7129 11.0554 79.8594V89.2739C11.0554 89.4204 10.9366 89.5389 10.7904 89.5389Z" fill="white"/>
<path d="M15.0544 84.9118H6.43785C6.2916 84.9118 6.17285 84.7933 6.17285 84.6468C6.17285 84.5003 6.2916 84.3818 6.43785 84.3818H15.0544C15.2006 84.3818 15.3194 84.5003 15.3194 84.6468C15.3194 84.7933 15.2006 84.9118 15.0544 84.9118Z" fill="white"/>
<path d="M8.6147 87.7982C8.5577 87.7982 8.5002 87.7799 8.45145 87.7419C8.3362 87.6519 8.3157 87.4854 8.4057 87.3702L12.7137 81.8497C12.8042 81.7342 12.9699 81.7142 13.0857 81.8037C13.2009 81.8937 13.2214 82.0602 13.1314 82.1754L8.82345 87.6959C8.7712 87.7632 8.69345 87.7982 8.6147 87.7982Z" fill="white"/>
<path d="M13.4334 87.0878C13.3739 87.0878 13.3141 87.0681 13.2649 87.0273L7.86815 82.5836C7.7549 82.4906 7.7389 82.3236 7.83215 82.2106C7.92565 82.0971 8.09365 82.0821 8.20515 82.1746L13.6019 86.6183C13.7151 86.7113 13.7311 86.8783 13.6379 86.9913C13.5859 87.0551 13.5096 87.0878 13.4334 87.0878Z" fill="white"/>
<path d="M68.4779 29.0781C68.4779 29.8883 67.8212 30.5451 67.0109 30.5451C66.2007 30.5451 65.5439 29.8883 65.5439 29.0781C65.5439 28.2678 66.2007 27.6111 67.0109 27.6111C67.8212 27.6111 68.4779 28.2678 68.4779 29.0781Z" fill="white"/>
<path d="M94.7992 49.7894C94.7992 50.5996 94.1425 51.2564 93.3322 51.2564C92.522 51.2564 91.8652 50.5996 91.8652 49.7894C91.8652 48.9791 92.522 48.3224 93.3322 48.3224C94.1425 48.3221 94.7992 48.9791 94.7992 49.7894Z" fill="white"/>
<path d="M113.439 47.2003C113.439 48.0105 112.782 48.6673 111.972 48.6673C111.162 48.6673 110.505 48.0105 110.505 47.2003C110.505 46.39 111.162 45.7333 111.972 45.7333C112.782 45.7333 113.439 46.39 113.439 47.2003Z" fill="white"/>
<path d="M49.2346 101.136C50.0448 101.136 50.7016 100.479 50.7016 99.6685C50.7016 98.8583 50.0448 98.2015 49.2346 98.2015C48.4244 98.2015 47.7676 98.8583 47.7676 99.6685C47.7676 100.479 48.4244 101.136 49.2346 101.136Z" fill="white"/>
<path d="M81.3363 99.6685C81.3363 100.479 80.6796 101.136 79.8693 101.136C79.0591 101.136 78.4023 100.479 78.4023 99.6685C78.4023 98.8583 79.0591 98.2015 79.8693 98.2015C80.6796 98.2015 81.3363 98.8583 81.3363 99.6685Z" fill="white"/>
</g>
<defs>
<clipPath id="clip0_5_30159">
<rect width="128" height="128" fill="white"/>
</clipPath>
</defs>
</svg>
